<?xml version='1.0' encoding='utf-8'?>
<mlt LC_NUMERIC="en_US.UTF-8" producer="main_bin" version="7.21.0" root="C:/Users/shawn/source/alphaZoo3/alphaZoo/B">
 <profile frame_rate_num="60000" sample_aspect_num="1" display_aspect_den="9" colorspace="709" progressive="1" description="HD 1080p 59.94 fps" display_aspect_num="16" frame_rate_den="1001" width="1920" height="1080" sample_aspect_den="1"/>
 <chain id="chain0" out="00:00:17.050">
  <property name="length">00:00:17.067</property>
  <property name="eof">pause</property>
  <property name="resource">bobJuggle-AvgQualNoFullColorVP9.webm</property>
  <property name="mlt_service">avformat-novalidate</property>
  <property name="meta.media.nb_streams">2</property>
  <property name="meta.media.0.stream.type">video</property>
  <property name="meta.media.0.stream.frame_rate">59.9401</property>
  <property name="meta.media.0.stream.sample_aspect_ratio">1</property>
  <property name="meta.media.0.codec.width">1080</property>
  <property name="meta.media.0.codec.height">1920</property>
  <property name="meta.media.0.codec.rotate">0</property>
  <property name="meta.media.0.codec.pix_fmt">yuv420p</property>
  <property name="meta.media.0.codec.sample_aspect_ratio">0</property>
  <property name="meta.media.0.codec.colorspace">709</property>
  <property name="meta.media.0.codec.color_trc">1</property>
  <property name="meta.media.0.codec.name">vp9</property>
  <property name="meta.media.0.codec.long_name">Google VP9</property>
  <property name="meta.media.0.codec.bit_rate">0</property>
  <property name="meta.attr.0.stream.DURATION.markup">00:00:17.051000000</property>
  <property name="meta.media.1.stream.type">audio</property>
  <property name="meta.media.1.codec.sample_fmt">fltp</property>
  <property name="meta.media.1.codec.sample_rate">48000</property>
  <property name="meta.media.1.codec.channels">2</property>
  <property name="meta.media.1.codec.name">opus</property>
  <property name="meta.media.1.codec.long_name">Opus</property>
  <property name="meta.media.1.codec.bit_rate">0</property>
  <property name="meta.attr.1.stream.DURATION.markup">00:00:17.068000000</property>
  <property name="meta.attr.ENCODER.markup">Lavf60.16.100</property>
  <property name="seekable">1</property>
  <property name="meta.media.sample_aspect_num">1</property>
  <property name="meta.media.sample_aspect_den">1</property>
  <property name="audio_index">1</property>
  <property name="video_index">0</property>
  <property name="vstream">0</property>
  <property name="meta.media.frame_rate_num">60000</property>
  <property name="meta.media.frame_rate_den">1001</property>
  <property name="meta.media.colorspace">709</property>
  <property name="meta.media.color_trc">1</property>
  <property name="meta.media.has_b_frames">0</property>
  <property name="meta.media.width">1080</property>
  <property name="meta.media.height">1920</property>
  <property name="meta.media.color_range">mpeg</property>
  <property name="astream">0</property>
  <property name="meta.media.top_field_first">0</property>
  <property name="meta.media.progressive">1</property>
  <property name="kdenlive:folderid">-1</property>
  <property name="kdenlive:id">4</property>
  <property name="mute_on_pause">0</property>
  <property name="kdenlive:clip_type">0</property>
  <property name="kdenlive:file_size">33601711</property>
  <property name="kdenlive:file_hash">bbb6bb3f9a67d7adfe217fe873e6acc0</property>
  <property name="kdenlive:audio_max1">210</property>
 </chain>
 <chain id="chain7" out="00:00:38.772">
  <property name="length">2325</property>
  <property name="eof">pause</property>
  <property name="resource">bobJuggle-RenderDate-2024Y_11M_17D.webm</property>
  <property name="mlt_service">avformat-novalidate</property>
  <property name="meta.media.nb_streams">2</property>
  <property name="meta.media.0.stream.type">video</property>
  <property name="meta.media.0.stream.frame_rate">59.9401</property>
  <property name="meta.media.0.stream.sample_aspect_ratio">1</property>
  <property name="meta.media.0.codec.width">1080</property>
  <property name="meta.media.0.codec.height">1920</property>
  <property name="meta.media.0.codec.rotate">0</property>
  <property name="meta.media.0.codec.pix_fmt">yuv420p</property>
  <property name="meta.media.0.codec.sample_aspect_ratio">0</property>
  <property name="meta.media.0.codec.colorspace">709</property>
  <property name="meta.media.0.codec.color_trc">1</property>
  <property name="meta.media.0.codec.name">vp9</property>
  <property name="meta.media.0.codec.long_name">Google VP9</property>
  <property name="meta.media.0.codec.bit_rate">0</property>
  <property name="meta.attr.0.stream.DURATION.markup">00:00:38.772000000</property>
  <property name="meta.media.1.stream.type">audio</property>
  <property name="meta.media.1.codec.sample_fmt">fltp</property>
  <property name="meta.media.1.codec.sample_rate">48000</property>
  <property name="meta.media.1.codec.channels">2</property>
  <property name="meta.media.1.codec.name">opus</property>
  <property name="meta.media.1.codec.long_name">Opus</property>
  <property name="meta.media.1.codec.bit_rate">0</property>
  <property name="meta.attr.1.stream.DURATION.markup">00:00:38.788000000</property>
  <property name="meta.attr.ENCODER.markup">Lavf60.16.100</property>
  <property name="seekable">1</property>
  <property name="meta.media.sample_aspect_num">1</property>
  <property name="meta.media.sample_aspect_den">1</property>
  <property name="audio_index">1</property>
  <property name="video_index">0</property>
  <property name="vstream">0</property>
  <property name="meta.media.frame_rate_num">60000</property>
  <property name="meta.media.frame_rate_den">1001</property>
  <property name="meta.media.colorspace">709</property>
  <property name="meta.media.color_trc">1</property>
  <property name="meta.media.has_b_frames">0</property>
  <property name="meta.media.width">1080</property>
  <property name="meta.media.height">1920</property>
  <property name="meta.media.color_range">full</property>
  <property name="astream">0</property>
  <property name="meta.media.top_field_first">0</property>
  <property name="meta.media.progressive">1</property>
  <property name="kdenlive:folderid">-1</property>
  <property name="kdenlive:id">5</property>
  <property name="mute_on_pause">0</property>
  <property name="kdenlive:clip_type">0</property>
  <property name="kdenlive:file_size">49502687</property>
  <property name="kdenlive:file_hash">19d4a46bb611d951cd96e5b69c41aa69</property>
  <property name="kdenlive:audio_max1">254</property>
 </chain>
 <chain id="chain8" out="00:00:02.970">
  <property name="length">179</property>
  <property name="eof">pause</property>
  <property name="resource">bobIsJugglingBalls.wav</property>
  <property name="mlt_service">avformat</property>
  <property name="meta.media.nb_streams">1</property>
  <property name="meta.media.0.stream.type">audio</property>
  <property name="meta.media.0.codec.sample_fmt">flt</property>
  <property name="meta.media.0.codec.sample_rate">48000</property>
  <property name="meta.media.0.codec.channels">2</property>
  <property name="meta.media.0.codec.name">pcm_f32le</property>
  <property name="meta.media.0.codec.long_name">PCM 32-bit floating point little-endian</property>
  <property name="meta.media.0.codec.bit_rate">3072000</property>
  <property name="seekable">1</property>
  <property name="audio_index">0</property>
  <property name="video_index">-1</property>
  <property name="astream">0</property>
  <property name="kdenlive:folderid">-1</property>
  <property name="kdenlive:id">6</property>
  <property name="kdenlive:clip_type">1</property>
  <property name="kdenlive:file_size">1149702</property>
  <property name="kdenlive:file_hash">bdc5be1ea51eae27a89aacd678360e2d</property>
  <property name="kdenlive:audio_max0">176</property>
 </chain>
 <chain id="chain9" out="00:00:03.187">
  <property name="length">192</property>
  <property name="eof">pause</property>
  <property name="resource">bobIsBouningBalls.wav</property>
  <property name="mlt_service">avformat</property>
  <property name="meta.media.nb_streams">1</property>
  <property name="meta.media.0.stream.type">audio</property>
  <property name="meta.media.0.codec.sample_fmt">flt</property>
  <property name="meta.media.0.codec.sample_rate">48000</property>
  <property name="meta.media.0.codec.channels">2</property>
  <property name="meta.media.0.codec.name">pcm_f32le</property>
  <property name="meta.media.0.codec.long_name">PCM 32-bit floating point little-endian</property>
  <property name="meta.media.0.codec.bit_rate">3072000</property>
  <property name="seekable">1</property>
  <property name="audio_index">0</property>
  <property name="video_index">-1</property>
  <property name="astream">0</property>
  <property name="kdenlive:folderid">-1</property>
  <property name="kdenlive:id">7</property>
  <property name="kdenlive:clip_type">1</property>
  <property name="kdenlive:file_size">1229732</property>
  <property name="kdenlive:file_hash">af4fd02f98927716022cf81a22a2dcce</property>
  <property name="kdenlive:audio_max0">183</property>
 </chain>
 <chain id="chain10" out="00:00:03.704">
  <property name="length">223</property>
  <property name="eof">pause</property>
  <property name="resource">bobGetsBonkedByBat.wav</property>
  <property name="mlt_service">avformat</property>
  <property name="meta.media.nb_streams">1</property>
  <property name="meta.media.0.stream.type">audio</property>
  <property name="meta.media.0.codec.sample_fmt">flt</property>
  <property name="meta.media.0.codec.sample_rate">48000</property>
  <property name="meta.media.0.codec.channels">2</property>
  <property name="meta.media.0.codec.name">pcm_f32le</property>
  <property name="meta.media.0.codec.long_name">PCM 32-bit floating point little-endian</property>
  <property name="meta.media.0.codec.bit_rate">3072000</property>
  <property name="seekable">1</property>
  <property name="audio_index">0</property>
  <property name="video_index">-1</property>
  <property name="astream">0</property>
  <property name="kdenlive:folderid">-1</property>
  <property name="kdenlive:id">8</property>
  <property name="kdenlive:clip_type">1</property>
  <property name="kdenlive:file_size">1428466</property>
  <property name="kdenlive:file_hash">09c3fb3e4fc8ed3de9c801c0f506c8b1</property>
  <property name="kdenlive:audio_max0">190</property>
 </chain>
 <producer id="producer1" in="00:00:00.000" out="00:00:46.129">
  <property name="length">2766</property>
  <property name="eof">pause</property>
  <property name="resource">Gerald-G-Baseball-bat.svg</property>
  <property name="ttl">25</property>
  <property name="aspect_ratio">1</property>
  <property name="meta.media.progressive">1</property>
  <property name="seekable">1</property>
  <property name="format">2</property>
  <property name="meta.media.width">345</property>
  <property name="meta.media.height">371</property>
  <property name="mlt_service">qimage</property>
  <property name="kdenlive:clipname"/>
  <property name="kdenlive:duration">00:00:05;00</property>
  <property name="xml">was here</property>
  <property name="kdenlive:folderid">-1</property>
  <property name="kdenlive:id">9</property>
  <property name="kdenlive:clip_type">2</property>
  <property name="kdenlive:file_size">9035</property>
  <property name="kdenlive:file_hash">79ff937a60913a3e8f1a8a50bf10957e</property>
 </producer>
 <chain id="chain11" out="00:00:03.504">
  <property name="length">211</property>
  <property name="eof">pause</property>
  <property name="resource">bong.wav</property>
  <property name="mlt_service">avformat</property>
  <property name="meta.media.nb_streams">1</property>
  <property name="meta.media.0.stream.type">audio</property>
  <property name="meta.media.0.codec.sample_fmt">flt</property>
  <property name="meta.media.0.codec.sample_rate">48000</property>
  <property name="meta.media.0.codec.channels">2</property>
  <property name="meta.media.0.codec.name">pcm_f32le</property>
  <property name="meta.media.0.codec.long_name">PCM 32-bit floating point little-endian</property>
  <property name="meta.media.0.codec.bit_rate">3072000</property>
  <property name="seekable">1</property>
  <property name="audio_index">0</property>
  <property name="video_index">-1</property>
  <property name="astream">0</property>
  <property name="kdenlive:folderid">-1</property>
  <property name="kdenlive:id">10</property>
  <property name="kdenlive:clip_type">1</property>
  <property name="kdenlive:file_size">1356458</property>
  <property name="kdenlive:file_hash">f2a84eb894faf132416a96169b454dd5</property>
  <property name="kdenlive:audio_max0">253</property>
 </chain>
 <producer id="producer10" in="00:00:00.000" out="00:00:21.021">
  <property name="length">1261</property>
  <property name="eof">pause</property>
  <property name="resource"/>
  <property name="meta.media.progressive">1</property>
  <property name="aspect_ratio">1</property>
  <property name="seekable">1</property>
  <property name="mlt_service">kdenlivetitle</property>
  <property name="kdenlive:duration">00:00:05;00</property>
  <property name="kdenlive:clipname">Big B</property>
  <property name="xmldata">&lt;kdenlivetitle duration="300" LC_NUMERIC="C" width="1920" height="1080" out="299">&#xd;&#xd;&#xd;&#xd;&#xd;&#xd;&#xd;&#xd;
 &lt;item type="QGraphicsTextItem" z-index="0">&#xd;&#xd;&#xd;&#xd;&#xd;&#xd;&#xd;&#xd;
  &lt;position x="53" y="-69">&#xd;&#xd;&#xd;&#xd;&#xd;&#xd;&#xd;&#xd;
   &lt;transform>1,0,0,0,1,0,0,0,1&lt;/transform>&#xd;&#xd;&#xd;&#xd;&#xd;&#xd;&#xd;&#xd;
  &lt;/position>&#xd;&#xd;&#xd;&#xd;&#xd;&#xd;&#xd;&#xd;
  &lt;content line-spacing="0" shadow="0;#64000000;3;3;3" font-underline="0" box-height="664" font-outline-color="0,0,0,255" font="MS Shell Dlg 2" letter-spacing="0" font-pixel-size="550" font-italic="0" typewriter="0;2;1;0;0" alignment="1" font-weight="50" font-outline="14" box-width="324" font-color="255,217,247,255">B&lt;/content>&#xd;&#xd;&#xd;&#xd;&#xd;&#xd;&#xd;&#xd;
 &lt;/item>&#xd;&#xd;&#xd;&#xd;&#xd;&#xd;&#xd;&#xd;
 &lt;startviewport rect="0,0,1920,1080"/>&#xd;&#xd;&#xd;&#xd;&#xd;&#xd;&#xd;&#xd;
 &lt;endviewport rect="0,0,1920,1080"/>&#xd;&#xd;&#xd;&#xd;&#xd;&#xd;&#xd;&#xd;
 &lt;background color="0,0,0,0"/>&#xd;&#xd;&#xd;&#xd;&#xd;&#xd;&#xd;&#xd;
&lt;/kdenlivetitle>&#xd;&#xd;&#xd;&#xd;&#xd;&#xd;&#xd;&#xd;
</property>
  <property name="xml">was here</property>
  <property name="kdenlive:folderid">-1</property>
  <property name="kdenlive:id">11</property>
  <property name="kdenlive:clip_type">2</property>
  <property name="kdenlive:file_hash">8d795f89b376f334246fc83ee2a67be7</property>
  <property name="force_reload">0</property>
  <property name="meta.media.width">1920</property>
  <property name="meta.media.height">1080</property>
 </producer>
 <producer id="producer3" in="00:00:00.000" out="00:00:48.682">
  <property name="length">2919</property>
  <property name="eof">pause</property>
  <property name="resource">b-background.png</property>
  <property name="ttl">25</property>
  <property name="aspect_ratio">1</property>
  <property name="meta.media.progressive">1</property>
  <property name="seekable">1</property>
  <property name="format">1</property>
  <property name="meta.media.width">1920</property>
  <property name="meta.media.height">1080</property>
  <property name="mlt_service">qimage</property>
  <property name="kdenlive:clipname"/>
  <property name="kdenlive:duration">00:00:05;00</property>
  <property name="xml">was here</property>
  <property name="kdenlive:folderid">-1</property>
  <property name="kdenlive:id">12</property>
  <property name="kdenlive:clip_type">2</property>
  <property name="kdenlive:file_size">1124949</property>
  <property name="kdenlive:file_hash">e98bd5122e40cd30acc8ef8ec33a50da</property>
 </producer>
 <producer id="producer14" in="00:00:00.000" out="00:00:24.858">
  <property name="length">1491</property>
  <property name="eof">pause</property>
  <property name="resource"/>
  <property name="meta.media.progressive">1</property>
  <property name="aspect_ratio">1</property>
  <property name="seekable">1</property>
  <property name="mlt_service">kdenlivetitle</property>
  <property name="kdenlive:duration">00:00:05;00</property>
  <property name="kdenlive:clipname">Little B</property>
  <property name="xmldata">&lt;kdenlivetitle duration="300" LC_NUMERIC="C" width="1920" height="1080" out="299">&#xd;&#xd;&#xd;&#xd;&#xd;&#xd;&#xd;&#xd;
 &lt;item type="QGraphicsTextItem" z-index="0">&#xd;&#xd;&#xd;&#xd;&#xd;&#xd;&#xd;&#xd;
  &lt;position x="62" y="443">&#xd;&#xd;&#xd;&#xd;&#xd;&#xd;&#xd;&#xd;
   &lt;transform>1,0,0,0,1,0,0,0,1&lt;/transform>&#xd;&#xd;&#xd;&#xd;&#xd;&#xd;&#xd;&#xd;
  &lt;/position>&#xd;&#xd;&#xd;&#xd;&#xd;&#xd;&#xd;&#xd;
  &lt;content line-spacing="0" shadow="0;#64000000;3;3;3" font-underline="0" box-height="664" font-outline-color="0,0,0,255" font="MS Shell Dlg 2" letter-spacing="0" font-pixel-size="550" font-italic="0" typewriter="0;2;1;0;0" alignment="1" font-weight="50" font-outline="14" box-width="304" font-color="255,217,247,255">b&lt;/content>&#xd;&#xd;&#xd;&#xd;&#xd;&#xd;&#xd;&#xd;
 &lt;/item>&#xd;&#xd;&#xd;&#xd;&#xd;&#xd;&#xd;&#xd;
 &lt;startviewport rect="0,0,1920,1080"/>&#xd;&#xd;&#xd;&#xd;&#xd;&#xd;&#xd;&#xd;
 &lt;endviewport rect="0,0,1920,1080"/>&#xd;&#xd;&#xd;&#xd;&#xd;&#xd;&#xd;&#xd;
 &lt;background color="0,0,0,0"/>&#xd;&#xd;&#xd;&#xd;&#xd;&#xd;&#xd;&#xd;
&lt;/kdenlivetitle>&#xd;&#xd;&#xd;&#xd;&#xd;&#xd;&#xd;&#xd;
</property>
  <property name="xml">was here</property>
  <property name="kdenlive:folderid">-1</property>
  <property name="kdenlive:id">13</property>
  <property name="kdenlive:clip_type">2</property>
  <property name="kdenlive:file_hash">8d795f89b376f334246fc83ee2a67be7</property>
  <property name="force_reload">0</property>
  <property name="meta.media.width">1920</property>
  <property name="meta.media.height">1080</property>
 </producer>
 <chain id="chain28" out="00:04:01.535">
  <property name="length">14478</property>
  <property name="eof">pause</property>
  <property name="resource">storyTimeMine.ogg</property>
  <property name="mlt_service">avformat</property>
  <property name="meta.media.nb_streams">1</property>
  <property name="meta.media.0.stream.type">audio</property>
  <property name="meta.media.0.codec.sample_fmt">fltp</property>
  <property name="meta.media.0.codec.sample_rate">44100</property>
  <property name="meta.media.0.codec.channels">1</property>
  <property name="meta.media.0.codec.name">vorbis</property>
  <property name="meta.media.0.codec.long_name">Vorbis</property>
  <property name="meta.media.0.codec.bit_rate">96000</property>
  <property name="seekable">1</property>
  <property name="audio_index">0</property>
  <property name="video_index">-1</property>
  <property name="astream">0</property>
  <property name="kdenlive:folderid">-1</property>
  <property name="kdenlive:id">14</property>
  <property name="kdenlive:clip_type">1</property>
  <property name="kdenlive:file_size">2641848</property>
  <property name="kdenlive:file_hash">0095a728fe1a077437eb000a3995ad1d</property>
  <property name="kdenlive:audio_max0">250</property>
 </chain>
 <chain id="chain29" out="00:00:09.743">
  <property name="length">585</property>
  <property name="eof">pause</property>
  <property name="resource">b_intro.wav</property>
  <property name="mlt_service">avformat</property>
  <property name="meta.media.nb_streams">1</property>
  <property name="meta.media.0.stream.type">audio</property>
  <property name="meta.media.0.codec.sample_fmt">flt</property>
  <property name="meta.media.0.codec.sample_rate">48000</property>
  <property name="meta.media.0.codec.channels">2</property>
  <property name="meta.media.0.codec.name">pcm_f32le</property>
  <property name="meta.media.0.codec.long_name">PCM 32-bit floating point little-endian</property>
  <property name="meta.media.0.codec.bit_rate">3072000</property>
  <property name="seekable">1</property>
  <property name="audio_index">0</property>
  <property name="video_index">-1</property>
  <property name="astream">0</property>
  <property name="kdenlive:folderid">-1</property>
  <property name="kdenlive:id">15</property>
  <property name="kdenlive:clip_type">1</property>
  <property name="kdenlive:file_size">3750852</property>
  <property name="kdenlive:file_hash">55167e25c44fa00eb0479f9154e741d9</property>
  <property name="kdenlive:audio_max0">185</property>
 </chain>
 <producer id="producer26" in="00:00:00.000" out="00:00:21.021">
  <property name="length">1261</property>
  <property name="eof">pause</property>
  <property name="resource"/>
  <property name="meta.media.progressive">1</property>
  <property name="aspect_ratio">1</property>
  <property name="seekable">1</property>
  <property name="mlt_service">kdenlivetitle</property>
  <property name="kdenlive:duration">00:00:05;00</property>
  <property name="kdenlive:clipname">Double B</property>
  <property name="xmldata">&lt;kdenlivetitle duration="300" LC_NUMERIC="C" width="1920" height="1080" out="299">&#xd;&#xd;&#xd;&#xd;&#xd;&#xd;&#xd;&#xd;
 &lt;item type="QGraphicsTextItem" z-index="0">&#xd;&#xd;&#xd;&#xd;&#xd;&#xd;&#xd;&#xd;
  &lt;position x="334" y="-126">&#xd;&#xd;&#xd;&#xd;&#xd;&#xd;&#xd;&#xd;
   &lt;transform>1,0,0,0,1,0,0,0,1&lt;/transform>&#xd;&#xd;&#xd;&#xd;&#xd;&#xd;&#xd;&#xd;
  &lt;/position>&#xd;&#xd;&#xd;&#xd;&#xd;&#xd;&#xd;&#xd;
  &lt;content line-spacing="0" shadow="0;#64000000;3;3;3" font-underline="0" box-height="1207" font-outline-color="0,0,0,255" font="MS Shell Dlg 2" letter-spacing="0" font-pixel-size="1000" font-italic="0" typewriter="0;2;1;0;0" alignment="1" font-weight="50" font-outline="14" box-width="1142" font-color="255,217,247,255">Bb&lt;/content>&#xd;&#xd;&#xd;&#xd;&#xd;&#xd;&#xd;&#xd;
 &lt;/item>&#xd;&#xd;&#xd;&#xd;&#xd;&#xd;&#xd;&#xd;
 &lt;startviewport rect="0,0,1920,1080"/>&#xd;&#xd;&#xd;&#xd;&#xd;&#xd;&#xd;&#xd;
 &lt;endviewport rect="0,0,1920,1080"/>&#xd;&#xd;&#xd;&#xd;&#xd;&#xd;&#xd;&#xd;
 &lt;background color="0,0,0,0"/>&#xd;&#xd;&#xd;&#xd;&#xd;&#xd;&#xd;&#xd;
&lt;/kdenlivetitle>&#xd;&#xd;&#xd;&#xd;&#xd;&#xd;&#xd;&#xd;
</property>
  <property name="xml">was here</property>
  <property name="kdenlive:folderid">-1</property>
  <property name="kdenlive:id">16</property>
  <property name="kdenlive:clip_type">2</property>
  <property name="kdenlive:file_hash">483c17407b3df85a36cc66ee908b391f</property>
  <property name="force_reload">0</property>
  <property name="meta.media.width">1920</property>
  <property name="meta.media.height">1080</property>
 </producer>
 <chain id="chain30" out="00:00:04.538">
  <property name="length">273</property>
  <property name="eof">pause</property>
  <property name="resource">b_excited.wav</property>
  <property name="mlt_service">avformat</property>
  <property name="meta.media.nb_streams">1</property>
  <property name="meta.media.0.stream.type">audio</property>
  <property name="meta.media.0.codec.sample_fmt">flt</property>
  <property name="meta.media.0.codec.sample_rate">48000</property>
  <property name="meta.media.0.codec.channels">2</property>
  <property name="meta.media.0.codec.name">pcm_f32le</property>
  <property name="meta.media.0.codec.long_name">PCM 32-bit floating point little-endian</property>
  <property name="meta.media.0.codec.bit_rate">3072000</property>
  <property name="seekable">1</property>
  <property name="audio_index">0</property>
  <property name="video_index">-1</property>
  <property name="astream">0</property>
  <property name="kdenlive:folderid">-1</property>
  <property name="kdenlive:id">17</property>
  <property name="kdenlive:clip_type">1</property>
  <property name="kdenlive:file_size">1754276</property>
  <property name="kdenlive:file_hash">b03f4d89e808719e0676cbcc42fb9e82</property>
  <property name="kdenlive:audio_max0">186</property>
 </chain>
 <producer id="producer15" in="00:00:00.000" out="00:00:15.449">
  <property name="length">927</property>
  <property name="eof">pause</property>
  <property name="resource">boxBack.png</property>
  <property name="ttl">25</property>
  <property name="aspect_ratio">1</property>
  <property name="meta.media.progressive">1</property>
  <property name="seekable">1</property>
  <property name="format">2</property>
  <property name="meta.media.width">600</property>
  <property name="meta.media.height">500</property>
  <property name="mlt_service">qimage</property>
  <property name="kdenlive:clipname"/>
  <property name="kdenlive:duration">00:00:05;00</property>
  <property name="xml">was here</property>
  <property name="kdenlive:folderid">-1</property>
  <property name="kdenlive:id">18</property>
  <property name="kdenlive:clip_type">2</property>
  <property name="kdenlive:file_size">12379</property>
  <property name="kdenlive:file_hash">4b14080ee2321bf024063af8eb1bd17a</property>
 </producer>
 <producer id="producer21" in="00:00:00.000" out="00:00:15.449">
  <property name="length">927</property>
  <property name="eof">pause</property>
  <property name="resource">boxFront.png</property>
  <property name="ttl">25</property>
  <property name="aspect_ratio">1</property>
  <property name="meta.media.progressive">1</property>
  <property name="seekable">1</property>
  <property name="format">2</property>
  <property name="meta.media.width">600</property>
  <property name="meta.media.height">500</property>
  <property name="mlt_service">qimage</property>
  <property name="kdenlive:clipname"/>
  <property name="kdenlive:duration">00:00:05;00</property>
  <property name="xml">was here</property>
  <property name="kdenlive:folderid">-1</property>
  <property name="kdenlive:id">19</property>
  <property name="kdenlive:clip_type">2</property>
  <property name="kdenlive:file_size">23723</property>
  <property name="kdenlive:file_hash">a39d94731f5957cd84b0eee78ea12e28</property>
 </producer>
 <producer id="producer27" in="00:00:00.000" out="00:00:21.021">
  <property name="length">1261</property>
  <property name="eof">pause</property>
  <property name="resource"/>
  <property name="meta.media.progressive">1</property>
  <property name="aspect_ratio">1</property>
  <property name="seekable">1</property>
  <property name="mlt_service">kdenlivetitle</property>
  <property name="kdenlive:duration">00:00:05;00</property>
  <property name="kdenlive:clipname">o</property>
  <property name="xmldata">&lt;kdenlivetitle duration="300" LC_NUMERIC="C" width="1920" height="1080" out="299">&#xd;&#xd;&#xd;&#xd;&#xd;&#xd;&#xd;&#xd;
 &lt;item type="QGraphicsTextItem" z-index="0">&#xd;&#xd;&#xd;&#xd;&#xd;&#xd;&#xd;&#xd;
  &lt;position x="53" y="-69">&#xd;&#xd;&#xd;&#xd;&#xd;&#xd;&#xd;&#xd;
   &lt;transform>1,0,0,0,1,0,0,0,1&lt;/transform>&#xd;&#xd;&#xd;&#xd;&#xd;&#xd;&#xd;&#xd;
  &lt;/position>&#xd;&#xd;&#xd;&#xd;&#xd;&#xd;&#xd;&#xd;
  &lt;content line-spacing="0" shadow="0;#64000000;3;3;3" font-underline="0" box-height="664" font-outline-color="0,0,0,255" font="MS Shell Dlg 2" letter-spacing="0" font-pixel-size="550" font-italic="0" typewriter="0;2;1;0;0" alignment="1" font-weight="50" font-outline="14" box-width="299" font-color="255,217,247,255">o&lt;/content>&#xd;&#xd;&#xd;&#xd;&#xd;&#xd;&#xd;&#xd;
 &lt;/item>&#xd;&#xd;&#xd;&#xd;&#xd;&#xd;&#xd;&#xd;
 &lt;startviewport rect="0,0,1920,1080"/>&#xd;&#xd;&#xd;&#xd;&#xd;&#xd;&#xd;&#xd;
 &lt;endviewport rect="0,0,1920,1080"/>&#xd;&#xd;&#xd;&#xd;&#xd;&#xd;&#xd;&#xd;
 &lt;background color="0,0,0,0"/>&#xd;&#xd;&#xd;&#xd;&#xd;&#xd;&#xd;&#xd;
&lt;/kdenlivetitle>&#xd;&#xd;&#xd;&#xd;&#xd;&#xd;&#xd;&#xd;
</property>
  <property name="xml">was here</property>
  <property name="kdenlive:folderid">-1</property>
  <property name="kdenlive:id">20</property>
  <property name="kdenlive:clip_type">2</property>
  <property name="kdenlive:file_hash">483c17407b3df85a36cc66ee908b391f</property>
  <property name="force_reload">0</property>
  <property name="meta.media.width">1920</property>
  <property name="meta.media.height">1080</property>
 </producer>
 <producer id="producer29" in="00:00:00.000" out="00:00:21.021">
  <property name="length">1261</property>
  <property name="eof">pause</property>
  <property name="resource"/>
  <property name="meta.media.progressive">1</property>
  <property name="aspect_ratio">1</property>
  <property name="seekable">1</property>
  <property name="mlt_service">kdenlivetitle</property>
  <property name="kdenlive:duration">00:00:05;00</property>
  <property name="kdenlive:clipname">x</property>
  <property name="xmldata">&lt;kdenlivetitle duration="300" LC_NUMERIC="C" width="1920" height="1080" out="299">&#xd;&#xd;&#xd;&#xd;&#xd;&#xd;&#xd;&#xd;
 &lt;item type="QGraphicsTextItem" z-index="0">&#xd;&#xd;&#xd;&#xd;&#xd;&#xd;&#xd;&#xd;
  &lt;position x="53" y="-69">&#xd;&#xd;&#xd;&#xd;&#xd;&#xd;&#xd;&#xd;
   &lt;transform>1,0,0,0,1,0,0,0,1&lt;/transform>&#xd;&#xd;&#xd;&#xd;&#xd;&#xd;&#xd;&#xd;
  &lt;/position>&#xd;&#xd;&#xd;&#xd;&#xd;&#xd;&#xd;&#xd;
  &lt;content line-spacing="0" shadow="0;#64000000;3;3;3" font-underline="0" box-height="664" font-outline-color="0,0,0,255" font="MS Shell Dlg 2" letter-spacing="0" font-pixel-size="550" font-italic="0" typewriter="0;2;1;0;0" alignment="1" font-weight="50" font-outline="14" box-width="272" font-color="255,217,247,255">x&lt;/content>&#xd;&#xd;&#xd;&#xd;&#xd;&#xd;&#xd;&#xd;
 &lt;/item>&#xd;&#xd;&#xd;&#xd;&#xd;&#xd;&#xd;&#xd;
 &lt;startviewport rect="0,0,1920,1080"/>&#xd;&#xd;&#xd;&#xd;&#xd;&#xd;&#xd;&#xd;
 &lt;endviewport rect="0,0,1920,1080"/>&#xd;&#xd;&#xd;&#xd;&#xd;&#xd;&#xd;&#xd;
 &lt;background color="0,0,0,0"/>&#xd;&#xd;&#xd;&#xd;&#xd;&#xd;&#xd;&#xd;
&lt;/kdenlivetitle>&#xd;&#xd;&#xd;&#xd;&#xd;&#xd;&#xd;&#xd;
</property>
  <property name="xml">was here</property>
  <property name="kdenlive:folderid">-1</property>
  <property name="kdenlive:id">21</property>
  <property name="kdenlive:clip_type">2</property>
  <property name="kdenlive:file_hash">ac1eecd0fa4d6037c93d022823dcfb7e</property>
  <property name="force_reload">0</property>
  <property name="meta.media.width">1920</property>
  <property name="meta.media.height">1080</property>
 </producer>
 <chain id="chain31" out="00:00:07.541">
  <property name="length">453</property>
  <property name="eof">pause</property>
  <property name="resource">b_box.wav</property>
  <property name="mlt_service">avformat</property>
  <property name="meta.media.nb_streams">1</property>
  <property name="meta.media.0.stream.type">audio</property>
  <property name="meta.media.0.codec.sample_fmt">flt</property>
  <property name="meta.media.0.codec.sample_rate">48000</property>
  <property name="meta.media.0.codec.channels">2</property>
  <property name="meta.media.0.codec.name">pcm_f32le</property>
  <property name="meta.media.0.codec.long_name">PCM 32-bit floating point little-endian</property>
  <property name="meta.media.0.codec.bit_rate">3072000</property>
  <property name="seekable">1</property>
  <property name="audio_index">0</property>
  <property name="video_index">-1</property>
  <property name="astream">0</property>
  <property name="kdenlive:folderid">-1</property>
  <property name="kdenlive:id">22</property>
  <property name="kdenlive:clip_type">1</property>
  <property name="kdenlive:file_size">2904996</property>
  <property name="kdenlive:file_hash">eab68851631cab542620f711c29ecc76</property>
  <property name="kdenlive:audio_max0">197</property>
 </chain>
 <producer id="producer24" in="00:00:00.000" out="00:00:10.878">
  <property name="length">653</property>
  <property name="eof">pause</property>
  <property name="resource">cutOutBox.png</property>
  <property name="ttl">25</property>
  <property name="aspect_ratio">1</property>
  <property name="meta.media.progressive">1</property>
  <property name="seekable">1</property>
  <property name="format">2</property>
  <property name="meta.media.width">2684</property>
  <property name="meta.media.height">2260</property>
  <property name="mlt_service">qimage</property>
  <property name="kdenlive:clipname"/>
  <property name="kdenlive:duration">00:00:05;00</property>
  <property name="xml">was here</property>
  <property name="kdenlive:folderid">-1</property>
  <property name="kdenlive:id">23</property>
  <property name="kdenlive:clip_type">2</property>
  <property name="kdenlive:file_size">3541594</property>
  <property name="kdenlive:file_hash">68eae906af8deaa50462ae94e3205b2a</property>
 </producer>
 <chain id="chain32" out="00:00:03.687">
  <property name="length">222</property>
  <property name="eof">pause</property>
  <property name="resource">ballRoll.webm</property>
  <property name="mlt_service">avformat-novalidate</property>
  <property name="meta.media.nb_streams">2</property>
  <property name="meta.media.0.stream.type">video</property>
  <property name="meta.media.0.stream.frame_rate">120</property>
  <property name="meta.media.0.stream.sample_aspect_ratio">1</property>
  <property name="meta.media.0.codec.width">1920</property>
  <property name="meta.media.0.codec.height">1080</property>
  <property name="meta.media.0.codec.rotate">0</property>
  <property name="meta.media.0.codec.pix_fmt">yuv420p</property>
  <property name="meta.media.0.codec.sample_aspect_ratio">0</property>
  <property name="meta.media.0.codec.colorspace">709</property>
  <property name="meta.media.0.codec.color_trc">1</property>
  <property name="meta.media.0.codec.name">vp9</property>
  <property name="meta.media.0.codec.long_name">Google VP9</property>
  <property name="meta.media.0.codec.bit_rate">0</property>
  <property name="meta.attr.0.stream.DURATION.markup">00:00:03.691000000</property>
  <property name="meta.media.1.stream.type">audio</property>
  <property name="meta.media.1.codec.sample_fmt">fltp</property>
  <property name="meta.media.1.codec.sample_rate">48000</property>
  <property name="meta.media.1.codec.channels">2</property>
  <property name="meta.media.1.codec.name">opus</property>
  <property name="meta.media.1.codec.long_name">Opus</property>
  <property name="meta.media.1.codec.bit_rate">0</property>
  <property name="meta.attr.1.stream.DURATION.markup">00:00:03.708000000</property>
  <property name="meta.attr.ENCODER.markup">Lavf60.16.100</property>
  <property name="seekable">1</property>
  <property name="meta.media.sample_aspect_num">1</property>
  <property name="meta.media.sample_aspect_den">1</property>
  <property name="audio_index">1</property>
  <property name="video_index">0</property>
  <property name="vstream">0</property>
  <property name="meta.media.frame_rate_num">120</property>
  <property name="meta.media.frame_rate_den">1</property>
  <property name="meta.media.colorspace">709</property>
  <property name="meta.media.color_trc">1</property>
  <property name="meta.media.has_b_frames">0</property>
  <property name="meta.media.width">1920</property>
  <property name="meta.media.height">1080</property>
  <property name="meta.media.color_range">full</property>
  <property name="astream">0</property>
  <property name="meta.media.top_field_first">0</property>
  <property name="meta.media.progressive">1</property>
  <property name="kdenlive:folderid">-1</property>
  <property name="kdenlive:id">24</property>
  <property name="mute_on_pause">0</property>
  <property name="kdenlive:clip_type">0</property>
  <property name="kdenlive:file_size">1992848</property>
  <property name="kdenlive:file_hash">45e3472529ed4d24bfd7c0f66b844666</property>
  <property name="kdenlive:audio_max1">1</property>
 </chain>
 <producer id="producer2" in="00:00:00.000" out="00:01:41.909">
  <property name="length">6109</property>
  <property name="eof">pause</property>
  <property name="resource">ballTitle.png</property>
  <property name="ttl">25</property>
  <property name="aspect_ratio">1</property>
  <property name="meta.media.progressive">1</property>
  <property name="seekable">1</property>
  <property name="format">2</property>
  <property name="meta.media.width">1920</property>
  <property name="meta.media.height">1080</property>
  <property name="mlt_service">qimage</property>
  <property name="kdenlive:clipname"/>
  <property name="kdenlive:duration">00:00:05;00</property>
  <property name="xml">was here</property>
  <property name="kdenlive:folderid">-1</property>
  <property name="kdenlive:id">25</property>
  <property name="kdenlive:clip_type">2</property>
  <property name="kdenlive:file_size">925232</property>
  <property name="kdenlive:file_hash">ec404e21c2bb3102c809e27d563aabd6</property>
 </producer>
 <producer id="producer33" in="00:00:00.000" out="00:00:22.439">
  <property name="length">1346</property>
  <property name="eof">pause</property>
  <property name="resource"/>
  <property name="meta.media.progressive">1</property>
  <property name="aspect_ratio">1</property>
  <property name="seekable">1</property>
  <property name="mlt_service">kdenlivetitle</property>
  <property name="kdenlive:duration">00:00:05;00</property>
  <property name="kdenlive:clipname">Little A</property>
  <property name="xmldata">&lt;kdenlivetitle duration="300" LC_NUMERIC="C" width="1920" height="1080" out="299">&#xd;&#xd;&#xd;&#xd;&#xd;&#xd;&#xd;&#xd;
 &lt;item type="QGraphicsTextItem" z-index="0">&#xd;&#xd;&#xd;&#xd;&#xd;&#xd;&#xd;&#xd;
  &lt;position x="62" y="443">&#xd;&#xd;&#xd;&#xd;&#xd;&#xd;&#xd;&#xd;
   &lt;transform>1,0,0,0,1,0,0,0,1&lt;/transform>&#xd;&#xd;&#xd;&#xd;&#xd;&#xd;&#xd;&#xd;
  &lt;/position>&#xd;&#xd;&#xd;&#xd;&#xd;&#xd;&#xd;&#xd;
  &lt;content line-spacing="0" shadow="0;#64000000;3;3;3" font-underline="0" box-height="664" font-outline-color="0,0,0,255" font="MS Shell Dlg 2" letter-spacing="0" font-pixel-size="550" font-italic="0" typewriter="0;2;1;0;0" alignment="1" font-weight="50" font-outline="14" box-width="289" font-color="255,217,247,255">a&lt;/content>&#xd;&#xd;&#xd;&#xd;&#xd;&#xd;&#xd;&#xd;
 &lt;/item>&#xd;&#xd;&#xd;&#xd;&#xd;&#xd;&#xd;&#xd;
 &lt;startviewport rect="0,0,1920,1080"/>&#xd;&#xd;&#xd;&#xd;&#xd;&#xd;&#xd;&#xd;
 &lt;endviewport rect="0,0,1920,1080"/>&#xd;&#xd;&#xd;&#xd;&#xd;&#xd;&#xd;&#xd;
 &lt;background color="0,0,0,0"/>&#xd;&#xd;&#xd;&#xd;&#xd;&#xd;&#xd;&#xd;
&lt;/kdenlivetitle>&#xd;&#xd;&#xd;&#xd;&#xd;&#xd;&#xd;&#xd;
</property>
  <property name="xml">was here</property>
  <property name="kdenlive:folderid">-1</property>
  <property name="kdenlive:id">26</property>
  <property name="kdenlive:clip_type">2</property>
  <property name="kdenlive:file_hash">53978d77d7d22caf4fe54cf7090940d1</property>
  <property name="force_reload">0</property>
  <property name="meta.media.width">1920</property>
  <property name="meta.media.height">1080</property>
 </producer>
 <producer id="producer36" in="00:00:00.000" out="00:00:15.832">
  <property name="length">950</property>
  <property name="eof">pause</property>
  <property name="resource"/>
  <property name="meta.media.progressive">1</property>
  <property name="aspect_ratio">1</property>
  <property name="seekable">1</property>
  <property name="mlt_service">kdenlivetitle</property>
  <property name="kdenlive:duration">00:00:05;00</property>
  <property name="kdenlive:clipname">ll</property>
  <property name="xmldata">&lt;kdenlivetitle duration="300" LC_NUMERIC="C" width="1920" height="1080" out="299">&#xd;&#xd;&#xd;&#xd;&#xd;&#xd;&#xd;&#xd;
 &lt;item type="QGraphicsTextItem" z-index="0">&#xd;&#xd;&#xd;&#xd;&#xd;&#xd;&#xd;&#xd;
  &lt;position x="62" y="443">&#xd;&#xd;&#xd;&#xd;&#xd;&#xd;&#xd;&#xd;
   &lt;transform>1,0,0,0,1,0,0,0,1&lt;/transform>&#xd;&#xd;&#xd;&#xd;&#xd;&#xd;&#xd;&#xd;
  &lt;/position>&#xd;&#xd;&#xd;&#xd;&#xd;&#xd;&#xd;&#xd;
  &lt;content line-spacing="0" shadow="0;#64000000;3;3;3" font-underline="0" box-height="664" font-outline-color="0,0,0,255" font="MS Shell Dlg 2" letter-spacing="0" font-pixel-size="550" font-italic="0" typewriter="0;2;1;0;0" alignment="1" font-weight="50" font-outline="14" box-width="252" font-color="255,217,247,255">ll&lt;/content>&#xd;&#xd;&#xd;&#xd;&#xd;&#xd;&#xd;&#xd;
 &lt;/item>&#xd;&#xd;&#xd;&#xd;&#xd;&#xd;&#xd;&#xd;
 &lt;startviewport rect="0,0,1920,1080"/>&#xd;&#xd;&#xd;&#xd;&#xd;&#xd;&#xd;&#xd;
 &lt;endviewport rect="0,0,1920,1080"/>&#xd;&#xd;&#xd;&#xd;&#xd;&#xd;&#xd;&#xd;
 &lt;background color="0,0,0,0"/>&#xd;&#xd;&#xd;&#xd;&#xd;&#xd;&#xd;&#xd;
&lt;/kdenlivetitle>&#xd;&#xd;&#xd;&#xd;&#xd;&#xd;&#xd;&#xd;
</property>
  <property name="xml">was here</property>
  <property name="kdenlive:folderid">-1</property>
  <property name="kdenlive:id">27</property>
  <property name="kdenlive:clip_type">2</property>
  <property name="kdenlive:file_hash">6c96c886e3142cfc56be6b5834cebb8a</property>
  <property name="force_reload">0</property>
  <property name="meta.media.width">1920</property>
  <property name="meta.media.height">1080</property>
 </producer>
 <chain id="chain33" out="00:00:05.138">
  <property name="length">309</property>
  <property name="eof">pause</property>
  <property name="resource">all.wav</property>
  <property name="mlt_service">avformat</property>
  <property name="meta.media.nb_streams">1</property>
  <property name="meta.media.0.stream.type">audio</property>
  <property name="meta.media.0.codec.sample_fmt">flt</property>
  <property name="meta.media.0.codec.sample_rate">48000</property>
  <property name="meta.media.0.codec.channels">2</property>
  <property name="meta.media.0.codec.name">pcm_f32le</property>
  <property name="meta.media.0.codec.long_name">PCM 32-bit floating point little-endian</property>
  <property name="meta.media.0.codec.bit_rate">3072000</property>
  <property name="seekable">1</property>
  <property name="audio_index">0</property>
  <property name="video_index">-1</property>
  <property name="astream">0</property>
  <property name="kdenlive:folderid">-1</property>
  <property name="kdenlive:id">28</property>
  <property name="kdenlive:clip_type">1</property>
  <property name="kdenlive:file_size">1981436</property>
  <property name="kdenlive:file_hash">87903c66f2b4aa38903e74b96ba33942</property>
  <property name="kdenlive:audio_max0">198</property>
 </chain>
 <producer id="producer37" in="00:00:00.000" out="00:00:04.988">
  <property name="length">00:00:05.005</property>
  <property name="eof">pause</property>
  <property name="resource">tennisBall.png</property>
  <property name="ttl">25</property>
  <property name="aspect_ratio">1</property>
  <property name="meta.media.progressive">1</property>
  <property name="seekable">1</property>
  <property name="format">2</property>
  <property name="meta.media.width">656</property>
  <property name="meta.media.height">627</property>
  <property name="mlt_service">qimage</property>
  <property name="kdenlive:clipname"/>
  <property name="kdenlive:duration">00:00:05;00</property>
  <property name="xml">was here</property>
  <property name="kdenlive:folderid">-1</property>
  <property name="kdenlive:id">29</property>
  <property name="kdenlive:clip_type">2</property>
  <property name="kdenlive:file_size">257261</property>
  <property name="kdenlive:file_hash">90127461478352fdbbb30a32c543da74</property>
 </producer>
 <producer id="producer38" in="00:00:00.000" out="00:00:04.988">
  <property name="length">00:00:05.005</property>
  <property name="eof">pause</property>
  <property name="resource">blueBall.png</property>
  <property name="ttl">25</property>
  <property name="aspect_ratio">1</property>
  <property name="meta.media.progressive">1</property>
  <property name="seekable">1</property>
  <property name="format">2</property>
  <property name="meta.media.width">800</property>
  <property name="meta.media.height">760</property>
  <property name="mlt_service">qimage</property>
  <property name="kdenlive:clipname"/>
  <property name="kdenlive:duration">00:00:05;00</property>
  <property name="xml">was here</property>
  <property name="kdenlive:folderid">-1</property>
  <property name="kdenlive:id">30</property>
  <property name="kdenlive:clip_type">2</property>
  <property name="kdenlive:file_size">342657</property>
  <property name="kdenlive:file_hash">761b636f5cfe11c03dca4ca4ea45719c</property>
 </producer>
 <producer id="producer39" in="00:00:00.000" out="00:00:15.832">
  <property name="length">950</property>
  <property name="eof">pause</property>
  <property name="resource"/>
  <property name="meta.media.progressive">1</property>
  <property name="aspect_ratio">1</property>
  <property name="seekable">1</property>
  <property name="mlt_service">kdenlivetitle</property>
  <property name="kdenlive:duration">00:00:05;00</property>
  <property name="kdenlive:clipname">Blue</property>
  <property name="xmldata">&lt;kdenlivetitle duration="300" LC_NUMERIC="C" width="1920" height="1080" out="299">&#xd;&#xd;&#xd;&#xd;&#xd;&#xd;&#xd;&#xd;
 &lt;item type="QGraphicsTextItem" z-index="0">&#xd;&#xd;&#xd;&#xd;&#xd;&#xd;&#xd;&#xd;
  &lt;position x="38" y="-30">&#xd;&#xd;&#xd;&#xd;&#xd;&#xd;&#xd;&#xd;
   &lt;transform>1,0,0,0,1,0,0,0,1&lt;/transform>&#xd;&#xd;&#xd;&#xd;&#xd;&#xd;&#xd;&#xd;
  &lt;/position>&#xd;&#xd;&#xd;&#xd;&#xd;&#xd;&#xd;&#xd;
  &lt;content line-spacing="0" shadow="0;#64000000;3;3;3" font-underline="0" box-height="541" font-outline-color="0,0,0,255" font="MS Shell Dlg 2" letter-spacing="0" font-pixel-size="448" font-italic="0" typewriter="0;2;1;0;0" alignment="1" font-weight="50" font-outline="14" box-width="852" font-color="58,153,255,255">Blue&lt;/content>&#xd;&#xd;&#xd;&#xd;&#xd;&#xd;&#xd;&#xd;
 &lt;/item>&#xd;&#xd;&#xd;&#xd;&#xd;&#xd;&#xd;&#xd;
 &lt;startviewport rect="0,0,1920,1080"/>&#xd;&#xd;&#xd;&#xd;&#xd;&#xd;&#xd;&#xd;
 &lt;endviewport rect="0,0,1920,1080"/>&#xd;&#xd;&#xd;&#xd;&#xd;&#xd;&#xd;&#xd;
 &lt;background color="0,0,0,0"/>&#xd;&#xd;&#xd;&#xd;&#xd;&#xd;&#xd;&#xd;
&lt;/kdenlivetitle>&#xd;&#xd;&#xd;&#xd;&#xd;&#xd;&#xd;&#xd;
</property>
  <property name="xml">was here</property>
  <property name="kdenlive:folderid">-1</property>
  <property name="kdenlive:id">31</property>
  <property name="kdenlive:clip_type">2</property>
  <property name="kdenlive:file_hash">4e719efd1f748fe9fba6c88b53937bc2</property>
  <property name="force_reload">0</property>
  <property name="meta.media.width">1920</property>
  <property name="meta.media.height">1080</property>
 </producer>
 <producer id="producer40" in="00:00:00.000" out="00:00:15.832">
  <property name="length">950</property>
  <property name="eof">pause</property>
  <property name="resource"/>
  <property name="meta.media.progressive">1</property>
  <property name="aspect_ratio">1</property>
  <property name="seekable">1</property>
  <property name="mlt_service">kdenlivetitle</property>
  <property name="kdenlive:duration">00:00:05;00</property>
  <property name="kdenlive:clipname">Ball</property>
  <property name="xmldata">&lt;kdenlivetitle duration="300" LC_NUMERIC="C" width="1920" height="1080" out="299">&#xd;&#xd;&#xd;&#xd;&#xd;&#xd;&#xd;&#xd;
 &lt;item type="QGraphicsTextItem" z-index="0">&#xd;&#xd;&#xd;&#xd;&#xd;&#xd;&#xd;&#xd;
  &lt;position x="1101" y="-21">&#xd;&#xd;&#xd;&#xd;&#xd;&#xd;&#xd;&#xd;
   &lt;transform>1,0,0,0,1,0,0,0,1&lt;/transform>&#xd;&#xd;&#xd;&#xd;&#xd;&#xd;&#xd;&#xd;
  &lt;/position>&#xd;&#xd;&#xd;&#xd;&#xd;&#xd;&#xd;&#xd;
  &lt;content line-spacing="0" shadow="0;#64000000;3;3;3" font-underline="0" box-height="541" font-outline-color="0,0,0,255" font="MS Shell Dlg 2" letter-spacing="0" font-pixel-size="448" font-italic="0" typewriter="0;2;1;0;0" alignment="1" font-weight="50" font-outline="14" box-width="687" font-color="58,153,255,255">ball&lt;/content>&#xd;&#xd;&#xd;&#xd;&#xd;&#xd;&#xd;&#xd;
 &lt;/item>&#xd;&#xd;&#xd;&#xd;&#xd;&#xd;&#xd;&#xd;
 &lt;startviewport rect="0,0,1920,1080"/>&#xd;&#xd;&#xd;&#xd;&#xd;&#xd;&#xd;&#xd;
 &lt;endviewport rect="0,0,1920,1080"/>&#xd;&#xd;&#xd;&#xd;&#xd;&#xd;&#xd;&#xd;
 &lt;background color="0,0,0,0"/>&#xd;&#xd;&#xd;&#xd;&#xd;&#xd;&#xd;&#xd;
&lt;/kdenlivetitle>&#xd;&#xd;&#xd;&#xd;&#xd;&#xd;&#xd;&#xd;
</property>
  <property name="xml">was here</property>
  <property name="kdenlive:folderid">-1</property>
  <property name="kdenlive:id">32</property>
  <property name="kdenlive:clip_type">2</property>
  <property name="kdenlive:file_hash">7934464adfad6c09e583862045171fcb</property>
  <property name="force_reload">0</property>
  <property name="meta.media.width">1920</property>
  <property name="meta.media.height">1080</property>
 </producer>
 <chain id="chain34" out="00:00:02.586">
  <property name="length">156</property>
  <property name="eof">pause</property>
  <property name="resource">blueBall.wav</property>
  <property name="mlt_service">avformat</property>
  <property name="meta.media.nb_streams">1</property>
  <property name="meta.media.0.stream.type">audio</property>
  <property name="meta.media.0.codec.sample_fmt">flt</property>
  <property name="meta.media.0.codec.sample_rate">48000</property>
  <property name="meta.media.0.codec.channels">2</property>
  <property name="meta.media.0.codec.name">pcm_f32le</property>
  <property name="meta.media.0.codec.long_name">PCM 32-bit floating point little-endian</property>
  <property name="meta.media.0.codec.bit_rate">3072000</property>
  <property name="seekable">1</property>
  <property name="audio_index">0</property>
  <property name="video_index">-1</property>
  <property name="astream">0</property>
  <property name="kdenlive:folderid">-1</property>
  <property name="kdenlive:id">33</property>
  <property name="kdenlive:clip_type">1</property>
  <property name="kdenlive:file_size">1001084</property>
  <property name="kdenlive:file_hash">92d5ceae6f25ef7dc35bda8b91df3f72</property>
  <property name="kdenlive:audio_max0">179</property>
 </chain>
 <producer id="producer5" in="00:00:00.000" out="00:00:47.664">
  <property name="length">2858</property>
  <property name="eof">pause</property>
  <property name="resource">rainbow.png</property>
  <property name="ttl">25</property>
  <property name="aspect_ratio">1</property>
  <property name="meta.media.progressive">1</property>
  <property name="seekable">1</property>
  <property name="format">2</property>
  <property name="meta.media.width">1920</property>
  <property name="meta.media.height">1080</property>
  <property name="mlt_service">qimage</property>
  <property name="kdenlive:clipname"/>
  <property name="kdenlive:duration">00:00:05;00</property>
  <property name="xml">was here</property>
  <property name="kdenlive:folderid">-1</property>
  <property name="kdenlive:id">34</property>
  <property name="kdenlive:clip_type">2</property>
  <property name="kdenlive:file_size">102601</property>
  <property name="kdenlive:file_hash">aa0cc0700837ab0161649b82ea610a2b</property>
 </producer>
 <producer id="producer6" in="00:00:00.000" out="00:00:39.740">
  <property name="length">2383</property>
  <property name="eof">pause</property>
  <property name="resource">babyBall.png</property>
  <property name="ttl">25</property>
  <property name="aspect_ratio">1</property>
  <property name="meta.media.progressive">1</property>
  <property name="seekable">1</property>
  <property name="format">2</property>
  <property name="meta.media.width">136</property>
  <property name="meta.media.height">134</property>
  <property name="mlt_service">qimage</property>
  <property name="kdenlive:clipname"/>
  <property name="kdenlive:duration">00:00:05;00</property>
  <property name="xml">was here</property>
  <property name="kdenlive:folderid">-1</property>
  <property name="kdenlive:id">35</property>
  <property name="kdenlive:clip_type">2</property>
  <property name="kdenlive:file_size">18291</property>
  <property name="kdenlive:file_hash">9cc4f1b0842e2f35d27d45099a64b201</property>
 </producer>
 <producer id="producer22" in="00:00:00.000" out="00:00:43.110">
  <property name="length">2585</property>
  <property name="eof">pause</property>
  <property name="resource">bigFayettevilleBall.png</property>
  <property name="ttl">25</property>
  <property name="aspect_ratio">1</property>
  <property name="meta.media.progressive">1</property>
  <property name="seekable">1</property>
  <property name="format">2</property>
  <property name="meta.media.width">1449</property>
  <property name="meta.media.height">1494</property>
  <property name="mlt_service">qimage</property>
  <property name="kdenlive:clipname"/>
  <property name="kdenlive:duration">00:00:05;00</property>
  <property name="xml">was here</property>
  <property name="kdenlive:folderid">-1</property>
  <property name="kdenlive:id">36</property>
  <property name="kdenlive:clip_type">2</property>
  <property name="kdenlive:file_size">1269320</property>
  <property name="kdenlive:file_hash">9d679ea84140f08f042aa7bc7e8f6ebc</property>
 </producer>
 <producer id="producer23" in="00:00:00.000" out="00:00:50.334">
  <property name="length">3018</property>
  <property name="eof">pause</property>
  <property name="resource"/>
  <property name="meta.media.progressive">1</property>
  <property name="aspect_ratio">1</property>
  <property name="seekable">1</property>
  <property name="mlt_service">kdenlivetitle</property>
  <property name="kdenlive:duration">00:00:05;00</property>
  <property name="kdenlive:clipname">Huge B  Green</property>
  <property name="xmldata">&lt;kdenlivetitle duration="300" LC_NUMERIC="C" width="1920" height="1080" out="299">&#xd;&#xd;&#xd;&#xd;&#xd;&#xd;&#xd;&#xd;
 &lt;item type="QGraphicsTextItem" z-index="0">&#xd;&#xd;&#xd;&#xd;&#xd;&#xd;&#xd;&#xd;
  &lt;position x="200" y="-199">&#xd;&#xd;&#xd;&#xd;&#xd;&#xd;&#xd;&#xd;
   &lt;transform>1,0,0,0,1,0,0,0,1&lt;/transform>&#xd;&#xd;&#xd;&#xd;&#xd;&#xd;&#xd;&#xd;
  &lt;/position>&#xd;&#xd;&#xd;&#xd;&#xd;&#xd;&#xd;&#xd;
  &lt;content line-spacing="0" shadow="0;#64000000;3;3;3" font-underline="0" box-height="1207" font-outline-color="0,0,0,255" font="MS Shell Dlg 2" letter-spacing="0" font-pixel-size="1000" font-italic="0" typewriter="0;2;1;0;0" alignment="1" font-weight="50" font-outline="34" box-width="589" font-color="161,255,221,255">B&lt;/content>&#xd;&#xd;&#xd;&#xd;&#xd;&#xd;&#xd;&#xd;
 &lt;/item>&#xd;&#xd;&#xd;&#xd;&#xd;&#xd;&#xd;&#xd;
 &lt;startviewport rect="0,0,1920,1080"/>&#xd;&#xd;&#xd;&#xd;&#xd;&#xd;&#xd;&#xd;
 &lt;endviewport rect="0,0,1920,1080"/>&#xd;&#xd;&#xd;&#xd;&#xd;&#xd;&#xd;&#xd;
 &lt;background color="0,0,0,0"/>&#xd;&#xd;&#xd;&#xd;&#xd;&#xd;&#xd;&#xd;
&lt;/kdenlivetitle>&#xd;&#xd;&#xd;&#xd;&#xd;&#xd;&#xd;&#xd;
</property>
  <property name="xml">was here</property>
  <property name="kdenlive:folderid">-1</property>
  <property name="kdenlive:id">37</property>
  <property name="kdenlive:clip_type">2</property>
  <property name="kdenlive:file_hash">483c17407b3df85a36cc66ee908b391f</property>
  <property name="force_reload">0</property>
  <property name="meta.media.width">1920</property>
  <property name="meta.media.height">1080</property>
 </producer>
 <producer id="producer25" in="00:00:00.000" out="00:00:49.366">
  <property name="length">2960</property>
  <property name="eof">pause</property>
  <property name="resource"/>
  <property name="meta.media.progressive">1</property>
  <property name="aspect_ratio">1</property>
  <property name="seekable">1</property>
  <property name="mlt_service">kdenlivetitle</property>
  <property name="kdenlive:duration">00:00:05;00</property>
  <property name="kdenlive:clipname">Huge i Green</property>
  <property name="xmldata">&lt;kdenlivetitle duration="300" LC_NUMERIC="C" width="1920" height="1080" out="299">&#xd;&#xd;&#xd;&#xd;&#xd;&#xd;&#xd;&#xd;
 &lt;item type="QGraphicsTextItem" z-index="0">&#xd;&#xd;&#xd;&#xd;&#xd;&#xd;&#xd;&#xd;
  &lt;position x="852" y="-196">&#xd;&#xd;&#xd;&#xd;&#xd;&#xd;&#xd;&#xd;
   &lt;transform>1,0,0,0,1,0,0,0,1&lt;/transform>&#xd;&#xd;&#xd;&#xd;&#xd;&#xd;&#xd;&#xd;
  &lt;/position>&#xd;&#xd;&#xd;&#xd;&#xd;&#xd;&#xd;&#xd;
  &lt;content line-spacing="0" shadow="0;#64000000;3;3;3" font-underline="0" box-height="1207" font-outline-color="0,0,0,255" font="MS Shell Dlg 2" letter-spacing="0" font-pixel-size="1000" font-italic="0" typewriter="0;2;1;0;0" alignment="1" font-weight="50" font-outline="34" box-width="229" font-color="161,255,221,255">i&lt;/content>&#xd;&#xd;&#xd;&#xd;&#xd;&#xd;&#xd;&#xd;
 &lt;/item>&#xd;&#xd;&#xd;&#xd;&#xd;&#xd;&#xd;&#xd;
 &lt;startviewport rect="0,0,1920,1080"/>&#xd;&#xd;&#xd;&#xd;&#xd;&#xd;&#xd;&#xd;
 &lt;endviewport rect="0,0,1920,1080"/>&#xd;&#xd;&#xd;&#xd;&#xd;&#xd;&#xd;&#xd;
 &lt;background color="0,0,0,0"/>&#xd;&#xd;&#xd;&#xd;&#xd;&#xd;&#xd;&#xd;
&lt;/kdenlivetitle>&#xd;&#xd;&#xd;&#xd;&#xd;&#xd;&#xd;&#xd;
</property>
  <property name="xml">was here</property>
  <property name="kdenlive:folderid">-1</property>
  <property name="kdenlive:id">38</property>
  <property name="kdenlive:clip_type">2</property>
  <property name="kdenlive:file_hash">f45be6d702b3307dbb566a7ddb9eefd7</property>
  <property name="force_reload">0</property>
  <property name="meta.media.width">1920</property>
  <property name="meta.media.height">1080</property>
 </producer>
 <producer id="producer28" in="00:00:00.000" out="00:00:52.386">
  <property name="length">3141</property>
  <property name="eof">pause</property>
  <property name="resource"/>
  <property name="meta.media.progressive">1</property>
  <property name="aspect_ratio">1</property>
  <property name="seekable">1</property>
  <property name="mlt_service">kdenlivetitle</property>
  <property name="kdenlive:duration">00:00:05;00</property>
  <property name="kdenlive:clipname">Huge g Green</property>
  <property name="xmldata">&lt;kdenlivetitle duration="300" LC_NUMERIC="C" width="1920" height="1080" out="299">&#xd;&#xd;&#xd;&#xd;&#xd;&#xd;&#xd;&#xd;
 &lt;item type="QGraphicsTextItem" z-index="0">&#xd;&#xd;&#xd;&#xd;&#xd;&#xd;&#xd;&#xd;
  &lt;position x="1165" y="-182">&#xd;&#xd;&#xd;&#xd;&#xd;&#xd;&#xd;&#xd;
   &lt;transform>1,0,0,0,1,0,0,0,1&lt;/transform>&#xd;&#xd;&#xd;&#xd;&#xd;&#xd;&#xd;&#xd;
  &lt;/position>&#xd;&#xd;&#xd;&#xd;&#xd;&#xd;&#xd;&#xd;
  &lt;content line-spacing="0" shadow="0;#64000000;3;3;3" font-underline="0" box-height="1207" font-outline-color="0,0,0,255" font="MS Shell Dlg 2" letter-spacing="0" font-pixel-size="1000" font-italic="0" typewriter="0;2;1;0;0" alignment="1" font-weight="50" font-outline="34" box-width="553" font-color="161,255,221,255">g&lt;/content>&#xd;&#xd;&#xd;&#xd;&#xd;&#xd;&#xd;&#xd;
 &lt;/item>&#xd;&#xd;&#xd;&#xd;&#xd;&#xd;&#xd;&#xd;
 &lt;startviewport rect="0,0,1920,1080"/>&#xd;&#xd;&#xd;&#xd;&#xd;&#xd;&#xd;&#xd;
 &lt;endviewport rect="0,0,1920,1080"/>&#xd;&#xd;&#xd;&#xd;&#xd;&#xd;&#xd;&#xd;
 &lt;background color="0,0,0,0"/>&#xd;&#xd;&#xd;&#xd;&#xd;&#xd;&#xd;&#xd;
&lt;/kdenlivetitle>&#xd;&#xd;&#xd;&#xd;&#xd;&#xd;&#xd;&#xd;
</property>
  <property name="xml">was here</property>
  <property name="kdenlive:folderid">-1</property>
  <property name="kdenlive:id">39</property>
  <property name="kdenlive:clip_type">2</property>
  <property name="kdenlive:file_hash">0f3394c1683b020649df90ca582d828d</property>
  <property name="force_reload">0</property>
  <property name="meta.media.width">1920</property>
  <property name="meta.media.height">1080</property>
 </producer>
 <chain id="chain35" out="00:00:05.305">
  <property name="length">319</property>
  <property name="eof">pause</property>
  <property name="resource">big.wav</property>
  <property name="mlt_service">avformat</property>
  <property name="meta.media.nb_streams">1</property>
  <property name="meta.media.0.stream.type">audio</property>
  <property name="meta.media.0.codec.sample_fmt">flt</property>
  <property name="meta.media.0.codec.sample_rate">48000</property>
  <property name="meta.media.0.codec.channels">2</property>
  <property name="meta.media.0.codec.name">pcm_f32le</property>
  <property name="meta.media.0.codec.long_name">PCM 32-bit floating point little-endian</property>
  <property name="meta.media.0.codec.bit_rate">3072000</property>
  <property name="seekable">1</property>
  <property name="audio_index">0</property>
  <property name="video_index">-1</property>
  <property name="astream">0</property>
  <property name="kdenlive:folderid">-1</property>
  <property name="kdenlive:id">40</property>
  <property name="kdenlive:clip_type">1</property>
  <property name="kdenlive:file_size">2046892</property>
  <property name="kdenlive:file_hash">c4a867a7fc3f5bc8d086a32be7608855</property>
  <property name="kdenlive:audio_max0">184</property>
 </chain>
 <producer id="producer30" in="00:00:00.000" out="00:00:43.110">
  <property name="length">2585</property>
  <property name="eof">pause</property>
  <property name="resource"/>
  <property name="meta.media.progressive">1</property>
  <property name="aspect_ratio">1</property>
  <property name="seekable">1</property>
  <property name="mlt_service">kdenlivetitle</property>
  <property name="kdenlive:duration">00:00:05;00</property>
  <property name="kdenlive:clipname">ball (Green)</property>
  <property name="xmldata">&lt;kdenlivetitle duration="300" LC_NUMERIC="C" width="1920" height="1080" out="299">&#xd;&#xd;&#xd;&#xd;&#xd;&#xd;&#xd;&#xd;
 &lt;item type="QGraphicsTextItem" z-index="0">&#xd;&#xd;&#xd;&#xd;&#xd;&#xd;&#xd;&#xd;
  &lt;position x="1112" y="636">&#xd;&#xd;&#xd;&#xd;&#xd;&#xd;&#xd;&#xd;
   &lt;transform>1,0,0,0,1,0,0,0,1&lt;/transform>&#xd;&#xd;&#xd;&#xd;&#xd;&#xd;&#xd;&#xd;
  &lt;/position>&#xd;&#xd;&#xd;&#xd;&#xd;&#xd;&#xd;&#xd;
  &lt;content line-spacing="0" shadow="0;#64000000;3;3;3" font-underline="0" box-height="458" font-outline-color="0,0,0,255" font="MS Shell Dlg 2" letter-spacing="0" font-pixel-size="380" font-italic="0" typewriter="0;2;1;0;0" alignment="1" font-weight="50" font-outline="14" box-width="583" font-color="161,255,221,255">ball&lt;/content>&#xd;&#xd;&#xd;&#xd;&#xd;&#xd;&#xd;&#xd;
 &lt;/item>&#xd;&#xd;&#xd;&#xd;&#xd;&#xd;&#xd;&#xd;
 &lt;startviewport rect="0,0,1920,1080"/>&#xd;&#xd;&#xd;&#xd;&#xd;&#xd;&#xd;&#xd;
 &lt;endviewport rect="0,0,1920,1080"/>&#xd;&#xd;&#xd;&#xd;&#xd;&#xd;&#xd;&#xd;
 &lt;background color="0,0,0,0"/>&#xd;&#xd;&#xd;&#xd;&#xd;&#xd;&#xd;&#xd;
&lt;/kdenlivetitle>&#xd;&#xd;&#xd;&#xd;&#xd;&#xd;&#xd;&#xd;
</property>
  <property name="xml">was here</property>
  <property name="kdenlive:folderid">-1</property>
  <property name="kdenlive:id">41</property>
  <property name="kdenlive:clip_type">2</property>
  <property name="kdenlive:file_hash">16b16112c41dba35f83d91c7e8a0e02e</property>
  <property name="force_reload">0</property>
  <property name="meta.media.width">1920</property>
  <property name="meta.media.height">1080</property>
 </producer>
 <chain id="chain36" out="00:00:02.753">
  <property name="length">166</property>
  <property name="eof">pause</property>
  <property name="resource">bigBall.wav</property>
  <property name="mlt_service">avformat</property>
  <property name="meta.media.nb_streams">1</property>
  <property name="meta.media.0.stream.type">audio</property>
  <property name="meta.media.0.codec.sample_fmt">flt</property>
  <property name="meta.media.0.codec.sample_rate">48000</property>
  <property name="meta.media.0.codec.channels">2</property>
  <property name="meta.media.0.codec.name">pcm_f32le</property>
  <property name="meta.media.0.codec.long_name">PCM 32-bit floating point little-endian</property>
  <property name="meta.media.0.codec.bit_rate">3072000</property>
  <property name="seekable">1</property>
  <property name="audio_index">0</property>
  <property name="video_index">-1</property>
  <property name="astream">0</property>
  <property name="kdenlive:folderid">-1</property>
  <property name="kdenlive:id">42</property>
  <property name="kdenlive:clip_type">1</property>
  <property name="kdenlive:file_size">1067668</property>
  <property name="kdenlive:file_hash">96e0cf07d67d3b0d4ba31e40490d2bca</property>
  <property name="kdenlive:audio_max0">176</property>
 </chain>
 <producer id="producer11" in="00:00:00.000" out="00:00:43.110">
  <property name="length">2585</property>
  <property name="eof">pause</property>
  <property name="resource"/>
  <property name="meta.media.progressive">1</property>
  <property name="aspect_ratio">1</property>
  <property name="seekable">1</property>
  <property name="mlt_service">kdenlivetitle</property>
  <property name="kdenlive:duration">00:00:05;00</property>
  <property name="kdenlive:clipname">ball baby orange</property>
  <property name="xmldata">&lt;kdenlivetitle duration="300" LC_NUMERIC="C" width="1920" height="1080" out="299">&#xd;&#xd;&#xd;&#xd;&#xd;&#xd;&#xd;&#xd;
 &lt;item type="QGraphicsTextItem" z-index="0">&#xd;&#xd;&#xd;&#xd;&#xd;&#xd;&#xd;&#xd;
  &lt;position x="232" y="854">&#xd;&#xd;&#xd;&#xd;&#xd;&#xd;&#xd;&#xd;
   &lt;transform>1,0,0,0,1,0,0,0,1&lt;/transform>&#xd;&#xd;&#xd;&#xd;&#xd;&#xd;&#xd;&#xd;
  &lt;/position>&#xd;&#xd;&#xd;&#xd;&#xd;&#xd;&#xd;&#xd;
  &lt;content line-spacing="0" shadow="0;#64000000;3;3;3" font-underline="0" box-height="84" font-outline-color="0,0,0,255" font="MS Shell Dlg 2" letter-spacing="0" font-pixel-size="70" font-italic="0" typewriter="0;2;1;0;0" alignment="1" font-weight="50" font-outline="4" box-width="108" font-color="255,228,190,255">ball&lt;/content>&#xd;&#xd;&#xd;&#xd;&#xd;&#xd;&#xd;&#xd;
 &lt;/item>&#xd;&#xd;&#xd;&#xd;&#xd;&#xd;&#xd;&#xd;
 &lt;startviewport rect="0,0,1920,1080"/>&#xd;&#xd;&#xd;&#xd;&#xd;&#xd;&#xd;&#xd;
 &lt;endviewport rect="0,0,1920,1080"/>&#xd;&#xd;&#xd;&#xd;&#xd;&#xd;&#xd;&#xd;
 &lt;background color="0,0,0,0"/>&#xd;&#xd;&#xd;&#xd;&#xd;&#xd;&#xd;&#xd;
&lt;/kdenlivetitle>&#xd;&#xd;&#xd;&#xd;&#xd;&#xd;&#xd;&#xd;
</property>
  <property name="xml">was here</property>
  <property name="kdenlive:folderid">-1</property>
  <property name="kdenlive:id">43</property>
  <property name="kdenlive:clip_type">2</property>
  <property name="kdenlive:file_hash">0e5603174b26a32f09011bca080e0acd</property>
  <property name="force_reload">0</property>
  <property name="meta.media.width">1920</property>
  <property name="meta.media.height">1080</property>
 </producer>
 <producer id="producer41" in="00:00:00.000" out="00:00:39.740">
  <property name="length">00:00:39.756</property>
  <property name="eof">pause</property>
  <property name="resource">babyBall.png</property>
  <property name="ttl">25</property>
  <property name="aspect_ratio">1</property>
  <property name="meta.media.progressive">1</property>
  <property name="seekable">1</property>
  <property name="format">2</property>
  <property name="meta.media.width">136</property>
  <property name="meta.media.height">134</property>
  <property name="mlt_service">qimage</property>
  <property name="kdenlive:clipname"/>
  <property name="kdenlive:duration">00:00:05.005</property>
  <property name="xml">was here</property>
  <property name="kdenlive:folderid">-1</property>
  <property name="kdenlive:id">44</property>
  <property name="kdenlive:clip_type">2</property>
  <property name="kdenlive:file_size">18291</property>
  <property name="kdenlive:file_hash">9cc4f1b0842e2f35d27d45099a64b201</property>
 </producer>
 <producer id="producer16" in="00:00:00.000" out="00:00:43.110">
  <property name="length">2585</property>
  <property name="eof">pause</property>
  <property name="resource"/>
  <property name="meta.media.progressive">1</property>
  <property name="aspect_ratio">1</property>
  <property name="seekable">1</property>
  <property name="mlt_service">kdenlivetitle</property>
  <property name="kdenlive:duration">00:00:05;00</property>
  <property name="kdenlive:clipname">baby</property>
  <property name="xmldata">&lt;kdenlivetitle duration="300" LC_NUMERIC="C" width="1920" height="1080" out="299">&#xd;&#xd;&#xd;&#xd;&#xd;&#xd;&#xd;&#xd;
 &lt;item type="QGraphicsTextItem" z-index="0">&#xd;&#xd;&#xd;&#xd;&#xd;&#xd;&#xd;&#xd;
  &lt;position x="232" y="786">&#xd;&#xd;&#xd;&#xd;&#xd;&#xd;&#xd;&#xd;
   &lt;transform>1,0,0,0,1,0,0,0,1&lt;/transform>&#xd;&#xd;&#xd;&#xd;&#xd;&#xd;&#xd;&#xd;
  &lt;/position>&#xd;&#xd;&#xd;&#xd;&#xd;&#xd;&#xd;&#xd;
  &lt;content line-spacing="0" shadow="0;#64000000;3;3;3" font-underline="0" box-height="72" font-outline-color="0,0,0,255" font="MS Shell Dlg 2" letter-spacing="0" font-pixel-size="60" font-italic="0" typewriter="0;2;1;0;0" alignment="1" font-weight="50" font-outline="4" box-width="127" font-color="255,228,190,255">baby&lt;/content>&#xd;&#xd;&#xd;&#xd;&#xd;&#xd;&#xd;&#xd;
 &lt;/item>&#xd;&#xd;&#xd;&#xd;&#xd;&#xd;&#xd;&#xd;
 &lt;startviewport rect="0,0,1920,1080"/>&#xd;&#xd;&#xd;&#xd;&#xd;&#xd;&#xd;&#xd;
 &lt;endviewport rect="0,0,1920,1080"/>&#xd;&#xd;&#xd;&#xd;&#xd;&#xd;&#xd;&#xd;
 &lt;background color="0,0,0,0"/>&#xd;&#xd;&#xd;&#xd;&#xd;&#xd;&#xd;&#xd;
&lt;/kdenlivetitle>&#xd;&#xd;&#xd;&#xd;&#xd;&#xd;&#xd;&#xd;
</property>
  <property name="xml">was here</property>
  <property name="kdenlive:folderid">-1</property>
  <property name="kdenlive:id">45</property>
  <property name="kdenlive:clip_type">2</property>
  <property name="kdenlive:file_hash">06025d621d7b071a29ecfc6df7231f81</property>
  <property name="force_reload">0</property>
  <property name="meta.media.width">1920</property>
  <property name="meta.media.height">1080</property>
 </producer>
 <chain id="chain37" out="00:00:01.051">
  <property name="length">64</property>
  <property name="eof">pause</property>
  <property name="resource">babySound.wav</property>
  <property name="mlt_service">avformat</property>
  <property name="meta.media.nb_streams">1</property>
  <property name="meta.media.0.stream.type">audio</property>
  <property name="meta.media.0.codec.sample_fmt">flt</property>
  <property name="meta.media.0.codec.sample_rate">48000</property>
  <property name="meta.media.0.codec.channels">2</property>
  <property name="meta.media.0.codec.name">pcm_f32le</property>
  <property name="meta.media.0.codec.long_name">PCM 32-bit floating point little-endian</property>
  <property name="meta.media.0.codec.bit_rate">3072000</property>
  <property name="seekable">1</property>
  <property name="audio_index">0</property>
  <property name="video_index">-1</property>
  <property name="astream">0</property>
  <property name="kdenlive:folderid">-1</property>
  <property name="kdenlive:id">46</property>
  <property name="kdenlive:clip_type">1</property>
  <property name="kdenlive:file_size">412860</property>
  <property name="kdenlive:file_hash">3b9591963dd32e8ffac2a949ccf7d146</property>
  <property name="kdenlive:audio_max0">175</property>
 </chain>
 <chain id="chain38" out="00:00:01.285">
  <property name="length">78</property>
  <property name="eof">pause</property>
  <property name="resource">ballWord.wav</property>
  <property name="mlt_service">avformat</property>
  <property name="meta.media.nb_streams">1</property>
  <property name="meta.media.0.stream.type">audio</property>
  <property name="meta.media.0.codec.sample_fmt">flt</property>
  <property name="meta.media.0.codec.sample_rate">48000</property>
  <property name="meta.media.0.codec.channels">2</property>
  <property name="meta.media.0.codec.name">pcm_f32le</property>
  <property name="meta.media.0.codec.long_name">PCM 32-bit floating point little-endian</property>
  <property name="meta.media.0.codec.bit_rate">3072000</property>
  <property name="seekable">1</property>
  <property name="audio_index">0</property>
  <property name="video_index">-1</property>
  <property name="astream">0</property>
  <property name="kdenlive:folderid">-1</property>
  <property name="kdenlive:id">47</property>
  <property name="kdenlive:clip_type">1</property>
  <property name="kdenlive:file_size">501540</property>
  <property name="kdenlive:file_hash">60dd3c0ea52af879beb3ab6f273ba778</property>
  <property name="kdenlive:audio_max0">166</property>
 </chain>
 <producer id="producer31" in="00:00:00.000" out="00:00:43.110">
  <property name="length">2585</property>
  <property name="eof">pause</property>
  <property name="resource"/>
  <property name="meta.media.progressive">1</property>
  <property name="aspect_ratio">1</property>
  <property name="seekable">1</property>
  <property name="mlt_service">kdenlivetitle</property>
  <property name="kdenlive:duration">00:00:05;00</property>
  <property name="kdenlive:clipname">little b orange</property>
  <property name="xmldata">&lt;kdenlivetitle duration="300" LC_NUMERIC="C" width="1920" height="1080" out="299">&#xd;&#xd;&#xd;&#xd;&#xd;&#xd;&#xd;&#xd;
 &lt;item type="QGraphicsTextItem" z-index="0">&#xd;&#xd;&#xd;&#xd;&#xd;&#xd;&#xd;&#xd;
  &lt;position x="1123" y="232">&#xd;&#xd;&#xd;&#xd;&#xd;&#xd;&#xd;&#xd;
   &lt;transform>1,0,0,0,1,0,0,0,1&lt;/transform>&#xd;&#xd;&#xd;&#xd;&#xd;&#xd;&#xd;&#xd;
  &lt;/position>&#xd;&#xd;&#xd;&#xd;&#xd;&#xd;&#xd;&#xd;
  &lt;content line-spacing="0" shadow="0;#64000000;3;3;3" font-underline="0" box-height="302" font-outline-color="0,0,0,255" font="MS Shell Dlg 2" letter-spacing="0" font-pixel-size="250" font-italic="0" typewriter="0;2;1;0;0" alignment="1" font-weight="50" font-outline="4" box-width="138" font-color="255,228,190,255">b&lt;/content>&#xd;&#xd;&#xd;&#xd;&#xd;&#xd;&#xd;&#xd;
 &lt;/item>&#xd;&#xd;&#xd;&#xd;&#xd;&#xd;&#xd;&#xd;
 &lt;startviewport rect="0,0,1920,1080"/>&#xd;&#xd;&#xd;&#xd;&#xd;&#xd;&#xd;&#xd;
 &lt;endviewport rect="0,0,1920,1080"/>&#xd;&#xd;&#xd;&#xd;&#xd;&#xd;&#xd;&#xd;
 &lt;background color="0,0,0,0"/>&#xd;&#xd;&#xd;&#xd;&#xd;&#xd;&#xd;&#xd;
&lt;/kdenlivetitle>&#xd;&#xd;&#xd;&#xd;&#xd;&#xd;&#xd;&#xd;
</property>
  <property name="xml">was here</property>
  <property name="kdenlive:folderid">-1</property>
  <property name="kdenlive:id">48</property>
  <property name="kdenlive:clip_type">2</property>
  <property name="kdenlive:file_hash">06025d621d7b071a29ecfc6df7231f81</property>
  <property name="force_reload">0</property>
  <property name="meta.media.width">1920</property>
  <property name="meta.media.height">1080</property>
 </producer>
 <producer id="producer32" in="00:00:00.000" out="00:00:43.110">
  <property name="length">2585</property>
  <property name="eof">pause</property>
  <property name="resource"/>
  <property name="meta.media.progressive">1</property>
  <property name="aspect_ratio">1</property>
  <property name="seekable">1</property>
  <property name="mlt_service">kdenlivetitle</property>
  <property name="kdenlive:duration">00:00:05;00</property>
  <property name="kdenlive:clipname">Big b orange </property>
  <property name="xmldata">&lt;kdenlivetitle duration="300" LC_NUMERIC="C" width="1920" height="1080" out="299">&#xd;&#xd;&#xd;&#xd;&#xd;&#xd;&#xd;&#xd;
 &lt;item type="QGraphicsTextItem" z-index="0">&#xd;&#xd;&#xd;&#xd;&#xd;&#xd;&#xd;&#xd;
  &lt;position x="1112" y="-10">&#xd;&#xd;&#xd;&#xd;&#xd;&#xd;&#xd;&#xd;
   &lt;transform>1,0,0,0,1,0,0,0,1&lt;/transform>&#xd;&#xd;&#xd;&#xd;&#xd;&#xd;&#xd;&#xd;
  &lt;/position>&#xd;&#xd;&#xd;&#xd;&#xd;&#xd;&#xd;&#xd;
  &lt;content line-spacing="0" shadow="0;#64000000;3;3;3" font-underline="0" box-height="302" font-outline-color="0,0,0,255" font="MS Shell Dlg 2" letter-spacing="0" font-pixel-size="250" font-italic="0" typewriter="0;2;1;0;0" alignment="1" font-weight="50" font-outline="4" box-width="147" font-color="255,228,190,255">B&lt;/content>&#xd;&#xd;&#xd;&#xd;&#xd;&#xd;&#xd;&#xd;
 &lt;/item>&#xd;&#xd;&#xd;&#xd;&#xd;&#xd;&#xd;&#xd;
 &lt;startviewport rect="0,0,1920,1080"/>&#xd;&#xd;&#xd;&#xd;&#xd;&#xd;&#xd;&#xd;
 &lt;endviewport rect="0,0,1920,1080"/>&#xd;&#xd;&#xd;&#xd;&#xd;&#xd;&#xd;&#xd;
 &lt;background color="0,0,0,0"/>&#xd;&#xd;&#xd;&#xd;&#xd;&#xd;&#xd;&#xd;
&lt;/kdenlivetitle>&#xd;&#xd;&#xd;&#xd;&#xd;&#xd;&#xd;&#xd;
</property>
  <property name="xml">was here</property>
  <property name="kdenlive:folderid">-1</property>
  <property name="kdenlive:id">49</property>
  <property name="kdenlive:clip_type">2</property>
  <property name="kdenlive:file_hash">fe4faaae1e95986859d847f9e5e026d5</property>
  <property name="force_reload">0</property>
  <property name="meta.media.width">1920</property>
  <property name="meta.media.height">1080</property>
 </producer>
 <producer id="producer34" in="00:00:00.000" out="00:00:43.110">
  <property name="length">2585</property>
  <property name="eof">pause</property>
  <property name="resource"/>
  <property name="meta.media.progressive">1</property>
  <property name="aspect_ratio">1</property>
  <property name="seekable">1</property>
  <property name="mlt_service">kdenlivetitle</property>
  <property name="kdenlive:duration">00:00:05;00</property>
  <property name="kdenlive:clipname">little a orange</property>
  <property name="xmldata">&lt;kdenlivetitle duration="300" LC_NUMERIC="C" width="1920" height="1080" out="299">&#xd;&#xd;&#xd;&#xd;&#xd;&#xd;&#xd;&#xd;
 &lt;item type="QGraphicsTextItem" z-index="0">&#xd;&#xd;&#xd;&#xd;&#xd;&#xd;&#xd;&#xd;
  &lt;position x="1269" y="-10">&#xd;&#xd;&#xd;&#xd;&#xd;&#xd;&#xd;&#xd;
   &lt;transform>1,0,0,0,1,0,0,0,1&lt;/transform>&#xd;&#xd;&#xd;&#xd;&#xd;&#xd;&#xd;&#xd;
  &lt;/position>&#xd;&#xd;&#xd;&#xd;&#xd;&#xd;&#xd;&#xd;
  &lt;content line-spacing="0" shadow="0;#64000000;3;3;3" font-underline="0" box-height="302" font-outline-color="0,0,0,255" font="MS Shell Dlg 2" letter-spacing="0" font-pixel-size="250" font-italic="0" typewriter="0;2;1;0;0" alignment="1" font-weight="50" font-outline="4" box-width="131" font-color="255,228,190,255">a&lt;/content>&#xd;&#xd;&#xd;&#xd;&#xd;&#xd;&#xd;&#xd;
 &lt;/item>&#xd;&#xd;&#xd;&#xd;&#xd;&#xd;&#xd;&#xd;
 &lt;startviewport rect="0,0,1920,1080"/>&#xd;&#xd;&#xd;&#xd;&#xd;&#xd;&#xd;&#xd;
 &lt;endviewport rect="0,0,1920,1080"/>&#xd;&#xd;&#xd;&#xd;&#xd;&#xd;&#xd;&#xd;
 &lt;background color="0,0,0,0"/>&#xd;&#xd;&#xd;&#xd;&#xd;&#xd;&#xd;&#xd;
&lt;/kdenlivetitle>&#xd;&#xd;&#xd;&#xd;&#xd;&#xd;&#xd;&#xd;
</property>
  <property name="xml">was here</property>
  <property name="kdenlive:folderid">-1</property>
  <property name="kdenlive:id">50</property>
  <property name="kdenlive:clip_type">2</property>
  <property name="kdenlive:file_hash">919040c203d3d06e640826ffca89d3a9</property>
  <property name="force_reload">0</property>
  <property name="meta.media.width">1920</property>
  <property name="meta.media.height">1080</property>
 </producer>
 <producer id="producer35" in="00:00:00.000" out="00:00:43.110">
  <property name="length">2585</property>
  <property name="eof">pause</property>
  <property name="resource"/>
  <property name="meta.media.progressive">1</property>
  <property name="aspect_ratio">1</property>
  <property name="seekable">1</property>
  <property name="mlt_service">kdenlivetitle</property>
  <property name="kdenlive:duration">00:00:05;00</property>
  <property name="kdenlive:clipname">little t orange</property>
  <property name="xmldata">&lt;kdenlivetitle duration="300" LC_NUMERIC="C" width="1920" height="1080" out="299">&#xd;&#xd;&#xd;&#xd;&#xd;&#xd;&#xd;&#xd;
 &lt;item type="QGraphicsTextItem" z-index="0">&#xd;&#xd;&#xd;&#xd;&#xd;&#xd;&#xd;&#xd;
  &lt;position x="1413" y="-7">&#xd;&#xd;&#xd;&#xd;&#xd;&#xd;&#xd;&#xd;
   &lt;transform>1,0,0,0,1,0,0,0,1&lt;/transform>&#xd;&#xd;&#xd;&#xd;&#xd;&#xd;&#xd;&#xd;
  &lt;/position>&#xd;&#xd;&#xd;&#xd;&#xd;&#xd;&#xd;&#xd;
  &lt;content line-spacing="0" shadow="0;#64000000;3;3;3" font-underline="0" box-height="302" font-outline-color="0,0,0,255" font="MS Shell Dlg 2" letter-spacing="0" font-pixel-size="250" font-italic="0" typewriter="0;2;1;0;0" alignment="1" font-weight="50" font-outline="4" box-width="84" font-color="255,228,190,255">t&lt;/content>&#xd;&#xd;&#xd;&#xd;&#xd;&#xd;&#xd;&#xd;
 &lt;/item>&#xd;&#xd;&#xd;&#xd;&#xd;&#xd;&#xd;&#xd;
 &lt;startviewport rect="0,0,1920,1080"/>&#xd;&#xd;&#xd;&#xd;&#xd;&#xd;&#xd;&#xd;
 &lt;endviewport rect="0,0,1920,1080"/>&#xd;&#xd;&#xd;&#xd;&#xd;&#xd;&#xd;&#xd;
 &lt;background color="0,0,0,0"/>&#xd;&#xd;&#xd;&#xd;&#xd;&#xd;&#xd;&#xd;
&lt;/kdenlivetitle>&#xd;&#xd;&#xd;&#xd;&#xd;&#xd;&#xd;&#xd;
</property>
  <property name="xml">was here</property>
  <property name="kdenlive:folderid">-1</property>
  <property name="kdenlive:id">51</property>
  <property name="kdenlive:clip_type">2</property>
  <property name="kdenlive:file_hash">c75a1dfb1099fba7ec90be9605f50eef</property>
  <property name="force_reload">0</property>
  <property name="meta.media.width">1920</property>
  <property name="meta.media.height">1080</property>
 </producer>
 <chain id="chain39" out="00:00:03.670">
  <property name="length">221</property>
  <property name="eof">pause</property>
  <property name="resource">batWord.wav</property>
  <property name="mlt_service">avformat</property>
  <property name="meta.media.nb_streams">1</property>
  <property name="meta.media.0.stream.type">audio</property>
  <property name="meta.media.0.codec.sample_fmt">flt</property>
  <property name="meta.media.0.codec.sample_rate">48000</property>
  <property name="meta.media.0.codec.channels">2</property>
  <property name="meta.media.0.codec.name">pcm_f32le</property>
  <property name="meta.media.0.codec.long_name">PCM 32-bit floating point little-endian</property>
  <property name="meta.media.0.codec.bit_rate">3072000</property>
  <property name="seekable">1</property>
  <property name="audio_index">0</property>
  <property name="video_index">-1</property>
  <property name="astream">0</property>
  <property name="kdenlive:folderid">-1</property>
  <property name="kdenlive:id">52</property>
  <property name="kdenlive:clip_type">1</property>
  <property name="kdenlive:file_size">1415060</property>
  <property name="kdenlive:file_hash">ae64868de5732e21b2180bdbfe260cfd</property>
  <property name="kdenlive:audio_max0">175</property>
 </chain>
 <chain id="chain40" out="00:00:01.518">
  <property name="length">92</property>
  <property name="eof">pause</property>
  <property name="resource">batWordFinal.wav</property>
  <property name="mlt_service">avformat</property>
  <property name="meta.media.nb_streams">1</property>
  <property name="meta.media.0.stream.type">audio</property>
  <property name="meta.media.0.codec.sample_fmt">flt</property>
  <property name="meta.media.0.codec.sample_rate">48000</property>
  <property name="meta.media.0.codec.channels">2</property>
  <property name="meta.media.0.codec.name">pcm_f32le</property>
  <property name="meta.media.0.codec.long_name">PCM 32-bit floating point little-endian</property>
  <property name="meta.media.0.codec.bit_rate">3072000</property>
  <property name="seekable">1</property>
  <property name="audio_index">0</property>
  <property name="video_index">-1</property>
  <property name="astream">0</property>
  <property name="kdenlive:id">53</property>
  <property name="kdenlive:clip_type">1</property>
  <property name="kdenlive:file_size">590684</property>
  <property name="kdenlive:file_hash">60c131f25a2d014c38bb4268bb059837</property>
  <property name="kdenlive:folderid">-1</property>
  <property name="kdenlive:audio_max0">189</property>
 </chain>
 <producer id="producer12" in="00:00:00.000" out="00:00:43.110">
  <property name="length">2585</property>
  <property name="eof">pause</property>
  <property name="resource"/>
  <property name="meta.media.progressive">1</property>
  <property name="aspect_ratio">1</property>
  <property name="seekable">1</property>
  <property name="mlt_service">kdenlivetitle</property>
  <property name="kdenlive:duration">00:00:05;00</property>
  <property name="kdenlive:clipname">See the Bat Hit The Ball</property>
  <property name="xmldata">&lt;kdenlivetitle duration="300" LC_NUMERIC="C" width="1920" height="1080" out="299">&#xd;&#xd;&#xd;&#xd;&#xd;&#xd;&#xd;&#xd;
 &lt;item type="QGraphicsTextItem" z-index="0">&#xd;&#xd;&#xd;&#xd;&#xd;&#xd;&#xd;&#xd;
  &lt;position x="142" y="88">&#xd;&#xd;&#xd;&#xd;&#xd;&#xd;&#xd;&#xd;
   &lt;transform>1,0,0,0,1,0,0,0,1&lt;/transform>&#xd;&#xd;&#xd;&#xd;&#xd;&#xd;&#xd;&#xd;
  &lt;/position>&#xd;&#xd;&#xd;&#xd;&#xd;&#xd;&#xd;&#xd;
  &lt;content line-spacing="0" shadow="0;#64000000;3;3;3" font-underline="0" box-height="163" font-outline-color="0,0,0,255" font="MS Shell Dlg 2" letter-spacing="0" font-pixel-size="135" font-italic="0" typewriter="0;2;1;0;0" alignment="1" font-weight="50" font-outline="4" box-width="1652" font-color="255,228,190,255">See  the  bat   hit  the  ball.&lt;/content>&#xd;&#xd;&#xd;&#xd;&#xd;&#xd;&#xd;&#xd;
 &lt;/item>&#xd;&#xd;&#xd;&#xd;&#xd;&#xd;&#xd;&#xd;
 &lt;startviewport rect="0,0,1920,1080"/>&#xd;&#xd;&#xd;&#xd;&#xd;&#xd;&#xd;&#xd;
 &lt;endviewport rect="0,0,1920,1080"/>&#xd;&#xd;&#xd;&#xd;&#xd;&#xd;&#xd;&#xd;
 &lt;background color="0,0,0,0"/>&#xd;&#xd;&#xd;&#xd;&#xd;&#xd;&#xd;&#xd;
&lt;/kdenlivetitle>&#xd;&#xd;&#xd;&#xd;&#xd;&#xd;&#xd;&#xd;
</property>
  <property name="xml">was here</property>
  <property name="kdenlive:folderid">-1</property>
  <property name="kdenlive:id">54</property>
  <property name="kdenlive:clip_type">2</property>
  <property name="kdenlive:file_hash">919040c203d3d06e640826ffca89d3a9</property>
  <property name="force_reload">0</property>
  <property name="meta.media.width">1920</property>
  <property name="meta.media.height">1080</property>
 </producer>
 <chain id="chain41" out="00:00:05.405">
  <property name="length">325</property>
  <property name="eof">pause</property>
  <property name="resource">seeTheBatHitTheBall.wav</property>
  <property name="mlt_service">avformat</property>
  <property name="meta.media.nb_streams">1</property>
  <property name="meta.media.0.stream.type">audio</property>
  <property name="meta.media.0.codec.sample_fmt">flt</property>
  <property name="meta.media.0.codec.sample_rate">48000</property>
  <property name="meta.media.0.codec.channels">2</property>
  <property name="meta.media.0.codec.name">pcm_f32le</property>
  <property name="meta.media.0.codec.long_name">PCM 32-bit floating point little-endian</property>
  <property name="meta.media.0.codec.bit_rate">3072000</property>
  <property name="seekable">1</property>
  <property name="audio_index">0</property>
  <property name="video_index">-1</property>
  <property name="astream">0</property>
  <property name="kdenlive:folderid">-1</property>
  <property name="kdenlive:id">55</property>
  <property name="kdenlive:clip_type">1</property>
  <property name="kdenlive:file_size">2084500</property>
  <property name="kdenlive:file_hash">521a0cfa7cd9ff943cebd60919ab8c36</property>
  <property name="kdenlive:audio_max0">187</property>
 </chain>
 <producer id="producer17" in="00:00:00.000" out="00:00:04.988">
  <property name="length">300</property>
  <property name="eof">pause</property>
  <property name="resource"/>
  <property name="meta.media.progressive">1</property>
  <property name="aspect_ratio">1</property>
  <property name="seekable">1</property>
  <property name="mlt_service">kdenlivetitle</property>
  <property name="kdenlive:duration">00:00:05;00</property>
  <property name="kdenlive:clipname">Rectangle</property>
  <property name="xmldata">&lt;kdenlivetitle duration="300" LC_NUMERIC="C" width="1920" height="1080" out="299">&#xd;&#xd;&#xd;&#xd;&#xd;&#xd;&#xd;&#xd;
 &lt;item type="QGraphicsRectItem" z-index="0">&#xd;&#xd;&#xd;&#xd;&#xd;&#xd;&#xd;&#xd;
  &lt;position x="98" y="103">&#xd;&#xd;&#xd;&#xd;&#xd;&#xd;&#xd;&#xd;
   &lt;transform zoom="100">1,0,0,0,1,0,0,0,1&lt;/transform>&#xd;&#xd;&#xd;&#xd;&#xd;&#xd;&#xd;&#xd;
  &lt;/position>&#xd;&#xd;&#xd;&#xd;&#xd;&#xd;&#xd;&#xd;
  &lt;content brushcolor="209,246,250,0" pencolor="255,230,205,255" penwidth="13" rect="0,0,290,150"/>&#xd;&#xd;&#xd;&#xd;&#xd;&#xd;&#xd;&#xd;
 &lt;/item>&#xd;&#xd;&#xd;&#xd;&#xd;&#xd;&#xd;&#xd;
 &lt;startviewport rect="0,0,1920,1080"/>&#xd;&#xd;&#xd;&#xd;&#xd;&#xd;&#xd;&#xd;
 &lt;endviewport rect="0,0,1920,1080"/>&#xd;&#xd;&#xd;&#xd;&#xd;&#xd;&#xd;&#xd;
 &lt;background color="0,0,0,0"/>&#xd;&#xd;&#xd;&#xd;&#xd;&#xd;&#xd;&#xd;
&lt;/kdenlivetitle>&#xd;&#xd;&#xd;&#xd;&#xd;&#xd;&#xd;&#xd;
</property>
  <property name="xml">was here</property>
  <property name="kdenlive:folderid">-1</property>
  <property name="kdenlive:id">56</property>
  <property name="kdenlive:clip_type">2</property>
  <property name="kdenlive:file_hash">fadf5cda47eb7270e85c7e77496bb5f3</property>
  <property name="force_reload">0</property>
  <property name="meta.media.width">1920</property>
  <property name="meta.media.height">1080</property>
 </producer>
 <producer id="producer18" in="00:00:00.000" out="00:00:06.440">
  <property name="length">387</property>
  <property name="eof">pause</property>
  <property name="resource">maxHappy.png</property>
  <property name="ttl">25</property>
  <property name="aspect_ratio">1</property>
  <property name="meta.media.progressive">1</property>
  <property name="seekable">1</property>
  <property name="format">2</property>
  <property name="meta.media.width">960</property>
  <property name="meta.media.height">720</property>
  <property name="mlt_service">qimage</property>
  <property name="kdenlive:clipname"/>
  <property name="kdenlive:duration">00:00:05;00</property>
  <property name="xml">was here</property>
  <property name="kdenlive:folderid">-1</property>
  <property name="kdenlive:id">57</property>
  <property name="kdenlive:clip_type">2</property>
  <property name="kdenlive:file_size">133902</property>
  <property name="kdenlive:file_hash">d1447fbcbc5a8ee991b9d9a4ef614fc0</property>
 </producer>
 <producer id="producer19" in="00:00:00.000" out="00:00:42.476">
  <property name="length">00:00:42.492</property>
  <property name="eof">pause</property>
  <property name="resource">coverMax.png</property>
  <property name="ttl">25</property>
  <property name="aspect_ratio">1</property>
  <property name="meta.media.progressive">1</property>
  <property name="seekable">1</property>
  <property name="format">2</property>
  <property name="meta.media.width">391</property>
  <property name="meta.media.height">59</property>
  <property name="mlt_service">qimage</property>
  <property name="kdenlive:clipname"/>
  <property name="kdenlive:duration">00:00:05.005</property>
  <property name="xml">was here</property>
  <property name="kdenlive:folderid">-1</property>
  <property name="kdenlive:id">58</property>
  <property name="kdenlive:clip_type">2</property>
  <property name="kdenlive:file_size">5564</property>
  <property name="kdenlive:file_hash">6c34464edbcd328497da8d6944288814</property>
 </producer>
 <producer id="producer4" in="00:00:00.000" out="00:00:12.679">
  <property name="length">761</property>
  <property name="eof">pause</property>
  <property name="resource">bobFinalBonked.png</property>
  <property name="ttl">25</property>
  <property name="aspect_ratio">1</property>
  <property name="meta.media.progressive">1</property>
  <property name="seekable">1</property>
  <property name="format">2</property>
  <property name="meta.media.width">1920</property>
  <property name="meta.media.height">1080</property>
  <property name="mlt_service">qimage</property>
  <property name="kdenlive:clipname"/>
  <property name="kdenlive:duration">00:00:05;00</property>
  <property name="xml">was here</property>
  <property name="kdenlive:folderid">-1</property>
  <property name="kdenlive:id">59</property>
  <property name="kdenlive:clip_type">2</property>
  <property name="kdenlive:file_size">1289258</property>
  <property name="kdenlive:file_hash">3e1400cf2a475bc9504aa588abf2166f</property>
 </producer>
 <producer id="producer7" in="00:00:00.000" out="00:00:21.021">
  <property name="length">1261</property>
  <property name="eof">pause</property>
  <property name="resource"/>
  <property name="meta.media.progressive">1</property>
  <property name="aspect_ratio">1</property>
  <property name="seekable">1</property>
  <property name="mlt_service">kdenlivetitle</property>
  <property name="kdenlive:duration">00:00:05;00</property>
  <property name="kdenlive:clipname">Bob is juggling balls.</property>
  <property name="xmldata">&lt;kdenlivetitle duration="300" LC_NUMERIC="C" width="1920" height="1080" out="299">&#xd;&#xd;&#xd;&#xd;&#xd;&#xd;&#xd;&#xd;
 &lt;item type="QGraphicsTextItem" z-index="0">&#xd;&#xd;&#xd;&#xd;&#xd;&#xd;&#xd;&#xd;
  &lt;position x="737" y="7">&#xd;&#xd;&#xd;&#xd;&#xd;&#xd;&#xd;&#xd;
   &lt;transform>1,0,0,0,1,0,0,0,1&lt;/transform>&#xd;&#xd;&#xd;&#xd;&#xd;&#xd;&#xd;&#xd;
  &lt;/position>&#xd;&#xd;&#xd;&#xd;&#xd;&#xd;&#xd;&#xd;
  &lt;content line-spacing="0" shadow="0;#64000000;3;3;3" font-underline="0" box-height="981" font-outline-color="0,0,0,255" font="MS Shell Dlg 2" letter-spacing="0" font-pixel-size="271" font-italic="0" typewriter="0;2;1;0;0" alignment="1" font-weight="50" font-outline="14" box-width="952" font-color="255,217,247,255">Bob is&#xd;&#xd;&#xd;&#xd;&#xd;&#xd;&#xd;&#xd;
juggling&#xd;&#xd;&#xd;&#xd;&#xd;&#xd;&#xd;&#xd;
balls.&lt;/content>&#xd;&#xd;&#xd;&#xd;&#xd;&#xd;&#xd;&#xd;
 &lt;/item>&#xd;&#xd;&#xd;&#xd;&#xd;&#xd;&#xd;&#xd;
 &lt;startviewport rect="0,0,1920,1080"/>&#xd;&#xd;&#xd;&#xd;&#xd;&#xd;&#xd;&#xd;
 &lt;endviewport rect="0,0,1920,1080"/>&#xd;&#xd;&#xd;&#xd;&#xd;&#xd;&#xd;&#xd;
 &lt;background color="0,0,0,0"/>&#xd;&#xd;&#xd;&#xd;&#xd;&#xd;&#xd;&#xd;
&lt;/kdenlivetitle>&#xd;&#xd;&#xd;&#xd;&#xd;&#xd;&#xd;&#xd;
</property>
  <property name="xml">was here</property>
  <property name="kdenlive:folderid">-1</property>
  <property name="kdenlive:id">60</property>
  <property name="kdenlive:clip_type">2</property>
  <property name="kdenlive:file_hash">483c17407b3df85a36cc66ee908b391f</property>
  <property name="force_reload">0</property>
  <property name="meta.media.width">1920</property>
  <property name="meta.media.height">1080</property>
 </producer>
 <producer id="producer8" in="00:00:00.000" out="00:00:21.021">
  <property name="length">1261</property>
  <property name="eof">pause</property>
  <property name="resource"/>
  <property name="meta.media.progressive">1</property>
  <property name="aspect_ratio">1</property>
  <property name="seekable">1</property>
  <property name="mlt_service">kdenlivetitle</property>
  <property name="kdenlive:duration">00:00:05;00</property>
  <property name="kdenlive:clipname">Bob is bouncing balls.</property>
  <property name="xmldata">&lt;kdenlivetitle duration="300" LC_NUMERIC="C" width="1920" height="1080" out="299">&#xd;&#xd;&#xd;&#xd;&#xd;&#xd;&#xd;&#xd;
 &lt;item type="QGraphicsTextItem" z-index="0">&#xd;&#xd;&#xd;&#xd;&#xd;&#xd;&#xd;&#xd;
  &lt;position x="737" y="7">&#xd;&#xd;&#xd;&#xd;&#xd;&#xd;&#xd;&#xd;
   &lt;transform>1,0,0,0,1,0,0,0,1&lt;/transform>&#xd;&#xd;&#xd;&#xd;&#xd;&#xd;&#xd;&#xd;
  &lt;/position>&#xd;&#xd;&#xd;&#xd;&#xd;&#xd;&#xd;&#xd;
  &lt;content line-spacing="0" shadow="0;#64000000;3;3;3" font-underline="0" box-height="981" font-outline-color="0,0,0,255" font="MS Shell Dlg 2" letter-spacing="0" font-pixel-size="271" font-italic="0" typewriter="0;2;1;0;0" alignment="1" font-weight="50" font-outline="14" box-width="1087" font-color="255,217,247,255">Bob is&#xd;&#xd;&#xd;&#xd;&#xd;&#xd;&#xd;&#xd;
bouncing&#xd;&#xd;&#xd;&#xd;&#xd;&#xd;&#xd;&#xd;
balls.&lt;/content>&#xd;&#xd;&#xd;&#xd;&#xd;&#xd;&#xd;&#xd;
 &lt;/item>&#xd;&#xd;&#xd;&#xd;&#xd;&#xd;&#xd;&#xd;
 &lt;startviewport rect="0,0,1920,1080"/>&#xd;&#xd;&#xd;&#xd;&#xd;&#xd;&#xd;&#xd;
 &lt;endviewport rect="0,0,1920,1080"/>&#xd;&#xd;&#xd;&#xd;&#xd;&#xd;&#xd;&#xd;
 &lt;background color="0,0,0,0"/>&#xd;&#xd;&#xd;&#xd;&#xd;&#xd;&#xd;&#xd;
&lt;/kdenlivetitle>&#xd;&#xd;&#xd;&#xd;&#xd;&#xd;&#xd;&#xd;
</property>
  <property name="xml">was here</property>
  <property name="kdenlive:folderid">-1</property>
  <property name="kdenlive:id">61</property>
  <property name="kdenlive:clip_type">2</property>
  <property name="kdenlive:file_hash">69bb6c12413dcee376fbc8dc84951c37</property>
  <property name="force_reload">0</property>
  <property name="meta.media.width">1920</property>
  <property name="meta.media.height">1080</property>
 </producer>
 <producer id="producer9" in="00:00:00.000" out="00:00:21.021">
  <property name="length">1261</property>
  <property name="eof">pause</property>
  <property name="resource"/>
  <property name="meta.media.progressive">1</property>
  <property name="aspect_ratio">1</property>
  <property name="seekable">1</property>
  <property name="mlt_service">kdenlivetitle</property>
  <property name="kdenlive:duration">00:00:05;00</property>
  <property name="kdenlive:clipname">Bob gets bon...</property>
  <property name="xmldata">&lt;kdenlivetitle duration="300" LC_NUMERIC="C" width="1920" height="1080" out="299">&#xd;&#xd;&#xd;&#xd;&#xd;&#xd;&#xd;&#xd;
 &lt;item type="QGraphicsTextItem" z-index="0">&#xd;&#xd;&#xd;&#xd;&#xd;&#xd;&#xd;&#xd;
  &lt;position x="737" y="7">&#xd;&#xd;&#xd;&#xd;&#xd;&#xd;&#xd;&#xd;
   &lt;transform>1,0,0,0,1,0,0,0,1&lt;/transform>&#xd;&#xd;&#xd;&#xd;&#xd;&#xd;&#xd;&#xd;
  &lt;/position>&#xd;&#xd;&#xd;&#xd;&#xd;&#xd;&#xd;&#xd;
  &lt;content line-spacing="0" shadow="0;#64000000;3;3;3" font-underline="0" box-height="981" font-outline-color="0,0,0,255" font="MS Shell Dlg 2" letter-spacing="0" font-pixel-size="271" font-italic="0" typewriter="0;2;1;0;0" alignment="1" font-weight="50" font-outline="14" box-width="1062" font-color="255,217,247,255">Bob gets&#xd;&#xd;&#xd;&#xd;&#xd;&#xd;&#xd;&#xd;
bonked&#xd;&#xd;&#xd;&#xd;&#xd;&#xd;&#xd;&#xd;
by a bat.&lt;/content>&#xd;&#xd;&#xd;&#xd;&#xd;&#xd;&#xd;&#xd;
 &lt;/item>&#xd;&#xd;&#xd;&#xd;&#xd;&#xd;&#xd;&#xd;
 &lt;startviewport rect="0,0,1920,1080"/>&#xd;&#xd;&#xd;&#xd;&#xd;&#xd;&#xd;&#xd;
 &lt;endviewport rect="0,0,1920,1080"/>&#xd;&#xd;&#xd;&#xd;&#xd;&#xd;&#xd;&#xd;
 &lt;background color="0,0,0,0"/>&#xd;&#xd;&#xd;&#xd;&#xd;&#xd;&#xd;&#xd;
&lt;/kdenlivetitle>&#xd;&#xd;&#xd;&#xd;&#xd;&#xd;&#xd;&#xd;
</property>
  <property name="xml">was here</property>
  <property name="kdenlive:folderid">-1</property>
  <property name="kdenlive:id">62</property>
  <property name="kdenlive:clip_type">2</property>
  <property name="kdenlive:file_hash">4ca03b36e237c25794d7344e89839750</property>
  <property name="force_reload">0</property>
  <property name="meta.media.width">1920</property>
  <property name="meta.media.height">1080</property>
 </producer>
 <producer id="producer42" in="00:00:00.000" out="00:00:04.988">
  <property name="length">00:00:05.005</property>
  <property name="eof">pause</property>
  <property name="resource">bob.jpg</property>
  <property name="ttl">25</property>
  <property name="aspect_ratio">1</property>
  <property name="meta.media.progressive">1</property>
  <property name="seekable">1</property>
  <property name="format">1</property>
  <property name="meta.media.width">2592</property>
  <property name="meta.media.height">1944</property>
  <property name="mlt_service">qimage</property>
  <property name="kdenlive:clipname"/>
  <property name="kdenlive:duration">00:00:05;00</property>
  <property name="xml">was here</property>
  <property name="kdenlive:folderid">-1</property>
  <property name="kdenlive:id">63</property>
  <property name="kdenlive:clip_type">2</property>
  <property name="kdenlive:file_size">1128106</property>
  <property name="kdenlive:file_hash">0bad6a6bdf4090a3010196c49a08adaf</property>
 </producer>
 <producer id="producer13" in="00:00:00.000" out="00:00:21.271">
  <property name="length">1276</property>
  <property name="eof">pause</property>
  <property name="resource">bobTranlucent.png</property>
  <property name="ttl">25</property>
  <property name="aspect_ratio">1</property>
  <property name="meta.media.progressive">1</property>
  <property name="seekable">1</property>
  <property name="format">2</property>
  <property name="meta.media.width">1341</property>
  <property name="meta.media.height">1941</property>
  <property name="mlt_service">qimage</property>
  <property name="kdenlive:clipname"/>
  <property name="kdenlive:duration">00:00:05;00</property>
  <property name="xml">was here</property>
  <property name="kdenlive:folderid">-1</property>
  <property name="kdenlive:id">64</property>
  <property name="kdenlive:clip_type">2</property>
  <property name="kdenlive:file_size">2308641</property>
  <property name="kdenlive:file_hash">cbc441008e6c0417faa80f75fd242c6b</property>
 </producer>
 <producer id="producer20" in="00:00:00.000" out="00:00:15.832">
  <property name="length">950</property>
  <property name="eof">pause</property>
  <property name="resource"/>
  <property name="meta.media.progressive">1</property>
  <property name="aspect_ratio">1</property>
  <property name="seekable">1</property>
  <property name="mlt_service">kdenlivetitle</property>
  <property name="kdenlive:duration">00:00:05;00</property>
  <property name="kdenlive:clipname">o</property>
  <property name="xmldata">&lt;kdenlivetitle duration="300" LC_NUMERIC="C" width="1920" height="1080" out="299">&#xd;&#xd;&#xd;&#xd;&#xd;&#xd;&#xd;&#xd;
 &lt;item type="QGraphicsTextItem" z-index="0">&#xd;&#xd;&#xd;&#xd;&#xd;&#xd;&#xd;&#xd;
  &lt;position x="62" y="443">&#xd;&#xd;&#xd;&#xd;&#xd;&#xd;&#xd;&#xd;
   &lt;transform>1,0,0,0,1,0,0,0,1&lt;/transform>&#xd;&#xd;&#xd;&#xd;&#xd;&#xd;&#xd;&#xd;
  &lt;/position>&#xd;&#xd;&#xd;&#xd;&#xd;&#xd;&#xd;&#xd;
  &lt;content line-spacing="0" shadow="0;#64000000;3;3;3" font-underline="0" box-height="664" font-outline-color="0,0,0,255" font="MS Shell Dlg 2" letter-spacing="0" font-pixel-size="550" font-italic="0" typewriter="0;2;1;0;0" alignment="1" font-weight="50" font-outline="14" box-width="299" font-color="255,217,247,255">o&lt;/content>&#xd;&#xd;&#xd;&#xd;&#xd;&#xd;&#xd;&#xd;
 &lt;/item>&#xd;&#xd;&#xd;&#xd;&#xd;&#xd;&#xd;&#xd;
 &lt;startviewport rect="0,0,1920,1080"/>&#xd;&#xd;&#xd;&#xd;&#xd;&#xd;&#xd;&#xd;
 &lt;endviewport rect="0,0,1920,1080"/>&#xd;&#xd;&#xd;&#xd;&#xd;&#xd;&#xd;&#xd;
 &lt;background color="0,0,0,0"/>&#xd;&#xd;&#xd;&#xd;&#xd;&#xd;&#xd;&#xd;
&lt;/kdenlivetitle>&#xd;&#xd;&#xd;&#xd;&#xd;&#xd;&#xd;&#xd;
</property>
  <property name="xml">was here</property>
  <property name="kdenlive:folderid">-1</property>
  <property name="kdenlive:id">65</property>
  <property name="kdenlive:clip_type">2</property>
  <property name="kdenlive:file_hash">53978d77d7d22caf4fe54cf7090940d1</property>
  <property name="force_reload">0</property>
  <property name="meta.media.width">1920</property>
  <property name="meta.media.height">1080</property>
 </producer>
 <chain id="chain42" out="00:00:05.455">
  <property name="length">328</property>
  <property name="eof">pause</property>
  <property name="resource">bobLetters.wav</property>
  <property name="mlt_service">avformat</property>
  <property name="meta.media.nb_streams">1</property>
  <property name="meta.media.0.stream.type">audio</property>
  <property name="meta.media.0.codec.sample_fmt">flt</property>
  <property name="meta.media.0.codec.sample_rate">48000</property>
  <property name="meta.media.0.codec.channels">2</property>
  <property name="meta.media.0.codec.name">pcm_f32le</property>
  <property name="meta.media.0.codec.long_name">PCM 32-bit floating point little-endian</property>
  <property name="meta.media.0.codec.bit_rate">3072000</property>
  <property name="seekable">1</property>
  <property name="audio_index">0</property>
  <property name="video_index">-1</property>
  <property name="astream">0</property>
  <property name="kdenlive:folderid">-1</property>
  <property name="kdenlive:id">66</property>
  <property name="kdenlive:clip_type">1</property>
  <property name="kdenlive:file_size">2105124</property>
  <property name="kdenlive:file_hash">e404894bc36a3e5249e7374fff654d1a</property>
  <property name="kdenlive:audio_max0">162</property>
 </chain>
 <chain id="chain43" out="00:00:01.668">
  <property name="length">101</property>
  <property name="eof">pause</property>
  <property name="resource">bobTogether.wav</property>
  <property name="mlt_service">avformat</property>
  <property name="meta.media.nb_streams">1</property>
  <property name="meta.media.0.stream.type">audio</property>
  <property name="meta.media.0.codec.sample_fmt">flt</property>
  <property name="meta.media.0.codec.sample_rate">48000</property>
  <property name="meta.media.0.codec.channels">2</property>
  <property name="meta.media.0.codec.name">pcm_f32le</property>
  <property name="meta.media.0.codec.long_name">PCM 32-bit floating point little-endian</property>
  <property name="meta.media.0.codec.bit_rate">3072000</property>
  <property name="seekable">1</property>
  <property name="audio_index">0</property>
  <property name="video_index">-1</property>
  <property name="astream">0</property>
  <property name="kdenlive:folderid">-1</property>
  <property name="kdenlive:id">67</property>
  <property name="kdenlive:clip_type">1</property>
  <property name="kdenlive:file_size">649340</property>
  <property name="kdenlive:file_hash">7d4c819f1e3c0caf330ccca64e65b559</property>
  <property name="kdenlive:audio_max0">182</property>
 </chain>
 <producer id="producer43" in="00:00:00.000" out="00:00:21.021">
  <property name="length">1261</property>
  <property name="eof">pause</property>
  <property name="resource"/>
  <property name="meta.media.progressive">1</property>
  <property name="aspect_ratio">1</property>
  <property name="seekable">1</property>
  <property name="mlt_service">kdenlivetitle</property>
  <property name="kdenlive:duration">00:00:05;00</property>
  <property name="kdenlive:clipname">Hope Bob is Okay...</property>
  <property name="xmldata">&lt;kdenlivetitle duration="300" LC_NUMERIC="C" width="1920" height="1080" out="299">&#xd;&#xd;&#xd;&#xd;&#xd;&#xd;&#xd;
 &lt;item type="QGraphicsTextItem" z-index="0">&#xd;&#xd;&#xd;&#xd;&#xd;&#xd;&#xd;
  &lt;position x="1001" y="10">&#xd;&#xd;&#xd;&#xd;&#xd;&#xd;&#xd;
   &lt;transform>1,0,0,0,1,0,0,0,1&lt;/transform>&#xd;&#xd;&#xd;&#xd;&#xd;&#xd;&#xd;
  &lt;/position>&#xd;&#xd;&#xd;&#xd;&#xd;&#xd;&#xd;
  &lt;content line-spacing="0" shadow="0;#64000000;3;3;3" font-underline="0" box-height="981" font-outline-color="0,0,0,255" font="MS Shell Dlg 2" letter-spacing="0" font-pixel-size="271" font-italic="0" typewriter="0;2;1;0;0" alignment="1" font-weight="50" font-outline="14" box-width="810" font-color="255,217,247,255">Hope&#xd;&#xd;&#xd;&#xd;&#xd;&#xd;&#xd;
Bob is &#xd;&#xd;&#xd;&#xd;&#xd;&#xd;&#xd;
okay...&lt;/content>&#xd;&#xd;&#xd;&#xd;&#xd;&#xd;&#xd;
 &lt;/item>&#xd;&#xd;&#xd;&#xd;&#xd;&#xd;&#xd;
 &lt;startviewport rect="0,0,1920,1080"/>&#xd;&#xd;&#xd;&#xd;&#xd;&#xd;&#xd;
 &lt;endviewport rect="0,0,1920,1080"/>&#xd;&#xd;&#xd;&#xd;&#xd;&#xd;&#xd;
 &lt;background color="0,0,0,0"/>&#xd;&#xd;&#xd;&#xd;&#xd;&#xd;&#xd;
&lt;/kdenlivetitle>&#xd;&#xd;&#xd;&#xd;&#xd;&#xd;&#xd;
</property>
  <property name="xml">was here</property>
  <property name="kdenlive:folderid">-1</property>
  <property name="kdenlive:id">68</property>
  <property name="kdenlive:clip_type">2</property>
  <property name="kdenlive:file_hash">a0b177930e86392b13416273802edb4c</property>
  <property name="force_reload">0</property>
  <property name="meta.media.width">1920</property>
  <property name="meta.media.height">1080</property>
 </producer>
 <chain id="chain45" out="00:00:04.071">
  <property name="length">245</property>
  <property name="eof">pause</property>
  <property name="resource">hopeBobIsOkay.wav</property>
  <property name="mlt_service">avformat</property>
  <property name="meta.media.nb_streams">1</property>
  <property name="meta.media.0.stream.type">audio</property>
  <property name="meta.media.0.codec.sample_fmt">flt</property>
  <property name="meta.media.0.codec.sample_rate">48000</property>
  <property name="meta.media.0.codec.channels">2</property>
  <property name="meta.media.0.codec.name">pcm_f32le</property>
  <property name="meta.media.0.codec.long_name">PCM 32-bit floating point little-endian</property>
  <property name="meta.media.0.codec.bit_rate">3072000</property>
  <property name="seekable">1</property>
  <property name="audio_index">0</property>
  <property name="video_index">-1</property>
  <property name="astream">0</property>
  <property name="kdenlive:folderid">-1</property>
  <property name="kdenlive:id">69</property>
  <property name="kdenlive:clip_type">1</property>
  <property name="kdenlive:file_size">1568580</property>
  <property name="kdenlive:file_hash">a9f362dc9ac78fa45750eaf5d78b37c3</property>
  <property name="kdenlive:audio_max0">181</property>
 </chain>
 <producer id="producer44" in="00:00:00.000" out="00:00:07.508">
  <property name="length">451</property>
  <property name="eof">pause</property>
  <property name="resource"/>
  <property name="meta.media.progressive">1</property>
  <property name="aspect_ratio">1</property>
  <property name="seekable">1</property>
  <property name="mlt_service">kdenlivetitle</property>
  <property name="kdenlive:duration">00:00:05;00</property>
  <property name="kdenlive:clipname">Pink Rectangle</property>
  <property name="xmldata">&lt;kdenlivetitle duration="300" LC_NUMERIC="C" width="1920" height="1080" out="299">&#xd;&#xd;&#xd;&#xd;&#xd;&#xd;&#xd;
 &lt;item type="QGraphicsRectItem" z-index="0">&#xd;&#xd;&#xd;&#xd;&#xd;&#xd;&#xd;
  &lt;position x="675" y="33">&#xd;&#xd;&#xd;&#xd;&#xd;&#xd;&#xd;
   &lt;transform zoom="100">1,0,0,0,1,0,0,0,1&lt;/transform>&#xd;&#xd;&#xd;&#xd;&#xd;&#xd;&#xd;
  &lt;/position>&#xd;&#xd;&#xd;&#xd;&#xd;&#xd;&#xd;
  &lt;content brushcolor="209,246,250,0" pencolor="252,211,255,255" penwidth="13" rect="0,0,559,304"/>&#xd;&#xd;&#xd;&#xd;&#xd;&#xd;&#xd;
 &lt;/item>&#xd;&#xd;&#xd;&#xd;&#xd;&#xd;&#xd;
 &lt;startviewport rect="0,0,1920,1080"/>&#xd;&#xd;&#xd;&#xd;&#xd;&#xd;&#xd;
 &lt;endviewport rect="0,0,1920,1080"/>&#xd;&#xd;&#xd;&#xd;&#xd;&#xd;&#xd;
 &lt;background color="0,0,0,0"/>&#xd;&#xd;&#xd;&#xd;&#xd;&#xd;&#xd;
&lt;/kdenlivetitle>&#xd;&#xd;&#xd;&#xd;&#xd;&#xd;&#xd;
</property>
  <property name="xml">was here</property>
  <property name="kdenlive:folderid">-1</property>
  <property name="kdenlive:id">70</property>
  <property name="kdenlive:clip_type">2</property>
  <property name="kdenlive:file_hash">e492bff66417872929f8d7edad41450f</property>
  <property name="force_reload">0</property>
  <property name="meta.media.width">1920</property>
  <property name="meta.media.height">1080</property>
 </producer>
 <producer id="producer45" in="00:00:00.000" out="00:00:07.508">
  <property name="length">451</property>
  <property name="eof">pause</property>
  <property name="resource"/>
  <property name="meta.media.progressive">1</property>
  <property name="aspect_ratio">1</property>
  <property name="seekable">1</property>
  <property name="mlt_service">kdenlivetitle</property>
  <property name="kdenlive:duration">00:00:05;00</property>
  <property name="kdenlive:clipname">Pink Rectangle Wide</property>
  <property name="xmldata">&lt;kdenlivetitle duration="300" LC_NUMERIC="C" width="1920" height="1080" out="299">&#xd;&#xd;&#xd;&#xd;&#xd;&#xd;&#xd;
 &lt;item type="QGraphicsRectItem" z-index="0">&#xd;&#xd;&#xd;&#xd;&#xd;&#xd;&#xd;
  &lt;position x="624" y="354">&#xd;&#xd;&#xd;&#xd;&#xd;&#xd;&#xd;
   &lt;transform zoom="100">1,0,0,0,1,0,0,0,1&lt;/transform>&#xd;&#xd;&#xd;&#xd;&#xd;&#xd;&#xd;
  &lt;/position>&#xd;&#xd;&#xd;&#xd;&#xd;&#xd;&#xd;
  &lt;content brushcolor="209,246,250,0" pencolor="252,211,255,255" penwidth="13" rect="0,0,1187,340"/>&#xd;&#xd;&#xd;&#xd;&#xd;&#xd;&#xd;
 &lt;/item>&#xd;&#xd;&#xd;&#xd;&#xd;&#xd;&#xd;
 &lt;startviewport rect="0,0,1920,1080"/>&#xd;&#xd;&#xd;&#xd;&#xd;&#xd;&#xd;
 &lt;endviewport rect="0,0,1920,1080"/>&#xd;&#xd;&#xd;&#xd;&#xd;&#xd;&#xd;
 &lt;background color="0,0,0,0"/>&#xd;&#xd;&#xd;&#xd;&#xd;&#xd;&#xd;
&lt;/kdenlivetitle>&#xd;&#xd;&#xd;&#xd;&#xd;&#xd;&#xd;
</property>
  <property name="xml">was here</property>
  <property name="kdenlive:folderid">-1</property>
  <property name="kdenlive:id">71</property>
  <property name="kdenlive:clip_type">2</property>
  <property name="kdenlive:file_hash">476c46af6122ffb6006294e4b9f5f21d</property>
  <property name="force_reload">0</property>
  <property name="meta.media.width">1920</property>
  <property name="meta.media.height">1080</property>
 </producer>
 <producer id="producer46" in="00:00:00.000" out="00:00:07.508">
  <property name="length">451</property>
  <property name="eof">pause</property>
  <property name="resource"/>
  <property name="meta.media.progressive">1</property>
  <property name="aspect_ratio">1</property>
  <property name="seekable">1</property>
  <property name="mlt_service">kdenlivetitle</property>
  <property name="kdenlive:duration">00:00:05;00</property>
  <property name="kdenlive:clipname">Pink Rectangle Short</property>
  <property name="xmldata">&lt;kdenlivetitle duration="300" LC_NUMERIC="C" width="1920" height="1080" out="299">&#xd;&#xd;&#xd;&#xd;&#xd;&#xd;&#xd;
 &lt;item type="QGraphicsRectItem" z-index="0">&#xd;&#xd;&#xd;&#xd;&#xd;&#xd;&#xd;
  &lt;position x="1068" y="754">&#xd;&#xd;&#xd;&#xd;&#xd;&#xd;&#xd;
   &lt;transform zoom="100">1,0,0,0,1,0,0,0,1&lt;/transform>&#xd;&#xd;&#xd;&#xd;&#xd;&#xd;&#xd;
  &lt;/position>&#xd;&#xd;&#xd;&#xd;&#xd;&#xd;&#xd;
  &lt;content brushcolor="209,246,250,0" pencolor="252,211,255,255" penwidth="13" rect="0,0,211,207"/>&#xd;&#xd;&#xd;&#xd;&#xd;&#xd;&#xd;
 &lt;/item>&#xd;&#xd;&#xd;&#xd;&#xd;&#xd;&#xd;
 &lt;startviewport rect="0,0,1920,1080"/>&#xd;&#xd;&#xd;&#xd;&#xd;&#xd;&#xd;
 &lt;endviewport rect="0,0,1920,1080"/>&#xd;&#xd;&#xd;&#xd;&#xd;&#xd;&#xd;
 &lt;background color="0,0,0,0"/>&#xd;&#xd;&#xd;&#xd;&#xd;&#xd;&#xd;
&lt;/kdenlivetitle>&#xd;&#xd;&#xd;&#xd;&#xd;&#xd;&#xd;
</property>
  <property name="xml">was here</property>
  <property name="kdenlive:folderid">-1</property>
  <property name="kdenlive:id">72</property>
  <property name="kdenlive:clip_type">2</property>
  <property name="kdenlive:file_hash">476c46af6122ffb6006294e4b9f5f21d</property>
  <property name="force_reload">0</property>
  <property name="meta.media.width">1920</property>
  <property name="meta.media.height">1080</property>
 </producer>
 <producer id="producer60" in="00:00:00.000" out="00:00:04.988">
  <property name="length">00:00:05.005</property>
  <property name="eof">pause</property>
  <property name="resource">bobBag.JPG</property>
  <property name="ttl">25</property>
  <property name="aspect_ratio">1</property>
  <property name="meta.media.progressive">1</property>
  <property name="seekable">1</property>
  <property name="format">1</property>
  <property name="meta.media.width">5568</property>
  <property name="meta.media.height">4176</property>
  <property name="mlt_service">qimage</property>
  <property name="kdenlive:clipname"/>
  <property name="kdenlive:duration">00:00:05;00</property>
  <property name="xml">was here</property>
  <property name="kdenlive:folderid">-1</property>
  <property name="kdenlive:id">73</property>
  <property name="kdenlive:clip_type">2</property>
  <property name="kdenlive:file_size">4418117</property>
  <property name="kdenlive:file_hash">a263aeb082c189f60e2045d971125e8a</property>
 </producer>
 <producer id="producer49" in="00:00:00.000" out="00:00:34.568">
  <property name="length">2073</property>
  <property name="eof">pause</property>
  <property name="resource">bobBag.png</property>
  <property name="ttl">25</property>
  <property name="aspect_ratio">1</property>
  <property name="meta.media.progressive">1</property>
  <property name="seekable">1</property>
  <property name="format">2</property>
  <property name="meta.media.width">1672</property>
  <property name="meta.media.height">2264</property>
  <property name="mlt_service">qimage</property>
  <property name="kdenlive:clipname"/>
  <property name="kdenlive:duration">00:00:05;00</property>
  <property name="xml">was here</property>
  <property name="kdenlive:folderid">-1</property>
  <property name="kdenlive:id">74</property>
  <property name="kdenlive:clip_type">2</property>
  <property name="kdenlive:file_size">1268168</property>
  <property name="kdenlive:file_hash">75395a7ba6d8b862933152de7694f755</property>
 </producer>
 <producer id="producer50" in="00:00:00.000" out="00:00:20.020">
  <property name="length">1201</property>
  <property name="eof">pause</property>
  <property name="resource"/>
  <property name="meta.media.progressive">1</property>
  <property name="aspect_ratio">1</property>
  <property name="seekable">1</property>
  <property name="mlt_service">kdenlivetitle</property>
  <property name="kdenlive:duration">00:00:05;00</property>
  <property name="kdenlive:clipname">Little G</property>
  <property name="xmldata">&lt;kdenlivetitle duration="300" LC_NUMERIC="C" width="1920" height="1080" out="299">&#xd;&#xd;&#xd;&#xd;&#xd;&#xd;
 &lt;item type="QGraphicsTextItem" z-index="0">&#xd;&#xd;&#xd;&#xd;&#xd;&#xd;
  &lt;position x="1527" y="345">&#xd;&#xd;&#xd;&#xd;&#xd;&#xd;
   &lt;transform>1,0,0,0,1,0,0,0,1&lt;/transform>&#xd;&#xd;&#xd;&#xd;&#xd;&#xd;
  &lt;/position>&#xd;&#xd;&#xd;&#xd;&#xd;&#xd;
  &lt;content line-spacing="0" shadow="0;#64000000;3;3;3" font-underline="0" box-height="664" font-outline-color="0,0,0,255" font="MS Shell Dlg 2" letter-spacing="0" font-pixel-size="550" font-italic="0" typewriter="0;2;1;0;0" alignment="1" font-weight="50" font-outline="14" box-width="304" font-color="255,217,247,255">g&lt;/content>&#xd;&#xd;&#xd;&#xd;&#xd;&#xd;
 &lt;/item>&#xd;&#xd;&#xd;&#xd;&#xd;&#xd;
 &lt;startviewport rect="0,0,1920,1080"/>&#xd;&#xd;&#xd;&#xd;&#xd;&#xd;
 &lt;endviewport rect="0,0,1920,1080"/>&#xd;&#xd;&#xd;&#xd;&#xd;&#xd;
 &lt;background color="0,0,0,0"/>&#xd;&#xd;&#xd;&#xd;&#xd;&#xd;
&lt;/kdenlivetitle>&#xd;&#xd;&#xd;&#xd;&#xd;&#xd;
</property>
  <property name="xml">was here</property>
  <property name="kdenlive:folderid">-1</property>
  <property name="kdenlive:id">75</property>
  <property name="kdenlive:clip_type">2</property>
  <property name="kdenlive:file_hash">cf34733695c613cf7a1b38631b4bb1f2</property>
  <property name="force_reload">0</property>
  <property name="meta.media.width">1920</property>
  <property name="meta.media.height">1080</property>
 </producer>
 <producer id="producer56" in="00:00:00.000" out="00:00:15.832">
  <property name="length">950</property>
  <property name="eof">pause</property>
  <property name="resource"/>
  <property name="meta.media.progressive">1</property>
  <property name="aspect_ratio">1</property>
  <property name="seekable">1</property>
  <property name="mlt_service">kdenlivetitle</property>
  <property name="kdenlive:duration">00:00:05;00</property>
  <property name="kdenlive:clipname">s</property>
  <property name="xmldata">&lt;kdenlivetitle duration="300" LC_NUMERIC="C" width="1920" height="1080" out="299">&#xd;&#xd;&#xd;&#xd;&#xd;&#xd;
 &lt;item type="QGraphicsTextItem" z-index="0">&#xd;&#xd;&#xd;&#xd;&#xd;&#xd;
  &lt;position x="1527" y="345">&#xd;&#xd;&#xd;&#xd;&#xd;&#xd;
   &lt;transform>1,0,0,0,1,0,0,0,1&lt;/transform>&#xd;&#xd;&#xd;&#xd;&#xd;&#xd;
  &lt;/position>&#xd;&#xd;&#xd;&#xd;&#xd;&#xd;
  &lt;content line-spacing="0" shadow="0;#64000000;3;3;3" font-underline="0" box-height="664" font-outline-color="0,0,0,255" font="MS Shell Dlg 2" letter-spacing="0" font-pixel-size="550" font-italic="0" typewriter="0;2;1;0;0" alignment="1" font-weight="50" font-outline="14" box-width="245" font-color="255,217,247,255">s&lt;/content>&#xd;&#xd;&#xd;&#xd;&#xd;&#xd;
 &lt;/item>&#xd;&#xd;&#xd;&#xd;&#xd;&#xd;
 &lt;startviewport rect="0,0,1920,1080"/>&#xd;&#xd;&#xd;&#xd;&#xd;&#xd;
 &lt;endviewport rect="0,0,1920,1080"/>&#xd;&#xd;&#xd;&#xd;&#xd;&#xd;
 &lt;background color="0,0,0,0"/>&#xd;&#xd;&#xd;&#xd;&#xd;&#xd;
&lt;/kdenlivetitle>&#xd;&#xd;&#xd;&#xd;&#xd;&#xd;
</property>
  <property name="xml">was here</property>
  <property name="kdenlive:folderid">-1</property>
  <property name="kdenlive:id">76</property>
  <property name="kdenlive:clip_type">2</property>
  <property name="kdenlive:file_hash">57a8f4dda900484611d44a41f5a022f6</property>
  <property name="force_reload">0</property>
  <property name="meta.media.width">1920</property>
  <property name="meta.media.height">1080</property>
 </producer>
 <producer id="producer54" in="00:00:00.000" out="00:00:29.446">
  <property name="length">1766</property>
  <property name="eof">pause</property>
  <property name="resource">walmartBag.png</property>
  <property name="ttl">25</property>
  <property name="aspect_ratio">1</property>
  <property name="meta.media.progressive">1</property>
  <property name="seekable">1</property>
  <property name="format">2</property>
  <property name="meta.media.width">2034</property>
  <property name="meta.media.height">2151</property>
  <property name="mlt_service">qimage</property>
  <property name="kdenlive:clipname"/>
  <property name="kdenlive:duration">00:00:05;00</property>
  <property name="xml">was here</property>
  <property name="kdenlive:folderid">-1</property>
  <property name="kdenlive:id">77</property>
  <property name="kdenlive:clip_type">2</property>
  <property name="kdenlive:file_size">1987582</property>
  <property name="kdenlive:file_hash">6ea3e4315e7313267145d73a2aede349</property>
 </producer>
 <producer id="producer55" in="00:00:00.000" out="00:00:17.067">
  <property name="length">1024</property>
  <property name="eof">pause</property>
  <property name="resource">floridaBag.png</property>
  <property name="ttl">25</property>
  <property name="aspect_ratio">1</property>
  <property name="meta.media.progressive">1</property>
  <property name="seekable">1</property>
  <property name="format">2</property>
  <property name="meta.media.width">2292</property>
  <property name="meta.media.height">2226</property>
  <property name="mlt_service">qimage</property>
  <property name="kdenlive:clipname"/>
  <property name="kdenlive:duration">00:00:05;00</property>
  <property name="xml">was here</property>
  <property name="kdenlive:folderid">-1</property>
  <property name="kdenlive:id">78</property>
  <property name="kdenlive:clip_type">2</property>
  <property name="kdenlive:file_size">4705244</property>
  <property name="kdenlive:file_hash">2eb89122c41227c42ade73039558a7d8</property>
 </producer>
 <producer id="producer57" in="00:00:00.000" out="00:00:15.832">
  <property name="length">950</property>
  <property name="eof">pause</property>
  <property name="resource"/>
  <property name="meta.media.progressive">1</property>
  <property name="aspect_ratio">1</property>
  <property name="seekable">1</property>
  <property name="mlt_service">kdenlivetitle</property>
  <property name="kdenlive:duration">00:00:05;00</property>
  <property name="kdenlive:clipname">Bob's</property>
  <property name="xmldata">&lt;kdenlivetitle duration="300" LC_NUMERIC="C" width="1920" height="1080" out="299">&#xd;&#xd;&#xd;&#xd;&#xd;
 &lt;item type="QGraphicsTextItem" z-index="0">&#xd;&#xd;&#xd;&#xd;&#xd;
  &lt;position x="42" y="-9">&#xd;&#xd;&#xd;&#xd;&#xd;
   &lt;transform>1,0,0,0,1,0,0,0,1&lt;/transform>&#xd;&#xd;&#xd;&#xd;&#xd;
  &lt;/position>&#xd;&#xd;&#xd;&#xd;&#xd;
  &lt;content line-spacing="0" shadow="0;#64000000;3;3;3" font-underline="0" box-height="245" font-outline-color="0,0,0,255" font="MS Shell Dlg 2" letter-spacing="0" font-pixel-size="203" font-italic="0" typewriter="0;2;1;0;0" alignment="1" font-weight="50" font-outline="6" box-width="476" font-color="255,217,247,255">Bob's&lt;/content>&#xd;&#xd;&#xd;&#xd;&#xd;
 &lt;/item>&#xd;&#xd;&#xd;&#xd;&#xd;
 &lt;startviewport rect="0,0,1920,1080"/>&#xd;&#xd;&#xd;&#xd;&#xd;
 &lt;endviewport rect="0,0,1920,1080"/>&#xd;&#xd;&#xd;&#xd;&#xd;
 &lt;background color="0,0,0,0"/>&#xd;&#xd;&#xd;&#xd;&#xd;
&lt;/kdenlivetitle>&#xd;&#xd;&#xd;&#xd;&#xd;
</property>
  <property name="xml">was here</property>
  <property name="kdenlive:folderid">-1</property>
  <property name="kdenlive:id">79</property>
  <property name="kdenlive:clip_type">2</property>
  <property name="kdenlive:file_hash">f550d990d07b3e68b7ca4523143c2502</property>
  <property name="force_reload">0</property>
  <property name="meta.media.width">1920</property>
  <property name="meta.media.height">1080</property>
 </producer>
 <producer id="producer51" in="00:00:00.000" out="00:00:15.832">
  <property name="length">950</property>
  <property name="eof">pause</property>
  <property name="resource"/>
  <property name="meta.media.progressive">1</property>
  <property name="aspect_ratio">1</property>
  <property name="seekable">1</property>
  <property name="mlt_service">kdenlivetitle</property>
  <property name="kdenlive:duration">00:00:05;00</property>
  <property name="kdenlive:clipname">Beach</property>
  <property name="xmldata">&lt;kdenlivetitle duration="300" LC_NUMERIC="C" width="1920" height="1080" out="299">&#xd;&#xd;&#xd;&#xd;&#xd;&#xd;
 &lt;item type="QGraphicsTextItem" z-index="0">&#xd;&#xd;&#xd;&#xd;&#xd;&#xd;
  &lt;position x="1265" y="34">&#xd;&#xd;&#xd;&#xd;&#xd;&#xd;
   &lt;transform>1,0,0,0,1,0,0,0,1&lt;/transform>&#xd;&#xd;&#xd;&#xd;&#xd;&#xd;
  &lt;/position>&#xd;&#xd;&#xd;&#xd;&#xd;&#xd;
  &lt;content line-spacing="0" shadow="0;#64000000;3;3;3" font-underline="0" box-height="240" font-outline-color="0,0,0,255" font="MS Shell Dlg 2" letter-spacing="0" font-pixel-size="199" font-italic="0" typewriter="0;2;1;0;0" alignment="1" font-weight="50" font-outline="6" box-width="529" font-color="255,217,247,255">Beach&lt;/content>&#xd;&#xd;&#xd;&#xd;&#xd;&#xd;
 &lt;/item>&#xd;&#xd;&#xd;&#xd;&#xd;&#xd;
 &lt;startviewport rect="0,0,1920,1080"/>&#xd;&#xd;&#xd;&#xd;&#xd;&#xd;
 &lt;endviewport rect="0,0,1920,1080"/>&#xd;&#xd;&#xd;&#xd;&#xd;&#xd;
 &lt;background color="0,0,0,0"/>&#xd;&#xd;&#xd;&#xd;&#xd;&#xd;
&lt;/kdenlivetitle>&#xd;&#xd;&#xd;&#xd;&#xd;&#xd;
</property>
  <property name="xml">was here</property>
  <property name="kdenlive:folderid">-1</property>
  <property name="kdenlive:id">80</property>
  <property name="kdenlive:clip_type">2</property>
  <property name="kdenlive:file_hash">92290cbc6e3662eca8254a7dab7c6fac</property>
  <property name="force_reload">0</property>
  <property name="meta.media.width">1920</property>
  <property name="meta.media.height">1080</property>
 </producer>
 <producer id="producer58" in="00:00:00.000" out="00:00:15.832">
  <property name="length">950</property>
  <property name="eof">pause</property>
  <property name="resource"/>
  <property name="meta.media.progressive">1</property>
  <property name="aspect_ratio">1</property>
  <property name="seekable">1</property>
  <property name="mlt_service">kdenlivetitle</property>
  <property name="kdenlive:duration">00:00:05;00</property>
  <property name="kdenlive:clipname">bag</property>
  <property name="xmldata">&lt;kdenlivetitle duration="300" LC_NUMERIC="C" width="1920" height="1080" out="299">&#xd;&#xd;&#xd;&#xd;&#xd;&#xd;
 &lt;item type="QGraphicsTextItem" z-index="0">&#xd;&#xd;&#xd;&#xd;&#xd;&#xd;
  &lt;position x="1265" y="34">&#xd;&#xd;&#xd;&#xd;&#xd;&#xd;
   &lt;transform>1,0,0,0,1,0,0,0,1&lt;/transform>&#xd;&#xd;&#xd;&#xd;&#xd;&#xd;
  &lt;/position>&#xd;&#xd;&#xd;&#xd;&#xd;&#xd;
  &lt;content line-spacing="0" shadow="0;#64000000;3;3;3" font-underline="0" box-height="240" font-outline-color="0,0,0,255" font="MS Shell Dlg 2" letter-spacing="0" font-pixel-size="199" font-italic="0" typewriter="0;2;1;0;0" alignment="1" font-weight="50" font-outline="6" box-width="324" font-color="255,217,247,255">bag&lt;/content>&#xd;&#xd;&#xd;&#xd;&#xd;&#xd;
 &lt;/item>&#xd;&#xd;&#xd;&#xd;&#xd;&#xd;
 &lt;startviewport rect="0,0,1920,1080"/>&#xd;&#xd;&#xd;&#xd;&#xd;&#xd;
 &lt;endviewport rect="0,0,1920,1080"/>&#xd;&#xd;&#xd;&#xd;&#xd;&#xd;
 &lt;background color="0,0,0,0"/>&#xd;&#xd;&#xd;&#xd;&#xd;&#xd;
&lt;/kdenlivetitle>&#xd;&#xd;&#xd;&#xd;&#xd;&#xd;
</property>
  <property name="xml">was here</property>
  <property name="kdenlive:folderid">-1</property>
  <property name="kdenlive:id">81</property>
  <property name="kdenlive:clip_type">2</property>
  <property name="kdenlive:file_hash">7f499b6cc2313e0d6e3b67bc247a6dcf</property>
  <property name="force_reload">0</property>
  <property name="meta.media.width">1920</property>
  <property name="meta.media.height">1080</property>
 </producer>
 <producer id="producer52" in="00:00:00.000" out="00:00:19.653">
  <property name="length">1179</property>
  <property name="eof">pause</property>
  <property name="resource">beachBag.png</property>
  <property name="ttl">25</property>
  <property name="aspect_ratio">1</property>
  <property name="meta.media.progressive">1</property>
  <property name="seekable">1</property>
  <property name="format">2</property>
  <property name="meta.media.width">2948</property>
  <property name="meta.media.height">3135</property>
  <property name="mlt_service">qimage</property>
  <property name="kdenlive:clipname"/>
  <property name="kdenlive:duration">00:00:05;00</property>
  <property name="xml">was here</property>
  <property name="kdenlive:folderid">-1</property>
  <property name="kdenlive:id">82</property>
  <property name="kdenlive:clip_type">2</property>
  <property name="kdenlive:file_size">7096597</property>
  <property name="kdenlive:file_hash">92449071c07ffea46b5e99f49c2f148c</property>
 </producer>
 <producer id="producer53" in="00:00:00.000" out="00:00:22.973">
  <property name="length">1378</property>
  <property name="eof">pause</property>
  <property name="resource">foodBag.png</property>
  <property name="ttl">25</property>
  <property name="aspect_ratio">1</property>
  <property name="meta.media.progressive">1</property>
  <property name="seekable">1</property>
  <property name="format">2</property>
  <property name="meta.media.width">2370</property>
  <property name="meta.media.height">2592</property>
  <property name="mlt_service">qimage</property>
  <property name="kdenlive:clipname"/>
  <property name="kdenlive:duration">00:00:05;00</property>
  <property name="xml">was here</property>
  <property name="kdenlive:folderid">-1</property>
  <property name="kdenlive:id">83</property>
  <property name="kdenlive:clip_type">2</property>
  <property name="kdenlive:file_size">3587677</property>
  <property name="kdenlive:file_hash">f5188ff46eb7c0d807f4fdc4ebc2481b</property>
 </producer>
 <producer id="producer59" in="00:00:00.000" out="00:00:15.832">
  <property name="length">950</property>
  <property name="eof">pause</property>
  <property name="resource"/>
  <property name="meta.media.progressive">1</property>
  <property name="aspect_ratio">1</property>
  <property name="seekable">1</property>
  <property name="mlt_service">kdenlivetitle</property>
  <property name="kdenlive:duration">00:00:05;00</property>
  <property name="kdenlive:clipname">Food</property>
  <property name="xmldata">&lt;kdenlivetitle duration="300" LC_NUMERIC="C" width="1920" height="1080" out="299">&#xd;&#xd;&#xd;&#xd;&#xd;&#xd;
 &lt;item type="QGraphicsTextItem" z-index="0">&#xd;&#xd;&#xd;&#xd;&#xd;&#xd;
  &lt;position x="646" y="37">&#xd;&#xd;&#xd;&#xd;&#xd;&#xd;
   &lt;transform>1,0,0,0,1,0,0,0,1&lt;/transform>&#xd;&#xd;&#xd;&#xd;&#xd;&#xd;
  &lt;/position>&#xd;&#xd;&#xd;&#xd;&#xd;&#xd;
  &lt;content line-spacing="0" shadow="0;#64000000;3;3;3" font-underline="0" box-height="240" font-outline-color="0,0,0,255" font="MS Shell Dlg 2" letter-spacing="0" font-pixel-size="199" font-italic="0" typewriter="0;2;1;0;0" alignment="1" font-weight="50" font-outline="6" box-width="430" font-color="255,217,247,255">Food&lt;/content>&#xd;&#xd;&#xd;&#xd;&#xd;&#xd;
 &lt;/item>&#xd;&#xd;&#xd;&#xd;&#xd;&#xd;
 &lt;startviewport rect="0,0,1920,1080"/>&#xd;&#xd;&#xd;&#xd;&#xd;&#xd;
 &lt;endviewport rect="0,0,1920,1080"/>&#xd;&#xd;&#xd;&#xd;&#xd;&#xd;
 &lt;background color="0,0,0,0"/>&#xd;&#xd;&#xd;&#xd;&#xd;&#xd;
&lt;/kdenlivetitle>&#xd;&#xd;&#xd;&#xd;&#xd;&#xd;
</property>
  <property name="xml">was here</property>
  <property name="kdenlive:folderid">-1</property>
  <property name="kdenlive:id">84</property>
  <property name="kdenlive:clip_type">2</property>
  <property name="kdenlive:file_hash">7f499b6cc2313e0d6e3b67bc247a6dcf</property>
  <property name="force_reload">0</property>
  <property name="meta.media.width">1920</property>
  <property name="meta.media.height">1080</property>
 </producer>
 <chain id="chain46" out="00:00:22.406">
  <property name="length">1344</property>
  <property name="eof">pause</property>
  <property name="resource">bobBagOfBalls.webm</property>
  <property name="mlt_service">avformat-novalidate</property>
  <property name="meta.media.nb_streams">2</property>
  <property name="meta.media.0.stream.type">video</property>
  <property name="meta.media.0.stream.frame_rate">59.9401</property>
  <property name="meta.media.0.stream.sample_aspect_ratio">1</property>
  <property name="meta.media.0.codec.width">1920</property>
  <property name="meta.media.0.codec.height">1080</property>
  <property name="meta.media.0.codec.rotate">0</property>
  <property name="meta.media.0.codec.pix_fmt">yuv420p</property>
  <property name="meta.media.0.codec.sample_aspect_ratio">0</property>
  <property name="meta.media.0.codec.colorspace">709</property>
  <property name="meta.media.0.codec.color_trc">1</property>
  <property name="meta.media.0.codec.name">vp9</property>
  <property name="meta.media.0.codec.long_name">Google VP9</property>
  <property name="meta.media.0.codec.bit_rate">0</property>
  <property name="meta.attr.0.stream.DURATION.markup">00:00:22.406000000</property>
  <property name="meta.media.1.stream.type">audio</property>
  <property name="meta.media.1.codec.sample_fmt">fltp</property>
  <property name="meta.media.1.codec.sample_rate">48000</property>
  <property name="meta.media.1.codec.channels">2</property>
  <property name="meta.media.1.codec.name">opus</property>
  <property name="meta.media.1.codec.long_name">Opus</property>
  <property name="meta.media.1.codec.bit_rate">0</property>
  <property name="meta.attr.1.stream.DURATION.markup">00:00:22.428000000</property>
  <property name="meta.attr.ENCODER.markup">Lavf60.16.100</property>
  <property name="seekable">1</property>
  <property name="meta.media.sample_aspect_num">1</property>
  <property name="meta.media.sample_aspect_den">1</property>
  <property name="audio_index">1</property>
  <property name="video_index">0</property>
  <property name="vstream">0</property>
  <property name="meta.media.frame_rate_num">60000</property>
  <property name="meta.media.frame_rate_den">1001</property>
  <property name="meta.media.colorspace">709</property>
  <property name="meta.media.color_trc">1</property>
  <property name="meta.media.has_b_frames">0</property>
  <property name="meta.media.width">1920</property>
  <property name="meta.media.height">1080</property>
  <property name="meta.media.color_range">full</property>
  <property name="astream">0</property>
  <property name="meta.media.top_field_first">0</property>
  <property name="meta.media.progressive">1</property>
  <property name="kdenlive:folderid">-1</property>
  <property name="kdenlive:id">85</property>
  <property name="mute_on_pause">0</property>
  <property name="kdenlive:clip_type">0</property>
  <property name="kdenlive:file_size">40193950</property>
  <property name="kdenlive:file_hash">8b3b66847d8b2498bebf3eedb13a30f5</property>
  <property name="kdenlive:audio_max1">202</property>
 </chain>
 <producer id="producer47" in="00:00:00.000" out="00:00:20.370">
  <property name="length">1222</property>
  <property name="eof">pause</property>
  <property name="resource">fullOfBallsTitle.png</property>
  <property name="ttl">25</property>
  <property name="aspect_ratio">1</property>
  <property name="meta.media.progressive">1</property>
  <property name="seekable">1</property>
  <property name="format">2</property>
  <property name="meta.media.width">1920</property>
  <property name="meta.media.height">1080</property>
  <property name="mlt_service">qimage</property>
  <property name="kdenlive:clipname"/>
  <property name="kdenlive:duration">00:00:05;00</property>
  <property name="xml">was here</property>
  <property name="kdenlive:folderid">-1</property>
  <property name="kdenlive:id">86</property>
  <property name="kdenlive:clip_type">2</property>
  <property name="kdenlive:file_size">1513453</property>
  <property name="kdenlive:file_hash">099cf7ddcd027c332d28afa221ffa327</property>
 </producer>
 <producer id="producer61" in="00:00:00.000" out="00:00:15.832">
  <property name="length">950</property>
  <property name="eof">pause</property>
  <property name="resource"/>
  <property name="meta.media.progressive">1</property>
  <property name="aspect_ratio">1</property>
  <property name="seekable">1</property>
  <property name="mlt_service">kdenlivetitle</property>
  <property name="kdenlive:duration">00:00:05;00</property>
  <property name="kdenlive:clipname">Bob's Small</property>
  <property name="xmldata">&lt;kdenlivetitle duration="300" LC_NUMERIC="C" width="1920" height="1080" out="299">&#xd;&#xd;&#xd;&#xd;&#xd;
 &lt;item type="QGraphicsTextItem" z-index="0">&#xd;&#xd;&#xd;&#xd;&#xd;
  &lt;position x="56" y="53">&#xd;&#xd;&#xd;&#xd;&#xd;
   &lt;transform>1,0,0,0,1,0,0,0,1&lt;/transform>&#xd;&#xd;&#xd;&#xd;&#xd;
  &lt;/position>&#xd;&#xd;&#xd;&#xd;&#xd;
  &lt;content line-spacing="0" shadow="0;#64000000;3;3;3" font-underline="0" box-height="181" font-outline-color="0,0,0,255" font="MS Shell Dlg 2" letter-spacing="0" font-pixel-size="150" font-italic="0" typewriter="0;2;1;0;0" alignment="1" font-weight="50" font-outline="6" box-width="351" font-color="255,217,247,255">Bob's&lt;/content>&#xd;&#xd;&#xd;&#xd;&#xd;
 &lt;/item>&#xd;&#xd;&#xd;&#xd;&#xd;
 &lt;startviewport rect="0,0,1920,1080"/>&#xd;&#xd;&#xd;&#xd;&#xd;
 &lt;endviewport rect="0,0,1920,1080"/>&#xd;&#xd;&#xd;&#xd;&#xd;
 &lt;background color="0,0,0,0"/>&#xd;&#xd;&#xd;&#xd;&#xd;
&lt;/kdenlivetitle>&#xd;&#xd;&#xd;&#xd;&#xd;
</property>
  <property name="xml">was here</property>
  <property name="kdenlive:folderid">-1</property>
  <property name="kdenlive:id">87</property>
  <property name="kdenlive:clip_type">2</property>
  <property name="kdenlive:file_hash">92290cbc6e3662eca8254a7dab7c6fac</property>
  <property name="force_reload">0</property>
  <property name="meta.media.width">1920</property>
  <property name="meta.media.height">1080</property>
 </producer>
 <producer id="producer63" in="00:00:00.000" out="00:00:15.832">
  <property name="length">950</property>
  <property name="eof">pause</property>
  <property name="resource"/>
  <property name="meta.media.progressive">1</property>
  <property name="aspect_ratio">1</property>
  <property name="seekable">1</property>
  <property name="mlt_service">kdenlivetitle</property>
  <property name="kdenlive:duration">00:00:05;00</property>
  <property name="kdenlive:clipname">bag small</property>
  <property name="xmldata">&lt;kdenlivetitle duration="300" LC_NUMERIC="C" width="1920" height="1080" out="299">&#xd;&#xd;&#xd;&#xd;&#xd;
 &lt;item type="QGraphicsTextItem" z-index="0">&#xd;&#xd;&#xd;&#xd;&#xd;
  &lt;position x="482" y="50">&#xd;&#xd;&#xd;&#xd;&#xd;
   &lt;transform>1,0,0,0,1,0,0,0,1&lt;/transform>&#xd;&#xd;&#xd;&#xd;&#xd;
  &lt;/position>&#xd;&#xd;&#xd;&#xd;&#xd;
  &lt;content line-spacing="0" shadow="0;#64000000;3;3;3" font-underline="0" box-height="181" font-outline-color="0,0,0,255" font="MS Shell Dlg 2" letter-spacing="0" font-pixel-size="150" font-italic="0" typewriter="0;2;1;0;0" alignment="1" font-weight="50" font-outline="6" box-width="245" font-color="255,217,247,255">bag&lt;/content>&#xd;&#xd;&#xd;&#xd;&#xd;
 &lt;/item>&#xd;&#xd;&#xd;&#xd;&#xd;
 &lt;startviewport rect="0,0,1920,1080"/>&#xd;&#xd;&#xd;&#xd;&#xd;
 &lt;endviewport rect="0,0,1920,1080"/>&#xd;&#xd;&#xd;&#xd;&#xd;
 &lt;background color="0,0,0,0"/>&#xd;&#xd;&#xd;&#xd;&#xd;
&lt;/kdenlivetitle>&#xd;&#xd;&#xd;&#xd;&#xd;
</property>
  <property name="xml">was here</property>
  <property name="kdenlive:folderid">-1</property>
  <property name="kdenlive:id">88</property>
  <property name="kdenlive:clip_type">2</property>
  <property name="kdenlive:file_hash">9ea182692145b25f441da2132a11642a</property>
  <property name="force_reload">0</property>
  <property name="meta.media.width">1920</property>
  <property name="meta.media.height">1080</property>
 </producer>
 <producer id="producer65" in="00:00:00.000" out="00:00:15.832">
  <property name="length">950</property>
  <property name="eof">pause</property>
  <property name="resource"/>
  <property name="meta.media.progressive">1</property>
  <property name="aspect_ratio">1</property>
  <property name="seekable">1</property>
  <property name="mlt_service">kdenlivetitle</property>
  <property name="kdenlive:duration">00:00:05;00</property>
  <property name="kdenlive:clipname">is</property>
  <property name="xmldata">&lt;kdenlivetitle duration="300" LC_NUMERIC="C" width="1920" height="1080" out="299">&#xd;&#xd;&#xd;&#xd;&#xd;
 &lt;item type="QGraphicsTextItem" z-index="0">&#xd;&#xd;&#xd;&#xd;&#xd;
  &lt;position x="800" y="51">&#xd;&#xd;&#xd;&#xd;&#xd;
   &lt;transform>1,0,0,0,1,0,0,0,1&lt;/transform>&#xd;&#xd;&#xd;&#xd;&#xd;
  &lt;/position>&#xd;&#xd;&#xd;&#xd;&#xd;
  &lt;content line-spacing="0" shadow="0;#64000000;3;3;3" font-underline="0" box-height="181" font-outline-color="0,0,0,255" font="MS Shell Dlg 2" letter-spacing="0" font-pixel-size="150" font-italic="0" typewriter="0;2;1;0;0" alignment="1" font-weight="50" font-outline="6" box-width="101" font-color="255,217,247,255">is&lt;/content>&#xd;&#xd;&#xd;&#xd;&#xd;
 &lt;/item>&#xd;&#xd;&#xd;&#xd;&#xd;
 &lt;startviewport rect="0,0,1920,1080"/>&#xd;&#xd;&#xd;&#xd;&#xd;
 &lt;endviewport rect="0,0,1920,1080"/>&#xd;&#xd;&#xd;&#xd;&#xd;
 &lt;background color="0,0,0,0"/>&#xd;&#xd;&#xd;&#xd;&#xd;
&lt;/kdenlivetitle>&#xd;&#xd;&#xd;&#xd;&#xd;
</property>
  <property name="xml">was here</property>
  <property name="kdenlive:folderid">-1</property>
  <property name="kdenlive:id">89</property>
  <property name="kdenlive:clip_type">2</property>
  <property name="kdenlive:file_hash">c6c76ac20f4e4b7c4f17e81df2b56fdc</property>
  <property name="force_reload">0</property>
  <property name="meta.media.width">1920</property>
  <property name="meta.media.height">1080</property>
 </producer>
 <producer id="producer67" in="00:00:00.000" out="00:00:15.832">
  <property name="length">950</property>
  <property name="eof">pause</property>
  <property name="resource"/>
  <property name="meta.media.progressive">1</property>
  <property name="aspect_ratio">1</property>
  <property name="seekable">1</property>
  <property name="mlt_service">kdenlivetitle</property>
  <property name="kdenlive:duration">00:00:05;00</property>
  <property name="kdenlive:clipname">full</property>
  <property name="xmldata">&lt;kdenlivetitle duration="300" LC_NUMERIC="C" width="1920" height="1080" out="299">&#xd;&#xd;&#xd;&#xd;&#xd;
 &lt;item type="QGraphicsTextItem" z-index="0">&#xd;&#xd;&#xd;&#xd;&#xd;
  &lt;position x="990" y="51">&#xd;&#xd;&#xd;&#xd;&#xd;
   &lt;transform>1,0,0,0,1,0,0,0,1&lt;/transform>&#xd;&#xd;&#xd;&#xd;&#xd;
  &lt;/position>&#xd;&#xd;&#xd;&#xd;&#xd;
  &lt;content line-spacing="0" shadow="0;#64000000;3;3;3" font-underline="0" box-height="181" font-outline-color="0,0,0,255" font="MS Shell Dlg 2" letter-spacing="0" font-pixel-size="150" font-italic="0" typewriter="0;2;1;0;0" alignment="1" font-weight="50" font-outline="6" box-width="200" font-color="255,217,247,255">full&lt;/content>&#xd;&#xd;&#xd;&#xd;&#xd;
 &lt;/item>&#xd;&#xd;&#xd;&#xd;&#xd;
 &lt;startviewport rect="0,0,1920,1080"/>&#xd;&#xd;&#xd;&#xd;&#xd;
 &lt;endviewport rect="0,0,1920,1080"/>&#xd;&#xd;&#xd;&#xd;&#xd;
 &lt;background color="0,0,0,0"/>&#xd;&#xd;&#xd;&#xd;&#xd;
&lt;/kdenlivetitle>&#xd;&#xd;&#xd;&#xd;&#xd;
</property>
  <property name="xml">was here</property>
  <property name="kdenlive:folderid">-1</property>
  <property name="kdenlive:id">90</property>
  <property name="kdenlive:clip_type">2</property>
  <property name="kdenlive:file_hash">d945240ac1fb52ec35667079ee480be1</property>
  <property name="force_reload">0</property>
  <property name="meta.media.width">1920</property>
  <property name="meta.media.height">1080</property>
 </producer>
 <producer id="producer68" in="00:00:00.000" out="00:00:15.832">
  <property name="length">950</property>
  <property name="eof">pause</property>
  <property name="resource"/>
  <property name="meta.media.progressive">1</property>
  <property name="aspect_ratio">1</property>
  <property name="seekable">1</property>
  <property name="mlt_service">kdenlivetitle</property>
  <property name="kdenlive:duration">00:00:05;00</property>
  <property name="kdenlive:clipname">of</property>
  <property name="xmldata">&lt;kdenlivetitle duration="300" LC_NUMERIC="C" width="1920" height="1080" out="299">&#xd;&#xd;&#xd;&#xd;&#xd;
 &lt;item type="QGraphicsTextItem" z-index="0">&#xd;&#xd;&#xd;&#xd;&#xd;
  &lt;position x="1270" y="51">&#xd;&#xd;&#xd;&#xd;&#xd;
   &lt;transform>1,0,0,0,1,0,0,0,1&lt;/transform>&#xd;&#xd;&#xd;&#xd;&#xd;
  &lt;/position>&#xd;&#xd;&#xd;&#xd;&#xd;
  &lt;content line-spacing="0" shadow="0;#64000000;3;3;3" font-underline="0" box-height="181" font-outline-color="0,0,0,255" font="MS Shell Dlg 2" letter-spacing="0" font-pixel-size="150" font-italic="0" typewriter="0;2;1;0;0" alignment="1" font-weight="50" font-outline="6" box-width="134" font-color="255,217,247,255">of&lt;/content>&#xd;&#xd;&#xd;&#xd;&#xd;
 &lt;/item>&#xd;&#xd;&#xd;&#xd;&#xd;
 &lt;startviewport rect="0,0,1920,1080"/>&#xd;&#xd;&#xd;&#xd;&#xd;
 &lt;endviewport rect="0,0,1920,1080"/>&#xd;&#xd;&#xd;&#xd;&#xd;
 &lt;background color="0,0,0,0"/>&#xd;&#xd;&#xd;&#xd;&#xd;
&lt;/kdenlivetitle>&#xd;&#xd;&#xd;&#xd;&#xd;
</property>
  <property name="xml">was here</property>
  <property name="kdenlive:folderid">-1</property>
  <property name="kdenlive:id">91</property>
  <property name="kdenlive:clip_type">2</property>
  <property name="kdenlive:file_hash">24a8929e4734d7736d99a99fe587a0bc</property>
  <property name="force_reload">0</property>
  <property name="meta.media.width">1920</property>
  <property name="meta.media.height">1080</property>
 </producer>
 <producer id="producer69" in="00:00:00.000" out="00:00:15.832">
  <property name="length">950</property>
  <property name="eof">pause</property>
  <property name="resource"/>
  <property name="meta.media.progressive">1</property>
  <property name="aspect_ratio">1</property>
  <property name="seekable">1</property>
  <property name="mlt_service">kdenlivetitle</property>
  <property name="kdenlive:duration">00:00:05;00</property>
  <property name="kdenlive:clipname">balls.</property>
  <property name="xmldata">&lt;kdenlivetitle duration="300" LC_NUMERIC="C" width="1920" height="1080" out="299">&#xd;&#xd;&#xd;&#xd;&#xd;
 &lt;item type="QGraphicsTextItem" z-index="0">&#xd;&#xd;&#xd;&#xd;&#xd;
  &lt;position x="1500" y="51">&#xd;&#xd;&#xd;&#xd;&#xd;
   &lt;transform>1,0,0,0,1,0,0,0,1&lt;/transform>&#xd;&#xd;&#xd;&#xd;&#xd;
  &lt;/position>&#xd;&#xd;&#xd;&#xd;&#xd;
  &lt;content line-spacing="0" shadow="0;#64000000;3;3;3" font-underline="0" box-height="181" font-outline-color="0,0,0,255" font="MS Shell Dlg 2" letter-spacing="0" font-pixel-size="150" font-italic="0" typewriter="0;2;1;0;0" alignment="1" font-weight="50" font-outline="6" box-width="342" font-color="255,217,247,255">balls.&lt;/content>&#xd;&#xd;&#xd;&#xd;&#xd;
 &lt;/item>&#xd;&#xd;&#xd;&#xd;&#xd;
 &lt;startviewport rect="0,0,1920,1080"/>&#xd;&#xd;&#xd;&#xd;&#xd;
 &lt;endviewport rect="0,0,1920,1080"/>&#xd;&#xd;&#xd;&#xd;&#xd;
 &lt;background color="0,0,0,0"/>&#xd;&#xd;&#xd;&#xd;&#xd;
&lt;/kdenlivetitle>&#xd;&#xd;&#xd;&#xd;&#xd;
</property>
  <property name="xml">was here</property>
  <property name="kdenlive:folderid">-1</property>
  <property name="kdenlive:id">92</property>
  <property name="kdenlive:clip_type">2</property>
  <property name="kdenlive:file_hash">ef2073bb9a6b77480733610842be1b3f</property>
  <property name="force_reload">0</property>
  <property name="meta.media.width">1920</property>
  <property name="meta.media.height">1080</property>
 </producer>
 <producer id="producer62" in="00:00:00.000" out="00:00:07.591">
  <property name="length">456</property>
  <property name="eof">pause</property>
  <property name="resource">endingCircleRight2.png</property>
  <property name="ttl">25</property>
  <property name="aspect_ratio">1</property>
  <property name="meta.media.progressive">1</property>
  <property name="seekable">1</property>
  <property name="format">2</property>
  <property name="meta.media.width">1920</property>
  <property name="meta.media.height">1080</property>
  <property name="mlt_service">qimage</property>
  <property name="kdenlive:clipname"/>
  <property name="kdenlive:duration">00:00:05;00</property>
  <property name="xml">was here</property>
  <property name="kdenlive:folderid">-1</property>
  <property name="kdenlive:id">93</property>
  <property name="kdenlive:clip_type">2</property>
  <property name="kdenlive:file_size">1455544</property>
  <property name="kdenlive:file_hash">994cab18e821d680d4a5ccf1487099b9</property>
 </producer>
 <producer id="producer64" in="00:00:00.000" out="00:00:13.197">
  <property name="length">792</property>
  <property name="eof">pause</property>
  <property name="resource"/>
  <property name="meta.media.progressive">1</property>
  <property name="aspect_ratio">1</property>
  <property name="seekable">1</property>
  <property name="mlt_service">kdenlivetitle</property>
  <property name="kdenlive:duration">00:00:05;00</property>
  <property name="kdenlive:clipname">Ok, now for ...</property>
  <property name="xmldata">&lt;kdenlivetitle duration="300" LC_NUMERIC="C" width="1920" height="1080" out="299">&#xd;&#xd;&#xd;&#xd;&#xd;
 &lt;item type="QGraphicsTextItem" z-index="0">&#xd;&#xd;&#xd;&#xd;&#xd;
  &lt;position x="51" y="53">&#xd;&#xd;&#xd;&#xd;&#xd;
   &lt;transform>1,0,0,0,1,0,0,0,1&lt;/transform>&#xd;&#xd;&#xd;&#xd;&#xd;
  &lt;/position>&#xd;&#xd;&#xd;&#xd;&#xd;
  &lt;content line-spacing="0" shadow="0;#64000000;3;3;3" font-underline="0" box-height="122" font-outline-color="0,0,0,255" font="MS Shell Dlg 2" letter-spacing="0" font-pixel-size="101" font-italic="0" typewriter="0;2;1;0;0" alignment="1" font-weight="50" font-outline="6" box-width="1680" font-color="255,217,247,255">Ok, now for the BORING parent stuff.&lt;/content>&#xd;&#xd;&#xd;&#xd;&#xd;
 &lt;/item>&#xd;&#xd;&#xd;&#xd;&#xd;
 &lt;startviewport rect="0,0,1920,1080"/>&#xd;&#xd;&#xd;&#xd;&#xd;
 &lt;endviewport rect="0,0,1920,1080"/>&#xd;&#xd;&#xd;&#xd;&#xd;
 &lt;background color="0,0,0,0"/>&#xd;&#xd;&#xd;&#xd;&#xd;
&lt;/kdenlivetitle>&#xd;&#xd;&#xd;&#xd;&#xd;
</property>
  <property name="xml">was here</property>
  <property name="kdenlive:folderid">-1</property>
  <property name="kdenlive:id">94</property>
  <property name="kdenlive:clip_type">2</property>
  <property name="kdenlive:file_hash">6140fb0571f14c81179963959346b96e</property>
  <property name="force_reload">0</property>
  <property name="meta.media.width">1920</property>
  <property name="meta.media.height">1080</property>
 </producer>
 <producer id="producer66" in="00:00:00.000" out="00:00:09.376">
  <property name="length">563</property>
  <property name="eof">pause</property>
  <property name="resource">transparentBin.png</property>
  <property name="ttl">25</property>
  <property name="aspect_ratio">1</property>
  <property name="meta.media.progressive">1</property>
  <property name="seekable">1</property>
  <property name="format">2</property>
  <property name="meta.media.width">5561</property>
  <property name="meta.media.height">4169</property>
  <property name="mlt_service">qimage</property>
  <property name="kdenlive:clipname"/>
  <property name="kdenlive:duration">00:00:05;00</property>
  <property name="xml">was here</property>
  <property name="kdenlive:folderid">-1</property>
  <property name="kdenlive:id">95</property>
  <property name="kdenlive:clip_type">2</property>
  <property name="kdenlive:file_size">7377370</property>
  <property name="kdenlive:file_hash">e155860f722de35d1d5e86fda8ae01fb</property>
 </producer>
 <producer id="producer73" in="00:00:00.000" out="00:00:22.439">
  <property name="length">1346</property>
  <property name="eof">pause</property>
  <property name="resource"/>
  <property name="meta.media.progressive">1</property>
  <property name="aspect_ratio">1</property>
  <property name="seekable">1</property>
  <property name="mlt_service">kdenlivetitle</property>
  <property name="kdenlive:duration">00:00:05;00</property>
  <property name="kdenlive:clipname">Little i</property>
  <property name="xmldata">&lt;kdenlivetitle duration="300" LC_NUMERIC="C" width="1920" height="1080" out="299">&#xd;&#xd;&#xd;&#xd;
 &lt;item type="QGraphicsTextItem" z-index="0">&#xd;&#xd;&#xd;&#xd;
  &lt;position x="62" y="443">&#xd;&#xd;&#xd;&#xd;
   &lt;transform>1,0,0,0,1,0,0,0,1&lt;/transform>&#xd;&#xd;&#xd;&#xd;
  &lt;/position>&#xd;&#xd;&#xd;&#xd;
  &lt;content line-spacing="0" shadow="0;#64000000;3;3;3" font-underline="0" box-height="664" font-outline-color="0,0,0,255" font="MS Shell Dlg 2" letter-spacing="0" font-pixel-size="550" font-italic="0" typewriter="0;2;1;0;0" alignment="1" font-weight="50" font-outline="14" box-width="126" font-color="255,217,247,255">i&lt;/content>&#xd;&#xd;&#xd;&#xd;
 &lt;/item>&#xd;&#xd;&#xd;&#xd;
 &lt;startviewport rect="0,0,1920,1080"/>&#xd;&#xd;&#xd;&#xd;
 &lt;endviewport rect="0,0,1920,1080"/>&#xd;&#xd;&#xd;&#xd;
 &lt;background color="0,0,0,0"/>&#xd;&#xd;&#xd;&#xd;
&lt;/kdenlivetitle>&#xd;&#xd;&#xd;&#xd;
</property>
  <property name="xml">was here</property>
  <property name="kdenlive:folderid">-1</property>
  <property name="kdenlive:id">96</property>
  <property name="kdenlive:clip_type">2</property>
  <property name="kdenlive:file_hash">90592ff039bd150c6e709ddccc03c30e</property>
  <property name="force_reload">0</property>
  <property name="meta.media.width">1920</property>
  <property name="meta.media.height">1080</property>
 </producer>
 <producer id="producer76" in="00:00:00.000" out="00:00:22.439">
  <property name="length">1346</property>
  <property name="eof">pause</property>
  <property name="resource"/>
  <property name="meta.media.progressive">1</property>
  <property name="aspect_ratio">1</property>
  <property name="seekable">1</property>
  <property name="mlt_service">kdenlivetitle</property>
  <property name="kdenlive:duration">00:00:05;00</property>
  <property name="kdenlive:clipname">Little n</property>
  <property name="xmldata">&lt;kdenlivetitle duration="300" LC_NUMERIC="C" width="1920" height="1080" out="299">&#xd;&#xd;&#xd;&#xd;
 &lt;item type="QGraphicsTextItem" z-index="0">&#xd;&#xd;&#xd;&#xd;
  &lt;position x="62" y="443">&#xd;&#xd;&#xd;&#xd;
   &lt;transform>1,0,0,0,1,0,0,0,1&lt;/transform>&#xd;&#xd;&#xd;&#xd;
  &lt;/position>&#xd;&#xd;&#xd;&#xd;
  &lt;content line-spacing="0" shadow="0;#64000000;3;3;3" font-underline="0" box-height="664" font-outline-color="0,0,0,255" font="MS Shell Dlg 2" letter-spacing="0" font-pixel-size="550" font-italic="0" typewriter="0;2;1;0;0" alignment="1" font-weight="50" font-outline="14" box-width="307" font-color="255,217,247,255">n&lt;/content>&#xd;&#xd;&#xd;&#xd;
 &lt;/item>&#xd;&#xd;&#xd;&#xd;
 &lt;startviewport rect="0,0,1920,1080"/>&#xd;&#xd;&#xd;&#xd;
 &lt;endviewport rect="0,0,1920,1080"/>&#xd;&#xd;&#xd;&#xd;
 &lt;background color="0,0,0,0"/>&#xd;&#xd;&#xd;&#xd;
&lt;/kdenlivetitle>&#xd;&#xd;&#xd;&#xd;
</property>
  <property name="xml">was here</property>
  <property name="kdenlive:folderid">-1</property>
  <property name="kdenlive:id">97</property>
  <property name="kdenlive:clip_type">2</property>
  <property name="kdenlive:file_hash">e9ad0c5a608fc1d90221416e7ad6e876</property>
  <property name="force_reload">0</property>
  <property name="meta.media.width">1920</property>
  <property name="meta.media.height">1080</property>
 </producer>
 <producer id="producer70" in="00:00:00.000" out="00:00:04.988">
  <property name="length">00:00:05.005</property>
  <property name="eof">pause</property>
  <property name="resource">wildBin.png</property>
  <property name="ttl">25</property>
  <property name="aspect_ratio">1</property>
  <property name="meta.media.progressive">1</property>
  <property name="seekable">1</property>
  <property name="format">2</property>
  <property name="meta.media.width">792</property>
  <property name="meta.media.height">557</property>
  <property name="mlt_service">qimage</property>
  <property name="kdenlive:clipname"/>
  <property name="kdenlive:duration">00:00:05;00</property>
  <property name="xml">was here</property>
  <property name="kdenlive:folderid">-1</property>
  <property name="kdenlive:id">98</property>
  <property name="kdenlive:clip_type">2</property>
  <property name="kdenlive:file_size">588494</property>
  <property name="kdenlive:file_hash">0d44dbc3d7b52cf2eeaa3c0de86c38be</property>
 </producer>
 <producer id="producer80" in="00:00:00.000" out="00:00:04.988">
  <property name="length">00:00:05.005</property>
  <property name="eof">pause</property>
  <property name="resource">wildBin.png</property>
  <property name="ttl">25</property>
  <property name="aspect_ratio">1</property>
  <property name="meta.media.progressive">1</property>
  <property name="seekable">1</property>
  <property name="format">2</property>
  <property name="meta.media.width">792</property>
  <property name="meta.media.height">557</property>
  <property name="mlt_service">qimage</property>
  <property name="kdenlive:clipname"/>
  <property name="kdenlive:duration">00:00:05.005</property>
  <property name="xml">was here</property>
  <property name="kdenlive:folderid">-1</property>
  <property name="kdenlive:id">99</property>
  <property name="kdenlive:clip_type">2</property>
  <property name="kdenlive:file_size">588494</property>
  <property name="kdenlive:file_hash">0d44dbc3d7b52cf2eeaa3c0de86c38be</property>
 </producer>
 <producer id="producer71" in="00:00:00.000" out="00:00:21.021">
  <property name="length">1261</property>
  <property name="eof">pause</property>
  <property name="resource"/>
  <property name="meta.media.progressive">1</property>
  <property name="aspect_ratio">1</property>
  <property name="seekable">1</property>
  <property name="mlt_service">kdenlivetitle</property>
  <property name="kdenlive:duration">00:00:05;00</property>
  <property name="kdenlive:clipname">Bin</property>
  <property name="xmldata">&lt;kdenlivetitle duration="300" LC_NUMERIC="C" width="1920" height="1080" out="299">&#xd;&#xd;&#xd;&#xd;
 &lt;item type="QGraphicsTextItem" z-index="0">&#xd;&#xd;&#xd;&#xd;
  &lt;position x="115" y="-7">&#xd;&#xd;&#xd;&#xd;
   &lt;transform>1,0,0,0,1,0,0,0,1&lt;/transform>&#xd;&#xd;&#xd;&#xd;
  &lt;/position>&#xd;&#xd;&#xd;&#xd;
  &lt;content line-spacing="0" shadow="0;#64000000;3;3;3" font-underline="0" box-height="483" font-outline-color="0,0,0,255" font="MS Shell Dlg 2" letter-spacing="0" font-pixel-size="400" font-italic="0" typewriter="0;2;1;0;0" alignment="1" font-weight="50" font-outline="14" box-width="550" font-color="255,217,247,255">Bin&lt;/content>&#xd;&#xd;&#xd;&#xd;
 &lt;/item>&#xd;&#xd;&#xd;&#xd;
 &lt;startviewport rect="0,0,1920,1080"/>&#xd;&#xd;&#xd;&#xd;
 &lt;endviewport rect="0,0,1920,1080"/>&#xd;&#xd;&#xd;&#xd;
 &lt;background color="0,0,0,0"/>&#xd;&#xd;&#xd;&#xd;
&lt;/kdenlivetitle>&#xd;&#xd;&#xd;&#xd;
</property>
  <property name="xml">was here</property>
  <property name="kdenlive:folderid">-1</property>
  <property name="kdenlive:id">100</property>
  <property name="kdenlive:clip_type">2</property>
  <property name="kdenlive:file_hash">55d9e8728f5fc84b9376fe1d56a948a1</property>
  <property name="force_reload">0</property>
  <property name="meta.media.width">1920</property>
  <property name="meta.media.height">1080</property>
 </producer>
 <chain id="chain58" out="00:00:37.287">
  <property name="length">2236</property>
  <property name="eof">pause</property>
  <property name="resource">byeMouse.webm</property>
  <property name="mlt_service">avformat-novalidate</property>
  <property name="meta.media.nb_streams">2</property>
  <property name="meta.media.0.stream.type">video</property>
  <property name="meta.media.0.stream.frame_rate">59.9401</property>
  <property name="meta.media.0.stream.sample_aspect_ratio">1</property>
  <property name="meta.media.0.codec.width">1920</property>
  <property name="meta.media.0.codec.height">1080</property>
  <property name="meta.media.0.codec.rotate">0</property>
  <property name="meta.media.0.codec.pix_fmt">yuv420p</property>
  <property name="meta.media.0.codec.sample_aspect_ratio">0</property>
  <property name="meta.media.0.codec.colorspace">709</property>
  <property name="meta.media.0.codec.color_trc">1</property>
  <property name="meta.media.0.codec.name">vp9</property>
  <property name="meta.media.0.codec.long_name">Google VP9</property>
  <property name="meta.media.0.codec.bit_rate">0</property>
  <property name="meta.attr.0.stream.DURATION.markup">00:00:37.288000000</property>
  <property name="meta.media.1.stream.type">audio</property>
  <property name="meta.media.1.codec.sample_fmt">fltp</property>
  <property name="meta.media.1.codec.sample_rate">48000</property>
  <property name="meta.media.1.codec.channels">2</property>
  <property name="meta.media.1.codec.name">opus</property>
  <property name="meta.media.1.codec.long_name">Opus</property>
  <property name="meta.media.1.codec.bit_rate">0</property>
  <property name="meta.attr.1.stream.DURATION.markup">00:00:37.308000000</property>
  <property name="meta.attr.ENCODER.markup">Lavf60.16.100</property>
  <property name="seekable">1</property>
  <property name="meta.media.sample_aspect_num">1</property>
  <property name="meta.media.sample_aspect_den">1</property>
  <property name="audio_index">1</property>
  <property name="video_index">0</property>
  <property name="vstream">0</property>
  <property name="meta.media.frame_rate_num">60000</property>
  <property name="meta.media.frame_rate_den">1001</property>
  <property name="meta.media.colorspace">709</property>
  <property name="meta.media.color_trc">1</property>
  <property name="meta.media.has_b_frames">0</property>
  <property name="meta.media.width">1920</property>
  <property name="meta.media.height">1080</property>
  <property name="meta.media.color_range">full</property>
  <property name="astream">0</property>
  <property name="meta.media.top_field_first">0</property>
  <property name="meta.media.progressive">1</property>
  <property name="kdenlive:folderid">-1</property>
  <property name="kdenlive:id">101</property>
  <property name="mute_on_pause">0</property>
  <property name="kdenlive:clip_type">0</property>
  <property name="kdenlive:file_size">96541892</property>
  <property name="kdenlive:file_hash">0bc87f559b86ca9465ee9de35a98f742</property>
  <property name="kdenlive:audio_max1">203</property>
 </chain>
 <producer id="producer74" in="00:00:00.000" out="00:00:04.988">
  <property name="length">00:00:05.005</property>
  <property name="eof">pause</property>
  <property name="resource">confused.png</property>
  <property name="ttl">25</property>
  <property name="aspect_ratio">1</property>
  <property name="meta.media.progressive">1</property>
  <property name="seekable">1</property>
  <property name="format">2</property>
  <property name="meta.media.width">534</property>
  <property name="meta.media.height">534</property>
  <property name="mlt_service">qimage</property>
  <property name="kdenlive:clipname"/>
  <property name="kdenlive:duration">00:00:05;00</property>
  <property name="xml">was here</property>
  <property name="kdenlive:folderid">-1</property>
  <property name="kdenlive:id">102</property>
  <property name="kdenlive:clip_type">2</property>
  <property name="kdenlive:file_size">14375</property>
  <property name="kdenlive:file_hash">c8752879be02aaf712ee62945cc49b31</property>
 </producer>
 <producer id="producer75" in="00:00:00.000" out="00:00:04.988">
  <property name="length">300</property>
  <property name="eof">pause</property>
  <property name="resource"/>
  <property name="meta.media.progressive">1</property>
  <property name="aspect_ratio">1</property>
  <property name="seekable">1</property>
  <property name="mlt_service">kdenlivetitle</property>
  <property name="kdenlive:duration">00:00:05;00</property>
  <property name="kdenlive:clipname">Bye Mouse</property>
  <property name="xmldata">&lt;kdenlivetitle duration="300" LC_NUMERIC="C" width="1920" height="1080" out="299">&#xd;&#xd;&#xd;&#xd;
 &lt;item type="QGraphicsTextItem" z-index="0">&#xd;&#xd;&#xd;&#xd;
  &lt;position x="45" y="-9">&#xd;&#xd;&#xd;&#xd;
   &lt;transform>1,0,0,0,1,0,0,0,1&lt;/transform>&#xd;&#xd;&#xd;&#xd;
  &lt;/position>&#xd;&#xd;&#xd;&#xd;
  &lt;content line-spacing="0" shadow="0;#64000000;3;3;3" font-underline="0" box-height="434" font-outline-color="0,0,0,255" font="MS Shell Dlg 2" letter-spacing="0" font-pixel-size="180" font-italic="0" typewriter="0;2;1;0;0" alignment="1" font-weight="75" font-outline="14" box-width="587" font-color="255,217,247,255">Bye &#xd;&#xd;&#xd;&#xd;
Mouse&lt;/content>&#xd;&#xd;&#xd;&#xd;
 &lt;/item>&#xd;&#xd;&#xd;&#xd;
 &lt;startviewport rect="0,0,1920,1080"/>&#xd;&#xd;&#xd;&#xd;
 &lt;endviewport rect="0,0,1920,1080"/>&#xd;&#xd;&#xd;&#xd;
 &lt;background color="0,0,0,0"/>&#xd;&#xd;&#xd;&#xd;
&lt;/kdenlivetitle>&#xd;&#xd;&#xd;&#xd;
</property>
  <property name="xml">was here</property>
  <property name="kdenlive:folderid">-1</property>
  <property name="kdenlive:id">103</property>
  <property name="kdenlive:clip_type">2</property>
  <property name="kdenlive:file_hash">80ac934d384fa48e174866868d5c7046</property>
  <property name="force_reload">0</property>
  <property name="meta.media.width">1920</property>
  <property name="meta.media.height">1080</property>
 </producer>
 <chain id="chain59" out="00:00:17.417">
  <property name="length">1045</property>
  <property name="eof">pause</property>
  <property name="resource">mouseBumpBall.webm</property>
  <property name="mlt_service">avformat-novalidate</property>
  <property name="meta.media.nb_streams">2</property>
  <property name="meta.media.0.stream.type">video</property>
  <property name="meta.media.0.stream.frame_rate">59.9401</property>
  <property name="meta.media.0.stream.sample_aspect_ratio">1</property>
  <property name="meta.media.0.codec.width">1920</property>
  <property name="meta.media.0.codec.height">1080</property>
  <property name="meta.media.0.codec.rotate">0</property>
  <property name="meta.media.0.codec.pix_fmt">yuv420p</property>
  <property name="meta.media.0.codec.sample_aspect_ratio">0</property>
  <property name="meta.media.0.codec.colorspace">709</property>
  <property name="meta.media.0.codec.color_trc">1</property>
  <property name="meta.media.0.codec.name">vp9</property>
  <property name="meta.media.0.codec.long_name">Google VP9</property>
  <property name="meta.media.0.codec.bit_rate">0</property>
  <property name="meta.attr.0.stream.DURATION.markup">00:00:17.401000000</property>
  <property name="meta.media.1.stream.type">audio</property>
  <property name="meta.media.1.codec.sample_fmt">fltp</property>
  <property name="meta.media.1.codec.sample_rate">48000</property>
  <property name="meta.media.1.codec.channels">2</property>
  <property name="meta.media.1.codec.name">opus</property>
  <property name="meta.media.1.codec.long_name">Opus</property>
  <property name="meta.media.1.codec.bit_rate">0</property>
  <property name="meta.attr.1.stream.DURATION.markup">00:00:17.428000000</property>
  <property name="meta.attr.ENCODER.markup">Lavf60.16.100</property>
  <property name="seekable">1</property>
  <property name="meta.media.sample_aspect_num">1</property>
  <property name="meta.media.sample_aspect_den">1</property>
  <property name="audio_index">1</property>
  <property name="video_index">0</property>
  <property name="vstream">0</property>
  <property name="meta.media.frame_rate_num">60000</property>
  <property name="meta.media.frame_rate_den">1001</property>
  <property name="meta.media.colorspace">709</property>
  <property name="meta.media.color_trc">1</property>
  <property name="meta.media.has_b_frames">0</property>
  <property name="meta.media.width">1920</property>
  <property name="meta.media.height">1080</property>
  <property name="meta.media.color_range">full</property>
  <property name="astream">0</property>
  <property name="meta.media.top_field_first">0</property>
  <property name="meta.media.progressive">1</property>
  <property name="kdenlive:folderid">-1</property>
  <property name="kdenlive:id">104</property>
  <property name="mute_on_pause">0</property>
  <property name="kdenlive:clip_type">0</property>
  <property name="kdenlive:file_size">39665285</property>
  <property name="kdenlive:file_hash">7d695d4f478be0ab6520d9add9b9d152</property>
  <property name="kdenlive:audio_max1">184</property>
 </chain>
 <chain id="chain60" out="00:00:00.467">
  <property name="length">29</property>
  <property name="eof">pause</property>
  <property name="resource">fakeBat.wav</property>
  <property name="mlt_service">avformat</property>
  <property name="meta.media.nb_streams">1</property>
  <property name="meta.media.0.stream.type">audio</property>
  <property name="meta.media.0.codec.sample_fmt">flt</property>
  <property name="meta.media.0.codec.sample_rate">48000</property>
  <property name="meta.media.0.codec.channels">2</property>
  <property name="meta.media.0.codec.name">pcm_f32le</property>
  <property name="meta.media.0.codec.long_name">PCM 32-bit floating point little-endian</property>
  <property name="meta.media.0.codec.bit_rate">3072000</property>
  <property name="seekable">1</property>
  <property name="audio_index">0</property>
  <property name="video_index">-1</property>
  <property name="astream">0</property>
  <property name="kdenlive:folderid">-1</property>
  <property name="kdenlive:id">105</property>
  <property name="kdenlive:clip_type">1</property>
  <property name="kdenlive:file_size">185244</property>
  <property name="kdenlive:file_hash">9dffc8854ea67e4f60155fe1da97b56f</property>
  <property name="kdenlive:audio_max0">195</property>
 </chain>
 <producer id="producer78" in="00:00:00.000" out="00:02:06.607">
  <property name="length">7589</property>
  <property name="eof">pause</property>
  <property name="resource">cloudC.png</property>
  <property name="ttl">25</property>
  <property name="aspect_ratio">1</property>
  <property name="meta.media.progressive">1</property>
  <property name="seekable">1</property>
  <property name="format">2</property>
  <property name="meta.media.width">299</property>
  <property name="meta.media.height">193</property>
  <property name="mlt_service">qimage</property>
  <property name="kdenlive:clipname"/>
  <property name="kdenlive:duration">00:00:05;00</property>
  <property name="xml">was here</property>
  <property name="kdenlive:folderid">-1</property>
  <property name="kdenlive:id">106</property>
  <property name="kdenlive:clip_type">2</property>
  <property name="kdenlive:file_size">8117</property>
  <property name="kdenlive:file_hash">e94f114eea25cd93993296d4d6d96ff5</property>
 </producer>
 <producer id="producer77" in="00:00:00.000" out="00:02:01.201">
  <property name="length">7265</property>
  <property name="eof">pause</property>
  <property name="resource">cloudB.png</property>
  <property name="ttl">25</property>
  <property name="aspect_ratio">1</property>
  <property name="meta.media.progressive">1</property>
  <property name="seekable">1</property>
  <property name="format">2</property>
  <property name="meta.media.width">232</property>
  <property name="meta.media.height">150</property>
  <property name="mlt_service">qimage</property>
  <property name="kdenlive:clipname"/>
  <property name="kdenlive:duration">00:00:05;00</property>
  <property name="xml">was here</property>
  <property name="kdenlive:folderid">-1</property>
  <property name="kdenlive:id">107</property>
  <property name="kdenlive:clip_type">2</property>
  <property name="kdenlive:file_size">5901</property>
  <property name="kdenlive:file_hash">91b49c9b723442f62348fe3bd670ceae</property>
 </producer>
 <producer id="producer79" in="00:00:00.000" out="00:02:13.030">
  <property name="length">7974</property>
  <property name="eof">pause</property>
  <property name="resource">cloudA.png</property>
  <property name="ttl">25</property>
  <property name="aspect_ratio">1</property>
  <property name="meta.media.progressive">1</property>
  <property name="seekable">1</property>
  <property name="format">2</property>
  <property name="meta.media.width">232</property>
  <property name="meta.media.height">150</property>
  <property name="mlt_service">qimage</property>
  <property name="kdenlive:clipname"/>
  <property name="kdenlive:duration">00:00:05;00</property>
  <property name="xml">was here</property>
  <property name="kdenlive:folderid">-1</property>
  <property name="kdenlive:id">108</property>
  <property name="kdenlive:clip_type">2</property>
  <property name="kdenlive:file_size">4820</property>
  <property name="kdenlive:file_hash">63ea5b5561d10eb8af164631ac4225af</property>
 </producer>
 <chain id="chain61" out="00:00:07.274">
  <property name="length">437</property>
  <property name="eof">pause</property>
  <property name="resource">bag.wav</property>
  <property name="mlt_service">avformat</property>
  <property name="meta.media.nb_streams">1</property>
  <property name="meta.media.0.stream.type">audio</property>
  <property name="meta.media.0.codec.sample_fmt">flt</property>
  <property name="meta.media.0.codec.sample_rate">48000</property>
  <property name="meta.media.0.codec.channels">2</property>
  <property name="meta.media.0.codec.name">pcm_f32le</property>
  <property name="meta.media.0.codec.long_name">PCM 32-bit floating point little-endian</property>
  <property name="meta.media.0.codec.bit_rate">3072000</property>
  <property name="seekable">1</property>
  <property name="audio_index">0</property>
  <property name="video_index">-1</property>
  <property name="astream">0</property>
  <property name="kdenlive:folderid">-1</property>
  <property name="kdenlive:id">109</property>
  <property name="kdenlive:clip_type">1</property>
  <property name="kdenlive:file_size">2800412</property>
  <property name="kdenlive:file_hash">356c38fc908470e0a456f8ed2a6a2902</property>
  <property name="kdenlive:audio_max0">196</property>
 </chain>
 <chain id="chain62" out="00:00:01.201">
  <property name="length">73</property>
  <property name="eof">pause</property>
  <property name="resource">bags.wav</property>
  <property name="mlt_service">avformat</property>
  <property name="meta.media.nb_streams">1</property>
  <property name="meta.media.0.stream.type">audio</property>
  <property name="meta.media.0.codec.sample_fmt">flt</property>
  <property name="meta.media.0.codec.sample_rate">48000</property>
  <property name="meta.media.0.codec.channels">2</property>
  <property name="meta.media.0.codec.name">pcm_f32le</property>
  <property name="meta.media.0.codec.long_name">PCM 32-bit floating point little-endian</property>
  <property name="meta.media.0.codec.bit_rate">3072000</property>
  <property name="seekable">1</property>
  <property name="audio_index">0</property>
  <property name="video_index">-1</property>
  <property name="astream">0</property>
  <property name="kdenlive:folderid">-1</property>
  <property name="kdenlive:id">110</property>
  <property name="kdenlive:clip_type">1</property>
  <property name="kdenlive:file_size">469324</property>
  <property name="kdenlive:file_hash">1fc49fb098ee67d72bff7c4fd1317143</property>
  <property name="kdenlive:audio_max0">190</property>
 </chain>
 <chain id="chain63" out="00:00:05.255">
  <property name="length">316</property>
  <property name="eof">pause</property>
  <property name="resource">bobBab_beachBag.wav</property>
  <property name="mlt_service">avformat</property>
  <property name="meta.media.nb_streams">1</property>
  <property name="meta.media.0.stream.type">audio</property>
  <property name="meta.media.0.codec.sample_fmt">flt</property>
  <property name="meta.media.0.codec.sample_rate">48000</property>
  <property name="meta.media.0.codec.channels">2</property>
  <property name="meta.media.0.codec.name">pcm_f32le</property>
  <property name="meta.media.0.codec.long_name">PCM 32-bit floating point little-endian</property>
  <property name="meta.media.0.codec.bit_rate">3072000</property>
  <property name="seekable">1</property>
  <property name="audio_index">0</property>
  <property name="video_index">-1</property>
  <property name="astream">0</property>
  <property name="kdenlive:folderid">-1</property>
  <property name="kdenlive:id">111</property>
  <property name="kdenlive:clip_type">1</property>
  <property name="kdenlive:file_size">2029044</property>
  <property name="kdenlive:file_hash">5ec7b09e9328ac05d18cc3e30eae195e</property>
  <property name="kdenlive:audio_max0">197</property>
 </chain>
 <chain id="chain64" out="00:00:05.155">
  <property name="length">310</property>
  <property name="eof">pause</property>
  <property name="resource">foodBag.wav</property>
  <property name="mlt_service">avformat</property>
  <property name="meta.media.nb_streams">1</property>
  <property name="meta.media.0.stream.type">audio</property>
  <property name="meta.media.0.codec.sample_fmt">flt</property>
  <property name="meta.media.0.codec.sample_rate">48000</property>
  <property name="meta.media.0.codec.channels">2</property>
  <property name="meta.media.0.codec.name">pcm_f32le</property>
  <property name="meta.media.0.codec.long_name">PCM 32-bit floating point little-endian</property>
  <property name="meta.media.0.codec.bit_rate">3072000</property>
  <property name="seekable">1</property>
  <property name="audio_index">0</property>
  <property name="video_index">-1</property>
  <property name="astream">0</property>
  <property name="kdenlive:folderid">-1</property>
  <property name="kdenlive:id">112</property>
  <property name="kdenlive:clip_type">1</property>
  <property name="kdenlive:file_size">1988132</property>
  <property name="kdenlive:file_hash">f9addbff907bd78319cd7e5477625f6e</property>
  <property name="kdenlive:audio_max0">197</property>
 </chain>
 <chain id="chain65" out="00:00:11.228">
  <property name="length">674</property>
  <property name="eof">pause</property>
  <property name="resource">bobBagFull.wav</property>
  <property name="mlt_service">avformat</property>
  <property name="meta.media.nb_streams">1</property>
  <property name="meta.media.0.stream.type">audio</property>
  <property name="meta.media.0.codec.sample_fmt">flt</property>
  <property name="meta.media.0.codec.sample_rate">48000</property>
  <property name="meta.media.0.codec.channels">2</property>
  <property name="meta.media.0.codec.name">pcm_f32le</property>
  <property name="meta.media.0.codec.long_name">PCM 32-bit floating point little-endian</property>
  <property name="meta.media.0.codec.bit_rate">3072000</property>
  <property name="seekable">1</property>
  <property name="audio_index">0</property>
  <property name="video_index">-1</property>
  <property name="astream">0</property>
  <property name="kdenlive:folderid">-1</property>
  <property name="kdenlive:id">113</property>
  <property name="kdenlive:clip_type">1</property>
  <property name="kdenlive:file_size">4316980</property>
  <property name="kdenlive:file_hash">47af459594c84f806ebac9fabfbb33e3</property>
  <property name="kdenlive:audio_max0">199</property>
 </chain>
 <chain id="chain66" out="00:00:02.069">
  <property name="length">125</property>
  <property name="eof">pause</property>
  <property name="resource">binTogether.wav</property>
  <property name="mlt_service">avformat</property>
  <property name="meta.media.nb_streams">1</property>
  <property name="meta.media.0.stream.type">audio</property>
  <property name="meta.media.0.codec.sample_fmt">flt</property>
  <property name="meta.media.0.codec.sample_rate">48000</property>
  <property name="meta.media.0.codec.channels">2</property>
  <property name="meta.media.0.codec.name">pcm_f32le</property>
  <property name="meta.media.0.codec.long_name">PCM 32-bit floating point little-endian</property>
  <property name="meta.media.0.codec.bit_rate">3072000</property>
  <property name="seekable">1</property>
  <property name="audio_index">0</property>
  <property name="video_index">-1</property>
  <property name="astream">0</property>
  <property name="kdenlive:folderid">-1</property>
  <property name="kdenlive:id">114</property>
  <property name="kdenlive:clip_type">1</property>
  <property name="kdenlive:file_size">804940</property>
  <property name="kdenlive:file_hash">0da487d9c185e46fb7bd199a4753bdd7</property>
  <property name="kdenlive:audio_max0">195</property>
 </chain>
 <chain id="chain67" out="00:00:06.390">
  <property name="length">384</property>
  <property name="eof">pause</property>
  <property name="resource">binSpelled.wav</property>
  <property name="mlt_service">avformat</property>
  <property name="meta.media.nb_streams">1</property>
  <property name="meta.media.0.stream.type">audio</property>
  <property name="meta.media.0.codec.sample_fmt">flt</property>
  <property name="meta.media.0.codec.sample_rate">48000</property>
  <property name="meta.media.0.codec.channels">2</property>
  <property name="meta.media.0.codec.name">pcm_f32le</property>
  <property name="meta.media.0.codec.long_name">PCM 32-bit floating point little-endian</property>
  <property name="meta.media.0.codec.bit_rate">3072000</property>
  <property name="seekable">1</property>
  <property name="audio_index">0</property>
  <property name="video_index">-1</property>
  <property name="astream">0</property>
  <property name="kdenlive:folderid">-1</property>
  <property name="kdenlive:id">115</property>
  <property name="kdenlive:clip_type">1</property>
  <property name="kdenlive:file_size">2462748</property>
  <property name="kdenlive:file_hash">31557f902e773cb62423f01e5c4efa55</property>
  <property name="kdenlive:audio_max0">200</property>
 </chain>
 <chain id="chain68" out="00:00:02.252">
  <property name="length">136</property>
  <property name="eof">pause</property>
  <property name="resource">binTogetherSofter.wav</property>
  <property name="mlt_service">avformat</property>
  <property name="meta.media.nb_streams">1</property>
  <property name="meta.media.0.stream.type">audio</property>
  <property name="meta.media.0.codec.sample_fmt">flt</property>
  <property name="meta.media.0.codec.sample_rate">48000</property>
  <property name="meta.media.0.codec.channels">2</property>
  <property name="meta.media.0.codec.name">pcm_f32le</property>
  <property name="meta.media.0.codec.long_name">PCM 32-bit floating point little-endian</property>
  <property name="meta.media.0.codec.bit_rate">3072000</property>
  <property name="seekable">1</property>
  <property name="audio_index">0</property>
  <property name="video_index">-1</property>
  <property name="astream">0</property>
  <property name="kdenlive:folderid">-1</property>
  <property name="kdenlive:id">116</property>
  <property name="kdenlive:clip_type">1</property>
  <property name="kdenlive:file_size">874532</property>
  <property name="kdenlive:file_hash">2c68e7f34ce9e688137d2166013c1df0</property>
  <property name="kdenlive:audio_max0">190</property>
 </chain>
 <chain id="chain69" out="00:00:03.904">
  <property name="length">235</property>
  <property name="eof">pause</property>
  <property name="resource">byeMouse.wav</property>
  <property name="mlt_service">avformat</property>
  <property name="meta.media.nb_streams">1</property>
  <property name="meta.media.0.stream.type">audio</property>
  <property name="meta.media.0.codec.sample_fmt">flt</property>
  <property name="meta.media.0.codec.sample_rate">48000</property>
  <property name="meta.media.0.codec.channels">2</property>
  <property name="meta.media.0.codec.name">pcm_f32le</property>
  <property name="meta.media.0.codec.long_name">PCM 32-bit floating point little-endian</property>
  <property name="meta.media.0.codec.bit_rate">3072000</property>
  <property name="seekable">1</property>
  <property name="audio_index">0</property>
  <property name="video_index">-1</property>
  <property name="astream">0</property>
  <property name="kdenlive:folderid">-1</property>
  <property name="kdenlive:id">117</property>
  <property name="kdenlive:clip_type">1</property>
  <property name="kdenlive:file_size">1506716</property>
  <property name="kdenlive:file_hash">03871ce27f9baa68bf5fbd3f6a08fd89</property>
  <property name="kdenlive:audio_max0">198</property>
 </chain>
 <chain id="chain70" out="00:00:28.845">
  <property name="length">1730</property>
  <property name="eof">pause</property>
  <property name="resource">bonJuggleTillEnd.wav</property>
  <property name="mlt_service">avformat</property>
  <property name="meta.media.nb_streams">1</property>
  <property name="meta.media.0.stream.type">audio</property>
  <property name="meta.media.0.codec.sample_fmt">flt</property>
  <property name="meta.media.0.codec.sample_rate">48000</property>
  <property name="meta.media.0.codec.channels">2</property>
  <property name="meta.media.0.codec.name">pcm_f32le</property>
  <property name="meta.media.0.codec.long_name">PCM 32-bit floating point little-endian</property>
  <property name="meta.media.0.codec.bit_rate">3072000</property>
  <property name="seekable">1</property>
  <property name="audio_index">0</property>
  <property name="video_index">-1</property>
  <property name="astream">0</property>
  <property name="kdenlive:folderid">-1</property>
  <property name="kdenlive:id">118</property>
  <property name="kdenlive:clip_type">1</property>
  <property name="kdenlive:file_size">11085732</property>
  <property name="kdenlive:file_hash">631a45b2dd8f68ccf858ddc229a9ecad</property>
  <property name="kdenlive:audio_max0">197</property>
 </chain>
 <chain id="chain74" out="00:01:22.573">
  <property name="length">4950</property>
  <property name="eof">pause</property>
  <property name="resource">C:/Users/shawn/OneDrive/Desktop/What/GX010346.MP4</property>
  <property name="mlt_service">avformat-novalidate</property>
  <property name="meta.media.nb_streams">4</property>
  <property name="meta.media.0.stream.type">video</property>
  <property name="meta.media.0.stream.frame_rate">59.9401</property>
  <property name="meta.media.0.stream.sample_aspect_ratio">0</property>
  <property name="meta.media.0.codec.width">1920</property>
  <property name="meta.media.0.codec.height">1080</property>
  <property name="meta.media.0.codec.rotate">0</property>
  <property name="meta.media.0.codec.pix_fmt">yuvj420p</property>
  <property name="meta.media.0.codec.sample_aspect_ratio">1</property>
  <property name="meta.media.0.codec.colorspace">709</property>
  <property name="meta.media.0.codec.color_trc">1</property>
  <property name="meta.media.0.codec.name">hevc</property>
  <property name="meta.media.0.codec.long_name">HEVC (High Efficiency Video Coding)</property>
  <property name="meta.media.0.codec.bit_rate">44557799</property>
  <property name="meta.attr.0.stream.creation_time.markup">2024-12-25T15:15:55.000000Z</property>
  <property name="meta.attr.0.stream.language.markup">eng</property>
  <property name="meta.attr.0.stream.handler_name.markup">GoPro H.265</property>
  <property name="meta.attr.0.stream.vendor_id.markup">[0][0][0][0]</property>
  <property name="meta.attr.0.stream.encoder.markup">GoPro H.265 encoder</property>
  <property name="meta.attr.0.stream.timecode.markup">15:15:00:18</property>
  <property name="meta.media.1.stream.type">audio</property>
  <property name="meta.media.1.codec.sample_fmt">fltp</property>
  <property name="meta.media.1.codec.sample_rate">48000</property>
  <property name="meta.media.1.codec.channels">2</property>
  <property name="meta.media.1.codec.name">aac</property>
  <property name="meta.media.1.codec.long_name">AAC (Advanced Audio Coding)</property>
  <property name="meta.media.1.codec.bit_rate">189360</property>
  <property name="meta.attr.1.stream.creation_time.markup">2024-12-25T15:15:55.000000Z</property>
  <property name="meta.attr.1.stream.language.markup">eng</property>
  <property name="meta.attr.1.stream.handler_name.markup">GoPro AAC  </property>
  <property name="meta.attr.1.stream.vendor_id.markup">[0][0][0][0]</property>
  <property name="meta.attr.1.stream.timecode.markup">15:15:00:18</property>
  <property name="meta.attr.major_brand.markup">mp41</property>
  <property name="meta.attr.minor_version.markup">538120216</property>
  <property name="meta.attr.compatible_brands.markup">mp41</property>
  <property name="meta.attr.creation_time.markup">2024-12-25T15:15:55.000000Z</property>
  <property name="meta.attr.firmware.markup">H21.01.01.60.00</property>
  <property name="seekable">1</property>
  <property name="meta.media.sample_aspect_num">1</property>
  <property name="meta.media.sample_aspect_den">1</property>
  <property name="audio_index">1</property>
  <property name="video_index">0</property>
  <property name="vstream">0</property>
  <property name="meta.media.frame_rate_num">60000</property>
  <property name="meta.media.frame_rate_den">1001</property>
  <property name="meta.media.colorspace">709</property>
  <property name="meta.media.color_trc">1</property>
  <property name="meta.media.has_b_frames">0</property>
  <property name="meta.media.width">1920</property>
  <property name="meta.media.height">1080</property>
  <property name="meta.media.color_range">full</property>
  <property name="astream">0</property>
  <property name="meta.media.top_field_first">0</property>
  <property name="meta.media.progressive">1</property>
  <property name="kdenlive:folderid">-1</property>
  <property name="kdenlive:id">119</property>
  <property name="mute_on_pause">0</property>
  <property name="kdenlive:clip_type">0</property>
  <property name="kdenlive:file_size">462792630</property>
  <property name="kdenlive:file_hash">c30f5dea2a369ed431f36e484ff1b19b</property>
  <property name="kdenlive:audio_max1">186</property>
 </chain>
 <chain id="chain75" out="00:00:49.533">
  <property name="length">2970</property>
  <property name="eof">pause</property>
  <property name="resource">C:/Users/shawn/OneDrive/Desktop/What/storyTimeTestOnTheater.wav</property>
  <property name="mlt_service">avformat</property>
  <property name="meta.media.nb_streams">1</property>
  <property name="meta.media.0.stream.type">audio</property>
  <property name="meta.media.0.codec.sample_fmt">flt</property>
  <property name="meta.media.0.codec.sample_rate">48000</property>
  <property name="meta.media.0.codec.channels">2</property>
  <property name="meta.media.0.codec.name">pcm_f32le</property>
  <property name="meta.media.0.codec.long_name">PCM 32-bit floating point little-endian</property>
  <property name="meta.media.0.codec.bit_rate">3072000</property>
  <property name="seekable">1</property>
  <property name="audio_index">0</property>
  <property name="video_index">-1</property>
  <property name="astream">0</property>
  <property name="kdenlive:folderid">-1</property>
  <property name="kdenlive:id">120</property>
  <property name="kdenlive:clip_type">1</property>
  <property name="kdenlive:file_size">19026758</property>
  <property name="kdenlive:file_hash">912e52115f3fe6a80cb3a8259c608e38</property>
  <property name="kdenlive:audio_max0">229</property>
 </chain>
 <producer id="producer72" in="00:00:00.000" out="00:01:25.375">
  <property name="length">5118</property>
  <property name="eof">pause</property>
  <property name="resource">C:/Users/shawn/Downloads/markdown-image-109425.png</property>
  <property name="ttl">25</property>
  <property name="aspect_ratio">1</property>
  <property name="meta.media.progressive">1</property>
  <property name="seekable">1</property>
  <property name="format">1</property>
  <property name="meta.media.width">800</property>
  <property name="meta.media.height">2630</property>
  <property name="mlt_service">qimage</property>
  <property name="kdenlive:clipname"/>
  <property name="kdenlive:duration">00:00:05;00</property>
  <property name="xml">was here</property>
  <property name="kdenlive:folderid">-1</property>
  <property name="kdenlive:id">121</property>
  <property name="kdenlive:clip_type">2</property>
  <property name="kdenlive:file_size">290081</property>
  <property name="kdenlive:file_hash">648ba1698780a14cf8fe483308e7180d</property>
 </producer>
 <producer id="producer0" in="00:00:00.000" out="00:13:16.517">
  <property name="length">2147483647</property>
  <property name="eof">continue</property>
  <property name="resource">black</property>
  <property name="aspect_ratio">1</property>
  <property name="mlt_service">color</property>
  <property name="kdenlive:playlistid">black_track</property>
  <property name="mlt_image_format">rgba</property>
  <property name="set.test_audio">0</property>
 </producer>
 <chain id="chain1" out="00:00:00.467">
  <property name="length">29</property>
  <property name="eof">pause</property>
  <property name="resource">fakeBat.wav</property>
  <property name="mlt_service">avformat-novalidate</property>
  <property name="seekable">1</property>
  <property name="audio_index">0</property>
  <property name="video_index">-1</property>
  <property name="astream">0</property>
  <property name="kdenlive:folderid">-1</property>
  <property name="kdenlive:id">105</property>
  <property name="kdenlive:clip_type">1</property>
  <property name="kdenlive:file_size">185244</property>
  <property name="kdenlive:file_hash">9dffc8854ea67e4f60155fe1da97b56f</property>
  <property name="kdenlive:audio_max0">195</property>
  <property name="meta.media.nb_streams">1</property>
  <property name="meta.media.0.stream.type">audio</property>
  <property name="meta.media.0.codec.sample_fmt">flt</property>
  <property name="meta.media.0.codec.sample_rate">48000</property>
  <property name="meta.media.0.codec.channels">2</property>
  <property name="meta.media.0.codec.name">pcm_f32le</property>
  <property name="meta.media.0.codec.long_name">PCM 32-bit floating point little-endian</property>
  <property name="meta.media.0.codec.bit_rate">3072000</property>
  <property name="xml">was here</property>
  <property name="mute_on_pause">0</property>
  <property name="set.test_audio">0</property>
  <property name="set.test_image">1</property>
 </chain>
 <playlist id="playlist0">
  <property name="kdenlive:audio_track">1</property>
  <blank length="00:01:45.028"/>
  <entry producer="chain1" in="00:00:00.000" out="00:00:00.467">
   <property name="kdenlive:id">105</property>
  </entry>
 </playlist>
 <playlist id="playlist1">
  <property name="kdenlive:audio_track">1</property>
 </playlist>
 <tractor id="tractor0" in="00:00:00.000" out="00:01:45.495">
  <property name="kdenlive:audio_track">1</property>
  <property name="kdenlive:trackheight">67</property>
  <property name="kdenlive:timeline_active">1</property>
  <property name="kdenlive:collapsed">0</property>
  <property name="kdenlive:thumbs_format"/>
  <property name="kdenlive:audio_rec"/>
  <track hide="video" producer="playlist0"/>
  <track hide="video" producer="playlist1"/>
  <filter id="filter0">
   <property name="window">75</property>
   <property name="max_gain">20dB</property>
   <property name="level">-10.2539</property>
   <property name="mlt_service">volume</property>
   <property name="internal_added">237</property>
   <property name="disable">0</property>
  </filter>
  <filter id="filter1">
   <property name="channel">-1</property>
   <property name="mlt_service">panner</property>
   <property name="internal_added">237</property>
   <property name="start">0.5</property>
   <property name="disable">1</property>
  </filter>
  <filter id="filter2">
   <property name="iec_scale">0</property>
   <property name="mlt_service">audiolevel</property>
   <property name="dbpeak">1</property>
   <property name="disable">1</property>
  </filter>
 </tractor>
 <chain id="chain2" out="00:00:02.586">
  <property name="length">156</property>
  <property name="eof">pause</property>
  <property name="resource">blueBall.wav</property>
  <property name="mlt_service">avformat-novalidate</property>
  <property name="seekable">1</property>
  <property name="audio_index">0</property>
  <property name="video_index">-1</property>
  <property name="astream">0</property>
  <property name="kdenlive:folderid">-1</property>
  <property name="kdenlive:id">33</property>
  <property name="kdenlive:clip_type">1</property>
  <property name="kdenlive:file_size">1001084</property>
  <property name="kdenlive:file_hash">92d5ceae6f25ef7dc35bda8b91df3f72</property>
  <property name="kdenlive:audio_max0">179</property>
  <property name="meta.media.nb_streams">1</property>
  <property name="meta.media.0.stream.type">audio</property>
  <property name="meta.media.0.codec.sample_fmt">flt</property>
  <property name="meta.media.0.codec.sample_rate">48000</property>
  <property name="meta.media.0.codec.channels">2</property>
  <property name="meta.media.0.codec.name">pcm_f32le</property>
  <property name="meta.media.0.codec.long_name">PCM 32-bit floating point little-endian</property>
  <property name="meta.media.0.codec.bit_rate">3072000</property>
  <property name="xml">was here</property>
  <property name="mute_on_pause">0</property>
  <property name="set.test_audio">0</property>
  <property name="set.test_image">1</property>
 </chain>
 <chain id="chain3" out="00:00:05.305">
  <property name="length">319</property>
  <property name="eof">pause</property>
  <property name="resource">big.wav</property>
  <property name="mlt_service">avformat-novalidate</property>
  <property name="seekable">1</property>
  <property name="audio_index">0</property>
  <property name="video_index">-1</property>
  <property name="astream">0</property>
  <property name="kdenlive:folderid">-1</property>
  <property name="kdenlive:id">40</property>
  <property name="kdenlive:clip_type">1</property>
  <property name="kdenlive:file_size">2046892</property>
  <property name="kdenlive:file_hash">c4a867a7fc3f5bc8d086a32be7608855</property>
  <property name="kdenlive:audio_max0">184</property>
  <property name="meta.media.nb_streams">1</property>
  <property name="meta.media.0.stream.type">audio</property>
  <property name="meta.media.0.codec.sample_fmt">flt</property>
  <property name="meta.media.0.codec.sample_rate">48000</property>
  <property name="meta.media.0.codec.channels">2</property>
  <property name="meta.media.0.codec.name">pcm_f32le</property>
  <property name="meta.media.0.codec.long_name">PCM 32-bit floating point little-endian</property>
  <property name="meta.media.0.codec.bit_rate">3072000</property>
  <property name="xml">was here</property>
  <property name="mute_on_pause">0</property>
  <property name="set.test_audio">0</property>
  <property name="set.test_image">1</property>
 </chain>
 <chain id="chain4" out="00:00:02.753">
  <property name="length">166</property>
  <property name="eof">pause</property>
  <property name="resource">bigBall.wav</property>
  <property name="mlt_service">avformat-novalidate</property>
  <property name="seekable">1</property>
  <property name="audio_index">0</property>
  <property name="video_index">-1</property>
  <property name="astream">0</property>
  <property name="kdenlive:folderid">-1</property>
  <property name="kdenlive:id">42</property>
  <property name="kdenlive:clip_type">1</property>
  <property name="kdenlive:file_size">1067668</property>
  <property name="kdenlive:file_hash">96e0cf07d67d3b0d4ba31e40490d2bca</property>
  <property name="kdenlive:audio_max0">176</property>
  <property name="meta.media.nb_streams">1</property>
  <property name="meta.media.0.stream.type">audio</property>
  <property name="meta.media.0.codec.sample_fmt">flt</property>
  <property name="meta.media.0.codec.sample_rate">48000</property>
  <property name="meta.media.0.codec.channels">2</property>
  <property name="meta.media.0.codec.name">pcm_f32le</property>
  <property name="meta.media.0.codec.long_name">PCM 32-bit floating point little-endian</property>
  <property name="meta.media.0.codec.bit_rate">3072000</property>
  <property name="xml">was here</property>
  <property name="mute_on_pause">0</property>
  <property name="set.test_audio">0</property>
  <property name="set.test_image">1</property>
 </chain>
 <chain id="chain5" out="00:00:07.274">
  <property name="length">437</property>
  <property name="eof">pause</property>
  <property name="resource">bag.wav</property>
  <property name="mlt_service">avformat-novalidate</property>
  <property name="seekable">1</property>
  <property name="audio_index">0</property>
  <property name="video_index">-1</property>
  <property name="astream">0</property>
  <property name="kdenlive:folderid">-1</property>
  <property name="kdenlive:id">109</property>
  <property name="kdenlive:clip_type">1</property>
  <property name="kdenlive:file_size">2800412</property>
  <property name="kdenlive:file_hash">356c38fc908470e0a456f8ed2a6a2902</property>
  <property name="kdenlive:audio_max0">196</property>
  <property name="meta.media.nb_streams">1</property>
  <property name="meta.media.0.stream.type">audio</property>
  <property name="meta.media.0.codec.sample_fmt">flt</property>
  <property name="meta.media.0.codec.sample_rate">48000</property>
  <property name="meta.media.0.codec.channels">2</property>
  <property name="meta.media.0.codec.name">pcm_f32le</property>
  <property name="meta.media.0.codec.long_name">PCM 32-bit floating point little-endian</property>
  <property name="meta.media.0.codec.bit_rate">3072000</property>
  <property name="xml">was here</property>
  <property name="mute_on_pause">0</property>
  <property name="set.test_audio">0</property>
  <property name="set.test_image">1</property>
 </chain>
 <chain id="chain6" out="00:00:01.201">
  <property name="length">73</property>
  <property name="eof">pause</property>
  <property name="resource">bags.wav</property>
  <property name="mlt_service">avformat-novalidate</property>
  <property name="seekable">1</property>
  <property name="audio_index">0</property>
  <property name="video_index">-1</property>
  <property name="astream">0</property>
  <property name="kdenlive:folderid">-1</property>
  <property name="kdenlive:id">110</property>
  <property name="kdenlive:clip_type">1</property>
  <property name="kdenlive:file_size">469324</property>
  <property name="kdenlive:file_hash">1fc49fb098ee67d72bff7c4fd1317143</property>
  <property name="kdenlive:audio_max0">190</property>
  <property name="meta.media.nb_streams">1</property>
  <property name="meta.media.0.stream.type">audio</property>
  <property name="meta.media.0.codec.sample_fmt">flt</property>
  <property name="meta.media.0.codec.sample_rate">48000</property>
  <property name="meta.media.0.codec.channels">2</property>
  <property name="meta.media.0.codec.name">pcm_f32le</property>
  <property name="meta.media.0.codec.long_name">PCM 32-bit floating point little-endian</property>
  <property name="meta.media.0.codec.bit_rate">3072000</property>
  <property name="xml">was here</property>
  <property name="mute_on_pause">0</property>
  <property name="set.test_audio">0</property>
  <property name="set.test_image">1</property>
 </chain>
 <chain id="chain12" out="00:00:05.255">
  <property name="length">316</property>
  <property name="eof">pause</property>
  <property name="resource">bobBab_beachBag.wav</property>
  <property name="mlt_service">avformat-novalidate</property>
  <property name="seekable">1</property>
  <property name="audio_index">0</property>
  <property name="video_index">-1</property>
  <property name="astream">0</property>
  <property name="kdenlive:folderid">-1</property>
  <property name="kdenlive:id">111</property>
  <property name="kdenlive:clip_type">1</property>
  <property name="kdenlive:file_size">2029044</property>
  <property name="kdenlive:file_hash">5ec7b09e9328ac05d18cc3e30eae195e</property>
  <property name="kdenlive:audio_max0">197</property>
  <property name="meta.media.nb_streams">1</property>
  <property name="meta.media.0.stream.type">audio</property>
  <property name="meta.media.0.codec.sample_fmt">flt</property>
  <property name="meta.media.0.codec.sample_rate">48000</property>
  <property name="meta.media.0.codec.channels">2</property>
  <property name="meta.media.0.codec.name">pcm_f32le</property>
  <property name="meta.media.0.codec.long_name">PCM 32-bit floating point little-endian</property>
  <property name="meta.media.0.codec.bit_rate">3072000</property>
  <property name="xml">was here</property>
  <property name="mute_on_pause">0</property>
  <property name="set.test_audio">0</property>
  <property name="set.test_image">1</property>
 </chain>
 <chain id="chain13" out="00:00:05.155">
  <property name="length">310</property>
  <property name="eof">pause</property>
  <property name="resource">foodBag.wav</property>
  <property name="mlt_service">avformat-novalidate</property>
  <property name="seekable">1</property>
  <property name="audio_index">0</property>
  <property name="video_index">-1</property>
  <property name="astream">0</property>
  <property name="kdenlive:folderid">-1</property>
  <property name="kdenlive:id">112</property>
  <property name="kdenlive:clip_type">1</property>
  <property name="kdenlive:file_size">1988132</property>
  <property name="kdenlive:file_hash">f9addbff907bd78319cd7e5477625f6e</property>
  <property name="kdenlive:audio_max0">197</property>
  <property name="meta.media.nb_streams">1</property>
  <property name="meta.media.0.stream.type">audio</property>
  <property name="meta.media.0.codec.sample_fmt">flt</property>
  <property name="meta.media.0.codec.sample_rate">48000</property>
  <property name="meta.media.0.codec.channels">2</property>
  <property name="meta.media.0.codec.name">pcm_f32le</property>
  <property name="meta.media.0.codec.long_name">PCM 32-bit floating point little-endian</property>
  <property name="meta.media.0.codec.bit_rate">3072000</property>
  <property name="xml">was here</property>
  <property name="mute_on_pause">0</property>
  <property name="set.test_audio">0</property>
  <property name="set.test_image">1</property>
 </chain>
 <chain id="chain14" out="00:00:11.228">
  <property name="length">674</property>
  <property name="eof">pause</property>
  <property name="resource">bobBagFull.wav</property>
  <property name="mlt_service">avformat-novalidate</property>
  <property name="seekable">1</property>
  <property name="audio_index">0</property>
  <property name="video_index">-1</property>
  <property name="astream">0</property>
  <property name="kdenlive:folderid">-1</property>
  <property name="kdenlive:id">113</property>
  <property name="kdenlive:clip_type">1</property>
  <property name="kdenlive:file_size">4316980</property>
  <property name="kdenlive:file_hash">47af459594c84f806ebac9fabfbb33e3</property>
  <property name="kdenlive:audio_max0">199</property>
  <property name="meta.media.nb_streams">1</property>
  <property name="meta.media.0.stream.type">audio</property>
  <property name="meta.media.0.codec.sample_fmt">flt</property>
  <property name="meta.media.0.codec.sample_rate">48000</property>
  <property name="meta.media.0.codec.channels">2</property>
  <property name="meta.media.0.codec.name">pcm_f32le</property>
  <property name="meta.media.0.codec.long_name">PCM 32-bit floating point little-endian</property>
  <property name="meta.media.0.codec.bit_rate">3072000</property>
  <property name="xml">was here</property>
  <property name="mute_on_pause">0</property>
  <property name="set.test_audio">0</property>
  <property name="set.test_image">1</property>
 </chain>
 <chain id="chain15" out="00:00:06.390">
  <property name="length">384</property>
  <property name="eof">pause</property>
  <property name="resource">binSpelled.wav</property>
  <property name="mlt_service">avformat-novalidate</property>
  <property name="seekable">1</property>
  <property name="audio_index">0</property>
  <property name="video_index">-1</property>
  <property name="astream">0</property>
  <property name="kdenlive:folderid">-1</property>
  <property name="kdenlive:id">115</property>
  <property name="kdenlive:clip_type">1</property>
  <property name="kdenlive:file_size">2462748</property>
  <property name="kdenlive:file_hash">31557f902e773cb62423f01e5c4efa55</property>
  <property name="kdenlive:audio_max0">200</property>
  <property name="meta.media.nb_streams">1</property>
  <property name="meta.media.0.stream.type">audio</property>
  <property name="meta.media.0.codec.sample_fmt">flt</property>
  <property name="meta.media.0.codec.sample_rate">48000</property>
  <property name="meta.media.0.codec.channels">2</property>
  <property name="meta.media.0.codec.name">pcm_f32le</property>
  <property name="meta.media.0.codec.long_name">PCM 32-bit floating point little-endian</property>
  <property name="meta.media.0.codec.bit_rate">3072000</property>
  <property name="xml">was here</property>
  <property name="mute_on_pause">0</property>
  <property name="set.test_audio">0</property>
  <property name="set.test_image">1</property>
 </chain>
 <chain id="chain16" out="00:00:02.069">
  <property name="length">125</property>
  <property name="eof">pause</property>
  <property name="resource">binTogether.wav</property>
  <property name="mlt_service">avformat-novalidate</property>
  <property name="seekable">1</property>
  <property name="audio_index">0</property>
  <property name="video_index">-1</property>
  <property name="astream">0</property>
  <property name="kdenlive:folderid">-1</property>
  <property name="kdenlive:id">114</property>
  <property name="kdenlive:clip_type">1</property>
  <property name="kdenlive:file_size">804940</property>
  <property name="kdenlive:file_hash">0da487d9c185e46fb7bd199a4753bdd7</property>
  <property name="kdenlive:audio_max0">195</property>
  <property name="meta.media.nb_streams">1</property>
  <property name="meta.media.0.stream.type">audio</property>
  <property name="meta.media.0.codec.sample_fmt">flt</property>
  <property name="meta.media.0.codec.sample_rate">48000</property>
  <property name="meta.media.0.codec.channels">2</property>
  <property name="meta.media.0.codec.name">pcm_f32le</property>
  <property name="meta.media.0.codec.long_name">PCM 32-bit floating point little-endian</property>
  <property name="meta.media.0.codec.bit_rate">3072000</property>
  <property name="xml">was here</property>
  <property name="mute_on_pause">0</property>
  <property name="set.test_audio">0</property>
  <property name="set.test_image">1</property>
 </chain>
 <chain id="chain17" out="00:00:02.252">
  <property name="length">136</property>
  <property name="eof">pause</property>
  <property name="resource">binTogetherSofter.wav</property>
  <property name="mlt_service">avformat-novalidate</property>
  <property name="seekable">1</property>
  <property name="audio_index">0</property>
  <property name="video_index">-1</property>
  <property name="astream">0</property>
  <property name="kdenlive:folderid">-1</property>
  <property name="kdenlive:id">116</property>
  <property name="kdenlive:clip_type">1</property>
  <property name="kdenlive:file_size">874532</property>
  <property name="kdenlive:file_hash">2c68e7f34ce9e688137d2166013c1df0</property>
  <property name="kdenlive:audio_max0">190</property>
  <property name="meta.media.nb_streams">1</property>
  <property name="meta.media.0.stream.type">audio</property>
  <property name="meta.media.0.codec.sample_fmt">flt</property>
  <property name="meta.media.0.codec.sample_rate">48000</property>
  <property name="meta.media.0.codec.channels">2</property>
  <property name="meta.media.0.codec.name">pcm_f32le</property>
  <property name="meta.media.0.codec.long_name">PCM 32-bit floating point little-endian</property>
  <property name="meta.media.0.codec.bit_rate">3072000</property>
  <property name="xml">was here</property>
  <property name="mute_on_pause">0</property>
  <property name="set.test_audio">0</property>
  <property name="set.test_image">1</property>
 </chain>
 <chain id="chain18" out="00:00:03.904">
  <property name="length">235</property>
  <property name="eof">pause</property>
  <property name="resource">byeMouse.wav</property>
  <property name="mlt_service">avformat-novalidate</property>
  <property name="seekable">1</property>
  <property name="audio_index">0</property>
  <property name="video_index">-1</property>
  <property name="astream">0</property>
  <property name="kdenlive:folderid">-1</property>
  <property name="kdenlive:id">117</property>
  <property name="kdenlive:clip_type">1</property>
  <property name="kdenlive:file_size">1506716</property>
  <property name="kdenlive:file_hash">03871ce27f9baa68bf5fbd3f6a08fd89</property>
  <property name="kdenlive:audio_max0">198</property>
  <property name="meta.media.nb_streams">1</property>
  <property name="meta.media.0.stream.type">audio</property>
  <property name="meta.media.0.codec.sample_fmt">flt</property>
  <property name="meta.media.0.codec.sample_rate">48000</property>
  <property name="meta.media.0.codec.channels">2</property>
  <property name="meta.media.0.codec.name">pcm_f32le</property>
  <property name="meta.media.0.codec.long_name">PCM 32-bit floating point little-endian</property>
  <property name="meta.media.0.codec.bit_rate">3072000</property>
  <property name="xml">was here</property>
  <property name="mute_on_pause">0</property>
  <property name="set.test_audio">0</property>
  <property name="set.test_image">1</property>
 </chain>
 <chain id="chain19" out="00:00:28.845">
  <property name="length">1730</property>
  <property name="eof">pause</property>
  <property name="resource">bonJuggleTillEnd.wav</property>
  <property name="mlt_service">avformat-novalidate</property>
  <property name="seekable">1</property>
  <property name="audio_index">0</property>
  <property name="video_index">-1</property>
  <property name="astream">0</property>
  <property name="kdenlive:folderid">-1</property>
  <property name="kdenlive:id">118</property>
  <property name="kdenlive:clip_type">1</property>
  <property name="kdenlive:file_size">11085732</property>
  <property name="kdenlive:file_hash">631a45b2dd8f68ccf858ddc229a9ecad</property>
  <property name="kdenlive:audio_max0">197</property>
  <property name="meta.media.nb_streams">1</property>
  <property name="meta.media.0.stream.type">audio</property>
  <property name="meta.media.0.codec.sample_fmt">flt</property>
  <property name="meta.media.0.codec.sample_rate">48000</property>
  <property name="meta.media.0.codec.channels">2</property>
  <property name="meta.media.0.codec.name">pcm_f32le</property>
  <property name="meta.media.0.codec.long_name">PCM 32-bit floating point little-endian</property>
  <property name="meta.media.0.codec.bit_rate">3072000</property>
  <property name="xml">was here</property>
  <property name="mute_on_pause">0</property>
  <property name="set.test_audio">0</property>
  <property name="set.test_image">1</property>
 </chain>
 <playlist id="playlist2">
  <property name="kdenlive:audio_track">1</property>
  <blank length="00:00:58.792"/>
  <entry producer="chain2" in="00:00:00.000" out="00:00:02.586">
   <property name="kdenlive:id">33</property>
  </entry>
  <blank length="00:00:04.421"/>
  <entry producer="chain3" in="00:00:00.000" out="00:00:05.305">
   <property name="kdenlive:id">40</property>
  </entry>
  <blank length="00:00:02.486"/>
  <entry producer="chain4" in="00:00:00.000" out="00:00:02.753">
   <property name="kdenlive:id">42</property>
  </entry>
  <blank length="00:00:42.459"/>
  <entry producer="chain5" in="00:00:00.000" out="00:00:07.274">
   <property name="kdenlive:id">109</property>
  </entry>
  <blank length="00:00:05.489"/>
  <entry producer="chain6" in="00:00:00.000" out="00:00:01.201">
   <property name="kdenlive:id">110</property>
  </entry>
  <blank length="00:00:03.787"/>
  <entry producer="chain12" in="00:00:00.000" out="00:00:00.801">
   <property name="kdenlive:id">111</property>
  </entry>
  <entry producer="chain13" in="00:00:02.686" out="00:00:04.054">
   <property name="kdenlive:id">112</property>
  </entry>
  <blank length="00:00:00.801"/>
  <entry producer="chain12" in="00:00:03.003" out="00:00:03.971">
   <property name="kdenlive:id">111</property>
  </entry>
  <entry producer="chain13" in="00:00:02.686" out="00:00:04.054">
   <property name="kdenlive:id">112</property>
  </entry>
  <blank length="00:00:01.335"/>
  <entry producer="chain13" in="00:00:00.000" out="00:00:02.586">
   <property name="kdenlive:id">112</property>
  </entry>
  <entry producer="chain13" in="00:00:02.603" out="00:00:04.054">
   <property name="kdenlive:id">112</property>
  </entry>
  <blank length="00:00:03.237"/>
  <entry producer="chain14" in="00:00:00.000" out="00:00:11.228">
   <property name="kdenlive:id">113</property>
  </entry>
  <blank length="00:00:15.616"/>
  <entry producer="chain15" in="00:00:00.000" out="00:00:06.006">
   <property name="kdenlive:id">115</property>
  </entry>
  <blank length="00:00:00.234"/>
  <entry producer="chain16" in="00:00:00.284" out="00:00:02.069">
   <property name="kdenlive:id">114</property>
  </entry>
  <blank length="00:00:01.785"/>
  <entry producer="chain17" in="00:00:00.000" out="00:00:02.252">
   <property name="kdenlive:id">116</property>
  </entry>
  <blank length="00:00:13.180"/>
  <entry producer="chain18" in="00:00:00.000" out="00:00:03.904">
   <property name="kdenlive:id">117</property>
  </entry>
  <blank length="00:00:01.435"/>
  <entry producer="chain19" in="00:00:04.321" out="00:00:05.005">
   <property name="kdenlive:id">118</property>
  </entry>
  <blank length="00:00:00.067"/>
  <entry producer="chain19" in="00:00:05.072" out="00:00:07.391">
   <property name="kdenlive:id">118</property>
  </entry>
  <blank length="00:00:03.620"/>
  <entry producer="chain19" in="00:00:11.094" out="00:00:13.564">
   <property name="kdenlive:id">118</property>
  </entry>
  <entry producer="chain19" in="00:00:13.714" out="00:00:20.304">
   <property name="kdenlive:id">118</property>
  </entry>
  <blank length="00:00:01.151"/>
  <entry producer="chain19" in="00:00:20.921" out="00:00:21.838">
   <property name="kdenlive:id">118</property>
  </entry>
  <entry producer="chain19" in="00:00:22.122" out="00:00:23.156">
   <property name="kdenlive:id">118</property>
  </entry>
  <blank length="00:00:00.350"/>
  <entry producer="chain19" in="00:00:23.173" out="00:00:25.192">
   <property name="kdenlive:id">118</property>
  </entry>
 </playlist>
 <playlist id="playlist3">
  <property name="kdenlive:audio_track">1</property>
 </playlist>
 <tractor id="tractor1" in="00:00:00.000" out="00:03:49.483">
  <property name="kdenlive:audio_track">1</property>
  <property name="kdenlive:trackheight">67</property>
  <property name="kdenlive:timeline_active">1</property>
  <property name="kdenlive:collapsed">0</property>
  <property name="kdenlive:thumbs_format"/>
  <property name="kdenlive:audio_rec"/>
  <track hide="video" producer="playlist2"/>
  <track hide="video" producer="playlist3"/>
  <filter id="filter3">
   <property name="window">75</property>
   <property name="max_gain">20dB</property>
   <property name="mlt_service">volume</property>
   <property name="internal_added">237</property>
   <property name="disable">1</property>
  </filter>
  <filter id="filter4">
   <property name="channel">-1</property>
   <property name="mlt_service">panner</property>
   <property name="internal_added">237</property>
   <property name="start">0.5</property>
   <property name="disable">1</property>
  </filter>
  <filter id="filter5">
   <property name="iec_scale">0</property>
   <property name="mlt_service">audiolevel</property>
   <property name="dbpeak">1</property>
   <property name="disable">1</property>
  </filter>
 </tractor>
 <chain id="chain20" out="00:04:01.535">
  <property name="length">14478</property>
  <property name="eof">pause</property>
  <property name="resource">storyTimeMine.ogg</property>
  <property name="mlt_service">avformat-novalidate</property>
  <property name="seekable">1</property>
  <property name="audio_index">0</property>
  <property name="video_index">-1</property>
  <property name="astream">0</property>
  <property name="kdenlive:folderid">-1</property>
  <property name="kdenlive:id">14</property>
  <property name="kdenlive:clip_type">1</property>
  <property name="kdenlive:file_size">2641848</property>
  <property name="kdenlive:file_hash">0095a728fe1a077437eb000a3995ad1d</property>
  <property name="kdenlive:audio_max0">250</property>
  <property name="meta.media.nb_streams">1</property>
  <property name="meta.media.0.stream.type">audio</property>
  <property name="meta.media.0.codec.sample_fmt">fltp</property>
  <property name="meta.media.0.codec.sample_rate">44100</property>
  <property name="meta.media.0.codec.channels">1</property>
  <property name="meta.media.0.codec.name">vorbis</property>
  <property name="meta.media.0.codec.long_name">Vorbis</property>
  <property name="meta.media.0.codec.bit_rate">96000</property>
  <property name="xml">was here</property>
  <property name="mute_on_pause">0</property>
  <property name="set.test_audio">0</property>
  <property name="set.test_image">1</property>
 </chain>
 <playlist id="playlist4">
  <property name="kdenlive:audio_track">1</property>
  <entry producer="chain20" in="00:00:00.000" out="00:04:01.535">
   <property name="kdenlive:id">14</property>
  </entry>
 </playlist>
 <playlist id="playlist5">
  <property name="kdenlive:audio_track">1</property>
 </playlist>
 <tractor id="tractor2" in="00:00:00.000" out="00:04:01.535">
  <property name="kdenlive:audio_track">1</property>
  <property name="kdenlive:trackheight">67</property>
  <property name="kdenlive:timeline_active">1</property>
  <property name="kdenlive:collapsed">0</property>
  <property name="kdenlive:thumbs_format"/>
  <property name="kdenlive:audio_rec"/>
  <track hide="video" producer="playlist4"/>
  <track hide="video" producer="playlist5"/>
  <filter id="filter6">
   <property name="window">75</property>
   <property name="max_gain">20dB</property>
   <property name="level">-16.2945</property>
   <property name="mlt_service">volume</property>
   <property name="internal_added">237</property>
   <property name="disable">0</property>
  </filter>
  <filter id="filter7">
   <property name="channel">-1</property>
   <property name="mlt_service">panner</property>
   <property name="internal_added">237</property>
   <property name="start">0.5</property>
   <property name="disable">1</property>
  </filter>
  <filter id="filter8">
   <property name="iec_scale">0</property>
   <property name="mlt_service">audiolevel</property>
   <property name="dbpeak">1</property>
   <property name="disable">1</property>
  </filter>
 </tractor>
 <chain id="chain21" out="00:00:07.541">
  <property name="length">453</property>
  <property name="eof">pause</property>
  <property name="resource">b_box.wav</property>
  <property name="mlt_service">avformat-novalidate</property>
  <property name="seekable">1</property>
  <property name="audio_index">0</property>
  <property name="video_index">-1</property>
  <property name="astream">0</property>
  <property name="kdenlive:folderid">-1</property>
  <property name="kdenlive:id">22</property>
  <property name="kdenlive:clip_type">1</property>
  <property name="kdenlive:file_size">2904996</property>
  <property name="kdenlive:file_hash">eab68851631cab542620f711c29ecc76</property>
  <property name="kdenlive:audio_max0">197</property>
  <property name="meta.media.nb_streams">1</property>
  <property name="meta.media.0.stream.type">audio</property>
  <property name="meta.media.0.codec.sample_fmt">flt</property>
  <property name="meta.media.0.codec.sample_rate">48000</property>
  <property name="meta.media.0.codec.channels">2</property>
  <property name="meta.media.0.codec.name">pcm_f32le</property>
  <property name="meta.media.0.codec.long_name">PCM 32-bit floating point little-endian</property>
  <property name="meta.media.0.codec.bit_rate">3072000</property>
  <property name="xml">was here</property>
  <property name="mute_on_pause">0</property>
  <property name="set.test_audio">0</property>
  <property name="set.test_image">1</property>
 </chain>
 <chain id="chain22" out="00:00:03.504">
  <property name="length">211</property>
  <property name="eof">pause</property>
  <property name="resource">bong.wav</property>
  <property name="mlt_service">avformat-novalidate</property>
  <property name="seekable">1</property>
  <property name="audio_index">0</property>
  <property name="video_index">-1</property>
  <property name="astream">0</property>
  <property name="kdenlive:folderid">-1</property>
  <property name="kdenlive:id">10</property>
  <property name="kdenlive:clip_type">1</property>
  <property name="kdenlive:file_size">1356458</property>
  <property name="kdenlive:file_hash">f2a84eb894faf132416a96169b454dd5</property>
  <property name="kdenlive:audio_max0">253</property>
  <property name="meta.media.nb_streams">1</property>
  <property name="meta.media.0.stream.type">audio</property>
  <property name="meta.media.0.codec.sample_fmt">flt</property>
  <property name="meta.media.0.codec.sample_rate">48000</property>
  <property name="meta.media.0.codec.channels">2</property>
  <property name="meta.media.0.codec.name">pcm_f32le</property>
  <property name="meta.media.0.codec.long_name">PCM 32-bit floating point little-endian</property>
  <property name="meta.media.0.codec.bit_rate">3072000</property>
  <property name="xml">was here</property>
  <property name="mute_on_pause">0</property>
  <property name="set.test_audio">0</property>
  <property name="set.test_image">1</property>
 </chain>
 <playlist id="playlist6">
  <property name="kdenlive:audio_track">1</property>
  <blank length="00:00:21.154"/>
  <entry producer="chain21" in="00:00:00.000" out="00:00:07.541">
   <property name="kdenlive:id">22</property>
  </entry>
  <blank length="00:00:07.858"/>
  <entry producer="chain21" in="00:00:00.000" out="00:00:07.541">
   <property name="kdenlive:id">22</property>
  </entry>
  <blank length="00:02:57.808"/>
  <entry producer="chain22" in="00:00:00.000" out="00:00:03.504">
   <property name="kdenlive:id">10</property>
  </entry>
 </playlist>
 <playlist id="playlist7">
  <property name="kdenlive:audio_track">1</property>
 </playlist>
 <tractor id="tractor3" in="00:00:00.000" out="00:03:45.429">
  <property name="kdenlive:audio_track">1</property>
  <property name="kdenlive:trackheight">67</property>
  <property name="kdenlive:timeline_active">1</property>
  <property name="kdenlive:collapsed">0</property>
  <property name="kdenlive:thumbs_format"/>
  <property name="kdenlive:audio_rec"/>
  <track hide="video" producer="playlist6"/>
  <track hide="video" producer="playlist7"/>
  <filter id="filter9">
   <property name="window">75</property>
   <property name="max_gain">20dB</property>
   <property name="mlt_service">volume</property>
   <property name="internal_added">237</property>
   <property name="disable">1</property>
  </filter>
  <filter id="filter10">
   <property name="channel">-1</property>
   <property name="mlt_service">panner</property>
   <property name="internal_added">237</property>
   <property name="start">0.5</property>
   <property name="disable">1</property>
  </filter>
  <filter id="filter11">
   <property name="iec_scale">0</property>
   <property name="mlt_service">audiolevel</property>
   <property name="dbpeak">1</property>
   <property name="disable">1</property>
  </filter>
 </tractor>
 <chain id="chain23" out="00:00:04.538">
  <property name="length">273</property>
  <property name="eof">pause</property>
  <property name="resource">b_excited.wav</property>
  <property name="mlt_service">avformat-novalidate</property>
  <property name="seekable">1</property>
  <property name="audio_index">0</property>
  <property name="video_index">-1</property>
  <property name="astream">0</property>
  <property name="kdenlive:folderid">-1</property>
  <property name="kdenlive:id">17</property>
  <property name="kdenlive:clip_type">1</property>
  <property name="kdenlive:file_size">1754276</property>
  <property name="kdenlive:file_hash">b03f4d89e808719e0676cbcc42fb9e82</property>
  <property name="kdenlive:audio_max0">186</property>
  <property name="meta.media.nb_streams">1</property>
  <property name="meta.media.0.stream.type">audio</property>
  <property name="meta.media.0.codec.sample_fmt">flt</property>
  <property name="meta.media.0.codec.sample_rate">48000</property>
  <property name="meta.media.0.codec.channels">2</property>
  <property name="meta.media.0.codec.name">pcm_f32le</property>
  <property name="meta.media.0.codec.long_name">PCM 32-bit floating point little-endian</property>
  <property name="meta.media.0.codec.bit_rate">3072000</property>
  <property name="xml">was here</property>
  <property name="mute_on_pause">0</property>
  <property name="set.test_audio">0</property>
  <property name="set.test_image">1</property>
 </chain>
 <chain id="chain24" out="00:00:05.138">
  <property name="length">309</property>
  <property name="eof">pause</property>
  <property name="resource">all.wav</property>
  <property name="mlt_service">avformat-novalidate</property>
  <property name="seekable">1</property>
  <property name="audio_index">0</property>
  <property name="video_index">-1</property>
  <property name="astream">0</property>
  <property name="kdenlive:folderid">-1</property>
  <property name="kdenlive:id">28</property>
  <property name="kdenlive:clip_type">1</property>
  <property name="kdenlive:file_size">1981436</property>
  <property name="kdenlive:file_hash">87903c66f2b4aa38903e74b96ba33942</property>
  <property name="kdenlive:audio_max0">198</property>
  <property name="meta.media.nb_streams">1</property>
  <property name="meta.media.0.stream.type">audio</property>
  <property name="meta.media.0.codec.sample_fmt">flt</property>
  <property name="meta.media.0.codec.sample_rate">48000</property>
  <property name="meta.media.0.codec.channels">2</property>
  <property name="meta.media.0.codec.name">pcm_f32le</property>
  <property name="meta.media.0.codec.long_name">PCM 32-bit floating point little-endian</property>
  <property name="meta.media.0.codec.bit_rate">3072000</property>
  <property name="xml">was here</property>
  <property name="mute_on_pause">0</property>
  <property name="set.test_audio">0</property>
  <property name="set.test_image">1</property>
 </chain>
 <chain id="chain25" out="00:00:01.285">
  <property name="length">78</property>
  <property name="eof">pause</property>
  <property name="resource">ballWord.wav</property>
  <property name="mlt_service">avformat-novalidate</property>
  <property name="seekable">1</property>
  <property name="audio_index">0</property>
  <property name="video_index">-1</property>
  <property name="astream">0</property>
  <property name="kdenlive:folderid">-1</property>
  <property name="kdenlive:id">47</property>
  <property name="kdenlive:clip_type">1</property>
  <property name="kdenlive:file_size">501540</property>
  <property name="kdenlive:file_hash">60dd3c0ea52af879beb3ab6f273ba778</property>
  <property name="kdenlive:audio_max0">166</property>
  <property name="meta.media.nb_streams">1</property>
  <property name="meta.media.0.stream.type">audio</property>
  <property name="meta.media.0.codec.sample_fmt">flt</property>
  <property name="meta.media.0.codec.sample_rate">48000</property>
  <property name="meta.media.0.codec.channels">2</property>
  <property name="meta.media.0.codec.name">pcm_f32le</property>
  <property name="meta.media.0.codec.long_name">PCM 32-bit floating point little-endian</property>
  <property name="meta.media.0.codec.bit_rate">3072000</property>
  <property name="xml">was here</property>
  <property name="mute_on_pause">0</property>
  <property name="set.test_audio">0</property>
  <property name="set.test_image">1</property>
 </chain>
 <chain id="chain26" out="00:00:01.518">
  <property name="length">92</property>
  <property name="eof">pause</property>
  <property name="resource">batWordFinal.wav</property>
  <property name="mlt_service">avformat-novalidate</property>
  <property name="seekable">1</property>
  <property name="audio_index">0</property>
  <property name="video_index">-1</property>
  <property name="astream">0</property>
  <property name="kdenlive:id">53</property>
  <property name="kdenlive:clip_type">1</property>
  <property name="kdenlive:file_size">590684</property>
  <property name="kdenlive:file_hash">60c131f25a2d014c38bb4268bb059837</property>
  <property name="kdenlive:folderid">-1</property>
  <property name="kdenlive:audio_max0">189</property>
  <property name="meta.media.nb_streams">1</property>
  <property name="meta.media.0.stream.type">audio</property>
  <property name="meta.media.0.codec.sample_fmt">flt</property>
  <property name="meta.media.0.codec.sample_rate">48000</property>
  <property name="meta.media.0.codec.channels">2</property>
  <property name="meta.media.0.codec.name">pcm_f32le</property>
  <property name="meta.media.0.codec.long_name">PCM 32-bit floating point little-endian</property>
  <property name="meta.media.0.codec.bit_rate">3072000</property>
  <property name="xml">was here</property>
  <property name="mute_on_pause">0</property>
  <property name="set.test_audio">0</property>
  <property name="set.test_image">1</property>
 </chain>
 <chain id="chain27" out="00:00:49.533">
  <property name="length">2970</property>
  <property name="eof">pause</property>
  <property name="resource">C:/Users/shawn/OneDrive/Desktop/What/storyTimeTestOnTheater.wav</property>
  <property name="mlt_service">avformat-novalidate</property>
  <property name="seekable">1</property>
  <property name="audio_index">0</property>
  <property name="video_index">-1</property>
  <property name="astream">0</property>
  <property name="kdenlive:folderid">-1</property>
  <property name="kdenlive:id">120</property>
  <property name="kdenlive:clip_type">1</property>
  <property name="kdenlive:file_size">19026758</property>
  <property name="kdenlive:file_hash">912e52115f3fe6a80cb3a8259c608e38</property>
  <property name="kdenlive:audio_max0">229</property>
  <property name="meta.media.nb_streams">1</property>
  <property name="meta.media.0.stream.type">audio</property>
  <property name="meta.media.0.codec.sample_fmt">flt</property>
  <property name="meta.media.0.codec.sample_rate">48000</property>
  <property name="meta.media.0.codec.channels">2</property>
  <property name="meta.media.0.codec.name">pcm_f32le</property>
  <property name="meta.media.0.codec.long_name">PCM 32-bit floating point little-endian</property>
  <property name="meta.media.0.codec.bit_rate">3072000</property>
  <property name="xml">was here</property>
  <property name="mute_on_pause">0</property>
  <property name="set.test_audio">0</property>
  <property name="set.test_image">1</property>
 </chain>
 <playlist id="playlist8">
  <property name="kdenlive:audio_track">1</property>
  <blank length="00:00:16.066"/>
  <entry producer="chain23" in="00:00:00.050" out="00:00:04.538">
   <property name="kdenlive:id">17</property>
  </entry>
  <blank length="00:00:26.727"/>
  <entry producer="chain24" in="00:00:00.000" out="00:00:05.138">
   <property name="kdenlive:id">28</property>
  </entry>
  <blank length="00:00:26.426"/>
  <entry producer="chain25" in="00:00:00.000" out="00:00:01.285">
   <property name="kdenlive:id">47</property>
  </entry>
  <blank length="00:00:08.308"/>
  <entry producer="chain26" in="00:00:00.367" out="00:00:01.351">
   <property name="kdenlive:id">53</property>
  </entry>
  <blank length="00:02:32.065"/>
  <entry producer="chain27" in="00:00:00.000" out="00:00:49.533">
   <property name="kdenlive:id">120</property>
  </entry>
 </playlist>
 <playlist id="playlist9">
  <property name="kdenlive:audio_track">1</property>
 </playlist>
 <tractor id="tractor4" in="00:00:00.000" out="00:04:51.084">
  <property name="kdenlive:audio_track">1</property>
  <property name="kdenlive:trackheight">67</property>
  <property name="kdenlive:timeline_active">1</property>
  <property name="kdenlive:collapsed">0</property>
  <property name="kdenlive:thumbs_format"/>
  <property name="kdenlive:audio_rec"/>
  <track hide="video" producer="playlist8"/>
  <track hide="video" producer="playlist9"/>
  <filter id="filter12">
   <property name="window">75</property>
   <property name="max_gain">20dB</property>
   <property name="mlt_service">volume</property>
   <property name="internal_added">237</property>
   <property name="disable">1</property>
  </filter>
  <filter id="filter13">
   <property name="channel">-1</property>
   <property name="mlt_service">panner</property>
   <property name="internal_added">237</property>
   <property name="start">0.5</property>
   <property name="disable">1</property>
  </filter>
  <filter id="filter14">
   <property name="iec_scale">0</property>
   <property name="mlt_service">audiolevel</property>
   <property name="dbpeak">1</property>
   <property name="disable">1</property>
  </filter>
 </tractor>
 <chain id="chain44" out="00:00:09.743">
  <property name="length">585</property>
  <property name="eof">pause</property>
  <property name="resource">b_intro.wav</property>
  <property name="mlt_service">avformat-novalidate</property>
  <property name="seekable">1</property>
  <property name="audio_index">0</property>
  <property name="video_index">-1</property>
  <property name="astream">0</property>
  <property name="kdenlive:folderid">-1</property>
  <property name="kdenlive:id">15</property>
  <property name="kdenlive:clip_type">1</property>
  <property name="kdenlive:file_size">3750852</property>
  <property name="kdenlive:file_hash">55167e25c44fa00eb0479f9154e741d9</property>
  <property name="kdenlive:audio_max0">185</property>
  <property name="meta.media.nb_streams">1</property>
  <property name="meta.media.0.stream.type">audio</property>
  <property name="meta.media.0.codec.sample_fmt">flt</property>
  <property name="meta.media.0.codec.sample_rate">48000</property>
  <property name="meta.media.0.codec.channels">2</property>
  <property name="meta.media.0.codec.name">pcm_f32le</property>
  <property name="meta.media.0.codec.long_name">PCM 32-bit floating point little-endian</property>
  <property name="meta.media.0.codec.bit_rate">3072000</property>
  <property name="xml">was here</property>
  <property name="mute_on_pause">0</property>
  <property name="set.test_audio">0</property>
  <property name="set.test_image">1</property>
 </chain>
 <chain id="chain47" out="00:00:01.051">
  <property name="length">64</property>
  <property name="eof">pause</property>
  <property name="resource">babySound.wav</property>
  <property name="mlt_service">avformat-novalidate</property>
  <property name="seekable">1</property>
  <property name="audio_index">0</property>
  <property name="video_index">-1</property>
  <property name="astream">0</property>
  <property name="kdenlive:folderid">-1</property>
  <property name="kdenlive:id">46</property>
  <property name="kdenlive:clip_type">1</property>
  <property name="kdenlive:file_size">412860</property>
  <property name="kdenlive:file_hash">3b9591963dd32e8ffac2a949ccf7d146</property>
  <property name="kdenlive:audio_max0">175</property>
  <property name="meta.media.nb_streams">1</property>
  <property name="meta.media.0.stream.type">audio</property>
  <property name="meta.media.0.codec.sample_fmt">flt</property>
  <property name="meta.media.0.codec.sample_rate">48000</property>
  <property name="meta.media.0.codec.channels">2</property>
  <property name="meta.media.0.codec.name">pcm_f32le</property>
  <property name="meta.media.0.codec.long_name">PCM 32-bit floating point little-endian</property>
  <property name="meta.media.0.codec.bit_rate">3072000</property>
  <property name="xml">was here</property>
  <property name="mute_on_pause">0</property>
  <property name="set.test_audio">0</property>
  <property name="set.test_image">1</property>
 </chain>
 <chain id="chain48" out="00:00:03.670">
  <property name="length">221</property>
  <property name="eof">pause</property>
  <property name="resource">batWord.wav</property>
  <property name="mlt_service">avformat-novalidate</property>
  <property name="seekable">1</property>
  <property name="audio_index">0</property>
  <property name="video_index">-1</property>
  <property name="astream">0</property>
  <property name="kdenlive:folderid">-1</property>
  <property name="kdenlive:id">52</property>
  <property name="kdenlive:clip_type">1</property>
  <property name="kdenlive:file_size">1415060</property>
  <property name="kdenlive:file_hash">ae64868de5732e21b2180bdbfe260cfd</property>
  <property name="kdenlive:audio_max0">175</property>
  <property name="meta.media.nb_streams">1</property>
  <property name="meta.media.0.stream.type">audio</property>
  <property name="meta.media.0.codec.sample_fmt">flt</property>
  <property name="meta.media.0.codec.sample_rate">48000</property>
  <property name="meta.media.0.codec.channels">2</property>
  <property name="meta.media.0.codec.name">pcm_f32le</property>
  <property name="meta.media.0.codec.long_name">PCM 32-bit floating point little-endian</property>
  <property name="meta.media.0.codec.bit_rate">3072000</property>
  <property name="xml">was here</property>
  <property name="mute_on_pause">0</property>
  <property name="set.test_audio">0</property>
  <property name="set.test_image">1</property>
 </chain>
 <chain id="chain49" out="00:00:05.405">
  <property name="length">325</property>
  <property name="eof">pause</property>
  <property name="resource">seeTheBatHitTheBall.wav</property>
  <property name="mlt_service">avformat-novalidate</property>
  <property name="seekable">1</property>
  <property name="audio_index">0</property>
  <property name="video_index">-1</property>
  <property name="astream">0</property>
  <property name="kdenlive:folderid">-1</property>
  <property name="kdenlive:id">55</property>
  <property name="kdenlive:clip_type">1</property>
  <property name="kdenlive:file_size">2084500</property>
  <property name="kdenlive:file_hash">521a0cfa7cd9ff943cebd60919ab8c36</property>
  <property name="kdenlive:audio_max0">187</property>
  <property name="meta.media.nb_streams">1</property>
  <property name="meta.media.0.stream.type">audio</property>
  <property name="meta.media.0.codec.sample_fmt">flt</property>
  <property name="meta.media.0.codec.sample_rate">48000</property>
  <property name="meta.media.0.codec.channels">2</property>
  <property name="meta.media.0.codec.name">pcm_f32le</property>
  <property name="meta.media.0.codec.long_name">PCM 32-bit floating point little-endian</property>
  <property name="meta.media.0.codec.bit_rate">3072000</property>
  <property name="xml">was here</property>
  <property name="mute_on_pause">0</property>
  <property name="set.test_audio">0</property>
  <property name="set.test_image">1</property>
 </chain>
 <chain id="chain50" out="00:00:05.455">
  <property name="length">328</property>
  <property name="eof">pause</property>
  <property name="resource">bobLetters.wav</property>
  <property name="mlt_service">avformat-novalidate</property>
  <property name="seekable">1</property>
  <property name="audio_index">0</property>
  <property name="video_index">-1</property>
  <property name="astream">0</property>
  <property name="kdenlive:folderid">-1</property>
  <property name="kdenlive:id">66</property>
  <property name="kdenlive:clip_type">1</property>
  <property name="kdenlive:file_size">2105124</property>
  <property name="kdenlive:file_hash">e404894bc36a3e5249e7374fff654d1a</property>
  <property name="kdenlive:audio_max0">162</property>
  <property name="meta.media.nb_streams">1</property>
  <property name="meta.media.0.stream.type">audio</property>
  <property name="meta.media.0.codec.sample_fmt">flt</property>
  <property name="meta.media.0.codec.sample_rate">48000</property>
  <property name="meta.media.0.codec.channels">2</property>
  <property name="meta.media.0.codec.name">pcm_f32le</property>
  <property name="meta.media.0.codec.long_name">PCM 32-bit floating point little-endian</property>
  <property name="meta.media.0.codec.bit_rate">3072000</property>
  <property name="xml">was here</property>
  <property name="mute_on_pause">0</property>
  <property name="set.test_audio">0</property>
  <property name="set.test_image">1</property>
 </chain>
 <chain id="chain51" out="00:00:01.668">
  <property name="length">101</property>
  <property name="eof">pause</property>
  <property name="resource">bobTogether.wav</property>
  <property name="mlt_service">avformat-novalidate</property>
  <property name="seekable">1</property>
  <property name="audio_index">0</property>
  <property name="video_index">-1</property>
  <property name="astream">0</property>
  <property name="kdenlive:folderid">-1</property>
  <property name="kdenlive:id">67</property>
  <property name="kdenlive:clip_type">1</property>
  <property name="kdenlive:file_size">649340</property>
  <property name="kdenlive:file_hash">7d4c819f1e3c0caf330ccca64e65b559</property>
  <property name="kdenlive:audio_max0">182</property>
  <property name="meta.media.nb_streams">1</property>
  <property name="meta.media.0.stream.type">audio</property>
  <property name="meta.media.0.codec.sample_fmt">flt</property>
  <property name="meta.media.0.codec.sample_rate">48000</property>
  <property name="meta.media.0.codec.channels">2</property>
  <property name="meta.media.0.codec.name">pcm_f32le</property>
  <property name="meta.media.0.codec.long_name">PCM 32-bit floating point little-endian</property>
  <property name="meta.media.0.codec.bit_rate">3072000</property>
  <property name="xml">was here</property>
  <property name="mute_on_pause">0</property>
  <property name="set.test_audio">0</property>
  <property name="set.test_image">1</property>
 </chain>
 <chain id="chain52" out="00:00:17.050">
  <property name="length">00:00:17.067</property>
  <property name="eof">pause</property>
  <property name="resource">bobJuggle-AvgQualNoFullColorVP9.webm</property>
  <property name="mlt_service">avformat-novalidate</property>
  <property name="seekable">1</property>
  <property name="audio_index">1</property>
  <property name="video_index">0</property>
  <property name="vstream">0</property>
  <property name="astream">0</property>
  <property name="kdenlive:folderid">-1</property>
  <property name="kdenlive:id">4</property>
  <property name="mute_on_pause">0</property>
  <property name="kdenlive:clip_type">0</property>
  <property name="kdenlive:file_size">33601711</property>
  <property name="kdenlive:file_hash">bbb6bb3f9a67d7adfe217fe873e6acc0</property>
  <property name="kdenlive:audio_max1">210</property>
  <property name="meta.media.nb_streams">2</property>
  <property name="meta.media.0.stream.type">video</property>
  <property name="meta.media.0.stream.frame_rate">59.9401</property>
  <property name="meta.media.0.stream.sample_aspect_ratio">1</property>
  <property name="meta.media.0.codec.width">1080</property>
  <property name="meta.media.0.codec.height">1920</property>
  <property name="meta.media.0.codec.rotate">0</property>
  <property name="meta.media.0.codec.pix_fmt">yuv420p</property>
  <property name="meta.media.0.codec.sample_aspect_ratio">0</property>
  <property name="meta.media.0.codec.colorspace">709</property>
  <property name="meta.media.0.codec.color_trc">1</property>
  <property name="meta.media.0.codec.name">vp9</property>
  <property name="meta.media.0.codec.long_name">Google VP9</property>
  <property name="meta.media.0.codec.bit_rate">0</property>
  <property name="meta.attr.0.stream.DURATION.markup">00:00:17.051000000</property>
  <property name="meta.media.1.stream.type">audio</property>
  <property name="meta.media.1.codec.sample_fmt">fltp</property>
  <property name="meta.media.1.codec.sample_rate">48000</property>
  <property name="meta.media.1.codec.channels">2</property>
  <property name="meta.media.1.codec.name">opus</property>
  <property name="meta.media.1.codec.long_name">Opus</property>
  <property name="meta.media.1.codec.bit_rate">0</property>
  <property name="meta.attr.1.stream.DURATION.markup">00:00:17.068000000</property>
  <property name="meta.attr.ENCODER.markup">Lavf60.16.100</property>
  <property name="meta.media.sample_aspect_num">1</property>
  <property name="meta.media.sample_aspect_den">1</property>
  <property name="meta.media.frame_rate_num">60000</property>
  <property name="meta.media.frame_rate_den">1001</property>
  <property name="meta.media.colorspace">709</property>
  <property name="meta.media.color_trc">1</property>
  <property name="meta.media.has_b_frames">0</property>
  <property name="meta.media.width">1080</property>
  <property name="meta.media.height">1920</property>
  <property name="meta.media.color_range">mpeg</property>
  <property name="xml">was here</property>
  <property name="meta.media.top_field_first">0</property>
  <property name="meta.media.progressive">1</property>
  <property name="set.test_audio">0</property>
  <property name="set.test_image">1</property>
 </chain>
 <playlist id="playlist10">
  <property name="kdenlive:audio_track">1</property>
  <blank length="00:00:05.739"/>
  <entry producer="chain44" in="00:00:00.000" out="00:00:09.743">
   <property name="kdenlive:id">15</property>
  </entry>
  <blank length="00:00:31.331"/>
  <entry producer="chain44" in="00:00:00.200" out="00:00:00.651">
   <property name="kdenlive:id">15</property>
  </entry>
  <blank length="00:00:30.380"/>
  <entry producer="chain47" in="00:00:00.000" out="00:00:01.051">
   <property name="kdenlive:id">46</property>
  </entry>
  <blank length="00:00:05.822"/>
  <entry producer="chain48" in="00:00:00.117" out="00:00:03.670">
   <property name="kdenlive:id">52</property>
  </entry>
  <blank length="00:00:03.587"/>
  <entry producer="chain49" in="00:00:00.000" out="00:00:05.405">
   <property name="kdenlive:id">55</property>
  </entry>
  <blank length="00:00:13.163"/>
  <entry producer="chain50" in="00:00:00.834" out="00:00:04.338">
   <property name="kdenlive:id">66</property>
  </entry>
  <blank length="00:00:00.250"/>
  <entry producer="chain51" in="00:00:00.000" out="00:00:01.668">
   <property name="kdenlive:id">67</property>
  </entry>
  <blank length="00:01:31.181"/>
  <entry producer="chain52" in="00:00:00.000" out="00:00:17.050">
   <property name="kdenlive:id">4</property>
  </entry>
 </playlist>
 <playlist id="playlist11">
  <property name="kdenlive:audio_track">1</property>
 </playlist>
 <tractor id="tractor5" in="00:00:00.000" out="00:03:43.994">
  <property name="kdenlive:audio_track">1</property>
  <property name="kdenlive:trackheight">67</property>
  <property name="kdenlive:timeline_active">1</property>
  <property name="kdenlive:collapsed">0</property>
  <property name="kdenlive:thumbs_format"/>
  <property name="kdenlive:audio_rec"/>
  <track hide="video" producer="playlist10"/>
  <track hide="video" producer="playlist11"/>
  <filter id="filter15">
   <property name="window">75</property>
   <property name="max_gain">20dB</property>
   <property name="mlt_service">volume</property>
   <property name="internal_added">237</property>
   <property name="disable">1</property>
  </filter>
  <filter id="filter16">
   <property name="channel">-1</property>
   <property name="mlt_service">panner</property>
   <property name="internal_added">237</property>
   <property name="start">0.5</property>
   <property name="disable">1</property>
  </filter>
  <filter id="filter17">
   <property name="iec_scale">0</property>
   <property name="mlt_service">audiolevel</property>
   <property name="dbpeak">1</property>
   <property name="disable">1</property>
  </filter>
 </tractor>
 <chain id="chain54" out="00:00:22.406">
  <property name="length">1344</property>
  <property name="eof">pause</property>
  <property name="resource">bobBagOfBalls.webm</property>
  <property name="mlt_service">avformat-novalidate</property>
  <property name="seekable">1</property>
  <property name="audio_index">1</property>
  <property name="video_index">0</property>
  <property name="vstream">0</property>
  <property name="astream">0</property>
  <property name="kdenlive:folderid">-1</property>
  <property name="kdenlive:id">85</property>
  <property name="mute_on_pause">0</property>
  <property name="kdenlive:clip_type">0</property>
  <property name="kdenlive:file_size">40193950</property>
  <property name="kdenlive:file_hash">8b3b66847d8b2498bebf3eedb13a30f5</property>
  <property name="kdenlive:audio_max1">202</property>
  <property name="meta.media.nb_streams">2</property>
  <property name="meta.media.0.stream.type">video</property>
  <property name="meta.media.0.stream.frame_rate">59.9401</property>
  <property name="meta.media.0.stream.sample_aspect_ratio">1</property>
  <property name="meta.media.0.codec.width">1920</property>
  <property name="meta.media.0.codec.height">1080</property>
  <property name="meta.media.0.codec.rotate">0</property>
  <property name="meta.media.0.codec.pix_fmt">yuv420p</property>
  <property name="meta.media.0.codec.sample_aspect_ratio">0</property>
  <property name="meta.media.0.codec.colorspace">709</property>
  <property name="meta.media.0.codec.color_trc">1</property>
  <property name="meta.media.0.codec.name">vp9</property>
  <property name="meta.media.0.codec.long_name">Google VP9</property>
  <property name="meta.media.0.codec.bit_rate">0</property>
  <property name="meta.attr.0.stream.DURATION.markup">00:00:22.406000000</property>
  <property name="meta.media.1.stream.type">audio</property>
  <property name="meta.media.1.codec.sample_fmt">fltp</property>
  <property name="meta.media.1.codec.sample_rate">48000</property>
  <property name="meta.media.1.codec.channels">2</property>
  <property name="meta.media.1.codec.name">opus</property>
  <property name="meta.media.1.codec.long_name">Opus</property>
  <property name="meta.media.1.codec.bit_rate">0</property>
  <property name="meta.attr.1.stream.DURATION.markup">00:00:22.428000000</property>
  <property name="meta.attr.ENCODER.markup">Lavf60.16.100</property>
  <property name="meta.media.sample_aspect_num">1</property>
  <property name="meta.media.sample_aspect_den">1</property>
  <property name="meta.media.frame_rate_num">60000</property>
  <property name="meta.media.frame_rate_den">1001</property>
  <property name="meta.media.colorspace">709</property>
  <property name="meta.media.color_trc">1</property>
  <property name="meta.media.has_b_frames">0</property>
  <property name="meta.media.width">1920</property>
  <property name="meta.media.height">1080</property>
  <property name="meta.media.color_range">full</property>
  <property name="xml">was here</property>
  <property name="meta.media.top_field_first">0</property>
  <property name="meta.media.progressive">1</property>
  <property name="set.test_audio">1</property>
  <property name="set.test_image">0</property>
 </chain>
 <producer id="producer48" in="00:00:00.000" out="00:00:57.307">
  <property name="length">3436</property>
  <property name="eof">pause</property>
  <property name="resource">0.391200:bobBagOfBalls.webm</property>
  <property name="aspect_ratio">1</property>
  <property name="meta.media.nb_streams">2</property>
  <property name="meta.media.0.stream.type">video</property>
  <property name="meta.media.0.stream.frame_rate">59.9401</property>
  <property name="meta.media.0.stream.sample_aspect_ratio">1</property>
  <property name="meta.media.0.codec.width">1920</property>
  <property name="meta.media.0.codec.height">1080</property>
  <property name="meta.media.0.codec.rotate">0</property>
  <property name="meta.media.0.codec.pix_fmt">yuv420p</property>
  <property name="meta.media.0.codec.sample_aspect_ratio">0</property>
  <property name="meta.media.0.codec.colorspace">709</property>
  <property name="meta.media.0.codec.color_trc">1</property>
  <property name="meta.media.0.codec.name">vp9</property>
  <property name="meta.media.0.codec.long_name">Google VP9</property>
  <property name="meta.media.0.codec.bit_rate">0</property>
  <property name="meta.attr.0.stream.DURATION.markup">00:00:22.406000000</property>
  <property name="meta.media.1.stream.type">audio</property>
  <property name="meta.media.1.codec.sample_fmt">fltp</property>
  <property name="meta.media.1.codec.sample_rate">48000</property>
  <property name="meta.media.1.codec.channels">2</property>
  <property name="meta.media.1.codec.name">opus</property>
  <property name="meta.media.1.codec.long_name">Opus</property>
  <property name="meta.media.1.codec.bit_rate">0</property>
  <property name="meta.attr.1.stream.DURATION.markup">00:00:22.428000000</property>
  <property name="meta.attr.ENCODER.markup">Lavf60.16.100</property>
  <property name="seekable">1</property>
  <property name="meta.media.sample_aspect_num">1</property>
  <property name="meta.media.sample_aspect_den">1</property>
  <property name="audio_index">1</property>
  <property name="video_index">0</property>
  <property name="warp_speed">0.3912</property>
  <property name="warp_resource">bobBagOfBalls.webm</property>
  <property name="mlt_service">timewarp</property>
  <property name="vstream">0</property>
  <property name="astream">0</property>
  <property name="set.test_audio">1</property>
  <property name="set.test_image">0</property>
  <property name="kdenlive:id">85</property>
  <property name="warp_pitch">0</property>
  <property name="meta.media.frame_rate_num">60000</property>
  <property name="meta.media.frame_rate_den">1001</property>
  <property name="meta.media.colorspace">709</property>
  <property name="meta.media.color_trc">1</property>
  <property name="meta.media.has_b_frames">0</property>
  <property name="meta.media.width">1920</property>
  <property name="meta.media.height">1080</property>
  <property name="meta.media.color_range">full</property>
  <property name="meta.media.top_field_first">0</property>
  <property name="meta.media.progressive">1</property>
 </producer>
 <chain id="chain55" out="00:01:22.573">
  <property name="length">4950</property>
  <property name="eof">pause</property>
  <property name="resource">C:/Users/shawn/OneDrive/Desktop/What/GX010346.MP4</property>
  <property name="mlt_service">avformat-novalidate</property>
  <property name="seekable">1</property>
  <property name="audio_index">1</property>
  <property name="video_index">0</property>
  <property name="vstream">0</property>
  <property name="astream">0</property>
  <property name="kdenlive:folderid">-1</property>
  <property name="kdenlive:id">119</property>
  <property name="mute_on_pause">0</property>
  <property name="kdenlive:clip_type">0</property>
  <property name="kdenlive:file_size">462792630</property>
  <property name="kdenlive:file_hash">c30f5dea2a369ed431f36e484ff1b19b</property>
  <property name="kdenlive:audio_max1">186</property>
  <property name="meta.media.nb_streams">4</property>
  <property name="meta.media.0.stream.type">video</property>
  <property name="meta.media.0.stream.frame_rate">59.9401</property>
  <property name="meta.media.0.stream.sample_aspect_ratio">0</property>
  <property name="meta.media.0.codec.width">1920</property>
  <property name="meta.media.0.codec.height">1080</property>
  <property name="meta.media.0.codec.rotate">0</property>
  <property name="meta.media.0.codec.pix_fmt">yuvj420p</property>
  <property name="meta.media.0.codec.sample_aspect_ratio">1</property>
  <property name="meta.media.0.codec.colorspace">709</property>
  <property name="meta.media.0.codec.color_trc">1</property>
  <property name="meta.media.0.codec.name">hevc</property>
  <property name="meta.media.0.codec.long_name">HEVC (High Efficiency Video Coding)</property>
  <property name="meta.media.0.codec.bit_rate">44557799</property>
  <property name="meta.attr.0.stream.creation_time.markup">2024-12-25T15:15:55.000000Z</property>
  <property name="meta.attr.0.stream.language.markup">eng</property>
  <property name="meta.attr.0.stream.handler_name.markup">GoPro H.265</property>
  <property name="meta.attr.0.stream.vendor_id.markup">[0][0][0][0]</property>
  <property name="meta.attr.0.stream.encoder.markup">GoPro H.265 encoder</property>
  <property name="meta.attr.0.stream.timecode.markup">15:15:00:18</property>
  <property name="meta.media.1.stream.type">audio</property>
  <property name="meta.media.1.codec.sample_fmt">fltp</property>
  <property name="meta.media.1.codec.sample_rate">48000</property>
  <property name="meta.media.1.codec.channels">2</property>
  <property name="meta.media.1.codec.name">aac</property>
  <property name="meta.media.1.codec.long_name">AAC (Advanced Audio Coding)</property>
  <property name="meta.media.1.codec.bit_rate">189360</property>
  <property name="meta.attr.1.stream.creation_time.markup">2024-12-25T15:15:55.000000Z</property>
  <property name="meta.attr.1.stream.language.markup">eng</property>
  <property name="meta.attr.1.stream.handler_name.markup">GoPro AAC  </property>
  <property name="meta.attr.1.stream.vendor_id.markup">[0][0][0][0]</property>
  <property name="meta.attr.1.stream.timecode.markup">15:15:00:18</property>
  <property name="meta.attr.major_brand.markup">mp41</property>
  <property name="meta.attr.minor_version.markup">538120216</property>
  <property name="meta.attr.compatible_brands.markup">mp41</property>
  <property name="meta.attr.creation_time.markup">2024-12-25T15:15:55.000000Z</property>
  <property name="meta.attr.firmware.markup">H21.01.01.60.00</property>
  <property name="meta.media.sample_aspect_num">1</property>
  <property name="meta.media.sample_aspect_den">1</property>
  <property name="meta.media.frame_rate_num">60000</property>
  <property name="meta.media.frame_rate_den">1001</property>
  <property name="meta.media.colorspace">709</property>
  <property name="meta.media.color_trc">1</property>
  <property name="meta.media.has_b_frames">0</property>
  <property name="meta.media.width">1920</property>
  <property name="meta.media.height">1080</property>
  <property name="meta.media.color_range">full</property>
  <property name="xml">was here</property>
  <property name="meta.media.top_field_first">0</property>
  <property name="meta.media.progressive">1</property>
  <property name="set.test_audio">1</property>
  <property name="set.test_image">0</property>
 </chain>
 <playlist id="playlist12">
  <blank length="00:02:29.746"/>
  <entry producer="producer47" in="00:00:00.000" out="00:00:11.645">
   <property name="kdenlive:id">86</property>
  </entry>
  <entry producer="chain54" in="00:00:00.000" out="00:00:04.137">
   <property name="kdenlive:id">85</property>
   <filter id="filter18">
    <property name="mlt_service">crop</property>
    <property name="kdenlive_id">crop</property>
    <property name="top">0</property>
    <property name="left">45</property>
    <property name="bottom">0</property>
    <property name="right">0</property>
    <property name="center">0</property>
    <property name="center_bias">0</property>
    <property name="use_profile">1</property>
    <property name="kdenlive:collapsed">0</property>
   </filter>
   <filter id="filter19">
    <property name="rotate_center">1</property>
    <property name="mlt_service">qtblend</property>
    <property name="kdenlive_id">qtblend</property>
    <property name="rect">00:00:00.000=-34 -17 1977 1136 1.000000</property>
    <property name="rotation">00:00:00.000=0</property>
    <property name="compositing">0</property>
    <property name="distort">0</property>
    <property name="kdenlive:collapsed">0</property>
   </filter>
  </entry>
  <entry producer="producer48" in="00:00:10.561" out="00:00:27.044">
   <property name="kdenlive:id">85</property>
   <filter id="filter20">
    <property name="mlt_service">crop</property>
    <property name="kdenlive_id">crop</property>
    <property name="top">0</property>
    <property name="left">45</property>
    <property name="bottom">0</property>
    <property name="right">0</property>
    <property name="center">0</property>
    <property name="center_bias">0</property>
    <property name="use_profile">1</property>
    <property name="kdenlive:collapsed">0</property>
   </filter>
   <filter id="filter21">
    <property name="rotate_center">1</property>
    <property name="mlt_service">qtblend</property>
    <property name="kdenlive_id">qtblend</property>
    <property name="rect">00:00:10.561=-34 -17 1977 1136 1.000000</property>
    <property name="rotation">00:00:10.561=0</property>
    <property name="compositing">0</property>
    <property name="distort">0</property>
    <property name="kdenlive:collapsed">0</property>
   </filter>
  </entry>
  <blank length="00:00:59.493"/>
  <entry producer="chain55" in="00:00:27.177" out="00:01:16.667">
   <property name="kdenlive:id">119</property>
   <filter id="filter22" in="00:00:27.177" out="00:00:28.695">
    <property name="start">1</property>
    <property name="level">1</property>
    <property name="mlt_service">brightness</property>
    <property name="kdenlive_id">fade_from_black</property>
    <property name="alpha">00:00:00.000=0;00:00:01.518=1</property>
    <property name="kdenlive:collapsed">0</property>
   </filter>
   <filter id="filter23" in="00:01:15.165" out="00:01:16.667">
    <property name="start">1</property>
    <property name="level">1</property>
    <property name="mlt_service">brightness</property>
    <property name="kdenlive_id">fade_to_black</property>
    <property name="alpha">00:00:00.000=1;00:00:01.502=0</property>
    <property name="kdenlive:collapsed">0</property>
   </filter>
  </entry>
 </playlist>
 <playlist id="playlist13"/>
 <tractor id="tractor6" in="00:00:00.000" out="00:04:51.034">
  <property name="kdenlive:trackheight">67</property>
  <property name="kdenlive:timeline_active">1</property>
  <property name="kdenlive:collapsed">28</property>
  <property name="kdenlive:thumbs_format"/>
  <property name="kdenlive:audio_rec"/>
  <track hide="audio" producer="playlist12"/>
  <track hide="audio" producer="playlist13"/>
 </tractor>
 <playlist id="playlist14">
  <blank length="00:01:45.028"/>
  <entry producer="producer2" in="00:00:00.000" out="00:00:45.212">
   <property name="kdenlive:id">25</property>
   <filter id="filter24" in="00:00:44.695" out="00:00:45.212">
    <property name="start">1</property>
    <property name="level">1</property>
    <property name="mlt_service">brightness</property>
    <property name="kdenlive_id">fade_to_black</property>
    <property name="alpha">00:00:00.000=1;00:00:00.517=0</property>
    <property name="kdenlive:collapsed">0</property>
   </filter>
  </entry>
  <entry producer="producer61" in="00:00:00.000" out="00:00:11.395">
   <property name="kdenlive:id">87</property>
   <filter id="filter25">
    <property name="rotate_center">1</property>
    <property name="mlt_service">qtblend</property>
    <property name="kdenlive_id">qtblend</property>
    <property name="rect">00:00:00.000=-3 -274 1920 1080 1.000000;00:00:00.901=0 0 1920 1080 1.000000</property>
    <property name="rotation">00:00:00.000=0;00:00:00.901=0</property>
    <property name="compositing">0</property>
    <property name="distort">0</property>
    <property name="kdenlive:collapsed">0</property>
   </filter>
   <filter id="filter26" in="00:00:10.427" out="00:00:11.395">
    <property name="start">1</property>
    <property name="level">1</property>
    <property name="mlt_service">brightness</property>
    <property name="kdenlive_id">fade_to_black</property>
    <property name="alpha">00:00:00.000=1;00:00:00.968=0</property>
    <property name="kdenlive:collapsed">0</property>
   </filter>
  </entry>
  <blank length="00:00:11.662"/>
  <entry producer="producer2" in="00:00:00.000" out="00:01:08.208">
   <property name="kdenlive:id">25</property>
   <filter id="filter27" in="00:01:07.691" out="00:01:08.208">
    <property name="start">1</property>
    <property name="level">1</property>
    <property name="mlt_service">brightness</property>
    <property name="kdenlive_id">fade_to_black</property>
    <property name="alpha">00:00:00.000=1;00:00:00.517=0</property>
    <property name="kdenlive:collapsed">0</property>
   </filter>
   <filter id="filter28" out="00:00:08.242">
    <property name="start">1</property>
    <property name="level">1</property>
    <property name="mlt_service">brightness</property>
    <property name="kdenlive_id">fade_from_black</property>
    <property name="alpha">00:00:00.000=0;00:00:08.242=1</property>
    <property name="kdenlive:collapsed">0</property>
   </filter>
  </entry>
 </playlist>
 <playlist id="playlist15"/>
 <tractor id="tractor7" in="00:00:00.000" out="00:04:01.535">
  <property name="kdenlive:trackheight">67</property>
  <property name="kdenlive:timeline_active">1</property>
  <property name="kdenlive:collapsed">0</property>
  <property name="kdenlive:thumbs_format"/>
  <property name="kdenlive:audio_rec"/>
  <track hide="audio" producer="playlist14"/>
  <track hide="audio" producer="playlist15"/>
 </tractor>
 <chain id="chain56" out="00:00:37.287">
  <property name="length">2236</property>
  <property name="eof">pause</property>
  <property name="resource">byeMouse.webm</property>
  <property name="mlt_service">avformat-novalidate</property>
  <property name="seekable">1</property>
  <property name="audio_index">1</property>
  <property name="video_index">0</property>
  <property name="vstream">0</property>
  <property name="astream">0</property>
  <property name="kdenlive:folderid">-1</property>
  <property name="kdenlive:id">101</property>
  <property name="mute_on_pause">0</property>
  <property name="kdenlive:clip_type">0</property>
  <property name="kdenlive:file_size">96541892</property>
  <property name="kdenlive:file_hash">0bc87f559b86ca9465ee9de35a98f742</property>
  <property name="kdenlive:audio_max1">203</property>
  <property name="meta.media.nb_streams">2</property>
  <property name="meta.media.0.stream.type">video</property>
  <property name="meta.media.0.stream.frame_rate">59.9401</property>
  <property name="meta.media.0.stream.sample_aspect_ratio">1</property>
  <property name="meta.media.0.codec.width">1920</property>
  <property name="meta.media.0.codec.height">1080</property>
  <property name="meta.media.0.codec.rotate">0</property>
  <property name="meta.media.0.codec.pix_fmt">yuv420p</property>
  <property name="meta.media.0.codec.sample_aspect_ratio">0</property>
  <property name="meta.media.0.codec.colorspace">709</property>
  <property name="meta.media.0.codec.color_trc">1</property>
  <property name="meta.media.0.codec.name">vp9</property>
  <property name="meta.media.0.codec.long_name">Google VP9</property>
  <property name="meta.media.0.codec.bit_rate">0</property>
  <property name="meta.attr.0.stream.DURATION.markup">00:00:37.288000000</property>
  <property name="meta.media.1.stream.type">audio</property>
  <property name="meta.media.1.codec.sample_fmt">fltp</property>
  <property name="meta.media.1.codec.sample_rate">48000</property>
  <property name="meta.media.1.codec.channels">2</property>
  <property name="meta.media.1.codec.name">opus</property>
  <property name="meta.media.1.codec.long_name">Opus</property>
  <property name="meta.media.1.codec.bit_rate">0</property>
  <property name="meta.attr.1.stream.DURATION.markup">00:00:37.308000000</property>
  <property name="meta.attr.ENCODER.markup">Lavf60.16.100</property>
  <property name="meta.media.sample_aspect_num">1</property>
  <property name="meta.media.sample_aspect_den">1</property>
  <property name="meta.media.frame_rate_num">60000</property>
  <property name="meta.media.frame_rate_den">1001</property>
  <property name="meta.media.colorspace">709</property>
  <property name="meta.media.color_trc">1</property>
  <property name="meta.media.has_b_frames">0</property>
  <property name="meta.media.width">1920</property>
  <property name="meta.media.height">1080</property>
  <property name="meta.media.color_range">full</property>
  <property name="xml">was here</property>
  <property name="meta.media.top_field_first">0</property>
  <property name="meta.media.progressive">1</property>
  <property name="set.test_audio">1</property>
  <property name="set.test_image">0</property>
 </chain>
 <playlist id="playlist16">
  <blank length="00:02:57.524"/>
  <entry producer="producer66" in="00:00:00.000" out="00:00:09.376">
   <property name="kdenlive:id">95</property>
   <property name="kdenlive:activeeffect">1</property>
   <filter id="filter31" out="00:00:02.269">
    <property name="start">1</property>
    <property name="level">1</property>
    <property name="mlt_service">brightness</property>
    <property name="kdenlive_id">fade_from_black</property>
    <property name="alpha">00:00:00.000=0;00:00:02.269=1</property>
    <property name="kdenlive:collapsed">0</property>
   </filter>
   <filter id="filter32">
    <property name="rotate_center">1</property>
    <property name="mlt_service">qtblend</property>
    <property name="kdenlive_id">qtblend</property>
    <property name="rect">00:00:00.000=-235 305 1359 775 1.000000</property>
    <property name="rotation">00:00:00.000=0</property>
    <property name="compositing">0</property>
    <property name="distort">0</property>
    <property name="kdenlive:collapsed">0</property>
   </filter>
   <filter id="filter33" in="00:00:08.192" out="00:00:09.376">
    <property name="start">1</property>
    <property name="level">1</property>
    <property name="mlt_service">brightness</property>
    <property name="kdenlive_id">fade_to_black</property>
    <property name="alpha">00:00:00.000=1;00:00:01.185=0</property>
   </filter>
  </entry>
  <entry producer="producer70" in="00:00:00.000" out="00:00:04.555">
   <property name="kdenlive:id">98</property>
   <property name="kdenlive:activeeffect">1</property>
   <filter id="filter34">
    <property name="rotate_center">1</property>
    <property name="mlt_service">qtblend</property>
    <property name="kdenlive_id">qtblend</property>
    <property name="rect">00:00:00.000=0 0 1920 1080 1</property>
    <property name="rotation">00:00:00.000=0</property>
    <property name="compositing">0</property>
    <property name="distort">0</property>
    <property name="kdenlive:collapsed">0</property>
   </filter>
   <filter id="filter35">
    <property name="rotate_center">1</property>
    <property name="mlt_service">qtblend</property>
    <property name="kdenlive_id">qtblend</property>
    <property name="rect">00:00:00.000=227 315 1322 758 1.000000</property>
    <property name="rotation">00:00:00.000=0</property>
    <property name="compositing">0</property>
    <property name="distort">0</property>
    <property name="kdenlive:collapsed">0</property>
   </filter>
   <filter id="filter36">
    <property name="version">0.2</property>
    <property name="mlt_service">frei0r.alphaspot</property>
    <property name="kdenlive_id">frei0r.alphaspot</property>
    <property name="Shape">0.38</property>
    <property name="Position X">00:00:00.000=0.460417</property>
    <property name="Position Y">00:00:00.000=0.642593</property>
    <property name="Size X">00:00:00.000=0.291667</property>
    <property name="Size Y">00:00:00.000=0.366667</property>
    <property name="Tilt">00:00:00.000=0.5</property>
    <property name="Transition width">00:00:00.000=0.089</property>
    <property name="Min">00:00:00.000=0</property>
    <property name="Max">00:00:00.000=1</property>
    <property name="Operation">0</property>
    <property name="kdenlive:collapsed">0</property>
   </filter>
   <filter id="filter37" out="00:00:00.984">
    <property name="start">1</property>
    <property name="level">1</property>
    <property name="mlt_service">brightness</property>
    <property name="kdenlive_id">fade_from_black</property>
    <property name="alpha">00:00:00.000=0;00:00:00.984=1</property>
    <property name="kdenlive:collapsed">0</property>
   </filter>
   <filter id="filter38" in="00:00:03.837" out="00:00:04.555">
    <property name="start">1</property>
    <property name="level">1</property>
    <property name="mlt_service">brightness</property>
    <property name="kdenlive_id">fade_to_black</property>
    <property name="alpha">00:00:00.000=1;00:00:00.717=0</property>
    <property name="kdenlive:collapsed">0</property>
   </filter>
  </entry>
  <blank length="00:00:09.092"/>
  <entry producer="chain56" in="00:00:22.756" out="00:00:29.830">
   <property name="kdenlive:id">101</property>
  </entry>
  <blank length="00:00:22.806"/>
  <entry producer="producer62" in="00:00:00.000" out="00:00:07.591">
   <property name="kdenlive:id">93</property>
   <filter id="filter39" in="00:00:06.256" out="00:00:07.591">
    <property name="start">1</property>
    <property name="level">1</property>
    <property name="mlt_service">brightness</property>
    <property name="kdenlive_id">fade_to_black</property>
    <property name="alpha">00:00:00.000=1;00:00:01.335=0</property>
   </filter>
  </entry>
 </playlist>
 <playlist id="playlist17"/>
 <tractor id="tractor8" in="00:00:00.000" out="00:03:58.058">
  <property name="kdenlive:trackheight">67</property>
  <property name="kdenlive:timeline_active">1</property>
  <property name="kdenlive:collapsed">0</property>
  <property name="kdenlive:thumbs_format"/>
  <property name="kdenlive:audio_rec"/>
  <track hide="audio" producer="playlist16"/>
  <track hide="audio" producer="playlist17"/>
 </tractor>
 <chain id="chain57" out="00:00:37.287">
  <property name="length">2236</property>
  <property name="eof">pause</property>
  <property name="resource">byeMouse.webm</property>
  <property name="mlt_service">avformat-novalidate</property>
  <property name="seekable">1</property>
  <property name="audio_index">1</property>
  <property name="video_index">0</property>
  <property name="vstream">0</property>
  <property name="astream">0</property>
  <property name="kdenlive:folderid">-1</property>
  <property name="kdenlive:id">101</property>
  <property name="mute_on_pause">0</property>
  <property name="kdenlive:clip_type">0</property>
  <property name="kdenlive:file_size">96541892</property>
  <property name="kdenlive:file_hash">0bc87f559b86ca9465ee9de35a98f742</property>
  <property name="kdenlive:audio_max1">203</property>
  <property name="meta.media.nb_streams">2</property>
  <property name="meta.media.0.stream.type">video</property>
  <property name="meta.media.0.stream.frame_rate">59.9401</property>
  <property name="meta.media.0.stream.sample_aspect_ratio">1</property>
  <property name="meta.media.0.codec.width">1920</property>
  <property name="meta.media.0.codec.height">1080</property>
  <property name="meta.media.0.codec.rotate">0</property>
  <property name="meta.media.0.codec.pix_fmt">yuv420p</property>
  <property name="meta.media.0.codec.sample_aspect_ratio">0</property>
  <property name="meta.media.0.codec.colorspace">709</property>
  <property name="meta.media.0.codec.color_trc">1</property>
  <property name="meta.media.0.codec.name">vp9</property>
  <property name="meta.media.0.codec.long_name">Google VP9</property>
  <property name="meta.media.0.codec.bit_rate">0</property>
  <property name="meta.attr.0.stream.DURATION.markup">00:00:37.288000000</property>
  <property name="meta.media.1.stream.type">audio</property>
  <property name="meta.media.1.codec.sample_fmt">fltp</property>
  <property name="meta.media.1.codec.sample_rate">48000</property>
  <property name="meta.media.1.codec.channels">2</property>
  <property name="meta.media.1.codec.name">opus</property>
  <property name="meta.media.1.codec.long_name">Opus</property>
  <property name="meta.media.1.codec.bit_rate">0</property>
  <property name="meta.attr.1.stream.DURATION.markup">00:00:37.308000000</property>
  <property name="meta.attr.ENCODER.markup">Lavf60.16.100</property>
  <property name="meta.media.sample_aspect_num">1</property>
  <property name="meta.media.sample_aspect_den">1</property>
  <property name="meta.media.frame_rate_num">60000</property>
  <property name="meta.media.frame_rate_den">1001</property>
  <property name="meta.media.colorspace">709</property>
  <property name="meta.media.color_trc">1</property>
  <property name="meta.media.has_b_frames">0</property>
  <property name="meta.media.width">1920</property>
  <property name="meta.media.height">1080</property>
  <property name="meta.media.color_range">full</property>
  <property name="xml">was here</property>
  <property name="meta.media.top_field_first">0</property>
  <property name="meta.media.progressive">1</property>
  <property name="set.test_audio">1</property>
  <property name="set.test_image">0</property>
 </chain>
 <chain id="chain71" out="00:00:17.050">
  <property name="length">00:00:17.067</property>
  <property name="eof">pause</property>
  <property name="resource">bobJuggle-AvgQualNoFullColorVP9.webm</property>
  <property name="mlt_service">avformat-novalidate</property>
  <property name="seekable">1</property>
  <property name="audio_index">1</property>
  <property name="video_index">0</property>
  <property name="vstream">0</property>
  <property name="astream">0</property>
  <property name="kdenlive:folderid">-1</property>
  <property name="kdenlive:id">4</property>
  <property name="mute_on_pause">0</property>
  <property name="kdenlive:clip_type">0</property>
  <property name="kdenlive:file_size">33601711</property>
  <property name="kdenlive:file_hash">bbb6bb3f9a67d7adfe217fe873e6acc0</property>
  <property name="kdenlive:audio_max1">210</property>
  <property name="meta.media.nb_streams">2</property>
  <property name="meta.media.0.stream.type">video</property>
  <property name="meta.media.0.stream.frame_rate">59.9401</property>
  <property name="meta.media.0.stream.sample_aspect_ratio">1</property>
  <property name="meta.media.0.codec.width">1080</property>
  <property name="meta.media.0.codec.height">1920</property>
  <property name="meta.media.0.codec.rotate">0</property>
  <property name="meta.media.0.codec.pix_fmt">yuv420p</property>
  <property name="meta.media.0.codec.sample_aspect_ratio">0</property>
  <property name="meta.media.0.codec.colorspace">709</property>
  <property name="meta.media.0.codec.color_trc">1</property>
  <property name="meta.media.0.codec.name">vp9</property>
  <property name="meta.media.0.codec.long_name">Google VP9</property>
  <property name="meta.media.0.codec.bit_rate">0</property>
  <property name="meta.attr.0.stream.DURATION.markup">00:00:17.051000000</property>
  <property name="meta.media.1.stream.type">audio</property>
  <property name="meta.media.1.codec.sample_fmt">fltp</property>
  <property name="meta.media.1.codec.sample_rate">48000</property>
  <property name="meta.media.1.codec.channels">2</property>
  <property name="meta.media.1.codec.name">opus</property>
  <property name="meta.media.1.codec.long_name">Opus</property>
  <property name="meta.media.1.codec.bit_rate">0</property>
  <property name="meta.attr.1.stream.DURATION.markup">00:00:17.068000000</property>
  <property name="meta.attr.ENCODER.markup">Lavf60.16.100</property>
  <property name="meta.media.sample_aspect_num">1</property>
  <property name="meta.media.sample_aspect_den">1</property>
  <property name="meta.media.frame_rate_num">60000</property>
  <property name="meta.media.frame_rate_den">1001</property>
  <property name="meta.media.colorspace">709</property>
  <property name="meta.media.color_trc">1</property>
  <property name="meta.media.has_b_frames">0</property>
  <property name="meta.media.width">1080</property>
  <property name="meta.media.height">1920</property>
  <property name="meta.media.color_range">mpeg</property>
  <property name="xml">was here</property>
  <property name="meta.media.top_field_first">0</property>
  <property name="meta.media.progressive">1</property>
  <property name="set.test_audio">1</property>
  <property name="set.test_image">0</property>
 </chain>
 <playlist id="playlist18">
  <entry producer="producer3" in="00:00:00.000" out="00:00:48.682">
   <property name="kdenlive:id">12</property>
   <filter id="filter40">
    <property name="version">0.1</property>
    <property name="mlt_service">frei0r.distort0r</property>
    <property name="kdenlive_id">frei0r.distort0r</property>
    <property name="Amplitude">00:00:00.000=0.156</property>
    <property name="Frequency">00:00:00.000=0.059</property>
    <property name="kdenlive:collapsed">0</property>
   </filter>
  </entry>
  <blank length="00:00:05.956"/>
  <entry producer="producer2" in="00:00:00.000" out="00:00:54.605">
   <property name="kdenlive:id">25</property>
   <filter id="filter41" in="00:00:54.087" out="00:00:54.605">
    <property name="start">1</property>
    <property name="level">1</property>
    <property name="mlt_service">brightness</property>
    <property name="kdenlive_id">fade_to_black</property>
    <property name="alpha">00:00:00.000=1;00:00:00.517=0</property>
    <property name="kdenlive:collapsed">0</property>
   </filter>
  </entry>
  <entry producer="producer3" in="00:00:00.000" out="00:00:07.858">
   <property name="kdenlive:id">12</property>
   <filter id="filter42">
    <property name="version">0.1</property>
    <property name="mlt_service">frei0r.distort0r</property>
    <property name="kdenlive_id">frei0r.distort0r</property>
    <property name="Amplitude">00:00:00.000=0.156</property>
    <property name="Frequency">00:00:00.000=0.059</property>
    <property name="kdenlive:collapsed">0</property>
   </filter>
   <filter id="filter43" out="00:00:00.617">
    <property name="start">1</property>
    <property name="level">1</property>
    <property name="mlt_service">brightness</property>
    <property name="kdenlive_id">fade_from_black</property>
    <property name="alpha">00:00:00.000=0;00:00:00.617=1</property>
    <property name="kdenlive:collapsed">0</property>
   </filter>
   <filter id="filter44" in="00:00:07.291" out="00:00:07.858">
    <property name="start">1</property>
    <property name="level">1</property>
    <property name="mlt_service">brightness</property>
    <property name="kdenlive_id">fade_to_black</property>
    <property name="alpha">00:00:00.000=1;00:00:00.567=0</property>
    <property name="kdenlive:collapsed">0</property>
   </filter>
  </entry>
  <blank length="00:00:00.117"/>
  <entry producer="producer49" in="00:00:00.000" out="00:00:32.966">
   <property name="kdenlive:id">74</property>
   <filter id="filter45">
    <property name="rotate_center">1</property>
    <property name="mlt_service">qtblend</property>
    <property name="kdenlive_id">qtblend</property>
    <property name="rect">00:00:00.000=-320 175 1250 752 1.000000;00:00:09.776=-320 175 1250 752 1.000000;00:00:12.679=-222 502 1057 511 1.000000</property>
    <property name="rotation">00:00:00.000=0;00:00:09.776=0;00:00:12.679=0</property>
    <property name="compositing">0</property>
    <property name="distort">0</property>
    <property name="kdenlive:collapsed">0</property>
   </filter>
   <filter id="filter46" out="00:00:00.851">
    <property name="start">1</property>
    <property name="level">1</property>
    <property name="mlt_service">brightness</property>
    <property name="kdenlive_id">fade_from_black</property>
    <property name="alpha">00:00:00.000=0;00:00:00.851=1</property>
    <property name="kdenlive:collapsed">0</property>
   </filter>
   <filter id="filter47" in="00:00:32.399" out="00:00:32.966">
    <property name="start">1</property>
    <property name="level">1</property>
    <property name="mlt_service">brightness</property>
    <property name="kdenlive_id">fade_to_black</property>
    <property name="alpha">00:00:00.000=1;00:00:00.567=0</property>
   </filter>
  </entry>
  <entry producer="producer63" in="00:00:00.000" out="00:00:11.128">
   <property name="kdenlive:id">88</property>
   <filter id="filter48">
    <property name="rotate_center">1</property>
    <property name="mlt_service">qtblend</property>
    <property name="kdenlive_id">qtblend</property>
    <property name="rect">00:00:00.000=-1 -318 1920 1080 1.000000;00:00:00.817=-7 -299 1920 1080 1.000000;00:00:01.985=0 0 1920 1080 1.000000</property>
    <property name="rotation">00:00:00.000=0;00:00:00.817=0;00:00:01.985=0</property>
    <property name="compositing">0</property>
    <property name="distort">0</property>
    <property name="kdenlive:collapsed">0</property>
   </filter>
   <filter id="filter49" in="00:00:10.143" out="00:00:11.128">
    <property name="start">1</property>
    <property name="level">1</property>
    <property name="mlt_service">brightness</property>
    <property name="kdenlive_id">fade_to_black</property>
    <property name="alpha">00:00:00.000=1;00:00:00.984=0</property>
    <property name="kdenlive:collapsed">0</property>
   </filter>
  </entry>
  <blank length="00:00:15.999"/>
  <entry producer="producer10" in="00:00:00.000" out="00:00:09.493">
   <property name="kdenlive:id">11</property>
   <filter id="filter50">
    <property name="rotate_center">1</property>
    <property name="mlt_service">qtblend</property>
    <property name="kdenlive_id">qtblend</property>
    <property name="rect">00:00:00.000=98 -560 1920 1080 1.000000;00:00:02.219=68 -20 1595 833 1.000000</property>
    <property name="rotation">00:00:00.000=0;00:00:02.219=0</property>
    <property name="compositing">0</property>
    <property name="distort">0</property>
    <property name="kdenlive:collapsed">0</property>
   </filter>
   <filter id="filter51" in="00:00:08.642" out="00:00:09.493">
    <property name="start">1</property>
    <property name="level">1</property>
    <property name="mlt_service">brightness</property>
    <property name="kdenlive_id">fade_to_black</property>
    <property name="alpha">00:00:00.000=1;00:00:00.851=0</property>
    <property name="kdenlive:collapsed">0</property>
   </filter>
  </entry>
  <blank length="00:00:00.584"/>
  <entry producer="producer71" in="00:00:00.000" out="00:00:03.971">
   <property name="kdenlive:id">100</property>
   <filter id="filter52" out="00:00:00.817">
    <property name="start">1</property>
    <property name="level">1</property>
    <property name="mlt_service">brightness</property>
    <property name="kdenlive_id">fade_from_black</property>
    <property name="alpha">00:00:00.000=0;00:00:00.817=1</property>
    <property name="kdenlive:collapsed">0</property>
   </filter>
   <filter id="filter53" in="00:00:03.270" out="00:00:03.971">
    <property name="start">1</property>
    <property name="level">1</property>
    <property name="mlt_service">brightness</property>
    <property name="kdenlive_id">fade_to_black</property>
    <property name="alpha">00:00:00.000=1;00:00:00.701=0</property>
   </filter>
  </entry>
  <blank length="00:00:06.473"/>
  <entry producer="chain57" in="00:00:01.368" out="00:00:04.505">
   <property name="kdenlive:id">101</property>
   <filter id="filter54" in="00:00:04.004" out="00:00:04.505">
    <property name="start">1</property>
    <property name="level">1</property>
    <property name="mlt_service">brightness</property>
    <property name="kdenlive_id">fade_to_black</property>
    <property name="alpha">00:00:00.000=1;00:00:00.501=0</property>
    <property name="kdenlive:collapsed">0</property>
   </filter>
   <filter id="filter55" in="00:00:01.368" out="00:00:02.452">
    <property name="start">1</property>
    <property name="level">1</property>
    <property name="mlt_service">brightness</property>
    <property name="kdenlive_id">fade_from_black</property>
    <property name="alpha">00:00:00.000=0;00:00:01.084=1</property>
    <property name="kdenlive:collapsed">0</property>
   </filter>
  </entry>
  <blank length="00:00:05.839"/>
  <entry producer="chain71" in="00:00:00.000" out="00:00:17.050">
   <property name="kdenlive:id">4</property>
   <filter id="filter56">
    <property name="rotate_center">1</property>
    <property name="mlt_service">qtblend</property>
    <property name="kdenlive_id">qtblend</property>
    <property name="rect">00:00:00.000=-682 -8 1922 1089 1.000000;00:00:14.982=-682 -8 1922 1089 1.000000</property>
    <property name="rotation">00:00:00.000=0;00:00:14.982=0</property>
    <property name="compositing">0</property>
    <property name="distort">0</property>
    <property name="kdenlive:collapsed">0</property>
   </filter>
   <filter id="filter57">
    <property name="version">0.2</property>
    <property name="mlt_service">frei0r.alphaspot</property>
    <property name="kdenlive_id">frei0r.alphaspot</property>
    <property name="Shape">0</property>
    <property name="Position X">00:00:00.000=0.11</property>
    <property name="Position Y">00:00:00.000=0.5</property>
    <property name="Size X">00:00:00.000=0.197</property>
    <property name="Size Y">00:00:00.000=0.641</property>
    <property name="Tilt">00:00:00.000=0.5</property>
    <property name="Transition width">00:00:00.000=0.3</property>
    <property name="Min">00:00:00.000=0</property>
    <property name="Max">00:00:00.000=1</property>
    <property name="Operation">0</property>
    <property name="kdenlive:collapsed">0</property>
   </filter>
   <filter id="filter58" out="00:00:00.951">
    <property name="start">1</property>
    <property name="level">1</property>
    <property name="mlt_service">brightness</property>
    <property name="kdenlive_id">fade_from_black</property>
    <property name="alpha">00:00:00.000=0;00:00:00.951=1</property>
    <property name="kdenlive:collapsed">0</property>
   </filter>
  </entry>
  <entry producer="producer4" in="00:00:00.000" out="00:00:09.726">
   <property name="kdenlive:id">59</property>
   <filter id="filter59" in="00:00:06.506" out="00:00:09.726">
    <property name="start">1</property>
    <property name="level">1</property>
    <property name="mlt_service">brightness</property>
    <property name="kdenlive_id">fade_to_black</property>
    <property name="alpha">00:00:00.000=1;00:00:03.220=0</property>
    <property name="kdenlive:collapsed">0</property>
   </filter>
  </entry>
 </playlist>
 <playlist id="playlist19"/>
 <tractor id="tractor9" in="00:00:00.000" out="00:03:53.737">
  <property name="kdenlive:trackheight">67</property>
  <property name="kdenlive:timeline_active">1</property>
  <property name="kdenlive:collapsed">28</property>
  <property name="kdenlive:thumbs_format"/>
  <property name="kdenlive:audio_rec"/>
  <track hide="audio" producer="playlist18"/>
  <track hide="audio" producer="playlist19"/>
 </tractor>
 <chain id="chain72" out="00:00:17.417">
  <property name="length">1045</property>
  <property name="eof">pause</property>
  <property name="resource">mouseBumpBall.webm</property>
  <property name="mlt_service">avformat-novalidate</property>
  <property name="seekable">1</property>
  <property name="audio_index">1</property>
  <property name="video_index">0</property>
  <property name="vstream">0</property>
  <property name="astream">0</property>
  <property name="kdenlive:folderid">-1</property>
  <property name="kdenlive:id">104</property>
  <property name="mute_on_pause">0</property>
  <property name="kdenlive:clip_type">0</property>
  <property name="kdenlive:file_size">39665285</property>
  <property name="kdenlive:file_hash">7d695d4f478be0ab6520d9add9b9d152</property>
  <property name="kdenlive:audio_max1">184</property>
  <property name="meta.media.nb_streams">2</property>
  <property name="meta.media.0.stream.type">video</property>
  <property name="meta.media.0.stream.frame_rate">59.9401</property>
  <property name="meta.media.0.stream.sample_aspect_ratio">1</property>
  <property name="meta.media.0.codec.width">1920</property>
  <property name="meta.media.0.codec.height">1080</property>
  <property name="meta.media.0.codec.rotate">0</property>
  <property name="meta.media.0.codec.pix_fmt">yuv420p</property>
  <property name="meta.media.0.codec.sample_aspect_ratio">0</property>
  <property name="meta.media.0.codec.colorspace">709</property>
  <property name="meta.media.0.codec.color_trc">1</property>
  <property name="meta.media.0.codec.name">vp9</property>
  <property name="meta.media.0.codec.long_name">Google VP9</property>
  <property name="meta.media.0.codec.bit_rate">0</property>
  <property name="meta.attr.0.stream.DURATION.markup">00:00:17.401000000</property>
  <property name="meta.media.1.stream.type">audio</property>
  <property name="meta.media.1.codec.sample_fmt">fltp</property>
  <property name="meta.media.1.codec.sample_rate">48000</property>
  <property name="meta.media.1.codec.channels">2</property>
  <property name="meta.media.1.codec.name">opus</property>
  <property name="meta.media.1.codec.long_name">Opus</property>
  <property name="meta.media.1.codec.bit_rate">0</property>
  <property name="meta.attr.1.stream.DURATION.markup">00:00:17.428000000</property>
  <property name="meta.attr.ENCODER.markup">Lavf60.16.100</property>
  <property name="meta.media.sample_aspect_num">1</property>
  <property name="meta.media.sample_aspect_den">1</property>
  <property name="meta.media.frame_rate_num">60000</property>
  <property name="meta.media.frame_rate_den">1001</property>
  <property name="meta.media.colorspace">709</property>
  <property name="meta.media.color_trc">1</property>
  <property name="meta.media.has_b_frames">0</property>
  <property name="meta.media.width">1920</property>
  <property name="meta.media.height">1080</property>
  <property name="meta.media.color_range">full</property>
  <property name="xml">was here</property>
  <property name="meta.media.top_field_first">0</property>
  <property name="meta.media.progressive">1</property>
  <property name="set.test_audio">1</property>
  <property name="set.test_image">0</property>
 </chain>
 <producer id="producer81" in="00:00:00.000" out="00:00:57.307">
  <property name="length">3436</property>
  <property name="eof">pause</property>
  <property name="resource">0.391200:bobBagOfBalls.webm</property>
  <property name="aspect_ratio">1</property>
  <property name="meta.media.nb_streams">2</property>
  <property name="meta.media.0.stream.type">video</property>
  <property name="meta.media.0.stream.frame_rate">59.9401</property>
  <property name="meta.media.0.stream.sample_aspect_ratio">1</property>
  <property name="meta.media.0.codec.width">1920</property>
  <property name="meta.media.0.codec.height">1080</property>
  <property name="meta.media.0.codec.rotate">0</property>
  <property name="meta.media.0.codec.pix_fmt">yuv420p</property>
  <property name="meta.media.0.codec.sample_aspect_ratio">0</property>
  <property name="meta.media.0.codec.colorspace">709</property>
  <property name="meta.media.0.codec.color_trc">1</property>
  <property name="meta.media.0.codec.name">vp9</property>
  <property name="meta.media.0.codec.long_name">Google VP9</property>
  <property name="meta.media.0.codec.bit_rate">0</property>
  <property name="meta.attr.0.stream.DURATION.markup">00:00:22.406000000</property>
  <property name="meta.media.1.stream.type">audio</property>
  <property name="meta.media.1.codec.sample_fmt">fltp</property>
  <property name="meta.media.1.codec.sample_rate">48000</property>
  <property name="meta.media.1.codec.channels">2</property>
  <property name="meta.media.1.codec.name">opus</property>
  <property name="meta.media.1.codec.long_name">Opus</property>
  <property name="meta.media.1.codec.bit_rate">0</property>
  <property name="meta.attr.1.stream.DURATION.markup">00:00:22.428000000</property>
  <property name="meta.attr.ENCODER.markup">Lavf60.16.100</property>
  <property name="seekable">1</property>
  <property name="meta.media.sample_aspect_num">1</property>
  <property name="meta.media.sample_aspect_den">1</property>
  <property name="audio_index">1</property>
  <property name="video_index">0</property>
  <property name="warp_speed">0.3912</property>
  <property name="warp_resource">bobBagOfBalls.webm</property>
  <property name="mlt_service">timewarp</property>
  <property name="vstream">0</property>
  <property name="astream">0</property>
  <property name="set.test_audio">1</property>
  <property name="set.test_image">0</property>
  <property name="kdenlive:id">85</property>
  <property name="warp_pitch">0</property>
  <property name="meta.media.frame_rate_num">60000</property>
  <property name="meta.media.frame_rate_den">1001</property>
  <property name="meta.media.colorspace">709</property>
  <property name="meta.media.color_trc">1</property>
  <property name="meta.media.has_b_frames">0</property>
  <property name="meta.media.width">1920</property>
  <property name="meta.media.height">1080</property>
  <property name="meta.media.color_range">full</property>
  <property name="meta.media.top_field_first">0</property>
  <property name="meta.media.progressive">1</property>
 </producer>
 <playlist id="playlist20">
  <entry producer="producer5" in="00:00:00.000" out="00:00:08.242">
   <property name="kdenlive:id">34</property>
   <filter id="filter60">
    <property name="version">0.1</property>
    <property name="mlt_service">frei0r.distort0r</property>
    <property name="kdenlive_id">frei0r.distort0r</property>
    <property name="Amplitude">00:00:00.000=0.003</property>
    <property name="Frequency">00:00:00.000=0.317</property>
    <property name="kdenlive:collapsed">0</property>
   </filter>
   <filter id="filter61" in="00:00:-0.017" out="00:00:08.242">
    <property name="start">1</property>
    <property name="level">1</property>
    <property name="mlt_service">brightness</property>
    <property name="kdenlive_id">fade_to_black</property>
    <property name="alpha">00:00:00.000=1;00:00:08.258=0</property>
    <property name="kdenlive:collapsed">0</property>
   </filter>
  </entry>
  <blank length="00:01:08.141"/>
  <entry producer="producer6" in="00:00:00.000" out="00:00:33.283">
   <property name="kdenlive:id">35</property>
   <filter id="filter62">
    <property name="rotate_center">1</property>
    <property name="mlt_service">qtblend</property>
    <property name="kdenlive_id">qtblend</property>
    <property name="rect">00:00:00.000=251 924 70 166 1.000000;00:00:28.629=251 924 70 166 1.000000;00:00:29.346=1923 506 70 166 1.000000</property>
    <property name="rotation">00:00:00.000=0;00:00:28.629=0;00:00:29.346=-360</property>
    <property name="compositing">0</property>
    <property name="distort">0</property>
    <property name="kdenlive:collapsed">0</property>
   </filter>
   <filter id="filter63" out="00:00:00.501">
    <property name="start">1</property>
    <property name="level">1</property>
    <property name="mlt_service">brightness</property>
    <property name="kdenlive_id">fade_from_black</property>
    <property name="alpha">00:00:00.000=0;00:00:00.501=1</property>
    <property name="kdenlive:collapsed">0</property>
   </filter>
   <filter id="filter64" in="00:00:32.783" out="00:00:33.283">
    <property name="start">1</property>
    <property name="level">1</property>
    <property name="mlt_service">brightness</property>
    <property name="kdenlive_id">fade_to_black</property>
    <property name="alpha">00:00:00.000=1;00:00:00.501=0</property>
    <property name="kdenlive:collapsed">0</property>
   </filter>
  </entry>
  <entry producer="producer5" in="00:00:00.000" out="00:00:06.540">
   <property name="kdenlive:id">34</property>
   <filter id="filter65">
    <property name="version">0.1</property>
    <property name="mlt_service">frei0r.distort0r</property>
    <property name="kdenlive_id">frei0r.distort0r</property>
    <property name="Amplitude">00:00:00.000=0.003</property>
    <property name="Frequency">00:00:00.000=0.317</property>
    <property name="kdenlive:collapsed">0</property>
   </filter>
   <filter id="filter66">
    <property name="rotate_center">1</property>
    <property name="mlt_service">qtblend</property>
    <property name="kdenlive_id">qtblend</property>
    <property name="rect">00:00:00.000=0 0 1920 1080 0.050000</property>
    <property name="rotation">00:00:00.000=0</property>
    <property name="compositing">0</property>
    <property name="distort">0</property>
    <property name="kdenlive:collapsed">0</property>
   </filter>
   <filter id="filter67" out="00:00:00.517">
    <property name="start">1</property>
    <property name="level">1</property>
    <property name="mlt_service">brightness</property>
    <property name="kdenlive_id">fade_from_black</property>
    <property name="alpha">00:00:00.000=0;00:00:00.517=1</property>
    <property name="kdenlive:collapsed">0</property>
   </filter>
   <filter id="filter68" in="00:00:06.056" out="00:00:06.540">
    <property name="start">1</property>
    <property name="level">1</property>
    <property name="mlt_service">brightness</property>
    <property name="kdenlive_id">fade_to_black</property>
    <property name="alpha">00:00:00.000=1;00:00:00.484=0</property>
    <property name="kdenlive:collapsed">0</property>
   </filter>
  </entry>
  <blank length="00:00:36.353"/>
  <entry producer="producer65" in="00:00:00.000" out="00:00:09.560">
   <property name="kdenlive:id">89</property>
   <filter id="filter69">
    <property name="rotate_center">1</property>
    <property name="mlt_service">qtblend</property>
    <property name="kdenlive_id">qtblend</property>
    <property name="rect">00:00:00.000=-1 -299 1920 1080 1.000000;00:00:01.101=0 0 1920 1080 1.000000</property>
    <property name="rotation">00:00:00.000=0;00:00:01.101=0</property>
    <property name="compositing">0</property>
    <property name="distort">0</property>
    <property name="kdenlive:collapsed">0</property>
   </filter>
   <filter id="filter70" in="00:00:08.559" out="00:00:09.560">
    <property name="start">1</property>
    <property name="level">1</property>
    <property name="mlt_service">brightness</property>
    <property name="kdenlive_id">fade_to_black</property>
    <property name="alpha">00:00:00.000=1;00:00:01.001=0</property>
    <property name="kdenlive:collapsed">0</property>
   </filter>
  </entry>
  <blank length="00:00:15.215"/>
  <entry producer="producer14" in="00:00:00.000" out="00:00:09.493">
   <property name="kdenlive:id">13</property>
   <filter id="filter71">
    <property name="rotate_center">1</property>
    <property name="mlt_service">qtblend</property>
    <property name="kdenlive_id">qtblend</property>
    <property name="rect">00:00:00.000=1939 -1 1920 1080 1.000000;00:00:02.369=842 -12 1920 1080 1.000000</property>
    <property name="rotation">00:00:00.000=0;00:00:02.369=0</property>
    <property name="compositing">0</property>
    <property name="distort">0</property>
    <property name="kdenlive:collapsed">0</property>
   </filter>
   <filter id="filter72" in="00:00:08.442" out="00:00:09.493">
    <property name="start">1</property>
    <property name="level">1</property>
    <property name="mlt_service">brightness</property>
    <property name="kdenlive_id">fade_to_black</property>
    <property name="alpha">00:00:00.000=1;00:00:01.051=0</property>
   </filter>
  </entry>
  <blank length="00:00:03.837"/>
  <entry producer="chain72" in="00:00:00.000" out="00:00:08.242">
   <property name="kdenlive:id">104</property>
   <filter id="filter73">
    <property name="mlt_service">crop</property>
    <property name="kdenlive_id">crop</property>
    <property name="top">14</property>
    <property name="left">736</property>
    <property name="bottom">376</property>
    <property name="right">0</property>
    <property name="center">0</property>
    <property name="center_bias">0</property>
    <property name="use_profile">1</property>
    <property name="kdenlive:collapsed">0</property>
   </filter>
   <filter id="filter74">
    <property name="rotate_center">1</property>
    <property name="mlt_service">qtblend</property>
    <property name="kdenlive_id">qtblend</property>
    <property name="rect">00:00:00.000=10 13 848 641 1.000000</property>
    <property name="rotation">00:00:00.000=0</property>
    <property name="compositing">0</property>
    <property name="distort">0</property>
    <property name="kdenlive:collapsed">0</property>
   </filter>
   <filter id="filter75">
    <property name="version">0.2</property>
    <property name="mlt_service">frei0r.alphaspot</property>
    <property name="kdenlive_id">frei0r.alphaspot</property>
    <property name="Shape">0.38</property>
    <property name="Position X">00:00:00.000=0.219792</property>
    <property name="Position Y">00:00:00.000=0.309259</property>
    <property name="Size X">00:00:00.000=0.220052</property>
    <property name="Size Y">00:00:00.000=0.228241</property>
    <property name="Tilt">00:00:00.000=0.5</property>
    <property name="Transition width">00:00:00.000=0.2</property>
    <property name="Min">00:00:00.000=0</property>
    <property name="Max">00:00:00.000=1</property>
    <property name="Operation">0</property>
    <property name="kdenlive:collapsed">0</property>
   </filter>
   <filter id="filter76" out="00:00:00.717">
    <property name="start">1</property>
    <property name="level">1</property>
    <property name="mlt_service">brightness</property>
    <property name="kdenlive_id">fade_from_black</property>
    <property name="alpha">00:00:00.000=0;00:00:00.717=1</property>
    <property name="kdenlive:collapsed">0</property>
   </filter>
   <filter id="filter77" in="00:00:07.191" out="00:00:08.242">
    <property name="start">1</property>
    <property name="level">1</property>
    <property name="mlt_service">brightness</property>
    <property name="kdenlive_id">fade_to_black</property>
    <property name="alpha">00:00:00.000=1;00:00:01.051=0</property>
    <property name="kdenlive:collapsed">0</property>
   </filter>
  </entry>
  <blank length="00:00:08.358"/>
  <entry producer="producer7" in="00:00:00.000" out="00:00:07.508">
   <property name="kdenlive:id">60</property>
   <filter id="filter78" out="00:00:00.501">
    <property name="start">1</property>
    <property name="level">1</property>
    <property name="mlt_service">brightness</property>
    <property name="kdenlive_id">fade_from_black</property>
    <property name="alpha">00:00:00.000=0;00:00:00.501=1</property>
    <property name="kdenlive:collapsed">0</property>
   </filter>
   <filter id="filter79" in="00:00:07.124" out="00:00:07.508">
    <property name="start">1</property>
    <property name="level">1</property>
    <property name="mlt_service">brightness</property>
    <property name="kdenlive_id">fade_to_black</property>
    <property name="alpha">00:00:00.000=1;00:00:00.384=0</property>
    <property name="kdenlive:collapsed">0</property>
   </filter>
  </entry>
  <blank length="00:00:00.234"/>
  <entry producer="producer8" in="00:00:00.000" out="00:00:03.437">
   <property name="kdenlive:id">61</property>
   <filter id="filter80" out="00:00:00.501">
    <property name="start">1</property>
    <property name="level">1</property>
    <property name="mlt_service">brightness</property>
    <property name="kdenlive_id">fade_from_black</property>
    <property name="alpha">00:00:00.000=0;00:00:00.501=1</property>
    <property name="kdenlive:collapsed">0</property>
   </filter>
   <filter id="filter81" in="00:00:02.953" out="00:00:03.437">
    <property name="start">1</property>
    <property name="level">1</property>
    <property name="mlt_service">brightness</property>
    <property name="kdenlive_id">fade_to_black</property>
    <property name="alpha">00:00:00.000=1;00:00:00.484=0</property>
    <property name="kdenlive:collapsed">0</property>
   </filter>
  </entry>
  <entry producer="producer9" in="00:00:00.000" out="00:00:05.489">
   <property name="kdenlive:id">62</property>
   <filter id="filter82" out="00:00:00.551">
    <property name="start">1</property>
    <property name="level">1</property>
    <property name="mlt_service">brightness</property>
    <property name="kdenlive_id">fade_from_black</property>
    <property name="alpha">00:00:00.000=0;00:00:00.551=1</property>
    <property name="kdenlive:collapsed">0</property>
   </filter>
   <filter id="filter83" in="00:00:04.972" out="00:00:05.489">
    <property name="start">1</property>
    <property name="level">1</property>
    <property name="mlt_service">brightness</property>
    <property name="kdenlive_id">fade_to_black</property>
    <property name="alpha">00:00:00.000=1;00:00:00.517=0</property>
    <property name="kdenlive:collapsed">0</property>
   </filter>
  </entry>
  <blank length="00:00:00.651"/>
  <entry producer="producer43" in="00:00:00.000" out="00:00:04.988">
   <property name="kdenlive:id">68</property>
   <filter id="filter84" out="00:00:00.501">
    <property name="start">1</property>
    <property name="level">1</property>
    <property name="mlt_service">brightness</property>
    <property name="kdenlive_id">fade_from_black</property>
    <property name="alpha">00:00:00.000=0;00:00:00.501=1</property>
    <property name="kdenlive:collapsed">0</property>
   </filter>
   <filter id="filter85" in="00:00:04.454" out="00:00:04.988">
    <property name="start">1</property>
    <property name="level">1</property>
    <property name="mlt_service">brightness</property>
    <property name="kdenlive_id">fade_to_black</property>
    <property name="alpha">00:00:00.000=1;00:00:00.534=0</property>
    <property name="kdenlive:collapsed">0</property>
   </filter>
  </entry>
  <blank length="00:00:07.024"/>
  <entry producer="producer81" in="00:00:34.768" out="00:00:42.793">
   <property name="kdenlive:id">85</property>
   <filter id="filter86">
    <property name="rotate_center">1</property>
    <property name="mlt_service">qtblend</property>
    <property name="kdenlive_id">qtblend</property>
    <property name="rect">00:00:34.768=475 -39 1975 1117 1.000000</property>
    <property name="rotation">00:00:34.768=0</property>
    <property name="compositing">0</property>
    <property name="distort">0</property>
    <property name="kdenlive:collapsed">0</property>
   </filter>
   <filter id="filter87">
    <property name="mlt_service">crop</property>
    <property name="kdenlive_id">crop</property>
    <property name="top">343</property>
    <property name="left">480</property>
    <property name="bottom">0</property>
    <property name="right">530</property>
    <property name="center">0</property>
    <property name="center_bias">0</property>
    <property name="use_profile">1</property>
    <property name="kdenlive:collapsed">0</property>
   </filter>
   <filter id="filter88">
    <property name="version">0.2</property>
    <property name="mlt_service">frei0r.alphaspot</property>
    <property name="kdenlive_id">frei0r.alphaspot</property>
    <property name="Shape">0.38</property>
    <property name="Position X">00:00:34.768=0.764583</property>
    <property name="Position Y">00:00:34.768=0.494444</property>
    <property name="Size X">00:00:34.768=0.333</property>
    <property name="Size Y">00:00:34.768=0.629</property>
    <property name="Tilt">00:00:34.768=0.5</property>
    <property name="Transition width">00:00:34.768=0.652</property>
    <property name="Min">00:00:34.768=0</property>
    <property name="Max">00:00:34.768=1</property>
    <property name="Operation">0</property>
    <property name="kdenlive:collapsed">0</property>
   </filter>
  </entry>
 </playlist>
 <playlist id="playlist21"/>
 <tractor id="tractor10" in="00:00:00.000" out="00:04:04.788">
  <property name="kdenlive:trackheight">67</property>
  <property name="kdenlive:timeline_active">1</property>
  <property name="kdenlive:collapsed">28</property>
  <property name="kdenlive:thumbs_format"/>
  <property name="kdenlive:audio_rec"/>
  <track hide="audio" producer="playlist20"/>
  <track hide="audio" producer="playlist21"/>
 </tractor>
 <producer id="producer82" in="00:00:00.000" out="00:00:56.890">
  <property name="length">3411</property>
  <property name="eof">pause</property>
  <property name="resource">endCredits.png</property>
  <property name="ttl">25</property>
  <property name="aspect_ratio">1</property>
  <property name="meta.media.progressive">1</property>
  <property name="seekable">1</property>
  <property name="format">2</property>
  <property name="meta.media.width">1920</property>
  <property name="meta.media.height">3222</property>
  <property name="mlt_service">qimage</property>
  <property name="kdenlive:clipname"/>
  <property name="kdenlive:duration">00:00:05;00</property>
  <property name="xml">was here</property>
  <property name="kdenlive:folderid">-1</property>
  <property name="kdenlive:id">122</property>
  <property name="kdenlive:clip_type">2</property>
  <property name="kdenlive:file_size">417088</property>
  <property name="kdenlive:file_hash">bb65eb566fc9edfda389a6f15c6b5ea8</property>
 </producer>
 <playlist id="playlist22">
  <blank length="00:00:21.154"/>
  <entry producer="producer10" in="00:00:00.000" out="00:00:12.496">
   <property name="kdenlive:id">11</property>
   <filter id="filter89">
    <property name="rotate_center">1</property>
    <property name="mlt_service">qtblend</property>
    <property name="kdenlive_id">zzz-b-move</property>
    <property name="rect">00:00:00.000=-418 -1 1920 1080 1.000000;00:00:00.751=-5 -34 1920 1080 1.000000</property>
    <property name="rotation">00:00:00.000=0;00:00:00.751=0</property>
    <property name="compositing">0</property>
    <property name="distort">0</property>
    <property name="kdenlive:collapsed">0</property>
   </filter>
   <filter id="filter90" in="00:00:11.995" out="00:00:12.496">
    <property name="start">1</property>
    <property name="level">1</property>
    <property name="mlt_service">brightness</property>
    <property name="kdenlive_id">fade_to_black</property>
    <property name="alpha">00:00:00.000=1;00:00:00.501=0</property>
    <property name="kdenlive:collapsed">0</property>
   </filter>
  </entry>
  <blank length="00:00:45.212"/>
  <entry producer="producer11" in="00:00:00.000" out="00:00:08.992">
   <property name="kdenlive:id">43</property>
   <filter id="filter91" out="00:00:00.517">
    <property name="start">1</property>
    <property name="level">1</property>
    <property name="mlt_service">brightness</property>
    <property name="kdenlive_id">fade_from_black</property>
    <property name="alpha">00:00:00.000=0;00:00:00.517=1</property>
    <property name="kdenlive:collapsed">0</property>
   </filter>
   <filter id="filter92" in="00:00:08.642" out="00:00:08.992">
    <property name="start">1</property>
    <property name="level">1</property>
    <property name="mlt_service">brightness</property>
    <property name="kdenlive_id">fade_to_black</property>
    <property name="alpha">00:00:00.000=1;00:00:00.350=0</property>
   </filter>
  </entry>
  <blank length="00:00:03.453"/>
  <entry producer="producer12" in="00:00:00.000" out="00:00:17.451">
   <property name="kdenlive:id">54</property>
   <filter id="filter93" out="00:00:00.501">
    <property name="start">1</property>
    <property name="level">1</property>
    <property name="mlt_service">brightness</property>
    <property name="kdenlive_id">fade_from_black</property>
    <property name="alpha">00:00:00.000=0;00:00:00.501=1</property>
    <property name="kdenlive:collapsed">0</property>
   </filter>
   <filter id="filter94" in="00:00:16.934" out="00:00:17.451">
    <property name="start">1</property>
    <property name="level">1</property>
    <property name="mlt_service">brightness</property>
    <property name="kdenlive_id">fade_to_black</property>
    <property name="alpha">00:00:00.000=1;00:00:00.517=0</property>
    <property name="kdenlive:collapsed">0</property>
   </filter>
  </entry>
  <blank length="00:00:00.884"/>
  <entry producer="producer13" in="00:00:00.000" out="00:00:07.257">
   <property name="kdenlive:id">64</property>
   <filter id="filter95">
    <property name="rotate_center">1</property>
    <property name="mlt_service">qtblend</property>
    <property name="kdenlive_id">qtblend</property>
    <property name="rect">00:00:00.000=-474 98 1627 892 1.000000</property>
    <property name="rotation">00:00:00.000=0</property>
    <property name="compositing">0</property>
    <property name="distort">0</property>
    <property name="kdenlive:collapsed">0</property>
   </filter>
   <filter id="filter96" out="00:00:00.617">
    <property name="start">1</property>
    <property name="level">1</property>
    <property name="mlt_service">brightness</property>
    <property name="kdenlive_id">fade_from_black</property>
    <property name="alpha">00:00:00.000=0;00:00:00.617=1</property>
    <property name="kdenlive:collapsed">0</property>
   </filter>
   <filter id="filter97" in="00:00:06.840" out="00:00:07.257">
    <property name="start">1</property>
    <property name="level">1</property>
    <property name="mlt_service">brightness</property>
    <property name="kdenlive_id">fade_to_black</property>
    <property name="alpha">00:00:00.000=1;00:00:00.417=0</property>
    <property name="kdenlive:collapsed">0</property>
   </filter>
  </entry>
  <blank length="00:00:36.970"/>
  <entry producer="producer67" in="00:00:00.000" out="00:00:07.274">
   <property name="kdenlive:id">90</property>
   <filter id="filter98">
    <property name="rotate_center">1</property>
    <property name="mlt_service">qtblend</property>
    <property name="kdenlive_id">qtblend</property>
    <property name="rect">00:00:00.000=-1 -285 1920 1080 1.000000;00:00:00.801=0 0 1920 1080 1.000000</property>
    <property name="rotation">00:00:00.000=0;00:00:00.801=0</property>
    <property name="compositing">0</property>
    <property name="distort">0</property>
    <property name="kdenlive:collapsed">0</property>
   </filter>
   <filter id="filter99" in="00:00:06.273" out="00:00:07.274">
    <property name="start">1</property>
    <property name="level">1</property>
    <property name="mlt_service">brightness</property>
    <property name="kdenlive_id">fade_to_black</property>
    <property name="alpha">00:00:00.000=1;00:00:01.001=0</property>
    <property name="kdenlive:collapsed">0</property>
   </filter>
  </entry>
  <blank length="00:00:19.269"/>
  <entry producer="producer73" in="00:00:00.000" out="00:00:06.390">
   <property name="kdenlive:id">96</property>
   <filter id="filter100">
    <property name="rotate_center">1</property>
    <property name="mlt_service">qtblend</property>
    <property name="kdenlive_id">qtblend</property>
    <property name="rect">00:00:00.000=1233 555 1625 988 1.000000;00:00:01.218=1223 111 1625 988 1.000000</property>
    <property name="rotation">00:00:00.000=0;00:00:01.218=0</property>
    <property name="compositing">0</property>
    <property name="distort">0</property>
    <property name="kdenlive:collapsed">0</property>
   </filter>
   <filter id="filter101" in="00:00:05.138" out="00:00:06.390">
    <property name="start">1</property>
    <property name="level">1</property>
    <property name="mlt_service">brightness</property>
    <property name="kdenlive_id">fade_to_black</property>
    <property name="alpha">00:00:00.000=1;00:00:01.251=0</property>
   </filter>
  </entry>
  <blank length="00:00:16.600"/>
  <entry producer="producer74" in="00:00:00.000" out="00:00:03.554">
   <property name="kdenlive:id">102</property>
   <filter id="filter102" out="00:00:00.651">
    <property name="start">1</property>
    <property name="level">1</property>
    <property name="mlt_service">brightness</property>
    <property name="kdenlive_id">fade_from_black</property>
    <property name="alpha">00:00:00.000=0;00:00:00.651=1</property>
    <property name="kdenlive:collapsed">0</property>
   </filter>
   <filter id="filter103">
    <property name="rotate_center">1</property>
    <property name="mlt_service">qtblend</property>
    <property name="kdenlive_id">qtblend</property>
    <property name="rect">00:00:00.000=-46 452 735 466 1.000000</property>
    <property name="rotation">00:00:00.000=0</property>
    <property name="compositing">0</property>
    <property name="distort">0</property>
    <property name="kdenlive:collapsed">0</property>
   </filter>
   <filter id="filter104" in="00:00:02.970" out="00:00:03.554">
    <property name="start">1</property>
    <property name="level">1</property>
    <property name="mlt_service">brightness</property>
    <property name="kdenlive_id">fade_to_black</property>
    <property name="alpha">00:00:00.000=1;00:00:00.584=0</property>
   </filter>
  </entry>
  <blank length="00:00:01.101"/>
  <entry producer="producer44" in="00:00:00.000" out="00:00:01.101">
   <property name="kdenlive:id">70</property>
   <filter id="filter105">
    <property name="rotate_center">1</property>
    <property name="mlt_service">qtblend</property>
    <property name="kdenlive_id">qtblend</property>
    <property name="rect">00:00:00.000|=0 0 1920 1080 1.000000;00:00:00.651|=675 -162 1572 1275 1.000000</property>
    <property name="rotation">00:00:00.000|=0;00:00:00.651|=0</property>
    <property name="compositing">0</property>
    <property name="distort">0</property>
    <property name="kdenlive:collapsed">0</property>
   </filter>
  </entry>
  <entry producer="producer45" in="00:00:00.000" out="00:00:00.767">
   <property name="kdenlive:id">71</property>
  </entry>
  <entry producer="producer44" in="00:00:00.000" out="00:00:04.788">
   <property name="kdenlive:id">70</property>
   <filter id="filter106">
    <property name="rotate_center">1</property>
    <property name="mlt_service">qtblend</property>
    <property name="kdenlive_id">qtblend</property>
    <property name="rect">00:00:00.000|=-91 436 2266 1729 1.000000</property>
    <property name="rotation">00:00:00.000|=0</property>
    <property name="compositing">0</property>
    <property name="distort">0</property>
    <property name="kdenlive:collapsed">0</property>
   </filter>
   <filter id="filter107" in="00:00:04.388" out="00:00:04.788">
    <property name="start">1</property>
    <property name="level">1</property>
    <property name="mlt_service">brightness</property>
    <property name="kdenlive_id">fade_to_black</property>
    <property name="alpha">00:00:00.000=1;00:00:00.400=0</property>
    <property name="kdenlive:collapsed">0</property>
   </filter>
  </entry>
  <blank length="00:00:00.534"/>
  <entry producer="producer44" in="00:00:00.000" out="00:00:01.118">
   <property name="kdenlive:id">70</property>
   <filter id="filter108">
    <property name="rotate_center">1</property>
    <property name="mlt_service">qtblend</property>
    <property name="kdenlive_id">qtblend</property>
    <property name="rect">00:00:00.000|=0 0 1920 1080 1.000000;00:00:00.484|=675 -162 1572 1275 1.000000</property>
    <property name="rotation">00:00:00.000|=0;00:00:00.484|=0</property>
    <property name="compositing">0</property>
    <property name="distort">0</property>
    <property name="kdenlive:collapsed">0</property>
   </filter>
  </entry>
  <entry producer="producer45" in="00:00:00.000" out="00:00:00.617">
   <property name="kdenlive:id">71</property>
   <filter id="filter109">
    <property name="rotate_center">1</property>
    <property name="mlt_service">qtblend</property>
    <property name="kdenlive_id">qtblend</property>
    <property name="rect">00:00:00.000=51 -1 1920 1080 1.000000</property>
    <property name="rotation">00:00:00.000=0</property>
    <property name="compositing">0</property>
    <property name="distort">0</property>
    <property name="kdenlive:collapsed">0</property>
   </filter>
  </entry>
  <blank length="00:00:01.885"/>
  <entry producer="producer44" in="00:00:00.000" out="00:00:00.918">
   <property name="kdenlive:id">70</property>
   <filter id="filter110">
    <property name="rotate_center">1</property>
    <property name="mlt_service">qtblend</property>
    <property name="kdenlive_id">qtblend</property>
    <property name="rect">00:00:00.000|=0 0 1920 1080 1.000000;00:00:00.417|=523 -228 2038 1618 1.000000</property>
    <property name="rotation">00:00:00.000|=0;00:00:00.417|=0</property>
    <property name="compositing">0</property>
    <property name="distort">0</property>
    <property name="kdenlive:collapsed">0</property>
   </filter>
  </entry>
  <entry producer="producer45" in="00:00:00.000" out="00:00:00.751">
   <property name="kdenlive:id">71</property>
  </entry>
  <entry producer="producer44" in="00:00:00.000" out="00:00:00.417">
   <property name="kdenlive:id">70</property>
   <filter id="filter111">
    <property name="rotate_center">1</property>
    <property name="mlt_service">qtblend</property>
    <property name="kdenlive_id">qtblend</property>
    <property name="rect">00:00:00.000|=-123 396 1819 1596 1.000000;00:00:00.417=-123 396 1819 1596 1.000000</property>
    <property name="rotation">00:00:00.000|=0;00:00:00.417=0</property>
    <property name="compositing">0</property>
    <property name="distort">0</property>
    <property name="kdenlive:collapsed">0</property>
   </filter>
  </entry>
  <entry producer="producer46" in="00:00:00.000" out="00:00:00.350">
   <property name="kdenlive:id">72</property>
  </entry>
  <entry producer="producer44" in="00:00:00.000" out="00:00:02.302">
   <property name="kdenlive:id">70</property>
   <filter id="filter112">
    <property name="rotate_center">1</property>
    <property name="mlt_service">qtblend</property>
    <property name="kdenlive_id">qtblend</property>
    <property name="rect">00:00:00.000|=-123 396 1819 1596 1.000000;00:00:00.017|=676 382 1819 1596 1.000000</property>
    <property name="rotation">00:00:00.000|=0;00:00:00.017|=0</property>
    <property name="compositing">0</property>
    <property name="distort">0</property>
    <property name="kdenlive:collapsed">0</property>
   </filter>
   <filter id="filter113" in="00:00:01.902" out="00:00:02.302">
    <property name="start">1</property>
    <property name="level">1</property>
    <property name="mlt_service">brightness</property>
    <property name="kdenlive_id">fade_to_black</property>
    <property name="alpha">00:00:00.000=1;00:00:00.400=0</property>
    <property name="kdenlive:collapsed">0</property>
   </filter>
  </entry>
  <blank length="00:00:01.351"/>
  <entry producer="producer44" in="00:00:00.000" out="00:00:01.919">
   <property name="kdenlive:id">70</property>
   <filter id="filter114">
    <property name="rotate_center">1</property>
    <property name="mlt_service">qtblend</property>
    <property name="kdenlive_id">qtblend</property>
    <property name="rect">00:00:00.000|=13 -19 2626 1264 1.000000;00:00:00.617|=341 169 1791 1342 1.000000;00:00:01.251|=856 173 1791 1342 1.000000</property>
    <property name="rotation">00:00:00.000|=0;00:00:00.617|=0;00:00:01.251|=0</property>
    <property name="compositing">0</property>
    <property name="distort">0</property>
    <property name="kdenlive:collapsed">0</property>
   </filter>
  </entry>
  <entry producer="producer45" in="00:00:00.000" out="00:00:02.536">
   <property name="kdenlive:id">71</property>
   <filter id="filter115">
    <property name="rotate_center">1</property>
    <property name="mlt_service">qtblend</property>
    <property name="kdenlive_id">qtblend</property>
    <property name="rect">00:00:00.000=256 331 1920 1080 1.000000</property>
    <property name="rotation">00:00:00.000=0</property>
    <property name="compositing">0</property>
    <property name="distort">0</property>
    <property name="kdenlive:collapsed">0</property>
   </filter>
   <filter id="filter116" in="00:00:01.985" out="00:00:02.536">
    <property name="start">1</property>
    <property name="level">1</property>
    <property name="mlt_service">brightness</property>
    <property name="kdenlive_id">fade_to_black</property>
    <property name="alpha">00:00:00.000=1;00:00:00.551=0</property>
    <property name="kdenlive:collapsed">0</property>
   </filter>
  </entry>
  <blank length="00:00:11.812"/>
  <entry producer="producer82" in="00:00:00.000" out="00:00:54.454">
   <property name="kdenlive:id">122</property>
   <property name="kdenlive:activeeffect">1</property>
   <filter id="filter29">
    <property name="key">00:00:00.000=0xffffffff</property>
    <property name="variance">0.01</property>
    <property name="mlt_service">chroma</property>
    <property name="kdenlive_id">chroma</property>
    <property name="kdenlive:collapsed">0</property>
   </filter>
   <filter id="filter30">
    <property name="rotate_center">1</property>
    <property name="mlt_service">qtblend</property>
    <property name="kdenlive_id">qtblend</property>
    <property name="rect">00:00:00.000=-2005 1100 7407 5498 1.000000;00:00:49.233=-2005 -5020 7407 5498 1.000000</property>
    <property name="rotation">00:00:00.000=0;00:00:49.233=0</property>
    <property name="compositing">0</property>
    <property name="distort">0</property>
    <property name="kdenlive:collapsed">0</property>
   </filter>
  </entry>
 </playlist>
 <playlist id="playlist23"/>
 <tractor id="tractor11" in="00:00:00.000" out="00:04:56.006">
  <property name="kdenlive:trackheight">67</property>
  <property name="kdenlive:timeline_active">1</property>
  <property name="kdenlive:collapsed">0</property>
  <property name="kdenlive:thumbs_format"/>
  <property name="kdenlive:audio_rec"/>
  <track hide="audio" producer="playlist22"/>
  <track hide="audio" producer="playlist23"/>
 </tractor>
 <playlist id="playlist24">
  <blank length="00:00:21.154"/>
  <entry producer="producer15" in="00:00:00.000" out="00:00:15.449">
   <property name="kdenlive:id">18</property>
   <filter id="filter117">
    <property name="rotate_center">1</property>
    <property name="mlt_service">qtblend</property>
    <property name="kdenlive_id">zzz-move-box</property>
    <property name="rect">00:00:00.000=541 464 1352 734 1.000000</property>
    <property name="rotation">00:00:00.000=0</property>
    <property name="compositing">0</property>
    <property name="distort">0</property>
    <property name="kdenlive:collapsed">0</property>
   </filter>
   <filter id="filter118" out="00:00:00.534">
    <property name="start">1</property>
    <property name="level">1</property>
    <property name="mlt_service">brightness</property>
    <property name="kdenlive_id">fade_from_zzz-fade-in</property>
    <property name="alpha">00:00:00.000=0;00:00:00.534=1</property>
    <property name="kdenlive:collapsed">0</property>
   </filter>
   <filter id="filter119" in="00:00:14.948" out="00:00:15.449">
    <property name="start">1</property>
    <property name="level">1</property>
    <property name="mlt_service">brightness</property>
    <property name="kdenlive_id">fade_to_zzz-fade-out</property>
    <property name="alpha">00:00:00.000=1;00:00:00.501=0</property>
    <property name="kdenlive:collapsed">0</property>
   </filter>
  </entry>
  <blank length="00:00:41.108"/>
  <entry producer="producer16" in="00:00:00.000" out="00:00:09.993">
   <property name="kdenlive:id">45</property>
   <filter id="filter120" out="00:00:00.534">
    <property name="start">1</property>
    <property name="level">1</property>
    <property name="mlt_service">brightness</property>
    <property name="kdenlive_id">fade_from_zzz-fade-in</property>
    <property name="alpha">00:00:00.000=0;00:00:00.534=1</property>
    <property name="kdenlive:collapsed">0</property>
   </filter>
   <filter id="filter121" in="00:00:09.676" out="00:00:09.993">
    <property name="start">1</property>
    <property name="level">1</property>
    <property name="mlt_service">brightness</property>
    <property name="kdenlive_id">fade_to_black</property>
    <property name="alpha">00:00:00.000=1;00:00:00.317=0</property>
   </filter>
  </entry>
  <blank length="00:00:04.121"/>
  <entry producer="producer17" in="00:00:00.000" out="00:00:04.988">
   <property name="kdenlive:id">56</property>
   <filter id="filter122">
    <property name="rotate_center">1</property>
    <property name="mlt_service">qtblend</property>
    <property name="kdenlive_id">qtblend</property>
    <property name="rect">00:00:00.000|=0 0 1920 1080 1.000000;00:00:00.801|=294 0 1920 1080 1.000000;00:00:01.335|=574 -4 1920 1080 1.000000;00:00:02.486|=855 -1 1920 1080 1.000000;00:00:03.320|=1127 0 1920 1080 1.000000;00:00:03.854|=1423 -4 1920 1080 1.000000</property>
    <property name="rotation">00:00:00.000|=0;00:00:00.801|=0;00:00:01.335|=0;00:00:02.486|=0;00:00:03.320|=0;00:00:03.854|=0</property>
    <property name="compositing">0</property>
    <property name="distort">0</property>
    <property name="kdenlive:collapsed">0</property>
   </filter>
  </entry>
  <blank length="00:00:13.430"/>
  <entry producer="producer10" in="00:00:00.000" out="00:00:04.988">
   <property name="kdenlive:id">11</property>
   <filter id="filter123">
    <property name="rotate_center">1</property>
    <property name="mlt_service">qtblend</property>
    <property name="kdenlive_id">qtblend</property>
    <property name="rect">00:00:00.000=1925 2 1920 1080 1.000000;00:00:00.701=623 8 1920 1080 0.916667</property>
    <property name="rotation">00:00:00.000=0;00:00:00.701=0</property>
    <property name="compositing">0</property>
    <property name="distort">0</property>
    <property name="kdenlive:collapsed">0</property>
   </filter>
   <filter id="filter124" in="00:00:04.471" out="00:00:04.988">
    <property name="start">1</property>
    <property name="level">1</property>
    <property name="mlt_service">brightness</property>
    <property name="kdenlive_id">fade_to_black</property>
    <property name="alpha">00:00:00.000=1;00:00:00.517=0</property>
    <property name="kdenlive:collapsed">0</property>
   </filter>
  </entry>
  <blank length="00:00:03.487"/>
  <entry producer="producer10" in="00:00:00.000" out="00:00:08.992">
   <property name="kdenlive:id">11</property>
   <filter id="filter125">
    <property name="rotate_center">1</property>
    <property name="mlt_service">qtblend</property>
    <property name="kdenlive_id">qtblend</property>
    <property name="rect">00:00:00.000=1925 2 1920 1080 1.000000;00:00:00.701=623 8 1920 1080 0.916667;00:00:05.055=623 -39 1920 1080 0.920000</property>
    <property name="rotation">00:00:00.000=0;00:00:00.701=0;00:00:05.055=0</property>
    <property name="compositing">0</property>
    <property name="distort">0</property>
    <property name="kdenlive:collapsed">0</property>
   </filter>
   <filter id="filter126" in="00:00:08.475" out="00:00:08.992">
    <property name="start">1</property>
    <property name="level">1</property>
    <property name="mlt_service">brightness</property>
    <property name="kdenlive_id">fade_to_black</property>
    <property name="alpha">00:00:00.000=1;00:00:00.517=0</property>
    <property name="kdenlive:collapsed">0</property>
   </filter>
  </entry>
  <blank length="00:00:27.461"/>
  <entry producer="producer68" in="00:00:00.000" out="00:00:06.623">
   <property name="kdenlive:id">91</property>
   <filter id="filter127">
    <property name="rotate_center">1</property>
    <property name="mlt_service">qtblend</property>
    <property name="kdenlive_id">qtblend</property>
    <property name="rect">00:00:00.000=-1 -270 1920 1080 1.000000;00:00:01.001=0 0 1920 1080 1.000000</property>
    <property name="rotation">00:00:00.000=0;00:00:01.001=0</property>
    <property name="compositing">0</property>
    <property name="distort">0</property>
    <property name="kdenlive:collapsed">0</property>
   </filter>
   <filter id="filter128" in="00:00:05.606" out="00:00:06.623">
    <property name="start">1</property>
    <property name="level">1</property>
    <property name="mlt_service">brightness</property>
    <property name="kdenlive_id">fade_to_black</property>
    <property name="alpha">00:00:00.000=1;00:00:01.018=0</property>
    <property name="kdenlive:collapsed">0</property>
   </filter>
  </entry>
  <blank length="00:00:18.602"/>
  <entry producer="producer73" in="00:00:00.000" out="00:00:06.206">
   <property name="kdenlive:id">96</property>
   <filter id="filter129">
    <property name="rotate_center">1</property>
    <property name="mlt_service">qtblend</property>
    <property name="kdenlive_id">qtblend</property>
    <property name="rect">00:00:00.000=427 -773 1282 767 1.000000;00:00:01.218=414 -342 1282 767 1.000000</property>
    <property name="rotation">00:00:00.000=0;00:00:01.218=0</property>
    <property name="compositing">0</property>
    <property name="distort">0</property>
    <property name="kdenlive:collapsed">0</property>
   </filter>
   <filter id="filter130" in="00:00:05.088" out="00:00:06.206">
    <property name="start">1</property>
    <property name="level">1</property>
    <property name="mlt_service">brightness</property>
    <property name="kdenlive_id">fade_to_black</property>
    <property name="alpha">00:00:00.000=1;00:00:01.118=0</property>
   </filter>
  </entry>
  <blank length="00:00:16.783"/>
  <entry producer="producer75" in="00:00:00.000" out="00:00:03.554">
   <property name="kdenlive:id">103</property>
   <filter id="filter131" out="00:00:00.817">
    <property name="start">1</property>
    <property name="level">1</property>
    <property name="mlt_service">brightness</property>
    <property name="kdenlive_id">fade_from_black</property>
    <property name="alpha">00:00:00.000=0;00:00:00.817=1</property>
    <property name="kdenlive:collapsed">0</property>
   </filter>
   <filter id="filter132" in="00:00:03.003" out="00:00:03.554">
    <property name="start">1</property>
    <property name="level">1</property>
    <property name="mlt_service">brightness</property>
    <property name="kdenlive_id">fade_to_black</property>
    <property name="alpha">00:00:00.000=1;00:00:00.551=0</property>
    <property name="kdenlive:collapsed">0</property>
   </filter>
  </entry>
  <blank length="00:00:10.110"/>
  <entry producer="producer44" in="00:00:00.000" out="00:00:00.884">
   <property name="kdenlive:id">70</property>
   <filter id="filter133">
    <property name="rotate_center">1</property>
    <property name="mlt_service">qtblend</property>
    <property name="kdenlive_id">qtblend</property>
    <property name="rect">00:00:00.000|=-91 436 2266 1729 1.000000</property>
    <property name="rotation">00:00:00.000|=0</property>
    <property name="compositing">0</property>
    <property name="distort">0</property>
    <property name="kdenlive:collapsed">0</property>
   </filter>
   <filter id="filter134" in="00:00:00.484" out="00:00:00.884">
    <property name="start">1</property>
    <property name="level">1</property>
    <property name="mlt_service">brightness</property>
    <property name="kdenlive_id">fade_to_black</property>
    <property name="alpha">00:00:00.000=1;00:00:00.400=0</property>
    <property name="kdenlive:collapsed">0</property>
   </filter>
  </entry>
  <blank length="00:00:00.984"/>
  <entry producer="producer1" in="00:00:00.000" out="00:00:03.570">
   <property name="kdenlive:id">9</property>
   <filter id="filter135">
    <property name="rotate_center">1</property>
    <property name="mlt_service">qtblend</property>
    <property name="kdenlive_id">qtblend</property>
    <property name="rect">00:00:00.000=780 -198 346 171 1.000000;00:00:00.217=695 -194 346 171 1.000000;00:00:02.819=262 194 346 171 1.000000;00:00:03.003=292 -23 346 171 1.000000;00:00:03.103=363 -142 346 171 1.000000;00:00:03.187=441 -193 346 171 1.000000;00:00:03.253=525 -138 346 171 1.000000;00:00:03.320=645 113 346 171 1.000000;00:00:03.387=749 460 346 171 1.000000;00:00:03.437=826 1098 346 171 1.000000</property>
    <property name="rotation">00:00:00.000=-27;00:00:00.217=-17;00:00:02.819=-72;00:00:03.003=-6.28;00:00:03.103=59.44;00:00:03.187=151.448;00:00:03.253=238.345;00:00:03.320=307.862;00:00:03.387=342.621;00:00:03.437=360</property>
    <property name="compositing">0</property>
    <property name="distort">0</property>
    <property name="kdenlive:collapsed">0</property>
   </filter>
  </entry>
 </playlist>
 <playlist id="playlist25"/>
 <tractor id="tractor12" in="00:00:00.000" out="00:03:42.643">
  <property name="kdenlive:trackheight">67</property>
  <property name="kdenlive:timeline_active">1</property>
  <property name="kdenlive:collapsed">0</property>
  <property name="kdenlive:thumbs_format"/>
  <property name="kdenlive:audio_rec"/>
  <track hide="audio" producer="playlist24"/>
  <track hide="audio" producer="playlist25"/>
 </tractor>
 <playlist id="playlist26">
  <blank length="00:00:29.429"/>
  <entry producer="producer18" in="00:00:00.000" out="00:00:06.440">
   <property name="kdenlive:id">57</property>
   <filter id="filter136">
    <property name="rotate_center">1</property>
    <property name="mlt_service">qtblend</property>
    <property name="kdenlive_id">qtblend</property>
    <property name="rect">00:00:00.000=1062 825 515 376 1.000000;00:00:01.201=1062 687 515 376 1.000000;00:00:04.238=1062 687 515 376 1.000000;00:00:05.606=1074 915 515 376 1.000000</property>
    <property name="rotation">00:00:00.000=0;00:00:01.201=0;00:00:04.238=0;00:00:05.606=0</property>
    <property name="compositing">0</property>
    <property name="distort">0</property>
    <property name="kdenlive:collapsed">0</property>
   </filter>
  </entry>
  <blank length="00:01:14.414"/>
  <entry producer="producer14" in="00:00:00.000" out="00:00:04.988">
   <property name="kdenlive:id">13</property>
   <filter id="filter137">
    <property name="rotate_center">1</property>
    <property name="mlt_service">qtblend</property>
    <property name="kdenlive_id">qtblend</property>
    <property name="rect">00:00:00.000=1922 -1 1920 1080 1.000000;00:00:00.717=627 -10 1920 1080 1.000000</property>
    <property name="rotation">00:00:00.000=0;00:00:00.717=0</property>
    <property name="compositing">0</property>
    <property name="distort">0</property>
    <property name="kdenlive:collapsed">0</property>
   </filter>
   <filter id="filter138" in="00:00:04.488" out="00:00:04.988">
    <property name="start">1</property>
    <property name="level">1</property>
    <property name="mlt_service">brightness</property>
    <property name="kdenlive_id">fade_to_black</property>
    <property name="alpha">00:00:00.000=1;00:00:00.501=0</property>
    <property name="kdenlive:collapsed">0</property>
   </filter>
  </entry>
  <blank length="00:00:03.520"/>
  <entry producer="producer14" in="00:00:00.000" out="00:00:24.391">
   <property name="kdenlive:id">13</property>
   <filter id="filter139">
    <property name="rotate_center">1</property>
    <property name="mlt_service">qtblend</property>
    <property name="kdenlive_id">qtblend</property>
    <property name="rect">00:00:00.000=1922 -1 1920 1080 1.000000;00:00:00.717=627 -10 1920 1080 1.000000;00:00:05.022=626 -46 1920 1080 1.000000;00:00:07.875=626 -46 1920 1080 1.000000;00:00:11.511=61 -102 857 684 1.000000;00:00:18.368=61 -102 857 684 1.000000;00:00:18.719~=-63 -99 857 684 1.000000;00:00:19.219=66 -102 857 684 1.000000</property>
    <property name="rotation">00:00:00.000=0;00:00:00.717=0;00:00:05.022=0;00:00:07.875=0;00:00:11.511=0;00:00:18.368=0;00:00:18.719~=0;00:00:19.219=0</property>
    <property name="compositing">0</property>
    <property name="distort">0</property>
    <property name="kdenlive:collapsed">0</property>
   </filter>
   <filter id="filter140" in="00:00:23.590" out="00:00:24.391">
    <property name="start">1</property>
    <property name="level">1</property>
    <property name="mlt_service">brightness</property>
    <property name="kdenlive_id">fade_to_black</property>
    <property name="alpha">00:00:00.000=1;00:00:00.801=0</property>
    <property name="kdenlive:collapsed">0</property>
   </filter>
  </entry>
  <blank length="00:00:13.130"/>
  <entry producer="producer69" in="00:00:00.000" out="00:00:06.039">
   <property name="kdenlive:id">92</property>
   <filter id="filter141">
    <property name="rotate_center">1</property>
    <property name="mlt_service">qtblend</property>
    <property name="kdenlive_id">qtblend</property>
    <property name="rect">00:00:00.000=2 -293 1920 1080 1.000000;00:00:01.101=0 0 1920 1080 1.000000</property>
    <property name="rotation">00:00:00.000=0;00:00:01.101=0</property>
    <property name="compositing">0</property>
    <property name="distort">0</property>
    <property name="kdenlive:collapsed">0</property>
   </filter>
   <filter id="filter142" in="00:00:05.055" out="00:00:06.039">
    <property name="start">1</property>
    <property name="level">1</property>
    <property name="mlt_service">brightness</property>
    <property name="kdenlive_id">fade_to_black</property>
    <property name="alpha">00:00:00.000=1;00:00:00.984=0</property>
    <property name="kdenlive:collapsed">0</property>
   </filter>
  </entry>
  <blank length="00:00:19.303"/>
  <entry producer="producer76" in="00:00:00.000" out="00:00:04.988">
   <property name="kdenlive:id">97</property>
   <filter id="filter143">
    <property name="rotate_center">1</property>
    <property name="mlt_service">qtblend</property>
    <property name="kdenlive_id">qtblend</property>
    <property name="rect">00:00:00.000=1922 167 1760 885 1.000000;00:00:00.817=1267 178 1760 885 1.000000</property>
    <property name="rotation">00:00:00.000=0;00:00:00.817=0</property>
    <property name="compositing">0</property>
    <property name="distort">0</property>
    <property name="kdenlive:collapsed">0</property>
   </filter>
   <filter id="filter144" in="00:00:03.837" out="00:00:04.988">
    <property name="start">1</property>
    <property name="level">1</property>
    <property name="mlt_service">brightness</property>
    <property name="kdenlive_id">fade_to_black</property>
    <property name="alpha">00:00:00.000=1;00:00:01.151=0</property>
   </filter>
  </entry>
 </playlist>
 <playlist id="playlist27"/>
 <tractor id="tractor13" in="00:00:00.000" out="00:03:06.707">
  <property name="kdenlive:trackheight">67</property>
  <property name="kdenlive:timeline_active">1</property>
  <property name="kdenlive:collapsed">28</property>
  <property name="kdenlive:thumbs_format"/>
  <property name="kdenlive:audio_rec"/>
  <track hide="audio" producer="playlist26"/>
  <track hide="audio" producer="playlist27"/>
 </tractor>
 <playlist id="playlist28">
  <blank length="00:00:29.429"/>
  <entry producer="producer19" in="00:00:00.000" out="00:00:06.440">
   <property name="kdenlive:id">58</property>
   <filter id="filter145">
    <property name="rotate_center">1</property>
    <property name="mlt_service">qtblend</property>
    <property name="kdenlive_id">qtblend</property>
    <property name="rect">00:00:00.000=956 703 505 696 1.000000</property>
    <property name="rotation">00:00:00.000=0</property>
    <property name="compositing">0</property>
    <property name="distort">0</property>
    <property name="kdenlive:collapsed">0</property>
   </filter>
  </entry>
  <blank length="00:01:15.115"/>
  <entry producer="producer20" in="00:00:00.000" out="00:00:04.988">
   <property name="kdenlive:id">65</property>
   <filter id="filter146">
    <property name="rotate_center">1</property>
    <property name="mlt_service">qtblend</property>
    <property name="kdenlive_id">qtblend</property>
    <property name="rect">00:00:00.000=1922 -3 1920 1080 1.000000;00:00:01.285=998 5 1920 1080 1.000000</property>
    <property name="rotation">00:00:00.000=0;00:00:01.285=0</property>
    <property name="compositing">0</property>
    <property name="distort">0</property>
    <property name="kdenlive:collapsed">0</property>
   </filter>
   <filter id="filter147" in="00:00:04.404" out="00:00:04.988">
    <property name="start">1</property>
    <property name="level">1</property>
    <property name="mlt_service">brightness</property>
    <property name="kdenlive_id">fade_to_black</property>
    <property name="alpha">00:00:00.000=1;00:00:00.584=0</property>
    <property name="kdenlive:collapsed">0</property>
   </filter>
  </entry>
  <blank length="00:00:05.239"/>
  <entry producer="producer33" in="00:00:00.000" out="00:00:21.972">
   <property name="kdenlive:id">26</property>
   <filter id="filter148">
    <property name="rotate_center">1</property>
    <property name="mlt_service">qtblend</property>
    <property name="kdenlive_id">qtblend</property>
    <property name="rect">00:00:00.000=1917 -473 1920 1080 1.000000;00:00:01.602=982 -13 1920 1080 1.000000;00:00:02.603=980 -61 1920 1080 1.000000;00:00:05.455=980 -61 1920 1080 1.000000;00:00:09.092=223 -84 799 681 1.000000</property>
    <property name="rotation">00:00:00.000=0;00:00:01.602=0;00:00:02.603=0;00:00:05.455=0;00:00:09.092=0</property>
    <property name="compositing">0</property>
    <property name="distort">0</property>
    <property name="kdenlive:collapsed">0</property>
   </filter>
   <filter id="filter149" in="00:00:21.188" out="00:00:21.972">
    <property name="start">1</property>
    <property name="level">1</property>
    <property name="mlt_service">brightness</property>
    <property name="kdenlive_id">fade_to_black</property>
    <property name="alpha">00:00:00.000=1;00:00:00.784=0</property>
    <property name="kdenlive:collapsed">0</property>
   </filter>
  </entry>
  <blank length="00:00:38.488"/>
  <entry producer="producer76" in="00:00:00.000" out="00:00:04.988">
   <property name="kdenlive:id">97</property>
   <filter id="filter150">
    <property name="rotate_center">1</property>
    <property name="mlt_service">qtblend</property>
    <property name="kdenlive_id">qtblend</property>
    <property name="rect">00:00:00.000=869 -367 1320 783 1.000000;00:00:00.801=524 -358 1320 783 1.000000</property>
    <property name="rotation">00:00:00.000=-183;00:00:00.801=0</property>
    <property name="compositing">0</property>
    <property name="distort">0</property>
    <property name="kdenlive:collapsed">0</property>
   </filter>
   <filter id="filter151" in="00:00:03.804" out="00:00:04.988">
    <property name="start">1</property>
    <property name="level">1</property>
    <property name="mlt_service">brightness</property>
    <property name="kdenlive_id">fade_to_black</property>
    <property name="alpha">00:00:00.000=1;00:00:01.185=0</property>
   </filter>
  </entry>
 </playlist>
 <playlist id="playlist29"/>
 <tractor id="tractor14" in="00:00:00.000" out="00:03:06.707">
  <property name="kdenlive:trackheight">67</property>
  <property name="kdenlive:timeline_active">1</property>
  <property name="kdenlive:collapsed">0</property>
  <property name="kdenlive:thumbs_format"/>
  <property name="kdenlive:audio_rec"/>
  <track hide="audio" producer="playlist28"/>
  <track hide="audio" producer="playlist29"/>
 </tractor>
 <playlist id="playlist30">
  <blank length="00:00:21.154"/>
  <entry producer="producer21" in="00:00:00.000" out="00:00:15.449">
   <property name="kdenlive:id">19</property>
   <filter id="filter152">
    <property name="rotate_center">1</property>
    <property name="mlt_service">qtblend</property>
    <property name="kdenlive_id">qtblend</property>
    <property name="rect">00:00:00.000=541 464 1352 734 1.000000</property>
    <property name="rotation">00:00:00.000=0</property>
    <property name="compositing">0</property>
    <property name="distort">0</property>
    <property name="kdenlive:collapsed">0</property>
   </filter>
   <filter id="filter153" out="00:00:00.534">
    <property name="start">1</property>
    <property name="level">1</property>
    <property name="mlt_service">brightness</property>
    <property name="kdenlive_id">fade_from_black</property>
    <property name="alpha">00:00:00.000=0;00:00:00.534=1</property>
    <property name="kdenlive:collapsed">0</property>
   </filter>
   <filter id="filter154" in="00:00:14.948" out="00:00:15.449">
    <property name="start">1</property>
    <property name="level">1</property>
    <property name="mlt_service">brightness</property>
    <property name="kdenlive_id">fade_to_black</property>
    <property name="alpha">00:00:00.000=1;00:00:00.501=0</property>
    <property name="kdenlive:collapsed">0</property>
   </filter>
  </entry>
  <blank length="00:00:36.403"/>
  <entry producer="producer22" in="00:00:00.000" out="00:00:10.911">
   <property name="kdenlive:id">36</property>
   <filter id="filter155">
    <property name="rotate_center">1</property>
    <property name="mlt_service">qtblend</property>
    <property name="kdenlive_id">qtblend</property>
    <property name="rect">00:00:00.000=549 18 1585 1058 1.000000</property>
    <property name="rotation">00:00:00.000=0</property>
    <property name="compositing">0</property>
    <property name="distort">0</property>
    <property name="kdenlive:collapsed">0</property>
   </filter>
   <filter id="filter156" out="00:00:00.534">
    <property name="start">1</property>
    <property name="level">1</property>
    <property name="mlt_service">brightness</property>
    <property name="kdenlive_id">fade_from_zzz-fade-in</property>
    <property name="alpha">00:00:00.000=0;00:00:00.534=1</property>
    <property name="kdenlive:collapsed">0</property>
   </filter>
   <filter id="filter157" in="00:00:10.410" out="00:00:10.911">
    <property name="start">1</property>
    <property name="level">1</property>
    <property name="mlt_service">brightness</property>
    <property name="kdenlive_id">fade_to_zzz-fade-out</property>
    <property name="alpha">00:00:00.000=1;00:00:00.501=0</property>
    <property name="kdenlive:collapsed">0</property>
   </filter>
  </entry>
  <blank length="00:00:27.044"/>
  <entry producer="producer20" in="00:00:00.000" out="00:00:04.988">
   <property name="kdenlive:id">65</property>
   <filter id="filter158">
    <property name="rotate_center">1</property>
    <property name="mlt_service">qtblend</property>
    <property name="kdenlive_id">qtblend</property>
    <property name="rect">00:00:00.000=1925 -458 1920 1080 1.000000;00:00:01.335=988 -488 1920 1080 1.000000</property>
    <property name="rotation">00:00:00.000=0;00:00:01.335=0</property>
    <property name="compositing">0</property>
    <property name="distort">0</property>
    <property name="kdenlive:collapsed">0</property>
   </filter>
   <filter id="filter159" in="00:00:04.421" out="00:00:04.988">
    <property name="start">1</property>
    <property name="level">1</property>
    <property name="mlt_service">brightness</property>
    <property name="kdenlive_id">fade_to_black</property>
    <property name="alpha">00:00:00.000=1;00:00:00.567=0</property>
   </filter>
  </entry>
  <blank length="00:00:05.205"/>
  <entry producer="producer33" in="00:00:00.000" out="00:00:06.573">
   <property name="kdenlive:id">26</property>
   <filter id="filter160">
    <property name="rotate_center">1</property>
    <property name="mlt_service">qtblend</property>
    <property name="kdenlive_id">qtblend</property>
    <property name="rect">00:00:00.000=1919 -1 1920 1080 1.000000;00:00:01.602=992 -511 1920 1080 1.000000;00:00:02.636=980 -554 1920 1080 1.000000</property>
    <property name="rotation">00:00:00.000=0;00:00:01.602=0;00:00:02.636=0</property>
    <property name="compositing">0</property>
    <property name="distort">0</property>
    <property name="kdenlive:collapsed">0</property>
   </filter>
   <filter id="filter161" in="00:00:06.039" out="00:00:06.573">
    <property name="start">1</property>
    <property name="level">1</property>
    <property name="mlt_service">brightness</property>
    <property name="kdenlive_id">fade_to_black</property>
    <property name="alpha">00:00:00.000=1;00:00:00.534=0</property>
    <property name="kdenlive:collapsed">0</property>
   </filter>
  </entry>
 </playlist>
 <playlist id="playlist31"/>
 <tractor id="tractor15" in="00:00:00.000" out="00:02:07.791">
  <property name="kdenlive:trackheight">67</property>
  <property name="kdenlive:timeline_active">1</property>
  <property name="kdenlive:collapsed">28</property>
  <property name="kdenlive:thumbs_format"/>
  <property name="kdenlive:audio_rec"/>
  <track hide="audio" producer="playlist30"/>
  <track hide="audio" producer="playlist31"/>
 </tractor>
 <playlist id="playlist32">
  <blank length="00:00:36.286"/>
  <entry producer="producer14" in="00:00:00.000" out="00:00:09.993">
   <property name="kdenlive:id">13</property>
   <filter id="filter162">
    <property name="rotate_center">1</property>
    <property name="mlt_service">qtblend</property>
    <property name="kdenlive_id">qtblend</property>
    <property name="rect">00:00:00.000=2 -534 1920 1080 1.000000</property>
    <property name="rotation">00:00:00.000=0</property>
    <property name="compositing">0</property>
    <property name="distort">0</property>
    <property name="kdenlive:collapsed">0</property>
   </filter>
   <filter id="filter163" in="00:00:09.476" out="00:00:09.993">
    <property name="start">1</property>
    <property name="level">1</property>
    <property name="mlt_service">brightness</property>
    <property name="kdenlive_id">fade_to_black</property>
    <property name="alpha">00:00:00.000=1;00:00:00.517=0</property>
    <property name="kdenlive:collapsed">0</property>
   </filter>
   <filter id="filter164" out="00:00:00.534">
    <property name="start">1</property>
    <property name="level">1</property>
    <property name="mlt_service">brightness</property>
    <property name="kdenlive_id">fade_from_zzz-fade-in</property>
    <property name="alpha">00:00:00.000=0;00:00:00.534=1</property>
    <property name="kdenlive:collapsed">0</property>
   </filter>
  </entry>
  <blank length="00:00:19.503"/>
  <entry producer="producer23" in="00:00:00.000" out="00:00:18.135">
   <property name="kdenlive:id">37</property>
   <filter id="filter165" out="00:00:00.534">
    <property name="start">1</property>
    <property name="level">1</property>
    <property name="mlt_service">brightness</property>
    <property name="kdenlive_id">fade_from_zzz-fade-in</property>
    <property name="alpha">00:00:00.000=0;00:00:00.534=1</property>
    <property name="kdenlive:collapsed">0</property>
   </filter>
   <filter id="filter166">
    <property name="rotate_center">1</property>
    <property name="mlt_service">qtblend</property>
    <property name="kdenlive_id">qtblend</property>
    <property name="rect">00:00:00.000=0 0 1920 1080 1.000000;00:00:04.905=0 0 1920 1080 1.000000;00:00:07.224=803 -3 1139 390 1.000000</property>
    <property name="rotation">00:00:00.000=0;00:00:04.905=0;00:00:07.224=0</property>
    <property name="compositing">0</property>
    <property name="distort">0</property>
    <property name="kdenlive:collapsed">0</property>
   </filter>
   <filter id="filter167" in="00:00:17.634" out="00:00:18.135">
    <property name="start">1</property>
    <property name="level">1</property>
    <property name="mlt_service">brightness</property>
    <property name="kdenlive_id">fade_to_black</property>
    <property name="alpha">00:00:00.000=1;00:00:00.501=0</property>
   </filter>
  </entry>
  <blank length="00:00:29.196"/>
  <entry producer="producer14" in="00:00:00.000" out="00:00:03.487">
   <property name="kdenlive:id">13</property>
   <filter id="filter168">
    <property name="rotate_center">1</property>
    <property name="mlt_service">qtblend</property>
    <property name="kdenlive_id">qtblend</property>
    <property name="rect">00:00:00.000=1927 -397 1920 1080 1.000000;00:00:00.501=1306 -488 1920 1080 1.000000</property>
    <property name="rotation">00:00:00.000=0;00:00:00.501=0</property>
    <property name="compositing">0</property>
    <property name="distort">0</property>
    <property name="kdenlive:collapsed">0</property>
   </filter>
   <filter id="filter169" in="00:00:02.986" out="00:00:03.487">
    <property name="start">1</property>
    <property name="level">1</property>
    <property name="mlt_service">brightness</property>
    <property name="kdenlive_id">fade_to_black</property>
    <property name="alpha">00:00:00.000=1;00:00:00.501=0</property>
    <property name="kdenlive:collapsed">0</property>
   </filter>
  </entry>
  <blank length="00:00:07.007"/>
  <entry producer="producer50" in="00:00:00.000" out="00:00:19.553">
   <property name="kdenlive:id">75</property>
   <filter id="filter170">
    <property name="rotate_center">1</property>
    <property name="mlt_service">qtblend</property>
    <property name="kdenlive_id">qtblend</property>
    <property name="rect">00:00:00.000=468 109 1842 1023 1.000000;00:00:00.584=-83 106 1842 1023 1.000000;00:00:03.036=-83 106 1842 1023 1.000000;00:00:06.673=-255 63 822 468 1.000000;00:00:13.530=-255 63 822 468 1.000000;00:00:13.881~=-111 65 822 468 1.000000;00:00:14.364=-255 63 822 468 1.000000</property>
    <property name="rotation">00:00:00.000=0;00:00:00.584=0;00:00:03.036=0;00:00:06.673=0;00:00:13.530=0;00:00:13.881~=0;00:00:14.364=0</property>
    <property name="compositing">0</property>
    <property name="distort">0</property>
    <property name="kdenlive:collapsed">0</property>
   </filter>
   <filter id="filter171" in="00:00:18.735" out="00:00:19.553">
    <property name="start">1</property>
    <property name="level">1</property>
    <property name="mlt_service">brightness</property>
    <property name="kdenlive_id">fade_to_black</property>
    <property name="alpha">00:00:00.000=1;00:00:00.817=0</property>
    <property name="kdenlive:collapsed">0</property>
   </filter>
  </entry>
 </playlist>
 <playlist id="playlist33"/>
 <tractor id="tractor16" in="00:00:00.000" out="00:02:23.223">
  <property name="kdenlive:trackheight">67</property>
  <property name="kdenlive:timeline_active">1</property>
  <property name="kdenlive:collapsed">0</property>
  <property name="kdenlive:thumbs_format"/>
  <property name="kdenlive:audio_rec"/>
  <track hide="audio" producer="playlist32"/>
  <track hide="audio" producer="playlist33"/>
 </tractor>
 <playlist id="playlist34">
  <blank length="00:00:36.003"/>
  <entry producer="producer24" in="00:00:00.000" out="00:00:10.511">
   <property name="kdenlive:id">23</property>
   <filter id="filter172" out="00:00:00.501">
    <property name="start">1</property>
    <property name="level">1</property>
    <property name="mlt_service">brightness</property>
    <property name="kdenlive_id">fade_from_zzz-fade-in</property>
    <property name="alpha">00:00:00.000=0;00:00:00.501=1</property>
    <property name="kdenlive:collapsed">0</property>
   </filter>
   <filter id="filter173" in="00:00:10.010" out="00:00:10.511">
    <property name="start">1</property>
    <property name="level">1</property>
    <property name="mlt_service">brightness</property>
    <property name="kdenlive_id">fade_to_zzz-fade-out</property>
    <property name="alpha">00:00:00.000=1;00:00:00.501=0</property>
    <property name="kdenlive:collapsed">0</property>
   </filter>
  </entry>
  <blank length="00:00:20.237"/>
  <entry producer="producer25" in="00:00:00.000" out="00:00:17.167">
   <property name="kdenlive:id">38</property>
   <filter id="filter174" out="00:00:00.534">
    <property name="start">1</property>
    <property name="level">1</property>
    <property name="mlt_service">brightness</property>
    <property name="kdenlive_id">fade_from_zzz-fade-in</property>
    <property name="alpha">00:00:00.000=0;00:00:00.534=1</property>
    <property name="kdenlive:collapsed">0</property>
   </filter>
   <filter id="filter175">
    <property name="rotate_center">1</property>
    <property name="mlt_service">qtblend</property>
    <property name="kdenlive_id">qtblend</property>
    <property name="rect">00:00:00.000=0 0 1920 1080 1.000000;00:00:03.737=0 0 1920 1080 1.000000;00:00:04.321=0 0 1920 1080 1.000000;00:00:06.256=904 2 964 396 1.000000</property>
    <property name="rotation">00:00:00.000=0;00:00:03.737=0;00:00:04.321=0;00:00:06.256=0</property>
    <property name="compositing">0</property>
    <property name="distort">0</property>
    <property name="kdenlive:collapsed">0</property>
   </filter>
   <filter id="filter176" in="00:00:16.617" out="00:00:17.167">
    <property name="start">1</property>
    <property name="level">1</property>
    <property name="mlt_service">brightness</property>
    <property name="kdenlive_id">fade_to_black</property>
    <property name="alpha">00:00:00.000=1;00:00:00.551=0</property>
   </filter>
  </entry>
  <blank length="00:00:29.196"/>
  <entry producer="producer14" in="00:00:00.000" out="00:00:03.487">
   <property name="kdenlive:id">13</property>
   <filter id="filter177">
    <property name="rotate_center">1</property>
    <property name="mlt_service">qtblend</property>
    <property name="kdenlive_id">qtblend</property>
    <property name="rect">00:00:00.000=1927 -13 1920 1080 1.000000;00:00:00.450=1316 -8 1920 1080 1.000000</property>
    <property name="rotation">00:00:00.000=0;00:00:00.450=0</property>
    <property name="compositing">0</property>
    <property name="distort">0</property>
    <property name="kdenlive:collapsed">0</property>
   </filter>
   <filter id="filter178" in="00:00:02.953" out="00:00:03.487">
    <property name="start">1</property>
    <property name="level">1</property>
    <property name="mlt_service">brightness</property>
    <property name="kdenlive_id">fade_to_black</property>
    <property name="alpha">00:00:00.000=1;00:00:00.534=0</property>
    <property name="kdenlive:collapsed">0</property>
   </filter>
  </entry>
  <blank length="00:00:07.007"/>
  <entry producer="producer50" in="00:00:00.000" out="00:00:04.121">
   <property name="kdenlive:id">75</property>
   <filter id="filter179">
    <property name="rotate_center">1</property>
    <property name="mlt_service">qtblend</property>
    <property name="kdenlive_id">qtblend</property>
    <property name="rect">00:00:00.000=468 109 1842 1023 1.000000;00:00:00.517=-90 -379 1842 1023 1.000000</property>
    <property name="rotation">00:00:00.000=0;00:00:00.517=0</property>
    <property name="compositing">0</property>
    <property name="distort">0</property>
    <property name="kdenlive:collapsed">0</property>
   </filter>
   <filter id="filter180" in="00:00:03.620" out="00:00:04.121">
    <property name="start">1</property>
    <property name="level">1</property>
    <property name="mlt_service">brightness</property>
    <property name="kdenlive_id">fade_to_black</property>
    <property name="alpha">00:00:00.000=1;00:00:00.501=0</property>
    <property name="kdenlive:collapsed">0</property>
   </filter>
  </entry>
  <blank length="00:00:10.894"/>
  <entry producer="producer51" in="00:00:00.000" out="00:00:04.521">
   <property name="kdenlive:id">80</property>
   <filter id="filter181">
    <property name="rotate_center">1</property>
    <property name="mlt_service">qtblend</property>
    <property name="kdenlive_id">qtblend</property>
    <property name="rect">00:00:00.000=-6 -311 1920 1080 1.000000;00:00:00.601=9 -11 1920 1080 1.000000</property>
    <property name="rotation">00:00:00.000=0;00:00:00.601=0</property>
    <property name="compositing">0</property>
    <property name="distort">0</property>
    <property name="kdenlive:collapsed">0</property>
   </filter>
   <filter id="filter182" in="00:00:03.770" out="00:00:04.521">
    <property name="start">1</property>
    <property name="level">1</property>
    <property name="mlt_service">brightness</property>
    <property name="kdenlive_id">fade_to_black</property>
    <property name="alpha">00:00:00.000=1;00:00:00.751=0</property>
   </filter>
  </entry>
 </playlist>
 <playlist id="playlist35"/>
 <tractor id="tractor17" in="00:00:00.000" out="00:02:23.223">
  <property name="kdenlive:trackheight">67</property>
  <property name="kdenlive:timeline_active">1</property>
  <property name="kdenlive:collapsed">0</property>
  <property name="kdenlive:thumbs_format"/>
  <property name="kdenlive:audio_rec"/>
  <track hide="audio" producer="playlist34"/>
  <track hide="audio" producer="playlist35"/>
 </tractor>
 <playlist id="playlist36">
  <blank length="00:02:18.685"/>
  <entry producer="producer52" in="00:00:00.000" out="00:00:11.562">
   <property name="kdenlive:id">82</property>
   <filter id="filter183">
    <property name="rotate_center">1</property>
    <property name="mlt_service">qtblend</property>
    <property name="kdenlive_id">qtblend</property>
    <property name="rect">00:00:00.000=1261 583 544 420 1.000000</property>
    <property name="rotation">00:00:00.000=0</property>
    <property name="compositing">0</property>
    <property name="distort">0</property>
    <property name="kdenlive:collapsed">0</property>
   </filter>
   <filter id="filter184" out="00:00:00.651">
    <property name="start">1</property>
    <property name="level">1</property>
    <property name="mlt_service">brightness</property>
    <property name="kdenlive_id">fade_from_black</property>
    <property name="alpha">00:00:00.000=0;00:00:00.651=1</property>
    <property name="kdenlive:collapsed">0</property>
   </filter>
   <filter id="filter185" in="00:00:10.811" out="00:00:11.562">
    <property name="start">1</property>
    <property name="level">1</property>
    <property name="mlt_service">brightness</property>
    <property name="kdenlive_id">fade_to_black</property>
    <property name="alpha">00:00:00.000=1;00:00:00.751=0</property>
   </filter>
  </entry>
 </playlist>
 <playlist id="playlist37"/>
 <tractor id="tractor18" in="00:00:00.000" out="00:02:30.247">
  <property name="kdenlive:trackheight">67</property>
  <property name="kdenlive:timeline_active">1</property>
  <property name="kdenlive:collapsed">0</property>
  <property name="kdenlive:thumbs_format"/>
  <property name="kdenlive:audio_rec"/>
  <track hide="audio" producer="playlist36"/>
  <track hide="audio" producer="playlist37"/>
 </tractor>
 <playlist id="playlist38">
  <blank length="00:02:23.690"/>
  <entry producer="producer53" in="00:00:00.000" out="00:00:06.557">
   <property name="kdenlive:id">83</property>
   <filter id="filter186">
    <property name="rotate_center">1</property>
    <property name="mlt_service">qtblend</property>
    <property name="kdenlive_id">qtblend</property>
    <property name="rect">00:00:00.000=369 488 1016 490 1.000000</property>
    <property name="rotation">00:00:00.000=0</property>
    <property name="compositing">0</property>
    <property name="distort">0</property>
    <property name="kdenlive:collapsed">0</property>
   </filter>
   <filter id="filter187" out="00:00:00.651">
    <property name="start">1</property>
    <property name="level">1</property>
    <property name="mlt_service">brightness</property>
    <property name="kdenlive_id">fade_from_black</property>
    <property name="alpha">00:00:00.000=0;00:00:00.651=1</property>
    <property name="kdenlive:collapsed">0</property>
   </filter>
   <filter id="filter188" in="00:00:05.856" out="00:00:06.557">
    <property name="start">1</property>
    <property name="level">1</property>
    <property name="mlt_service">brightness</property>
    <property name="kdenlive_id">fade_to_black</property>
    <property name="alpha">00:00:00.000=1;00:00:00.701=0</property>
    <property name="kdenlive:collapsed">0</property>
   </filter>
  </entry>
 </playlist>
 <playlist id="playlist39"/>
 <tractor id="tractor19" in="00:00:00.000" out="00:02:30.247">
  <property name="kdenlive:trackheight">67</property>
  <property name="kdenlive:timeline_active">1</property>
  <property name="kdenlive:collapsed">0</property>
  <property name="kdenlive:thumbs_format"/>
  <property name="kdenlive:audio_rec"/>
  <track hide="audio" producer="playlist38"/>
  <track hide="audio" producer="playlist39"/>
 </tractor>
 <playlist id="playlist40">
  <blank length="00:00:16.066"/>
  <entry producer="producer26" in="00:00:00.000" out="00:00:05.322">
   <property name="kdenlive:id">16</property>
   <filter id="filter189">
    <property name="rotate_center">1</property>
    <property name="mlt_service">qtblend</property>
    <property name="kdenlive_id">qtblend</property>
    <property name="rect">00:00:00.000=952 497 12 68 1.000000;00:00:00.551=-1703 -1114 5330 3305 1.000000;00:00:03.604=-61 -248 2045 1570 1.000000</property>
    <property name="rotation">00:00:00.000=0;00:00:00.551=0;00:00:03.604=0</property>
    <property name="compositing">0</property>
    <property name="distort">0</property>
    <property name="kdenlive:collapsed">0</property>
   </filter>
   <filter id="filter190" in="00:00:04.805" out="00:00:05.322">
    <property name="start">1</property>
    <property name="level">1</property>
    <property name="mlt_service">brightness</property>
    <property name="kdenlive_id">fade_to_black</property>
    <property name="alpha">00:00:00.000=1;00:00:00.517=0</property>
    <property name="kdenlive:collapsed">0</property>
   </filter>
  </entry>
  <blank length="00:00:01.702"/>
  <entry producer="producer27" in="00:00:00.000" out="00:00:09.793">
   <property name="kdenlive:id">20</property>
   <filter id="filter191">
    <property name="rotate_center">1</property>
    <property name="mlt_service">qtblend</property>
    <property name="kdenlive_id">qtblend</property>
    <property name="rect">00:00:00.000=318 -531 1920 1080 1.000000;00:00:00.701=345 -26 1920 1080 1.000000</property>
    <property name="rotation">00:00:00.000=0;00:00:00.701=0</property>
    <property name="compositing">0</property>
    <property name="distort">0</property>
    <property name="kdenlive:collapsed">0</property>
   </filter>
   <filter id="filter192" in="00:00:08.692" out="00:00:09.793">
    <property name="start">1</property>
    <property name="level">1</property>
    <property name="mlt_service">brightness</property>
    <property name="kdenlive_id">fade_to_zzz-fade-out</property>
    <property name="alpha">00:00:00.000=1;00:00:01.101=0</property>
    <property name="kdenlive:collapsed">0</property>
   </filter>
  </entry>
  <blank length="00:00:05.672"/>
  <entry producer="producer27" in="00:00:00.000" out="00:00:06.857">
   <property name="kdenlive:id">20</property>
   <filter id="filter193">
    <property name="rotate_center">1</property>
    <property name="mlt_service">qtblend</property>
    <property name="kdenlive_id">qtblend</property>
    <property name="rect">00:00:00.000=343 -11 1920 1080 1.000000</property>
    <property name="rotation">00:00:00.000=0</property>
    <property name="compositing">0</property>
    <property name="distort">0</property>
    <property name="kdenlive:collapsed">0</property>
   </filter>
   <filter id="filter194" in="00:00:05.756" out="00:00:06.857">
    <property name="start">1</property>
    <property name="level">1</property>
    <property name="mlt_service">brightness</property>
    <property name="kdenlive_id">fade_to_zzz-fade-out</property>
    <property name="alpha">00:00:00.000=1;00:00:01.101=0</property>
    <property name="kdenlive:collapsed">0</property>
   </filter>
   <filter id="filter195" out="00:00:00.901">
    <property name="start">1</property>
    <property name="level">1</property>
    <property name="mlt_service">brightness</property>
    <property name="kdenlive_id">fade_from_zzz-fade-in</property>
    <property name="alpha">00:00:00.000=0;00:00:00.901=1</property>
    <property name="kdenlive:collapsed">0</property>
   </filter>
  </entry>
  <blank length="00:00:22.322"/>
  <entry producer="producer28" in="00:00:00.000" out="00:00:16.149">
   <property name="kdenlive:id">39</property>
   <filter id="filter196" out="00:00:00.534">
    <property name="start">1</property>
    <property name="level">1</property>
    <property name="mlt_service">brightness</property>
    <property name="kdenlive_id">fade_from_zzz-fade-in</property>
    <property name="alpha">00:00:00.000=0;00:00:00.534=1</property>
    <property name="kdenlive:collapsed">0</property>
   </filter>
   <filter id="filter197">
    <property name="rotate_center">1</property>
    <property name="mlt_service">qtblend</property>
    <property name="kdenlive_id">qtblend</property>
    <property name="rect">00:00:00.000=0 0 1920 1080 1.000000;00:00:02.152=0 0 1920 1080 1.000000;00:00:05.239=915 2 958 417 1.000000</property>
    <property name="rotation">00:00:00.000=0;00:00:02.152=0;00:00:05.239=0</property>
    <property name="compositing">0</property>
    <property name="distort">0</property>
    <property name="kdenlive:collapsed">0</property>
   </filter>
   <filter id="filter198" in="00:00:15.616" out="00:00:16.149">
    <property name="start">1</property>
    <property name="level">1</property>
    <property name="mlt_service">brightness</property>
    <property name="kdenlive_id">fade_to_black</property>
    <property name="alpha">00:00:00.000=1;00:00:00.534=0</property>
   </filter>
  </entry>
  <blank length="00:00:42.659"/>
  <entry producer="producer54" in="00:00:00.000" out="00:00:17.834">
   <property name="kdenlive:id">77</property>
   <filter id="filter199">
    <property name="rotate_center">1</property>
    <property name="mlt_service">qtblend</property>
    <property name="kdenlive_id">qtblend</property>
    <property name="rect">00:00:00.000=2063 472 768 464 1.000000;00:00:03.887=505 542 768 464 1.000000</property>
    <property name="rotation">00:00:00.000=0;00:00:03.887=0</property>
    <property name="compositing">0</property>
    <property name="distort">0</property>
    <property name="kdenlive:collapsed">0</property>
   </filter>
   <filter id="filter200" in="00:00:17.050" out="00:00:17.834">
    <property name="start">1</property>
    <property name="level">1</property>
    <property name="mlt_service">brightness</property>
    <property name="kdenlive_id">fade_to_black</property>
    <property name="alpha">00:00:00.000=1;00:00:00.784=0</property>
   </filter>
  </entry>
 </playlist>
 <playlist id="playlist41"/>
 <tractor id="tractor20" in="00:00:00.000" out="00:02:24.458">
  <property name="kdenlive:trackheight">67</property>
  <property name="kdenlive:timeline_active">1</property>
  <property name="kdenlive:collapsed">28</property>
  <property name="kdenlive:thumbs_format"/>
  <property name="kdenlive:audio_rec"/>
  <track hide="audio" producer="playlist40"/>
  <track hide="audio" producer="playlist41"/>
 </tractor>
 <playlist id="playlist42">
  <blank length="00:00:24.625"/>
  <entry producer="producer29" in="00:00:00.000" out="00:00:09.026">
   <property name="kdenlive:id">21</property>
   <filter id="filter201">
    <property name="rotate_center">1</property>
    <property name="mlt_service">qtblend</property>
    <property name="kdenlive_id">qtblend</property>
    <property name="rect">00:00:00.000=651 -508 1920 1080 1.000000;00:00:01.318=689 -31 1920 1080 1.000000</property>
    <property name="rotation">00:00:00.000=0;00:00:01.318=0</property>
    <property name="compositing">0</property>
    <property name="distort">0</property>
    <property name="kdenlive:collapsed">0</property>
   </filter>
   <filter id="filter202" in="00:00:08.525" out="00:00:09.026">
    <property name="start">1</property>
    <property name="level">1</property>
    <property name="mlt_service">brightness</property>
    <property name="kdenlive_id">fade_to_zzz-fade-out</property>
    <property name="alpha">00:00:00.000=1;00:00:00.501=0</property>
    <property name="kdenlive:collapsed">0</property>
   </filter>
  </entry>
  <blank length="00:00:06.473"/>
  <entry producer="producer29" in="00:00:00.000" out="00:00:05.656">
   <property name="kdenlive:id">21</property>
   <filter id="filter203">
    <property name="rotate_center">1</property>
    <property name="mlt_service">qtblend</property>
    <property name="kdenlive_id">qtblend</property>
    <property name="rect">00:00:00.000=697 -13 1920 1080 1.000000</property>
    <property name="rotation">00:00:00.000=0</property>
    <property name="compositing">0</property>
    <property name="distort">0</property>
    <property name="kdenlive:collapsed">0</property>
   </filter>
   <filter id="filter204" in="00:00:04.955" out="00:00:05.656">
    <property name="start">1</property>
    <property name="level">1</property>
    <property name="mlt_service">brightness</property>
    <property name="kdenlive_id">fade_to_zzz-fade-out</property>
    <property name="alpha">00:00:00.000=1;00:00:00.701=0</property>
    <property name="kdenlive:collapsed">0</property>
   </filter>
   <filter id="filter205" out="00:00:00.534">
    <property name="start">1</property>
    <property name="level">1</property>
    <property name="mlt_service">brightness</property>
    <property name="kdenlive_id">fade_from_zzz-fade-in</property>
    <property name="alpha">00:00:00.000=0;00:00:00.534=1</property>
    <property name="kdenlive:collapsed">0</property>
   </filter>
  </entry>
  <blank length="00:00:27.211"/>
  <entry producer="producer30" in="00:00:00.000" out="00:00:10.911">
   <property name="kdenlive:id">41</property>
   <filter id="filter206" in="00:00:10.394" out="00:00:10.911">
    <property name="start">1</property>
    <property name="level">1</property>
    <property name="mlt_service">brightness</property>
    <property name="kdenlive_id">fade_to_black</property>
    <property name="alpha">00:00:00.000=1;00:00:00.517=0</property>
   </filter>
  </entry>
  <blank length="00:00:42.659"/>
  <entry producer="producer55" in="00:00:00.000" out="00:00:12.913">
   <property name="kdenlive:id">78</property>
   <filter id="filter207">
    <property name="rotate_center">1</property>
    <property name="mlt_service">qtblend</property>
    <property name="kdenlive_id">qtblend</property>
    <property name="rect">00:00:00.000=2748 454 821 487 1.000000;00:00:03.887=1160 565 743 438 1.000000</property>
    <property name="rotation">00:00:00.000=0;00:00:03.887=0</property>
    <property name="compositing">0</property>
    <property name="distort">0</property>
    <property name="kdenlive:collapsed">0</property>
   </filter>
   <filter id="filter208" in="00:00:12.079" out="00:00:12.913">
    <property name="start">1</property>
    <property name="level">1</property>
    <property name="mlt_service">brightness</property>
    <property name="kdenlive_id">fade_to_black</property>
    <property name="alpha">00:00:00.000=1;00:00:00.834=0</property>
   </filter>
  </entry>
 </playlist>
 <playlist id="playlist43"/>
 <tractor id="tractor21" in="00:00:00.000" out="00:02:19.536">
  <property name="kdenlive:trackheight">67</property>
  <property name="kdenlive:timeline_active">1</property>
  <property name="kdenlive:collapsed">28</property>
  <property name="kdenlive:thumbs_format"/>
  <property name="kdenlive:audio_rec"/>
  <track hide="audio" producer="playlist42"/>
  <track hide="audio" producer="playlist43"/>
 </tractor>
 <chain id="chain73" out="00:00:03.687">
  <property name="length">222</property>
  <property name="eof">pause</property>
  <property name="resource">ballRoll.webm</property>
  <property name="mlt_service">avformat-novalidate</property>
  <property name="seekable">1</property>
  <property name="audio_index">1</property>
  <property name="video_index">0</property>
  <property name="vstream">0</property>
  <property name="astream">0</property>
  <property name="kdenlive:folderid">-1</property>
  <property name="kdenlive:id">24</property>
  <property name="mute_on_pause">0</property>
  <property name="kdenlive:clip_type">0</property>
  <property name="kdenlive:file_size">1992848</property>
  <property name="kdenlive:file_hash">45e3472529ed4d24bfd7c0f66b844666</property>
  <property name="kdenlive:audio_max1">1</property>
  <property name="meta.media.nb_streams">2</property>
  <property name="meta.media.0.stream.type">video</property>
  <property name="meta.media.0.stream.frame_rate">120</property>
  <property name="meta.media.0.stream.sample_aspect_ratio">1</property>
  <property name="meta.media.0.codec.width">1920</property>
  <property name="meta.media.0.codec.height">1080</property>
  <property name="meta.media.0.codec.rotate">0</property>
  <property name="meta.media.0.codec.pix_fmt">yuv420p</property>
  <property name="meta.media.0.codec.sample_aspect_ratio">0</property>
  <property name="meta.media.0.codec.colorspace">709</property>
  <property name="meta.media.0.codec.color_trc">1</property>
  <property name="meta.media.0.codec.name">vp9</property>
  <property name="meta.media.0.codec.long_name">Google VP9</property>
  <property name="meta.media.0.codec.bit_rate">0</property>
  <property name="meta.attr.0.stream.DURATION.markup">00:00:03.691000000</property>
  <property name="meta.media.1.stream.type">audio</property>
  <property name="meta.media.1.codec.sample_fmt">fltp</property>
  <property name="meta.media.1.codec.sample_rate">48000</property>
  <property name="meta.media.1.codec.channels">2</property>
  <property name="meta.media.1.codec.name">opus</property>
  <property name="meta.media.1.codec.long_name">Opus</property>
  <property name="meta.media.1.codec.bit_rate">0</property>
  <property name="meta.attr.1.stream.DURATION.markup">00:00:03.708000000</property>
  <property name="meta.attr.ENCODER.markup">Lavf60.16.100</property>
  <property name="meta.media.sample_aspect_num">1</property>
  <property name="meta.media.sample_aspect_den">1</property>
  <property name="meta.media.frame_rate_num">120</property>
  <property name="meta.media.frame_rate_den">1</property>
  <property name="meta.media.colorspace">709</property>
  <property name="meta.media.color_trc">1</property>
  <property name="meta.media.has_b_frames">0</property>
  <property name="meta.media.width">1920</property>
  <property name="meta.media.height">1080</property>
  <property name="meta.media.color_range">full</property>
  <property name="xml">was here</property>
  <property name="meta.media.top_field_first">0</property>
  <property name="meta.media.progressive">1</property>
  <property name="set.test_audio">1</property>
  <property name="set.test_image">0</property>
 </chain>
 <playlist id="playlist44">
  <blank length="00:00:45.629"/>
  <entry producer="producer2" in="00:00:00.000" out="00:00:05.305">
   <property name="kdenlive:id">25</property>
   <filter id="filter209" out="00:00:01.335">
    <property name="start">1</property>
    <property name="level">1</property>
    <property name="mlt_service">brightness</property>
    <property name="kdenlive_id">fade_from_black</property>
    <property name="alpha">00:00:00.000=0;00:00:01.335=1</property>
    <property name="kdenlive:collapsed">0</property>
   </filter>
  </entry>
  <entry producer="chain73" in="00:00:00.000" out="00:00:03.687">
   <property name="kdenlive:id">24</property>
   <filter id="filter210">
    <property name="rotate_center">1</property>
    <property name="mlt_service">qtblend</property>
    <property name="kdenlive_id">qtblend</property>
    <property name="rect">00:00:00.000=-137 -65 2197 1273 1.000000</property>
    <property name="rotation">00:00:00.000=0</property>
    <property name="compositing">0</property>
    <property name="distort">0</property>
    <property name="kdenlive:collapsed">0</property>
   </filter>
  </entry>
  <blank length="00:00:28.729"/>
  <entry producer="producer1" in="00:00:00.000" out="00:00:26.293">
   <property name="kdenlive:id">9</property>
   <filter id="filter211" out="00:00:00.617">
    <property name="start">1</property>
    <property name="level">1</property>
    <property name="mlt_service">brightness</property>
    <property name="kdenlive_id">fade_from_black</property>
    <property name="alpha">00:00:00.000=0;00:00:00.617=1</property>
    <property name="kdenlive:collapsed">0</property>
   </filter>
   <filter id="filter212">
    <property name="rotate_center">1</property>
    <property name="mlt_service">qtblend</property>
    <property name="kdenlive_id">qtblend</property>
    <property name="rect">00:00:00.000=1142 527 396 433 1.000000;00:00:15.032=1142 527 396 433 1.000000;00:00:20.687=314 408 396 433 1.000000;00:00:21.338=314 408 396 433 1.000000;00:00:21.638=-12 605 396 433 1.000000</property>
    <property name="rotation">00:00:00.000=0;00:00:15.032=0;00:00:20.687=-24;00:00:21.338=87;00:00:21.638=-231</property>
    <property name="compositing">0</property>
    <property name="distort">0</property>
    <property name="kdenlive:collapsed">0</property>
   </filter>
   <filter id="filter213" in="00:00:24.858" out="00:00:26.293">
    <property name="start">1</property>
    <property name="level">1</property>
    <property name="mlt_service">brightness</property>
    <property name="kdenlive_id">fade_to_black</property>
    <property name="alpha">00:00:00.000=1;00:00:01.435=0</property>
    <property name="kdenlive:collapsed">0</property>
   </filter>
  </entry>
  <blank length="00:00:16.917"/>
  <entry producer="producer56" in="00:00:00.000" out="00:00:08.358">
   <property name="kdenlive:id">76</property>
   <filter id="filter214">
    <property name="rotate_center">1</property>
    <property name="mlt_service">qtblend</property>
    <property name="kdenlive_id">qtblend</property>
    <property name="rect">00:00:00.000=1306 -511 1690 989 1.000000;00:00:03.720=1306 -511 1690 989 1.000000;00:00:05.088=-321 76 1275 450 1.000000;00:00:07.274=-321 76 1275 450 1.000000</property>
    <property name="rotation">00:00:00.000=0;00:00:03.720=0;00:00:05.088=0;00:00:07.274=0</property>
    <property name="compositing">0</property>
    <property name="distort">0</property>
    <property name="kdenlive:collapsed">0</property>
   </filter>
   <filter id="filter215" in="00:00:07.541" out="00:00:08.358">
    <property name="start">1</property>
    <property name="level">1</property>
    <property name="mlt_service">brightness</property>
    <property name="kdenlive_id">fade_to_black</property>
    <property name="alpha">00:00:00.000=1;00:00:00.817=0</property>
    <property name="kdenlive:collapsed">0</property>
   </filter>
  </entry>
  <blank length="00:00:00.250"/>
  <entry producer="producer57" in="00:00:00.000" out="00:00:07.975">
   <property name="kdenlive:id">79</property>
   <filter id="filter216">
    <property name="rotate_center">1</property>
    <property name="mlt_service">qtblend</property>
    <property name="kdenlive_id">qtblend</property>
    <property name="rect">00:00:00.000=43 -233 1755 999 1.000000;00:00:01.368=50 22 1755 999 1.000000</property>
    <property name="rotation">00:00:00.000=0;00:00:01.368=0</property>
    <property name="compositing">0</property>
    <property name="distort">0</property>
    <property name="kdenlive:collapsed">0</property>
   </filter>
   <filter id="filter217" in="00:00:07.157" out="00:00:07.975">
    <property name="start">1</property>
    <property name="level">1</property>
    <property name="mlt_service">brightness</property>
    <property name="kdenlive_id">fade_to_black</property>
    <property name="alpha">00:00:00.000=1;00:00:00.817=0</property>
   </filter>
  </entry>
 </playlist>
 <playlist id="playlist45"/>
 <tractor id="tractor22" in="00:00:00.000" out="00:02:23.223">
  <property name="kdenlive:trackheight">67</property>
  <property name="kdenlive:timeline_active">1</property>
  <property name="kdenlive:collapsed">28</property>
  <property name="kdenlive:thumbs_format"/>
  <property name="kdenlive:audio_rec"/>
  <track hide="audio" producer="playlist44"/>
  <track hide="audio" producer="playlist45"/>
 </tractor>
 <playlist id="playlist46">
  <blank length="00:00:46.813"/>
  <entry producer="producer10" in="00:00:00.000" out="00:00:09.793">
   <property name="kdenlive:id">11</property>
   <filter id="filter218">
    <property name="rotate_center">1</property>
    <property name="mlt_service">qtblend</property>
    <property name="kdenlive_id">zzz-b-move</property>
    <property name="rect">00:00:00.000=-415 -29 1920 1080 1.000000;00:00:00.317=-5 -34 1920 1080 1.000000</property>
    <property name="rotation">00:00:00.000=0;00:00:00.317=0</property>
    <property name="compositing">0</property>
    <property name="distort">0</property>
    <property name="kdenlive:collapsed">0</property>
   </filter>
   <filter id="filter219" in="00:00:09.293" out="00:00:09.793">
    <property name="start">1</property>
    <property name="level">1</property>
    <property name="mlt_service">brightness</property>
    <property name="kdenlive_id">fade_to_black</property>
    <property name="alpha">00:00:00.000=1;00:00:00.501=0</property>
    <property name="kdenlive:collapsed">0</property>
   </filter>
  </entry>
  <blank length="00:00:27.895"/>
  <entry producer="producer31" in="00:00:00.000" out="00:00:06.023">
   <property name="kdenlive:id">48</property>
   <filter id="filter220">
    <property name="rotate_center">1</property>
    <property name="mlt_service">qtblend</property>
    <property name="kdenlive_id">qtblend</property>
    <property name="rect">00:00:00.000=-457 806 1920 1080 1.000000;00:00:00.534=0 0 1920 1080 1.000000</property>
    <property name="rotation">00:00:00.000=0;00:00:00.534=0</property>
    <property name="compositing">0</property>
    <property name="distort">0</property>
    <property name="kdenlive:collapsed">0</property>
   </filter>
   <filter id="filter221" in="00:00:05.506" out="00:00:06.023">
    <property name="start">1</property>
    <property name="level">1</property>
    <property name="mlt_service">brightness</property>
    <property name="kdenlive_id">fade_to_black</property>
    <property name="alpha">00:00:00.000=1;00:00:00.517=0</property>
    <property name="kdenlive:collapsed">0</property>
   </filter>
  </entry>
  <blank length="00:00:49.299"/>
  <entry producer="producer58" in="00:00:00.000" out="00:00:03.353">
   <property name="kdenlive:id">81</property>
   <filter id="filter222">
    <property name="rotate_center">1</property>
    <property name="mlt_service">qtblend</property>
    <property name="kdenlive_id">qtblend</property>
    <property name="rect">00:00:00.000=9 -377 1920 1080 1.000000;00:00:00.601=20 212 1920 1080 1.000000</property>
    <property name="rotation">00:00:00.000=0;00:00:00.601=0</property>
    <property name="compositing">0</property>
    <property name="distort">0</property>
    <property name="kdenlive:collapsed">0</property>
   </filter>
   <filter id="filter223" in="00:00:02.669" out="00:00:03.353">
    <property name="start">1</property>
    <property name="level">1</property>
    <property name="mlt_service">brightness</property>
    <property name="kdenlive_id">fade_to_black</property>
    <property name="alpha">00:00:00.000=1;00:00:00.684=0</property>
    <property name="kdenlive:collapsed">0</property>
   </filter>
  </entry>
  <blank length="00:00:02.085"/>
  <entry producer="producer58" in="00:00:00.000" out="00:00:04.922">
   <property name="kdenlive:id">81</property>
   <filter id="filter224">
    <property name="rotate_center">1</property>
    <property name="mlt_service">qtblend</property>
    <property name="kdenlive_id">qtblend</property>
    <property name="rect">00:00:00.000=-615 -352 1920 1080 1.000000;00:00:00.601=-597 184 1920 1080 1.000000</property>
    <property name="rotation">00:00:00.000=0;00:00:00.601=0</property>
    <property name="compositing">0</property>
    <property name="distort">0</property>
    <property name="kdenlive:collapsed">0</property>
   </filter>
   <filter id="filter225" in="00:00:04.238" out="00:00:04.922">
    <property name="start">1</property>
    <property name="level">1</property>
    <property name="mlt_service">brightness</property>
    <property name="kdenlive_id">fade_to_black</property>
    <property name="alpha">00:00:00.000=1;00:00:00.684=0</property>
    <property name="kdenlive:collapsed">0</property>
   </filter>
  </entry>
 </playlist>
 <playlist id="playlist47"/>
 <tractor id="tractor23" in="00:00:00.000" out="00:02:30.247">
  <property name="kdenlive:trackheight">67</property>
  <property name="kdenlive:timeline_active">1</property>
  <property name="kdenlive:collapsed">0</property>
  <property name="kdenlive:thumbs_format"/>
  <property name="kdenlive:audio_rec"/>
  <track hide="audio" producer="playlist46"/>
  <track hide="audio" producer="playlist47"/>
 </tractor>
 <playlist id="playlist48">
  <blank length="00:00:46.830"/>
  <entry producer="producer14" in="00:00:00.000" out="00:00:09.776">
   <property name="kdenlive:id">13</property>
   <filter id="filter226">
    <property name="rotate_center">1</property>
    <property name="mlt_service">qtblend</property>
    <property name="kdenlive_id">qtblend</property>
    <property name="rect">00:00:00.000=-379 1 1920 1080 1.000000;00:00:00.300=-7 -9 1920 1080 1.000000</property>
    <property name="rotation">00:00:00.000=0;00:00:00.300=0</property>
    <property name="compositing">0</property>
    <property name="distort">0</property>
    <property name="kdenlive:collapsed">0</property>
   </filter>
   <filter id="filter227" in="00:00:09.209" out="00:00:09.776">
    <property name="start">1</property>
    <property name="level">1</property>
    <property name="mlt_service">brightness</property>
    <property name="kdenlive_id">fade_to_black</property>
    <property name="alpha">00:00:00.000=1;00:00:00.567=0</property>
   </filter>
  </entry>
  <blank length="00:00:27.895"/>
  <entry producer="producer32" in="00:00:00.000" out="00:00:06.323">
   <property name="kdenlive:id">49</property>
   <filter id="filter228">
    <property name="rotate_center">1</property>
    <property name="mlt_service">qtblend</property>
    <property name="kdenlive_id">qtblend</property>
    <property name="rect">00:00:00.000=-310 -273 1920 1080 1.000000;00:00:00.567=0 0 1920 1080 1.000000</property>
    <property name="rotation">00:00:00.000=0;00:00:00.567=0</property>
    <property name="compositing">0</property>
    <property name="distort">0</property>
    <property name="kdenlive:collapsed">0</property>
   </filter>
   <filter id="filter229" in="00:00:05.939" out="00:00:06.323">
    <property name="start">1</property>
    <property name="level">1</property>
    <property name="mlt_service">brightness</property>
    <property name="kdenlive_id">fade_to_black</property>
    <property name="alpha">00:00:00.000=1;00:00:00.384=0</property>
   </filter>
  </entry>
  <blank length="00:00:52.819"/>
  <entry producer="producer59" in="00:00:00.000" out="00:00:06.557">
   <property name="kdenlive:id">84</property>
   <filter id="filter230">
    <property name="rotate_center">1</property>
    <property name="mlt_service">qtblend</property>
    <property name="kdenlive_id">qtblend</property>
    <property name="rect">00:00:00.000=7 -296 1920 1080 1.000000;00:00:01.218=17 -26 1920 1080 1.000000</property>
    <property name="rotation">00:00:00.000=0;00:00:01.218=0</property>
    <property name="compositing">0</property>
    <property name="distort">0</property>
    <property name="kdenlive:collapsed">0</property>
   </filter>
   <filter id="filter231" in="00:00:05.706" out="00:00:06.557">
    <property name="start">1</property>
    <property name="level">1</property>
    <property name="mlt_service">brightness</property>
    <property name="kdenlive_id">fade_to_black</property>
    <property name="alpha">00:00:00.000=1;00:00:00.851=0</property>
   </filter>
  </entry>
 </playlist>
 <playlist id="playlist49"/>
 <tractor id="tractor24" in="00:00:00.000" out="00:02:30.247">
  <property name="kdenlive:trackheight">67</property>
  <property name="kdenlive:timeline_active">1</property>
  <property name="kdenlive:collapsed">0</property>
  <property name="kdenlive:thumbs_format"/>
  <property name="kdenlive:audio_rec"/>
  <track hide="audio" producer="playlist48"/>
  <track hide="audio" producer="playlist49"/>
 </tractor>
 <playlist id="playlist50">
  <blank length="00:00:47.297"/>
  <entry producer="producer33" in="00:00:00.000" out="00:00:11.478">
   <property name="kdenlive:id">26</property>
   <filter id="filter232">
    <property name="rotate_center">1</property>
    <property name="mlt_service">qtblend</property>
    <property name="kdenlive_id">qtblend</property>
    <property name="rect">00:00:00.000=341 435 1920 1080 1.000000;00:00:00.501=334 -6 1920 1080 1.000000</property>
    <property name="rotation">00:00:00.000=0;00:00:00.501=0</property>
    <property name="compositing">0</property>
    <property name="distort">0</property>
    <property name="kdenlive:collapsed">0</property>
   </filter>
   <filter id="filter233" in="00:00:10.827" out="00:00:11.478">
    <property name="start">1</property>
    <property name="level">1</property>
    <property name="mlt_service">brightness</property>
    <property name="kdenlive_id">fade_to_black</property>
    <property name="alpha">00:00:00.000=1;00:00:00.651=0</property>
   </filter>
  </entry>
  <blank length="00:00:25.726"/>
  <entry producer="producer34" in="00:00:00.000" out="00:00:06.023">
   <property name="kdenlive:id">50</property>
   <filter id="filter234">
    <property name="rotate_center">1</property>
    <property name="mlt_service">qtblend</property>
    <property name="kdenlive_id">qtblend</property>
    <property name="rect">00:00:00.000=0 -245 1920 1080 1.000000;00:00:01.418=0 -245 1920 1080 1.000000;00:00:02.202=0 0 1920 1080 1.000000</property>
    <property name="rotation">00:00:00.000=0;00:00:01.418=0;00:00:02.202=0</property>
    <property name="compositing">0</property>
    <property name="distort">0</property>
    <property name="kdenlive:collapsed">0</property>
   </filter>
   <filter id="filter235" in="00:00:05.706" out="00:00:06.023">
    <property name="start">1</property>
    <property name="level">1</property>
    <property name="mlt_service">brightness</property>
    <property name="kdenlive_id">fade_to_black</property>
    <property name="alpha">00:00:00.000=1;00:00:00.317=0</property>
   </filter>
  </entry>
 </playlist>
 <playlist id="playlist51"/>
 <tractor id="tractor25" in="00:00:00.000" out="00:01:30.547">
  <property name="kdenlive:trackheight">67</property>
  <property name="kdenlive:timeline_active">1</property>
  <property name="kdenlive:collapsed">0</property>
  <property name="kdenlive:thumbs_format"/>
  <property name="kdenlive:audio_rec"/>
  <track hide="audio" producer="playlist50"/>
  <track hide="audio" producer="playlist51"/>
 </tractor>
 <playlist id="playlist52">
  <blank length="00:00:47.297"/>
  <entry producer="producer33" in="00:00:00.000" out="00:00:11.478">
   <property name="kdenlive:id">26</property>
   <filter id="filter236">
    <property name="rotate_center">1</property>
    <property name="mlt_service">qtblend</property>
    <property name="kdenlive_id">qtblend</property>
    <property name="rect">00:00:00.000=318 -1031 1920 1080 1.000000;00:00:00.501=329 -541 1920 1080 1.000000</property>
    <property name="rotation">00:00:00.000=0;00:00:00.501=0</property>
    <property name="compositing">0</property>
    <property name="distort">0</property>
    <property name="kdenlive:collapsed">0</property>
   </filter>
   <filter id="filter237" in="00:00:10.761" out="00:00:11.478">
    <property name="start">1</property>
    <property name="level">1</property>
    <property name="mlt_service">brightness</property>
    <property name="kdenlive_id">fade_to_black</property>
    <property name="alpha">00:00:00.000=1;00:00:00.717=0</property>
   </filter>
  </entry>
  <blank length="00:00:28.095"/>
  <entry producer="producer35" in="00:00:00.000" out="00:00:04.188">
   <property name="kdenlive:id">51</property>
   <filter id="filter238">
    <property name="rotate_center">1</property>
    <property name="mlt_service">qtblend</property>
    <property name="kdenlive_id">qtblend</property>
    <property name="rect">00:00:00.000=-7670 -2168 12238 9619 1.000000;00:00:00.534=0 0 1920 1080 1.000000</property>
    <property name="rotation">00:00:00.000=0;00:00:00.534=0</property>
    <property name="compositing">0</property>
    <property name="distort">0</property>
    <property name="kdenlive:collapsed">0</property>
   </filter>
   <filter id="filter239" in="00:00:03.887" out="00:00:04.188">
    <property name="start">1</property>
    <property name="level">1</property>
    <property name="mlt_service">brightness</property>
    <property name="kdenlive_id">fade_to_black</property>
    <property name="alpha">00:00:00.000=1;00:00:00.300=0</property>
   </filter>
  </entry>
 </playlist>
 <playlist id="playlist53"/>
 <tractor id="tractor26" in="00:00:00.000" out="00:01:31.081">
  <property name="kdenlive:trackheight">67</property>
  <property name="kdenlive:timeline_active">1</property>
  <property name="kdenlive:collapsed">0</property>
  <property name="kdenlive:thumbs_format"/>
  <property name="kdenlive:audio_rec"/>
  <track hide="audio" producer="playlist52"/>
  <track hide="audio" producer="playlist53"/>
 </tractor>
 <playlist id="playlist54">
  <blank length="00:00:47.981"/>
  <entry producer="producer36" in="00:00:00.000" out="00:00:09.459">
   <property name="kdenlive:id">27</property>
   <filter id="filter240">
    <property name="rotate_center">1</property>
    <property name="mlt_service">qtblend</property>
    <property name="kdenlive_id">qtblend</property>
    <property name="rect">00:00:00.000=2038 2 1920 1080 1.000000;00:00:00.918=656 -3 1920 1080 1.000000</property>
    <property name="rotation">00:00:00.000=0;00:00:00.918=0</property>
    <property name="compositing">0</property>
    <property name="distort">0</property>
    <property name="kdenlive:collapsed">0</property>
   </filter>
   <filter id="filter241" in="00:00:08.775" out="00:00:09.459">
    <property name="start">1</property>
    <property name="level">1</property>
    <property name="mlt_service">brightness</property>
    <property name="kdenlive_id">fade_to_black</property>
    <property name="alpha">00:00:00.000=1;00:00:00.684=0</property>
   </filter>
  </entry>
  <blank length="00:00:27.060"/>
  <entry producer="producer34" in="00:00:00.000" out="00:00:06.223">
   <property name="kdenlive:id">50</property>
   <filter id="filter242">
    <property name="rotate_center">1</property>
    <property name="mlt_service">qtblend</property>
    <property name="kdenlive_id">qtblend</property>
    <property name="rect">00:00:00.000=5 1068 1920 1080 1.000000;00:00:01.418=5 1068 1920 1080 1.000000;00:00:02.202=1 247 1920 1080 1.000000</property>
    <property name="rotation">00:00:00.000=0;00:00:01.418=0;00:00:02.202=0</property>
    <property name="compositing">0</property>
    <property name="distort">0</property>
    <property name="kdenlive:collapsed">0</property>
   </filter>
   <filter id="filter243" in="00:00:05.906" out="00:00:06.223">
    <property name="start">1</property>
    <property name="level">1</property>
    <property name="mlt_service">brightness</property>
    <property name="kdenlive_id">fade_to_black</property>
    <property name="alpha">00:00:00.000=1;00:00:00.317=0</property>
   </filter>
  </entry>
 </playlist>
 <playlist id="playlist55"/>
 <tractor id="tractor27" in="00:00:00.000" out="00:01:30.747">
  <property name="kdenlive:trackheight">67</property>
  <property name="kdenlive:timeline_active">1</property>
  <property name="kdenlive:collapsed">0</property>
  <property name="kdenlive:thumbs_format"/>
  <property name="kdenlive:audio_rec"/>
  <track hide="audio" producer="playlist54"/>
  <track hide="audio" producer="playlist55"/>
 </tractor>
 <playlist id="playlist56">
  <blank length="00:00:47.981"/>
  <entry producer="producer36" in="00:00:00.000" out="00:00:09.459">
   <property name="kdenlive:id">27</property>
   <filter id="filter244">
    <property name="rotate_center">1</property>
    <property name="mlt_service">qtblend</property>
    <property name="kdenlive_id">qtblend</property>
    <property name="rect">00:00:00.000=2038 2 1920 1080 1.000000;00:00:00.918=654 -531 1920 1080 1.000000</property>
    <property name="rotation">00:00:00.000=0;00:00:00.918=0</property>
    <property name="compositing">0</property>
    <property name="distort">0</property>
    <property name="kdenlive:collapsed">0</property>
   </filter>
   <filter id="filter245" in="00:00:08.709" out="00:00:09.459">
    <property name="start">1</property>
    <property name="level">1</property>
    <property name="mlt_service">brightness</property>
    <property name="kdenlive_id">fade_to_black</property>
    <property name="alpha">00:00:00.000=1;00:00:00.751=0</property>
   </filter>
  </entry>
  <blank length="00:00:29.429"/>
  <entry producer="producer35" in="00:00:00.000" out="00:00:04.004">
   <property name="kdenlive:id">51</property>
   <filter id="filter246">
    <property name="rotate_center">1</property>
    <property name="mlt_service">qtblend</property>
    <property name="kdenlive_id">qtblend</property>
    <property name="rect">00:00:00.000=-7680 -1995 12238 9619 1.000000;00:00:00.534=1 242 1920 1080 1.000000</property>
    <property name="rotation">00:00:00.000=0;00:00:00.534=0</property>
    <property name="compositing">0</property>
    <property name="distort">0</property>
    <property name="kdenlive:collapsed">0</property>
   </filter>
   <filter id="filter247" in="00:00:03.670" out="00:00:04.004">
    <property name="start">1</property>
    <property name="level">1</property>
    <property name="mlt_service">brightness</property>
    <property name="kdenlive_id">fade_to_black</property>
    <property name="alpha">00:00:00.000=1;00:00:00.334=0</property>
   </filter>
  </entry>
 </playlist>
 <playlist id="playlist57"/>
 <tractor id="tractor28" in="00:00:00.000" out="00:01:30.898">
  <property name="kdenlive:trackheight">67</property>
  <property name="kdenlive:timeline_active">1</property>
  <property name="kdenlive:collapsed">0</property>
  <property name="kdenlive:thumbs_format"/>
  <property name="kdenlive:audio_rec"/>
  <track hide="audio" producer="playlist56"/>
  <track hide="audio" producer="playlist57"/>
 </tractor>
 <playlist id="playlist58">
  <blank length="00:00:52.452"/>
  <entry producer="producer37" in="00:00:00.000" out="00:00:04.988">
   <property name="kdenlive:id">29</property>
   <filter id="filter248">
    <property name="rotate_center">1</property>
    <property name="mlt_service">qtblend</property>
    <property name="kdenlive_id">qtblend</property>
    <property name="rect">00:00:00.000=945 176 962 709 1.000000</property>
    <property name="rotation">00:00:00.000=0</property>
    <property name="compositing">0</property>
    <property name="distort">0</property>
    <property name="kdenlive:collapsed">0</property>
   </filter>
   <filter id="filter249" out="00:00:00.534">
    <property name="start">1</property>
    <property name="level">1</property>
    <property name="mlt_service">brightness</property>
    <property name="kdenlive_id">fade_from_zzz-fade-in</property>
    <property name="alpha">00:00:00.000=0;00:00:00.534=1</property>
    <property name="kdenlive:collapsed">0</property>
   </filter>
   <filter id="filter250" in="00:00:04.488" out="00:00:04.988">
    <property name="start">1</property>
    <property name="level">1</property>
    <property name="mlt_service">brightness</property>
    <property name="kdenlive_id">fade_to_zzz-fade-out</property>
    <property name="alpha">00:00:00.000=1;00:00:00.501=0</property>
    <property name="kdenlive:collapsed">0</property>
   </filter>
  </entry>
  <blank length="00:00:02.636"/>
  <entry producer="producer38" in="00:00:00.000" out="00:00:04.988">
   <property name="kdenlive:id">30</property>
   <filter id="filter251" out="00:00:00.534">
    <property name="start">1</property>
    <property name="level">1</property>
    <property name="mlt_service">brightness</property>
    <property name="kdenlive_id">fade_from_zzz-fade-in</property>
    <property name="alpha">00:00:00.000=0;00:00:00.534=1</property>
    <property name="kdenlive:collapsed">0</property>
   </filter>
   <filter id="filter252">
    <property name="rotate_center">1</property>
    <property name="mlt_service">qtblend</property>
    <property name="kdenlive_id">qtblend</property>
    <property name="rect">00:00:00.000=198 447 1518 591 1.000000</property>
    <property name="rotation">00:00:00.000=0</property>
    <property name="compositing">0</property>
    <property name="distort">0</property>
    <property name="kdenlive:collapsed">0</property>
   </filter>
  </entry>
 </playlist>
 <playlist id="playlist59"/>
 <tractor id="tractor29" in="00:00:00.000" out="00:01:05.088">
  <property name="kdenlive:trackheight">67</property>
  <property name="kdenlive:timeline_active">1</property>
  <property name="kdenlive:collapsed">0</property>
  <property name="kdenlive:thumbs_format"/>
  <property name="kdenlive:audio_rec"/>
  <track hide="audio" producer="playlist58"/>
  <track hide="audio" producer="playlist59"/>
 </tractor>
 <playlist id="playlist60">
  <blank length="00:00:58.792"/>
  <entry producer="producer39" in="00:00:00.000" out="00:00:06.990">
   <property name="kdenlive:id">31</property>
   <filter id="filter253" out="00:00:00.534">
    <property name="start">1</property>
    <property name="level">1</property>
    <property name="mlt_service">brightness</property>
    <property name="kdenlive_id">fade_from_zzz-fade-in</property>
    <property name="alpha">00:00:00.000=0;00:00:00.534=1</property>
    <property name="kdenlive:collapsed">0</property>
   </filter>
   <filter id="filter254" in="00:00:06.490" out="00:00:06.990">
    <property name="start">1</property>
    <property name="level">1</property>
    <property name="mlt_service">brightness</property>
    <property name="kdenlive_id">fade_to_zzz-fade-out</property>
    <property name="alpha">00:00:00.000=1;00:00:00.501=0</property>
    <property name="kdenlive:collapsed">0</property>
   </filter>
  </entry>
 </playlist>
 <playlist id="playlist61"/>
 <tractor id="tractor30" in="00:00:00.000" out="00:01:05.789">
  <property name="kdenlive:trackheight">67</property>
  <property name="kdenlive:timeline_active">1</property>
  <property name="kdenlive:collapsed">0</property>
  <property name="kdenlive:thumbs_format"/>
  <property name="kdenlive:audio_rec"/>
  <track hide="audio" producer="playlist60"/>
  <track hide="audio" producer="playlist61"/>
 </tractor>
 <playlist id="playlist62">
  <blank length="00:01:00.100"/>
  <entry producer="producer40" in="00:00:00.000" out="00:00:04.988">
   <property name="kdenlive:id">32</property>
   <filter id="filter255" out="00:00:00.534">
    <property name="start">1</property>
    <property name="level">1</property>
    <property name="mlt_service">brightness</property>
    <property name="kdenlive_id">fade_from_zzz-fade-in</property>
    <property name="alpha">00:00:00.000=0;00:00:00.534=1</property>
    <property name="kdenlive:collapsed">0</property>
   </filter>
  </entry>
 </playlist>
 <playlist id="playlist63"/>
 <tractor id="tractor31" in="00:00:00.000" out="00:01:05.088">
  <property name="kdenlive:trackheight">67</property>
  <property name="kdenlive:timeline_active">1</property>
  <property name="kdenlive:collapsed">0</property>
  <property name="kdenlive:thumbs_format"/>
  <property name="kdenlive:audio_rec"/>
  <track hide="audio" producer="playlist62"/>
  <track hide="audio" producer="playlist63"/>
 </tractor>
 <playlist id="playlist64">
  <entry producer="producer77" in="00:00:00.000" out="00:00:07.941">
   <property name="kdenlive:id">107</property>
   <property name="kdenlive:activeeffect">2</property>
   <filter id="filter256">
    <property name="rotate_center">1</property>
    <property name="mlt_service">qtblend</property>
    <property name="kdenlive_id">qtblend</property>
    <property name="rect">00:00:00.000=307 483 561 200 1.000000;00:00:07.941=243 482 561 200 1.000000</property>
    <property name="rotation">00:00:00.000=0;00:00:07.941=0</property>
    <property name="compositing">0</property>
    <property name="distort">0</property>
    <property name="kdenlive:collapsed">0</property>
   </filter>
   <filter id="filter257" in="00:00:00.150" out="00:00:07.941">
    <property name="start">1</property>
    <property name="level">1</property>
    <property name="mlt_service">brightness</property>
    <property name="kdenlive_id">fade_to_black</property>
    <property name="alpha">00:00:00.000=1;00:00:07.791=0</property>
    <property name="kdenlive:collapsed">0</property>
   </filter>
   <filter id="filter258">
    <property name="version">0.1</property>
    <property name="mlt_service">frei0r.distort0r</property>
    <property name="kdenlive_id">frei0r.distort0r</property>
    <property name="Amplitude">00:00:00.000=0.013</property>
    <property name="Frequency">00:00:00.000=0.014</property>
    <property name="kdenlive:collapsed">0</property>
   </filter>
  </entry>
 </playlist>
 <playlist id="playlist65"/>
 <tractor id="tractor32" in="00:00:00.000" out="00:00:07.941">
  <property name="kdenlive:trackheight">67</property>
  <property name="kdenlive:timeline_active">1</property>
  <property name="kdenlive:collapsed">0</property>
  <property name="kdenlive:thumbs_format"/>
  <property name="kdenlive:audio_rec"/>
  <track hide="audio" producer="playlist64"/>
  <track hide="audio" producer="playlist65"/>
 </tractor>
 <playlist id="playlist66">
  <entry producer="producer78" in="00:00:00.000" out="00:00:07.941">
   <property name="kdenlive:id">106</property>
   <property name="kdenlive:activeeffect">2</property>
   <filter id="filter259">
    <property name="rotate_center">1</property>
    <property name="mlt_service">qtblend</property>
    <property name="kdenlive_id">qtblend</property>
    <property name="rect">00:00:00.000=814 244 280 181 1.000000;00:00:07.941=729 243 280 181 1.000000</property>
    <property name="rotation">00:00:00.000=0;00:00:07.941=0</property>
    <property name="compositing">0</property>
    <property name="distort">0</property>
    <property name="kdenlive:collapsed">0</property>
   </filter>
   <filter id="filter260" in="00:00:-0.017" out="00:00:07.941">
    <property name="start">1</property>
    <property name="level">1</property>
    <property name="mlt_service">brightness</property>
    <property name="kdenlive_id">fade_to_black</property>
    <property name="alpha">00:00:00.000=1;00:00:07.958=0</property>
    <property name="kdenlive:collapsed">0</property>
   </filter>
   <filter id="filter261">
    <property name="version">0.1</property>
    <property name="mlt_service">frei0r.distort0r</property>
    <property name="kdenlive_id">frei0r.distort0r</property>
    <property name="Amplitude">00:00:00.000=0.019</property>
    <property name="Frequency">00:00:00.000=0.003</property>
    <property name="kdenlive:collapsed">0</property>
   </filter>
  </entry>
 </playlist>
 <playlist id="playlist67"/>
 <tractor id="tractor33" in="00:00:00.000" out="00:00:07.941">
  <property name="kdenlive:trackheight">67</property>
  <property name="kdenlive:timeline_active">1</property>
  <property name="kdenlive:collapsed">0</property>
  <property name="kdenlive:thumbs_format"/>
  <property name="kdenlive:audio_rec"/>
  <track hide="audio" producer="playlist66"/>
  <track hide="audio" producer="playlist67"/>
 </tractor>
 <playlist id="playlist68">
  <entry producer="producer79" in="00:00:00.000" out="00:00:07.941">
   <property name="kdenlive:id">108</property>
   <property name="kdenlive:activeeffect">2</property>
   <filter id="filter262">
    <property name="rotate_center">1</property>
    <property name="mlt_service">qtblend</property>
    <property name="kdenlive_id">qtblend</property>
    <property name="rect">00:00:00.000=145 -38 278 283 1.000000;00:00:07.941=112 -36 278 283 1.000000</property>
    <property name="rotation">00:00:00.000=0;00:00:07.941=0</property>
    <property name="compositing">0</property>
    <property name="distort">0</property>
    <property name="kdenlive:collapsed">0</property>
   </filter>
   <filter id="filter263" in="00:00:-0.017" out="00:00:07.941">
    <property name="start">1</property>
    <property name="level">1</property>
    <property name="mlt_service">brightness</property>
    <property name="kdenlive_id">fade_to_black</property>
    <property name="alpha">00:00:00.000=1;00:00:07.958=0</property>
    <property name="kdenlive:collapsed">0</property>
   </filter>
   <filter id="filter264">
    <property name="version">0.1</property>
    <property name="mlt_service">frei0r.distort0r</property>
    <property name="kdenlive_id">frei0r.distort0r</property>
    <property name="Amplitude">00:00:00.000=0.007</property>
    <property name="Frequency">00:00:00.000=0.004</property>
    <property name="kdenlive:collapsed">0</property>
   </filter>
  </entry>
 </playlist>
 <playlist id="playlist69"/>
 <tractor id="tractor34" in="00:00:00.000" out="00:00:07.941">
  <property name="kdenlive:trackheight">67</property>
  <property name="kdenlive:timeline_active">1</property>
  <property name="kdenlive:collapsed">0</property>
  <property name="kdenlive:thumbs_format"/>
  <property name="kdenlive:audio_rec"/>
  <track hide="audio" producer="playlist68"/>
  <track hide="audio" producer="playlist69"/>
 </tractor>
 <playlist id="playlist70">
  <entry producer="producer79" in="00:00:00.000" out="00:00:07.941">
   <property name="kdenlive:id">108</property>
   <filter id="filter265">
    <property name="rotate_center">1</property>
    <property name="mlt_service">qtblend</property>
    <property name="kdenlive_id">qtblend</property>
    <property name="rect">00:00:00.000=1466 556 406 240 1.000000;00:00:07.941=1321 552 406 240 1.000000</property>
    <property name="rotation">00:00:00.000=0;00:00:07.941=0</property>
    <property name="compositing">0</property>
    <property name="distort">0</property>
    <property name="kdenlive:collapsed">0</property>
   </filter>
   <filter id="filter266" in="00:00:-0.017" out="00:00:07.941">
    <property name="start">1</property>
    <property name="level">1</property>
    <property name="mlt_service">brightness</property>
    <property name="kdenlive_id">fade_to_black</property>
    <property name="alpha">00:00:00.000=1;00:00:07.958=0</property>
    <property name="kdenlive:collapsed">0</property>
   </filter>
   <filter id="filter267">
    <property name="version">0.1</property>
    <property name="mlt_service">frei0r.distort0r</property>
    <property name="kdenlive_id">frei0r.distort0r</property>
    <property name="Amplitude">00:00:00.000=0.039</property>
    <property name="Frequency">00:00:00.000=0.019</property>
    <property name="kdenlive:collapsed">0</property>
   </filter>
  </entry>
 </playlist>
 <playlist id="playlist71"/>
 <tractor id="tractor35" in="00:00:00.000" out="00:00:07.941">
  <property name="kdenlive:trackheight">67</property>
  <property name="kdenlive:timeline_active">1</property>
  <property name="kdenlive:collapsed">0</property>
  <property name="kdenlive:thumbs_format"/>
  <property name="kdenlive:audio_rec"/>
  <track hide="audio" producer="playlist70"/>
  <track hide="audio" producer="playlist71"/>
 </tractor>
 <playlist id="playlist72">
  <entry producer="producer78" in="00:00:00.000" out="00:00:07.941">
   <property name="kdenlive:id">106</property>
   <filter id="filter268">
    <property name="rotate_center">1</property>
    <property name="mlt_service">qtblend</property>
    <property name="kdenlive_id">qtblend</property>
    <property name="rect">00:00:00.000=1482 106 280 181 1.000000;00:00:07.941=1362 104 280 181 1.000000</property>
    <property name="rotation">00:00:00.000=0;00:00:07.941=0</property>
    <property name="compositing">0</property>
    <property name="distort">0</property>
    <property name="kdenlive:collapsed">0</property>
   </filter>
   <filter id="filter269" in="00:00:-0.017" out="00:00:07.941">
    <property name="start">1</property>
    <property name="level">1</property>
    <property name="mlt_service">brightness</property>
    <property name="kdenlive_id">fade_to_black</property>
    <property name="alpha">00:00:00.000=1;00:00:07.958=0</property>
    <property name="kdenlive:collapsed">0</property>
   </filter>
   <filter id="filter270">
    <property name="version">0.1</property>
    <property name="mlt_service">frei0r.distort0r</property>
    <property name="kdenlive_id">frei0r.distort0r</property>
    <property name="Amplitude">00:00:00.000=0.02</property>
    <property name="Frequency">00:00:00.000=0.012</property>
    <property name="kdenlive:collapsed">0</property>
   </filter>
  </entry>
 </playlist>
 <playlist id="playlist73"/>
 <tractor id="tractor36" in="00:00:00.000" out="00:00:07.941">
  <property name="kdenlive:trackheight">67</property>
  <property name="kdenlive:timeline_active">1</property>
  <property name="kdenlive:collapsed">0</property>
  <property name="kdenlive:thumbs_format"/>
  <property name="kdenlive:audio_rec"/>
  <track hide="audio" producer="playlist72"/>
  <track hide="audio" producer="playlist73"/>
 </tractor>
 <playlist id="playlist74">
  <blank length="00:00:06.139"/>
  <entry producer="producer10" in="00:00:00.000" out="00:00:11.144">
   <property name="kdenlive:id">11</property>
   <filter id="filter271">
    <property name="rotate_center">1</property>
    <property name="mlt_service">qtblend</property>
    <property name="kdenlive_id">zzz-b-move</property>
    <property name="rect">00:00:00.000=1930 4 1920 1080 1.000000;00:00:04.538=-5 -34 1920 1080 1.000000</property>
    <property name="rotation">00:00:00.000=0;00:00:04.538=0</property>
    <property name="compositing">0</property>
    <property name="distort">0</property>
    <property name="kdenlive:collapsed">0</property>
   </filter>
   <filter id="filter272" in="00:00:10.644" out="00:00:11.144">
    <property name="start">1</property>
    <property name="level">1</property>
    <property name="mlt_service">brightness</property>
    <property name="kdenlive_id">fade_to_black</property>
    <property name="alpha">00:00:00.000=1;00:00:00.501=0</property>
    <property name="kdenlive:collapsed">0</property>
   </filter>
  </entry>
 </playlist>
 <playlist id="playlist75"/>
 <tractor id="tractor37" in="00:00:00.000" out="00:00:17.284">
  <property name="kdenlive:trackheight">67</property>
  <property name="kdenlive:timeline_active">1</property>
  <property name="kdenlive:collapsed">0</property>
  <property name="kdenlive:thumbs_format"/>
  <property name="kdenlive:audio_rec"/>
  <track hide="audio" producer="playlist74"/>
  <track hide="audio" producer="playlist75"/>
 </tractor>
 <playlist id="playlist76">
  <blank length="00:00:11.011"/>
  <entry producer="producer14" in="00:00:00.000" out="00:00:05.856">
   <property name="kdenlive:id">13</property>
   <filter id="filter273">
    <property name="rotate_center">1</property>
    <property name="mlt_service">qtblend</property>
    <property name="kdenlive_id">qtblend</property>
    <property name="rect">00:00:00.000=1930 4 1920 1080 1.000000;00:00:04.371=-5 -34 1920 1080 1.000000</property>
    <property name="rotation">00:00:00.000=0;00:00:04.371=0</property>
    <property name="compositing">0</property>
    <property name="distort">0</property>
    <property name="kdenlive:collapsed">0</property>
   </filter>
   <filter id="filter274" in="00:00:05.339" out="00:00:05.856">
    <property name="start">1</property>
    <property name="level">1</property>
    <property name="mlt_service">brightness</property>
    <property name="kdenlive_id">fade_to_black</property>
    <property name="alpha">00:00:00.000=1;00:00:00.517=0</property>
    <property name="kdenlive:collapsed">0</property>
   </filter>
  </entry>
 </playlist>
 <playlist id="playlist77"/>
 <tractor id="tractor38" in="00:00:00.000" out="00:00:16.867">
  <property name="kdenlive:trackheight">67</property>
  <property name="kdenlive:timeline_active">1</property>
  <property name="kdenlive:collapsed">0</property>
  <property name="kdenlive:thumbs_format"/>
  <property name="kdenlive:audio_rec"/>
  <track hide="audio" producer="playlist76"/>
  <track hide="audio" producer="playlist77"/>
 </tractor>
 <tractor id="tractor39" in="00:00:00.000" out="00:13:16.517">
  <property name="kdenlive:duration">00:04:55;59</property>
  <property name="kdenlive:maxduration">17743</property>
  <property name="kdenlive:clipname">Sequence 1</property>
  <property name="kdenlive:description"/>
  <property name="kdenlive:uuid">{8901b5d4-1ed2-4776-8b59-310bfe356f33}</property>
  <property name="kdenlive:producer_type">17</property>
  <property name="kdenlive:id">3</property>
  <property name="kdenlive:clip_type">0</property>
  <property name="kdenlive:file_hash">a84112e516b1001c9a2984d02e2c3c15</property>
  <property name="kdenlive:folderid">2</property>
  <property name="kdenlive:sequenceproperties.activeTrack">11</property>
  <property name="kdenlive:sequenceproperties.audioTarget">1</property>
  <property name="kdenlive:sequenceproperties.disablepreview">0</property>
  <property name="kdenlive:sequenceproperties.documentuuid">{8901b5d4-1ed2-4776-8b59-310bfe356f33}</property>
  <property name="kdenlive:sequenceproperties.hasAudio">1</property>
  <property name="kdenlive:sequenceproperties.hasVideo">1</property>
  <property name="kdenlive:sequenceproperties.position">17429</property>
  <property name="kdenlive:sequenceproperties.scrollPos">2189</property>
  <property name="kdenlive:sequenceproperties.tracks">4</property>
  <property name="kdenlive:sequenceproperties.tracksCount">39</property>
  <property name="kdenlive:sequenceproperties.verticalzoom">1</property>
  <property name="kdenlive:sequenceproperties.videoTarget">2</property>
  <property name="kdenlive:sequenceproperties.zonein">14325</property>
  <property name="kdenlive:sequenceproperties.zoneout">19779</property>
  <property name="kdenlive:sequenceproperties.zoom">11</property>
  <property name="kdenlive:sequenceproperties.groups">[
    {
        "children": [
            {
                "data": "5:12404",
                "leaf": "clip",
                "type": "Leaf"
            },
            {
                "data": "9:12404",
                "leaf": "clip",
                "type": "Leaf"
            }
        ],
        "type": "AVSplit"
    }
]
</property>
  <property name="kdenlive:sequenceproperties.guides">[
]
</property>
  <track producer="producer0"/>
  <track producer="tractor0"/>
  <track producer="tractor1"/>
  <track producer="tractor2"/>
  <track producer="tractor3"/>
  <track producer="tractor4"/>
  <track producer="tractor5"/>
  <track producer="tractor6"/>
  <track producer="tractor7"/>
  <track producer="tractor8"/>
  <track producer="tractor9"/>
  <track producer="tractor10"/>
  <track producer="tractor11"/>
  <track producer="tractor12"/>
  <track producer="tractor13"/>
  <track producer="tractor14"/>
  <track producer="tractor15"/>
  <track producer="tractor16"/>
  <track producer="tractor17"/>
  <track producer="tractor18"/>
  <track producer="tractor19"/>
  <track producer="tractor20"/>
  <track producer="tractor21"/>
  <track producer="tractor22"/>
  <track producer="tractor23"/>
  <track producer="tractor24"/>
  <track producer="tractor25"/>
  <track producer="tractor26"/>
  <track producer="tractor27"/>
  <track producer="tractor28"/>
  <track producer="tractor29"/>
  <track producer="tractor30"/>
  <track producer="tractor31"/>
  <track producer="tractor32"/>
  <track producer="tractor33"/>
  <track producer="tractor34"/>
  <track producer="tractor35"/>
  <track producer="tractor36"/>
  <track producer="tractor37"/>
  <track producer="tractor38"/>
  <transition id="transition0">
   <property name="a_track">0</property>
   <property name="b_track">1</property>
   <property name="mlt_service">mix</property>
   <property name="kdenlive_id">mix</property>
   <property name="internal_added">237</property>
   <property name="always_active">1</property>
   <property name="accepts_blanks">1</property>
   <property name="sum">1</property>
  </transition>
  <transition id="transition1">
   <property name="a_track">0</property>
   <property name="b_track">2</property>
   <property name="mlt_service">mix</property>
   <property name="kdenlive_id">mix</property>
   <property name="internal_added">237</property>
   <property name="always_active">1</property>
   <property name="accepts_blanks">1</property>
   <property name="sum">1</property>
  </transition>
  <transition id="transition2">
   <property name="a_track">0</property>
   <property name="b_track">3</property>
   <property name="mlt_service">mix</property>
   <property name="kdenlive_id">mix</property>
   <property name="internal_added">237</property>
   <property name="always_active">1</property>
   <property name="accepts_blanks">1</property>
   <property name="sum">1</property>
  </transition>
  <transition id="transition3">
   <property name="a_track">0</property>
   <property name="b_track">4</property>
   <property name="mlt_service">mix</property>
   <property name="kdenlive_id">mix</property>
   <property name="internal_added">237</property>
   <property name="always_active">1</property>
   <property name="accepts_blanks">1</property>
   <property name="sum">1</property>
  </transition>
  <transition id="transition4">
   <property name="a_track">0</property>
   <property name="b_track">5</property>
   <property name="mlt_service">mix</property>
   <property name="kdenlive_id">mix</property>
   <property name="internal_added">237</property>
   <property name="always_active">1</property>
   <property name="accepts_blanks">1</property>
   <property name="sum">1</property>
  </transition>
  <transition id="transition5">
   <property name="a_track">0</property>
   <property name="b_track">6</property>
   <property name="mlt_service">mix</property>
   <property name="kdenlive_id">mix</property>
   <property name="internal_added">237</property>
   <property name="always_active">1</property>
   <property name="accepts_blanks">1</property>
   <property name="sum">1</property>
  </transition>
  <transition id="transition6">
   <property name="a_track">0</property>
   <property name="b_track">7</property>
   <property name="compositing">0</property>
   <property name="distort">0</property>
   <property name="rotate_center">0</property>
   <property name="mlt_service">qtblend</property>
   <property name="always_active">1</property>
   <property name="internal_added">237</property>
  </transition>
  <transition id="transition7">
   <property name="a_track">0</property>
   <property name="b_track">8</property>
   <property name="compositing">0</property>
   <property name="distort">0</property>
   <property name="rotate_center">0</property>
   <property name="mlt_service">qtblend</property>
   <property name="always_active">1</property>
   <property name="internal_added">237</property>
  </transition>
  <transition id="transition8">
   <property name="a_track">0</property>
   <property name="b_track">9</property>
   <property name="compositing">0</property>
   <property name="distort">0</property>
   <property name="rotate_center">0</property>
   <property name="mlt_service">qtblend</property>
   <property name="always_active">1</property>
   <property name="internal_added">237</property>
  </transition>
  <transition id="transition9">
   <property name="a_track">0</property>
   <property name="b_track">10</property>
   <property name="compositing">0</property>
   <property name="distort">0</property>
   <property name="rotate_center">0</property>
   <property name="mlt_service">qtblend</property>
   <property name="always_active">1</property>
   <property name="internal_added">237</property>
  </transition>
  <transition id="transition10">
   <property name="a_track">0</property>
   <property name="b_track">11</property>
   <property name="compositing">0</property>
   <property name="distort">0</property>
   <property name="rotate_center">0</property>
   <property name="mlt_service">qtblend</property>
   <property name="always_active">1</property>
   <property name="internal_added">237</property>
  </transition>
  <transition id="transition11">
   <property name="a_track">0</property>
   <property name="b_track">12</property>
   <property name="compositing">0</property>
   <property name="distort">0</property>
   <property name="rotate_center">0</property>
   <property name="mlt_service">qtblend</property>
   <property name="always_active">1</property>
   <property name="internal_added">237</property>
  </transition>
  <transition id="transition12">
   <property name="a_track">0</property>
   <property name="b_track">13</property>
   <property name="compositing">0</property>
   <property name="distort">0</property>
   <property name="rotate_center">0</property>
   <property name="mlt_service">qtblend</property>
   <property name="always_active">1</property>
   <property name="internal_added">237</property>
  </transition>
  <transition id="transition13">
   <property name="a_track">0</property>
   <property name="b_track">14</property>
   <property name="compositing">0</property>
   <property name="distort">0</property>
   <property name="rotate_center">0</property>
   <property name="mlt_service">qtblend</property>
   <property name="always_active">1</property>
   <property name="internal_added">237</property>
  </transition>
  <transition id="transition14">
   <property name="a_track">0</property>
   <property name="b_track">15</property>
   <property name="compositing">0</property>
   <property name="distort">0</property>
   <property name="rotate_center">0</property>
   <property name="mlt_service">qtblend</property>
   <property name="always_active">1</property>
   <property name="internal_added">237</property>
  </transition>
  <transition id="transition15">
   <property name="a_track">0</property>
   <property name="b_track">16</property>
   <property name="compositing">0</property>
   <property name="distort">0</property>
   <property name="rotate_center">0</property>
   <property name="mlt_service">qtblend</property>
   <property name="always_active">1</property>
   <property name="internal_added">237</property>
  </transition>
  <transition id="transition16">
   <property name="a_track">0</property>
   <property name="b_track">17</property>
   <property name="compositing">0</property>
   <property name="distort">0</property>
   <property name="rotate_center">0</property>
   <property name="mlt_service">qtblend</property>
   <property name="always_active">1</property>
   <property name="internal_added">237</property>
  </transition>
  <transition id="transition17">
   <property name="a_track">0</property>
   <property name="b_track">18</property>
   <property name="compositing">0</property>
   <property name="distort">0</property>
   <property name="rotate_center">0</property>
   <property name="mlt_service">qtblend</property>
   <property name="always_active">1</property>
   <property name="internal_added">237</property>
  </transition>
  <transition id="transition18">
   <property name="a_track">0</property>
   <property name="b_track">19</property>
   <property name="compositing">0</property>
   <property name="distort">0</property>
   <property name="rotate_center">0</property>
   <property name="mlt_service">qtblend</property>
   <property name="always_active">1</property>
   <property name="internal_added">237</property>
  </transition>
  <transition id="transition19">
   <property name="a_track">0</property>
   <property name="b_track">20</property>
   <property name="compositing">0</property>
   <property name="distort">0</property>
   <property name="rotate_center">0</property>
   <property name="mlt_service">qtblend</property>
   <property name="always_active">1</property>
   <property name="internal_added">237</property>
  </transition>
  <transition id="transition20">
   <property name="a_track">0</property>
   <property name="b_track">21</property>
   <property name="compositing">0</property>
   <property name="distort">0</property>
   <property name="rotate_center">0</property>
   <property name="mlt_service">qtblend</property>
   <property name="always_active">1</property>
   <property name="internal_added">237</property>
  </transition>
  <transition id="transition21">
   <property name="a_track">0</property>
   <property name="b_track">22</property>
   <property name="compositing">0</property>
   <property name="distort">0</property>
   <property name="rotate_center">0</property>
   <property name="mlt_service">qtblend</property>
   <property name="always_active">1</property>
   <property name="internal_added">237</property>
  </transition>
  <transition id="transition22">
   <property name="a_track">0</property>
   <property name="b_track">23</property>
   <property name="compositing">0</property>
   <property name="distort">0</property>
   <property name="rotate_center">0</property>
   <property name="mlt_service">qtblend</property>
   <property name="always_active">1</property>
   <property name="internal_added">237</property>
  </transition>
  <transition id="transition23">
   <property name="a_track">0</property>
   <property name="b_track">24</property>
   <property name="compositing">0</property>
   <property name="distort">0</property>
   <property name="rotate_center">0</property>
   <property name="mlt_service">qtblend</property>
   <property name="always_active">1</property>
   <property name="internal_added">237</property>
  </transition>
  <transition id="transition24">
   <property name="a_track">0</property>
   <property name="b_track">25</property>
   <property name="compositing">0</property>
   <property name="distort">0</property>
   <property name="rotate_center">0</property>
   <property name="mlt_service">qtblend</property>
   <property name="always_active">1</property>
   <property name="internal_added">237</property>
  </transition>
  <transition id="transition25">
   <property name="a_track">0</property>
   <property name="b_track">26</property>
   <property name="compositing">0</property>
   <property name="distort">0</property>
   <property name="rotate_center">0</property>
   <property name="mlt_service">qtblend</property>
   <property name="always_active">1</property>
   <property name="internal_added">237</property>
  </transition>
  <transition id="transition26">
   <property name="a_track">0</property>
   <property name="b_track">27</property>
   <property name="compositing">0</property>
   <property name="distort">0</property>
   <property name="rotate_center">0</property>
   <property name="mlt_service">qtblend</property>
   <property name="always_active">1</property>
   <property name="internal_added">237</property>
  </transition>
  <transition id="transition27">
   <property name="a_track">0</property>
   <property name="b_track">28</property>
   <property name="compositing">0</property>
   <property name="distort">0</property>
   <property name="rotate_center">0</property>
   <property name="mlt_service">qtblend</property>
   <property name="always_active">1</property>
   <property name="internal_added">237</property>
  </transition>
  <transition id="transition28">
   <property name="a_track">0</property>
   <property name="b_track">29</property>
   <property name="compositing">0</property>
   <property name="distort">0</property>
   <property name="rotate_center">0</property>
   <property name="mlt_service">qtblend</property>
   <property name="always_active">1</property>
   <property name="internal_added">237</property>
  </transition>
  <transition id="transition29">
   <property name="a_track">0</property>
   <property name="b_track">30</property>
   <property name="compositing">0</property>
   <property name="distort">0</property>
   <property name="rotate_center">0</property>
   <property name="mlt_service">qtblend</property>
   <property name="always_active">1</property>
   <property name="internal_added">237</property>
  </transition>
  <transition id="transition30">
   <property name="a_track">0</property>
   <property name="b_track">31</property>
   <property name="compositing">0</property>
   <property name="distort">0</property>
   <property name="rotate_center">0</property>
   <property name="mlt_service">qtblend</property>
   <property name="always_active">1</property>
   <property name="internal_added">237</property>
  </transition>
  <transition id="transition31">
   <property name="a_track">0</property>
   <property name="b_track">32</property>
   <property name="compositing">0</property>
   <property name="distort">0</property>
   <property name="rotate_center">0</property>
   <property name="mlt_service">qtblend</property>
   <property name="always_active">1</property>
   <property name="internal_added">237</property>
  </transition>
  <transition id="transition32">
   <property name="a_track">0</property>
   <property name="b_track">33</property>
   <property name="compositing">0</property>
   <property name="distort">0</property>
   <property name="rotate_center">0</property>
   <property name="mlt_service">qtblend</property>
   <property name="always_active">1</property>
   <property name="internal_added">237</property>
  </transition>
  <transition id="transition33">
   <property name="a_track">0</property>
   <property name="b_track">34</property>
   <property name="compositing">0</property>
   <property name="distort">0</property>
   <property name="rotate_center">0</property>
   <property name="mlt_service">qtblend</property>
   <property name="always_active">1</property>
   <property name="internal_added">237</property>
  </transition>
  <transition id="transition34">
   <property name="a_track">0</property>
   <property name="b_track">35</property>
   <property name="compositing">0</property>
   <property name="distort">0</property>
   <property name="rotate_center">0</property>
   <property name="mlt_service">qtblend</property>
   <property name="always_active">1</property>
   <property name="internal_added">237</property>
  </transition>
  <transition id="transition35">
   <property name="a_track">0</property>
   <property name="b_track">36</property>
   <property name="compositing">0</property>
   <property name="distort">0</property>
   <property name="rotate_center">0</property>
   <property name="mlt_service">qtblend</property>
   <property name="always_active">1</property>
   <property name="internal_added">237</property>
  </transition>
  <transition id="transition36">
   <property name="a_track">0</property>
   <property name="b_track">37</property>
   <property name="compositing">0</property>
   <property name="distort">0</property>
   <property name="rotate_center">0</property>
   <property name="mlt_service">qtblend</property>
   <property name="always_active">1</property>
   <property name="internal_added">237</property>
  </transition>
  <transition id="transition37">
   <property name="a_track">0</property>
   <property name="b_track">38</property>
   <property name="compositing">0</property>
   <property name="distort">0</property>
   <property name="rotate_center">0</property>
   <property name="mlt_service">qtblend</property>
   <property name="always_active">1</property>
   <property name="internal_added">237</property>
  </transition>
  <transition id="transition38">
   <property name="a_track">0</property>
   <property name="b_track">39</property>
   <property name="compositing">0</property>
   <property name="distort">0</property>
   <property name="rotate_center">0</property>
   <property name="mlt_service">qtblend</property>
   <property name="always_active">1</property>
   <property name="internal_added">237</property>
  </transition>
  <filter id="filter275">
   <property name="window">75</property>
   <property name="max_gain">20dB</property>
   <property name="mlt_service">volume</property>
   <property name="internal_added">237</property>
   <property name="disable">1</property>
  </filter>
  <filter id="filter276">
   <property name="channel">-1</property>
   <property name="mlt_service">panner</property>
   <property name="internal_added">237</property>
   <property name="start">0.5</property>
   <property name="disable">1</property>
  </filter>
 </tractor>
 <playlist id="main_bin">
  <property name="kdenlive:folder.-1.2">Sequences</property>
  <property name="kdenlive:sequenceFolder">2</property>
  <property name="kdenlive:docproperties.activetimeline">{8901b5d4-1ed2-4776-8b59-310bfe356f33}</property>
  <property name="kdenlive:docproperties.audioChannels">2</property>
  <property name="kdenlive:docproperties.browserurl">C:/Users/shawn/Videos/</property>
  <property name="kdenlive:docproperties.compositing">1</property>
  <property name="kdenlive:docproperties.documentid">1732845040089</property>
  <property name="kdenlive:docproperties.enableTimelineZone">0</property>
  <property name="kdenlive:docproperties.enableexternalproxy">0</property>
  <property name="kdenlive:docproperties.enableproxy">0</property>
  <property name="kdenlive:docproperties.externalproxyparams">./;;.LRV;./;;.MP4</property>
  <property name="kdenlive:docproperties.generateimageproxy">0</property>
  <property name="kdenlive:docproperties.generateproxy">0</property>
  <property name="kdenlive:docproperties.guidesCategories">[&#xd;&#xd;&#xd;&#xd;&#xd;&#xd;&#xd;&#xd;&#xd;&#xd;&#xd;
    {&#xd;&#xd;&#xd;&#xd;&#xd;&#xd;&#xd;&#xd;&#xd;&#xd;&#xd;
        "color": "#9b59b6",&#xd;&#xd;&#xd;&#xd;&#xd;&#xd;&#xd;&#xd;&#xd;&#xd;&#xd;
        "comment": "Category 1",&#xd;&#xd;&#xd;&#xd;&#xd;&#xd;&#xd;&#xd;&#xd;&#xd;&#xd;
        "index": 0&#xd;&#xd;&#xd;&#xd;&#xd;&#xd;&#xd;&#xd;&#xd;&#xd;&#xd;
    },&#xd;&#xd;&#xd;&#xd;&#xd;&#xd;&#xd;&#xd;&#xd;&#xd;&#xd;
    {&#xd;&#xd;&#xd;&#xd;&#xd;&#xd;&#xd;&#xd;&#xd;&#xd;&#xd;
        "color": "#3daee9",&#xd;&#xd;&#xd;&#xd;&#xd;&#xd;&#xd;&#xd;&#xd;&#xd;&#xd;
        "comment": "Category 2",&#xd;&#xd;&#xd;&#xd;&#xd;&#xd;&#xd;&#xd;&#xd;&#xd;&#xd;
        "index": 1&#xd;&#xd;&#xd;&#xd;&#xd;&#xd;&#xd;&#xd;&#xd;&#xd;&#xd;
    },&#xd;&#xd;&#xd;&#xd;&#xd;&#xd;&#xd;&#xd;&#xd;&#xd;&#xd;
    {&#xd;&#xd;&#xd;&#xd;&#xd;&#xd;&#xd;&#xd;&#xd;&#xd;&#xd;
        "color": "#1abc9c",&#xd;&#xd;&#xd;&#xd;&#xd;&#xd;&#xd;&#xd;&#xd;&#xd;&#xd;
        "comment": "Category 3",&#xd;&#xd;&#xd;&#xd;&#xd;&#xd;&#xd;&#xd;&#xd;&#xd;&#xd;
        "index": 2&#xd;&#xd;&#xd;&#xd;&#xd;&#xd;&#xd;&#xd;&#xd;&#xd;&#xd;
    },&#xd;&#xd;&#xd;&#xd;&#xd;&#xd;&#xd;&#xd;&#xd;&#xd;&#xd;
    {&#xd;&#xd;&#xd;&#xd;&#xd;&#xd;&#xd;&#xd;&#xd;&#xd;&#xd;
        "color": "#1cdc9a",&#xd;&#xd;&#xd;&#xd;&#xd;&#xd;&#xd;&#xd;&#xd;&#xd;&#xd;
        "comment": "Category 4",&#xd;&#xd;&#xd;&#xd;&#xd;&#xd;&#xd;&#xd;&#xd;&#xd;&#xd;
        "index": 3&#xd;&#xd;&#xd;&#xd;&#xd;&#xd;&#xd;&#xd;&#xd;&#xd;&#xd;
    },&#xd;&#xd;&#xd;&#xd;&#xd;&#xd;&#xd;&#xd;&#xd;&#xd;&#xd;
    {&#xd;&#xd;&#xd;&#xd;&#xd;&#xd;&#xd;&#xd;&#xd;&#xd;&#xd;
        "color": "#c9ce3b",&#xd;&#xd;&#xd;&#xd;&#xd;&#xd;&#xd;&#xd;&#xd;&#xd;&#xd;
        "comment": "Category 5",&#xd;&#xd;&#xd;&#xd;&#xd;&#xd;&#xd;&#xd;&#xd;&#xd;&#xd;
        "index": 4&#xd;&#xd;&#xd;&#xd;&#xd;&#xd;&#xd;&#xd;&#xd;&#xd;&#xd;
    },&#xd;&#xd;&#xd;&#xd;&#xd;&#xd;&#xd;&#xd;&#xd;&#xd;&#xd;
    {&#xd;&#xd;&#xd;&#xd;&#xd;&#xd;&#xd;&#xd;&#xd;&#xd;&#xd;
        "color": "#fdbc4b",&#xd;&#xd;&#xd;&#xd;&#xd;&#xd;&#xd;&#xd;&#xd;&#xd;&#xd;
        "comment": "Category 6",&#xd;&#xd;&#xd;&#xd;&#xd;&#xd;&#xd;&#xd;&#xd;&#xd;&#xd;
        "index": 5&#xd;&#xd;&#xd;&#xd;&#xd;&#xd;&#xd;&#xd;&#xd;&#xd;&#xd;
    },&#xd;&#xd;&#xd;&#xd;&#xd;&#xd;&#xd;&#xd;&#xd;&#xd;&#xd;
    {&#xd;&#xd;&#xd;&#xd;&#xd;&#xd;&#xd;&#xd;&#xd;&#xd;&#xd;
        "color": "#f39c1f",&#xd;&#xd;&#xd;&#xd;&#xd;&#xd;&#xd;&#xd;&#xd;&#xd;&#xd;
        "comment": "Category 7",&#xd;&#xd;&#xd;&#xd;&#xd;&#xd;&#xd;&#xd;&#xd;&#xd;&#xd;
        "index": 6&#xd;&#xd;&#xd;&#xd;&#xd;&#xd;&#xd;&#xd;&#xd;&#xd;&#xd;
    },&#xd;&#xd;&#xd;&#xd;&#xd;&#xd;&#xd;&#xd;&#xd;&#xd;&#xd;
    {&#xd;&#xd;&#xd;&#xd;&#xd;&#xd;&#xd;&#xd;&#xd;&#xd;&#xd;
        "color": "#f47750",&#xd;&#xd;&#xd;&#xd;&#xd;&#xd;&#xd;&#xd;&#xd;&#xd;&#xd;
        "comment": "Category 8",&#xd;&#xd;&#xd;&#xd;&#xd;&#xd;&#xd;&#xd;&#xd;&#xd;&#xd;
        "index": 7&#xd;&#xd;&#xd;&#xd;&#xd;&#xd;&#xd;&#xd;&#xd;&#xd;&#xd;
    },&#xd;&#xd;&#xd;&#xd;&#xd;&#xd;&#xd;&#xd;&#xd;&#xd;&#xd;
    {&#xd;&#xd;&#xd;&#xd;&#xd;&#xd;&#xd;&#xd;&#xd;&#xd;&#xd;
        "color": "#da4453",&#xd;&#xd;&#xd;&#xd;&#xd;&#xd;&#xd;&#xd;&#xd;&#xd;&#xd;
        "comment": "Category 9",&#xd;&#xd;&#xd;&#xd;&#xd;&#xd;&#xd;&#xd;&#xd;&#xd;&#xd;
        "index": 8&#xd;&#xd;&#xd;&#xd;&#xd;&#xd;&#xd;&#xd;&#xd;&#xd;&#xd;
    }&#xd;&#xd;&#xd;&#xd;&#xd;&#xd;&#xd;&#xd;&#xd;&#xd;&#xd;
]&#xd;&#xd;&#xd;&#xd;&#xd;&#xd;&#xd;&#xd;&#xd;&#xd;&#xd;
</property>
  <property name="kdenlive:docproperties.kdenliveversion">23.08.5</property>
  <property name="kdenlive:docproperties.opensequences">{8901b5d4-1ed2-4776-8b59-310bfe356f33}</property>
  <property name="kdenlive:docproperties.previewextension"/>
  <property name="kdenlive:docproperties.previewparameters"/>
  <property name="kdenlive:docproperties.profile">atsc_1080p_5994</property>
  <property name="kdenlive:docproperties.proxyextension"/>
  <property name="kdenlive:docproperties.proxyimageminsize">2000</property>
  <property name="kdenlive:docproperties.proxyimagesize">800</property>
  <property name="kdenlive:docproperties.proxyminsize">1000</property>
  <property name="kdenlive:docproperties.proxyparams"/>
  <property name="kdenlive:docproperties.proxyresize">640</property>
  <property name="kdenlive:docproperties.rendercategory">Hardware Accelerated (experimental)</property>
  <property name="kdenlive:docproperties.rendercustomquality">-1</property>
  <property name="kdenlive:docproperties.renderendguide">-1</property>
  <property name="kdenlive:docproperties.renderexportaudio">0</property>
  <property name="kdenlive:docproperties.renderfullcolorrange">1</property>
  <property name="kdenlive:docproperties.rendermode">1</property>
  <property name="kdenlive:docproperties.renderplay">0</property>
  <property name="kdenlive:docproperties.renderpreview">0</property>
  <property name="kdenlive:docproperties.renderprofile">NVENC H265 ABR</property>
  <property name="kdenlive:docproperties.renderrescale">0</property>
  <property name="kdenlive:docproperties.renderrescaleheight">540</property>
  <property name="kdenlive:docproperties.renderrescalewidth">960</property>
  <property name="kdenlive:docproperties.renderspeed">1</property>
  <property name="kdenlive:docproperties.renderstartguide">-1</property>
  <property name="kdenlive:docproperties.rendertcoverlay">0</property>
  <property name="kdenlive:docproperties.rendertctype">-1</property>
  <property name="kdenlive:docproperties.rendertwopass">0</property>
  <property name="kdenlive:docproperties.renderurl">C:/Users/shawn/Videos/test9.mp4</property>
  <property name="kdenlive:docproperties.seekOffset">30000</property>
  <property name="kdenlive:docproperties.uuid">{8901b5d4-1ed2-4776-8b59-310bfe356f33}</property>
  <property name="kdenlive:docproperties.version">1.1</property>
  <property name="kdenlive:expandedFolders"/>
  <property name="kdenlive:binZoom">2</property>
  <property name="kdenlive:documentnotes"/>
  <property name="xml_retain">1</property>
  <entry producer="chain0" in="00:00:00.000" out="00:00:17.050"/>
  <entry producer="chain7" in="00:00:00.000" out="00:00:38.772"/>
  <entry producer="chain8" in="00:00:00.000" out="00:00:02.970"/>
  <entry producer="chain9" in="00:00:00.000" out="00:00:03.187"/>
  <entry producer="chain10" in="00:00:00.000" out="00:00:03.704"/>
  <entry producer="producer1" in="00:00:00.000" out="00:00:46.129"/>
  <entry producer="chain11" in="00:00:00.000" out="00:00:03.504"/>
  <entry producer="producer10" in="00:00:00.000" out="00:00:21.021"/>
  <entry producer="producer3" in="00:00:00.000" out="00:00:48.682"/>
  <entry producer="producer14" in="00:00:00.000" out="00:00:24.858"/>
  <entry producer="chain28" in="00:00:00.000" out="00:04:01.535"/>
  <entry producer="chain29" in="00:00:00.000" out="00:00:09.743"/>
  <entry producer="producer26" in="00:00:00.000" out="00:00:21.021"/>
  <entry producer="chain30" in="00:00:00.000" out="00:00:04.538"/>
  <entry producer="producer15" in="00:00:00.000" out="00:00:15.449"/>
  <entry producer="producer21" in="00:00:00.000" out="00:00:15.449"/>
  <entry producer="producer27" in="00:00:00.000" out="00:00:21.021"/>
  <entry producer="producer29" in="00:00:00.000" out="00:00:21.021"/>
  <entry producer="chain31" in="00:00:00.000" out="00:00:07.541"/>
  <entry producer="producer24" in="00:00:00.000" out="00:00:10.878"/>
  <entry producer="chain32" in="00:00:00.000" out="00:00:03.687"/>
  <entry producer="producer2" in="00:00:00.000" out="00:01:41.909"/>
  <entry producer="producer33" in="00:00:00.000" out="00:00:22.439"/>
  <entry producer="producer36" in="00:00:00.000" out="00:00:15.832"/>
  <entry producer="chain33" in="00:00:00.000" out="00:00:05.138"/>
  <entry producer="producer37" in="00:00:00.000" out="00:00:04.988"/>
  <entry producer="producer38" in="00:00:00.000" out="00:00:04.988"/>
  <entry producer="producer39" in="00:00:00.000" out="00:00:15.832"/>
  <entry producer="producer40" in="00:00:00.000" out="00:00:15.832"/>
  <entry producer="chain34" in="00:00:00.000" out="00:00:02.586"/>
  <entry producer="producer5" in="00:00:00.000" out="00:00:47.664"/>
  <entry producer="producer6" in="00:00:00.000" out="00:00:39.740"/>
  <entry producer="producer22" in="00:00:00.000" out="00:00:43.110"/>
  <entry producer="producer23" in="00:00:00.000" out="00:00:50.334"/>
  <entry producer="producer25" in="00:00:00.000" out="00:00:49.366"/>
  <entry producer="producer28" in="00:00:00.000" out="00:00:52.386"/>
  <entry producer="chain35" in="00:00:00.000" out="00:00:05.305"/>
  <entry producer="producer30" in="00:00:00.000" out="00:00:43.110"/>
  <entry producer="chain36" in="00:00:00.000" out="00:00:02.753"/>
  <entry producer="producer11" in="00:00:00.000" out="00:00:43.110"/>
  <entry producer="producer41" in="00:00:00.000" out="00:00:39.740"/>
  <entry producer="producer16" in="00:00:00.000" out="00:00:43.110"/>
  <entry producer="chain37" in="00:00:00.000" out="00:00:01.051"/>
  <entry producer="chain38" in="00:00:00.000" out="00:00:01.285"/>
  <entry producer="producer31" in="00:00:00.000" out="00:00:43.110"/>
  <entry producer="producer32" in="00:00:00.000" out="00:00:43.110"/>
  <entry producer="producer34" in="00:00:00.000" out="00:00:43.110"/>
  <entry producer="producer35" in="00:00:00.000" out="00:00:43.110"/>
  <entry producer="chain39" in="00:00:00.000" out="00:00:03.670"/>
  <entry producer="chain40" in="00:00:00.000" out="00:00:01.518"/>
  <entry producer="producer12" in="00:00:00.000" out="00:00:43.110"/>
  <entry producer="chain41" in="00:00:00.000" out="00:00:05.405"/>
  <entry producer="producer17" in="00:00:00.000" out="00:00:04.988"/>
  <entry producer="producer18" in="00:00:00.000" out="00:00:06.440"/>
  <entry producer="producer19" in="00:00:00.000" out="00:00:42.476"/>
  <entry producer="producer4" in="00:00:00.000" out="00:00:12.679"/>
  <entry producer="producer7" in="00:00:00.000" out="00:00:21.021"/>
  <entry producer="producer8" in="00:00:00.000" out="00:00:21.021"/>
  <entry producer="producer9" in="00:00:00.000" out="00:00:21.021"/>
  <entry producer="producer42" in="00:00:00.000" out="00:00:04.988"/>
  <entry producer="producer13" in="00:00:00.000" out="00:00:21.271"/>
  <entry producer="producer20" in="00:00:00.000" out="00:00:15.832"/>
  <entry producer="chain42" in="00:00:00.000" out="00:00:05.455"/>
  <entry producer="chain43" in="00:00:00.000" out="00:00:01.668"/>
  <entry producer="producer43" in="00:00:00.000" out="00:00:21.021"/>
  <entry producer="chain45" in="00:00:00.000" out="00:00:04.071"/>
  <entry producer="producer44" in="00:00:00.000" out="00:00:07.508"/>
  <entry producer="producer45" in="00:00:00.000" out="00:00:07.508"/>
  <entry producer="producer46" in="00:00:00.000" out="00:00:07.508"/>
  <entry producer="producer60" in="00:00:00.000" out="00:00:04.988"/>
  <entry producer="producer49" in="00:00:00.000" out="00:00:34.568"/>
  <entry producer="producer50" in="00:00:00.000" out="00:00:20.020"/>
  <entry producer="producer56" in="00:00:00.000" out="00:00:15.832"/>
  <entry producer="producer54" in="00:00:00.000" out="00:00:29.446"/>
  <entry producer="producer55" in="00:00:00.000" out="00:00:17.067"/>
  <entry producer="producer57" in="00:00:00.000" out="00:00:15.832"/>
  <entry producer="producer51" in="00:00:00.000" out="00:00:15.832"/>
  <entry producer="producer58" in="00:00:00.000" out="00:00:15.832"/>
  <entry producer="producer52" in="00:00:00.000" out="00:00:19.653"/>
  <entry producer="producer53" in="00:00:00.000" out="00:00:22.973"/>
  <entry producer="producer59" in="00:00:00.000" out="00:00:15.832"/>
  <entry producer="chain46" in="00:00:00.000" out="00:00:22.406"/>
  <entry producer="producer47" in="00:00:00.000" out="00:00:20.370"/>
  <entry producer="producer61" in="00:00:00.000" out="00:00:15.832"/>
  <entry producer="producer63" in="00:00:00.000" out="00:00:15.832"/>
  <entry producer="producer65" in="00:00:00.000" out="00:00:15.832"/>
  <entry producer="producer67" in="00:00:00.000" out="00:00:15.832"/>
  <entry producer="producer68" in="00:00:00.000" out="00:00:15.832"/>
  <entry producer="producer69" in="00:00:00.000" out="00:00:15.832"/>
  <entry producer="producer62" in="00:00:00.000" out="00:00:07.591"/>
  <entry producer="producer64" in="00:00:00.000" out="00:00:13.197"/>
  <entry producer="producer66" in="00:00:00.000" out="00:00:09.376"/>
  <entry producer="producer73" in="00:00:00.000" out="00:00:22.439"/>
  <entry producer="producer76" in="00:00:00.000" out="00:00:22.439"/>
  <entry producer="producer70" in="00:00:00.000" out="00:00:04.988"/>
  <entry producer="producer80" in="00:00:00.000" out="00:00:04.988"/>
  <entry producer="producer71" in="00:00:00.000" out="00:00:21.021"/>
  <entry producer="chain58" in="00:00:00.000" out="00:00:37.287"/>
  <entry producer="producer74" in="00:00:00.000" out="00:00:04.988"/>
  <entry producer="producer75" in="00:00:00.000" out="00:00:04.988"/>
  <entry producer="chain59" in="00:00:00.000" out="00:00:17.417"/>
  <entry producer="chain60" in="00:00:00.000" out="00:00:00.467"/>
  <entry producer="producer78" in="00:00:00.000" out="00:02:06.607"/>
  <entry producer="producer77" in="00:00:00.000" out="00:02:01.201"/>
  <entry producer="producer79" in="00:00:00.000" out="00:02:13.030"/>
  <entry producer="chain61" in="00:00:00.000" out="00:00:07.274"/>
  <entry producer="chain62" in="00:00:00.000" out="00:00:01.201"/>
  <entry producer="chain63" in="00:00:00.000" out="00:00:05.255"/>
  <entry producer="chain64" in="00:00:00.000" out="00:00:05.155"/>
  <entry producer="chain65" in="00:00:00.000" out="00:00:11.228"/>
  <entry producer="chain66" in="00:00:00.000" out="00:00:02.069"/>
  <entry producer="chain67" in="00:00:00.000" out="00:00:06.390"/>
  <entry producer="chain68" in="00:00:00.000" out="00:00:02.252"/>
  <entry producer="chain69" in="00:00:00.000" out="00:00:03.904"/>
  <entry producer="chain70" in="00:00:00.000" out="00:00:28.845"/>
  <entry producer="chain74" in="00:00:00.000" out="00:01:22.573"/>
  <entry producer="chain75" in="00:00:00.000" out="00:00:49.533"/>
  <entry producer="producer72" in="00:00:00.000" out="00:01:25.375"/>
  <entry producer="tractor39" in="00:00:00.000" out="00:05:26.910"/>
  <entry producer="producer82" in="00:00:00.000" out="00:00:04.988"/>
 </playlist>
 <tractor id="tractor40" in="00:00:00.000" out="00:04:56.023">
  <property name="kdenlive:projectTractor">1</property>
  <track producer="tractor39" in="00:00:00.000" out="00:04:56.023"/>
 </tractor>
</mlt>
